<svg width="152" height="50" viewBox="0 0 152 50" fill="none" xmlns="http://www.w3.org/2000/svg">
<path d="M139.746 18.8403H133.706L125.676 5.52631L125.682 18.8403H117.052L115.418 14.8643H106.592L104.964 18.8403H100.028C97.9436 18.8403 95.3376 18.3603 93.8596 16.8643C92.3696 15.3443 91.6136 13.3203 91.6136 10.0903C91.6136 7.4543 92.0816 5.04431 93.8896 3.15431C95.2536 1.74231 97.4216 1.07431 100.346 1.07431H104.398V4.88231L100.428 4.87631C98.8596 4.87631 97.9776 5.11231 97.1476 5.94031C96.4036 6.68031 95.9056 8.0963 95.9056 9.9643C95.9056 11.8543 96.2776 13.2123 97.1116 14.1243C97.7376 14.8163 98.9136 15.0323 100.056 15.0323H101.96L107.934 1.07631H114.252L121.44 17.8723V1.07631H127.92L135.38 13.4403L135.372 1.07631H139.744L139.746 18.8403ZM85.1996 18.8403H89.5416V1.07031H85.2016L85.1996 18.8403ZM80.5756 1.93431C79.2076 1.15431 77.6156 1.07431 75.4656 1.07431H65.6956V18.8403H69.9356V12.3723H74.4856C76.0296 12.3723 76.9616 12.5103 77.5656 13.1523C78.3536 13.9863 78.2656 15.5363 78.2656 16.5923V18.8403H82.5336V15.3143C82.5336 13.7703 82.4256 12.9543 81.8316 12.0943C81.4716 11.5783 80.6716 10.9423 79.7416 10.5883C80.8576 10.1483 82.7616 8.69031 82.7616 5.87431C82.7616 3.88631 81.9396 2.72031 80.5756 1.93431ZM62.7576 15.1283L52.8316 15.1403V11.6203L62.5176 11.6263V7.97631H52.8316V4.77631H62.7576V1.07631H48.5916V18.8403H62.7576V15.1283ZM45.4276 1.07631H38.3656L33.2576 13.1203L27.7276 1.07431H20.7856L20.7916 17.8763L13.5976 1.07431H7.27959L-0.316406 18.8383H4.30759L5.93359 14.8623H14.7616L16.3956 18.8383H25.0256V4.91031L31.1916 18.8383H34.9216L41.0716 4.92831V18.8383H45.4256V1.07431L45.4276 1.07631ZM113.894 11.1643L110.998 4.10831L108.108 11.1643H113.894ZM77.1836 8.36031C76.6116 8.70231 75.9236 8.72631 75.1036 8.72631H69.9336V4.77431H75.1656C75.9156 4.77431 76.6776 4.79831 77.1836 5.08231C77.7116 5.37631 78.0536 5.92231 78.0536 6.67231C78.0536 7.43631 77.7236 8.04831 77.1836 8.36031ZM7.45559 11.1643L10.3436 4.10831L13.2396 11.1643H7.45559ZM151.456 43.7723C151.456 47.5523 149.084 49.3643 144.79 49.3643H136.6V45.5563H144.76C145.548 45.5563 146.112 45.4483 146.466 45.1243C146.625 44.9762 146.752 44.7966 146.838 44.5969C146.924 44.3972 146.967 44.1818 146.966 43.9643C146.972 43.7421 146.929 43.5211 146.84 43.3177C146.75 43.1142 146.616 42.9333 146.448 42.7883C146.13 42.5183 145.698 42.4083 144.97 42.3923C141.008 42.2843 136.024 42.5183 136.024 36.8843C136.024 34.3383 137.638 31.6003 142.1 31.6003H150.556V35.4143H142.816C142.052 35.4143 141.542 35.4383 141.128 35.7143C140.678 36.0083 140.496 36.4283 140.496 37.0003C140.496 37.6603 140.882 38.1223 141.428 38.3143C141.86 38.4643 142.348 38.5003 143.056 38.5143L145.332 38.5743C147.686 38.6263 149.222 39.0163 150.178 40.0023C151.018 40.8843 151.458 41.9223 151.458 43.7723H151.456ZM133.602 40.0023C132.648 39.0223 131.098 38.6263 128.744 38.5723L126.474 38.5123C125.766 38.5003 125.286 38.4643 124.848 38.3143C124.572 38.2243 124.333 38.0478 124.166 37.811C124 37.5742 123.914 37.2899 123.922 37.0003C123.922 36.4283 124.102 36.0083 124.546 35.7143C124.962 35.4383 125.478 35.4143 126.246 35.4143H134.024V31.6003H125.524C121.064 31.6003 119.448 34.3323 119.448 36.8843C119.448 42.5243 124.432 42.2843 128.39 42.3923C129.116 42.4103 129.556 42.5183 129.868 42.7883C130.168 43.0403 130.39 43.4363 130.39 43.9663C130.39 44.4643 130.168 44.8603 129.886 45.1263C129.532 45.4483 128.972 45.5563 128.18 45.5563H119.946V49.3643H128.21C132.504 49.3643 134.876 47.5503 134.876 43.7723C134.876 41.9243 134.444 40.8843 133.602 40.0023ZM117.424 45.6703L107.498 45.6643V42.1603H117.19V38.5003L107.498 38.5063V35.3063H117.424V31.6003H103.258V49.3643H117.424V45.6703ZM98.7236 32.4663C97.3496 31.6783 95.7636 31.6003 93.6196 31.6003H83.8436V49.3643H88.0756V42.9083L92.6396 42.9023C94.1836 42.9023 95.1096 43.0423 95.7196 43.6763C96.5076 44.5163 96.4116 46.0603 96.4116 47.1183V49.3643H100.688V45.8443C100.682 44.3023 100.58 43.4843 99.9796 42.6263C99.6256 42.1043 98.8256 41.4663 97.8996 41.1123C99.0056 40.6743 100.91 39.2203 100.91 36.3983C100.91 34.4183 100.088 33.2523 98.7236 32.4663ZM74.7176 31.6003H61.1576L55.7456 37.4323L50.5456 31.6003H33.4656V49.3643H50.2816L55.7036 43.5083L60.9236 49.3643H69.1796V43.4183H74.4516C78.1576 43.4183 81.8316 42.3923 81.8316 37.4743C81.8316 32.5623 78.0616 31.6003 74.7176 31.6003ZM95.3376 38.8963C94.7616 39.2263 94.0716 39.2523 93.2556 39.2523L88.0776 39.2583V35.3063H93.3156C94.0656 35.3063 94.8276 35.3303 95.3396 35.6063C95.8676 35.9063 96.2036 36.4523 96.2036 37.2043C96.2036 37.9643 95.8736 38.5783 95.3396 38.8963H95.3376ZM74.6696 39.7743H69.1776V35.3063H74.7156C76.2356 35.3063 77.2796 35.9363 77.2796 37.4743C77.2796 38.9983 76.2836 39.7743 74.6696 39.7743ZM58.4416 40.5243L64.9416 33.5283V47.7423L58.4416 40.5243ZM48.1316 45.6643H37.7116V42.1603H47.0016V38.5003L37.7116 38.5063V35.3063H48.3176L52.9716 40.4703L48.1316 45.6643Z" fill="#026FD1"/>
</svg>
