<svg width="134" height="50" viewBox="0 0 134 50" fill="none" xmlns="http://www.w3.org/2000/svg">
<path fill-rule="evenodd" clip-rule="evenodd" d="M61.1736 37.6489H62.849L62.3883 39.785H61.9694L62.3464 38.0258H61.5087L61.1317 39.785H60.7129L61.1736 37.6489ZM63.6029 39.785H63.1841L63.6448 37.6489H64.5244C64.692 37.6489 64.8176 37.6489 64.9014 37.6908C64.9851 37.7327 65.0689 37.7745 65.1108 37.8583C65.1527 37.9421 65.1946 38.0259 65.1946 38.1515C65.1946 38.2772 65.1946 38.3609 65.1527 38.4447C65.1108 38.5285 65.0689 38.6122 64.9851 38.696C64.9432 38.7379 64.8595 38.8217 64.7757 38.8217C64.6919 38.8635 64.6082 38.8635 64.4825 38.9054C64.3988 38.9054 64.2731 38.9054 64.1056 38.9054H63.8124L63.6029 39.785ZM63.8124 38.6122H63.938C64.1474 38.6122 64.315 38.6122 64.3987 38.5704C64.4825 38.5285 64.5244 38.4866 64.5663 38.4447C64.6082 38.3609 64.6501 38.319 64.6501 38.2353C64.6501 38.1934 64.6501 38.1515 64.6082 38.1096C64.5663 38.0677 64.5663 38.0677 64.5244 38.0258C64.4825 38.0258 64.3988 37.984 64.2312 37.984H63.938L63.8124 38.6122ZM65.5715 38.9473C65.5715 38.8217 65.5715 38.696 65.6134 38.5704C65.6553 38.4028 65.7391 38.2353 65.8228 38.0677C65.9066 37.9421 66.0323 37.8164 66.1998 37.7327C66.3673 37.6489 66.5349 37.607 66.7443 37.607C66.9956 37.607 67.205 37.6908 67.3726 37.8583C67.5401 38.0258 67.6239 38.2353 67.6239 38.5285C67.6239 38.7379 67.582 38.9892 67.4563 39.1986C67.3307 39.4081 67.205 39.5756 67.0375 39.7012C66.87 39.8269 66.6605 39.8688 66.4092 39.8688C66.1998 39.8688 66.0323 39.8269 65.9066 39.7431C65.781 39.6594 65.6972 39.5337 65.6134 39.4081C65.6134 39.1986 65.5715 39.073 65.5715 38.9473ZM65.9904 38.9473C65.9904 39.073 66.0323 39.1986 66.116 39.3243C66.1998 39.408 66.3254 39.4918 66.4511 39.4918C66.5768 39.4918 66.7024 39.4499 66.7862 39.3662C66.9118 39.2824 66.9956 39.1567 67.0375 39.0311C67.1213 38.8635 67.1632 38.7379 67.1632 38.5704C67.1632 38.4028 67.1213 38.2772 67.0375 38.1934C66.9537 38.1096 66.8281 38.0677 66.7024 38.0677C66.493 38.0677 66.3255 38.1515 66.1998 38.3609C66.0742 38.4866 65.9904 38.696 65.9904 38.9473ZM68.0427 39.785L68.5035 37.6489H69.2155C69.383 37.6489 69.4668 37.6489 69.5506 37.6489C69.6344 37.6489 69.76 37.6908 69.8019 37.7327C69.8857 37.7745 69.9276 37.8164 69.9694 37.9002C70.0113 37.984 70.0113 38.0677 70.0113 38.1515C70.0113 38.2772 69.9694 38.3609 69.9276 38.4447C69.8438 38.5285 69.76 38.6122 69.6344 38.6541C69.76 38.696 69.8438 38.7379 69.8857 38.8217C69.9275 38.9054 69.9694 38.9892 69.9694 39.073C69.9694 39.1986 69.9275 39.3243 69.8438 39.4499C69.76 39.5756 69.6762 39.6594 69.5506 39.7012C69.4249 39.7431 69.2574 39.785 69.048 39.785H68.0427ZM68.7548 38.5285H69.0899C69.2574 38.5285 69.3412 38.5285 69.4249 38.4866C69.5087 38.4447 69.5506 38.4447 69.5925 38.4028C69.6343 38.3609 69.6344 38.319 69.6344 38.2353C69.6344 38.1934 69.6343 38.1515 69.5925 38.1096C69.5506 38.0677 69.5087 38.0677 69.4668 38.0258C69.4249 38.0258 69.3412 38.0258 69.2155 38.0258H68.8804L68.7548 38.5285ZM68.5453 39.4499H68.9642C69.1317 39.4499 69.2574 39.4499 69.2993 39.4081C69.3412 39.3662 69.4249 39.3662 69.4249 39.2824C69.4668 39.2405 69.4668 39.1567 69.4668 39.1149C69.4668 39.0311 69.4249 38.9892 69.383 38.9473C69.3412 38.9054 69.2574 38.8635 69.1317 38.8635H68.6291L68.5453 39.4499ZM71.8124 39.3243H70.9747L70.7234 39.785H70.2626L71.4773 37.6489H71.9799L72.315 39.785H71.8961L71.8124 39.3243ZM71.7286 38.9473L71.6029 38.1096L71.1422 38.9473H71.7286ZM73.3202 37.6489H73.7391L73.4459 38.9473L74.5768 37.6489H74.9956L74.5768 39.785H74.1579L74.4511 38.4447L73.2783 39.785H72.8595L73.3202 37.6489ZM73.7809 37.0625H73.9904C74.0323 37.1463 74.0323 37.1882 74.0741 37.23C74.116 37.2719 74.1579 37.2719 74.1998 37.2719C74.3254 37.2719 74.4092 37.1882 74.493 37.0625H74.7024C74.6605 37.1882 74.6186 37.3138 74.493 37.3557C74.4092 37.4395 74.3254 37.4813 74.1998 37.4813C74.0741 37.4813 73.9904 37.4395 73.9066 37.3557C73.8647 37.3138 73.8228 37.1882 73.7809 37.0625ZM75.9171 37.6489C75.7914 38.4028 75.582 38.9892 75.3307 39.4081H75.1213L74.9118 40.3295H75.2469L75.3726 39.7431H76.7548L76.6291 40.3295H76.9642L77.1736 39.4081H77.0061L77.383 37.6489H75.9171ZM76.9223 38.0258L76.6291 39.4499H75.8333C76.0427 39.073 76.1684 38.6122 76.294 38.0258H76.9223ZM77.76 39.785L78.2207 37.6489H79.7705L79.6867 37.984H78.5558L78.4721 38.4447H79.5611L79.4773 38.7798H78.3883L78.2626 39.3662H79.4773L79.3935 39.7012H77.76V39.785ZM80.4825 39.785H80.0637L80.5244 37.6489H81.404C81.5715 37.6489 81.6972 37.6489 81.7809 37.6908C81.8647 37.7327 81.9485 37.7745 81.9904 37.8583C82.0323 37.9421 82.0741 38.0259 82.0741 38.1515C82.0741 38.2772 82.0741 38.3609 82.0323 38.4447C81.9904 38.5285 81.9485 38.6122 81.8647 38.696C81.8228 38.7379 81.7391 38.8217 81.6553 38.8217C81.5715 38.8635 81.4878 38.8635 81.3621 38.9054C81.2783 38.9054 81.1527 38.9054 80.9851 38.9054H80.6919L80.4825 39.785ZM80.7338 38.6122H80.8595C81.0689 38.6122 81.2364 38.6122 81.3202 38.5704C81.404 38.5285 81.4459 38.4866 81.4878 38.4447C81.5296 38.3609 81.5715 38.319 81.5715 38.2353C81.5715 38.1934 81.5715 38.1515 81.5296 38.1096C81.4878 38.0677 81.4878 38.0677 81.4459 38.0258C81.404 38.0258 81.3202 37.984 81.1527 37.984H80.8595L80.7338 38.6122ZM84.9223 38.5285H85.5925C85.5925 38.319 85.5506 38.1934 85.4668 38.1096C85.3831 38.0259 85.2574 37.984 85.1317 37.984C85.0061 37.984 84.9223 38.0258 84.8385 38.0677C84.7548 38.1515 84.7129 38.1934 84.671 38.319L84.2522 38.2353C84.294 38.0677 84.3778 37.9002 84.5453 37.8164C84.7129 37.6908 84.9223 37.6489 85.1317 37.6489C85.383 37.6489 85.6344 37.7327 85.76 37.9002C85.9275 38.0677 86.0113 38.2772 86.0113 38.5704C86.0113 38.9054 85.9275 39.1986 85.7181 39.4499C85.5087 39.7012 85.2155 39.8269 84.8804 39.8269C84.4616 39.8269 84.2103 39.6175 84.0846 39.1986L84.5035 39.073C84.5035 39.2405 84.5872 39.3662 84.671 39.4081C84.7548 39.4499 84.8385 39.4918 84.9223 39.4918C85.048 39.4918 85.1736 39.4499 85.2574 39.3662C85.3831 39.2824 85.4668 39.1149 85.5087 38.9473H84.8385L84.9223 38.5285ZM86.9328 37.6489H88.3988L87.938 39.785H87.5192L87.8961 38.0258H87.3097L87.0584 39.1149C87.0166 39.2405 86.9747 39.3662 86.9328 39.4918C86.8909 39.6175 86.8071 39.6594 86.7652 39.7431C86.6815 39.785 86.5977 39.8269 86.4721 39.8269C86.3883 39.8269 86.3045 39.8269 86.1789 39.785L86.2626 39.4081C86.3464 39.4081 86.3883 39.4081 86.3883 39.4081C86.5139 39.4081 86.5977 39.3243 86.6396 39.1149V39.073L86.9328 37.6489ZM88.6919 39.785L89.1527 37.6489H90.7024L90.6186 37.984H89.4878L89.404 38.4447H90.493L90.4092 38.7798H89.3202L89.1946 39.3662H90.4092L90.3254 39.7012H88.6919V39.785ZM91.4563 37.6489H91.8752L91.6658 38.5285C91.7495 38.5285 91.8333 38.5285 91.8752 38.4866C91.9171 38.4447 92.0008 38.3609 92.0846 38.1934C92.1684 38.0258 92.2522 37.9002 92.3359 37.8164C92.3778 37.7327 92.4616 37.6908 92.5454 37.6908C92.6291 37.6489 92.7129 37.6489 92.8804 37.6489H93.0061L92.9223 37.984H92.8385C92.7967 37.984 92.7548 37.984 92.7129 38.0258C92.671 38.0258 92.671 38.0677 92.6291 38.1515C92.5035 38.3609 92.4197 38.4866 92.3359 38.5704C92.2522 38.6541 92.2103 38.696 92.1265 38.696C92.2522 38.7379 92.3778 38.8635 92.4197 39.073V39.1149L92.6291 39.785H92.1684L92.0008 39.1149C92.0008 39.1149 92.0009 39.073 91.959 38.9892C91.9171 38.9054 91.8333 38.8635 91.7077 38.8635L91.4982 39.785H91.0794L91.4563 37.6489ZM94.0951 39.785H93.6762L94.0532 38.0258H93.4249L93.5087 37.6908H95.1841L95.1003 38.0258H94.4721L94.0951 39.785ZM95.7286 39.785H95.3098L95.7705 37.6489H96.6501C96.8176 37.6489 96.9433 37.6489 97.027 37.6908C97.1108 37.7327 97.1946 37.7745 97.2364 37.8583C97.2783 37.9421 97.3202 38.0259 97.3202 38.1515C97.3202 38.2772 97.3202 38.3609 97.2783 38.4447C97.2364 38.5285 97.1946 38.6122 97.1108 38.696C97.0689 38.7379 96.9851 38.8217 96.9014 38.8217C96.8176 38.8635 96.7338 38.8635 96.6082 38.9054C96.5244 38.9054 96.3988 38.9054 96.2312 38.9054H95.938L95.7286 39.785ZM95.9799 38.6122H96.1056C96.315 38.6122 96.4825 38.6122 96.5663 38.5704C96.6501 38.5285 96.692 38.4866 96.7338 38.4447C96.7757 38.3609 96.8176 38.319 96.8176 38.2353C96.8176 38.1934 96.8176 38.1515 96.7757 38.1096C96.7338 38.0677 96.7338 38.0677 96.6919 38.0258C96.6501 38.0258 96.5663 37.984 96.3988 37.984H96.1056L95.9799 38.6122ZM97.7391 38.9473C97.7391 38.8217 97.7391 38.696 97.781 38.5704C97.8228 38.4028 97.9066 38.2353 97.9904 38.0677C98.0742 37.9421 98.1998 37.8164 98.3673 37.7327C98.5349 37.6489 98.7024 37.607 98.9118 37.607C99.1631 37.607 99.3726 37.6908 99.5401 37.8583C99.7076 38.0258 99.7914 38.2353 99.7914 38.5285C99.7914 38.7379 99.7495 38.9892 99.6239 39.1986C99.4982 39.4081 99.3726 39.5756 99.205 39.7012C99.0375 39.8269 98.8281 39.8688 98.5768 39.8688C98.3673 39.8688 98.1998 39.8269 98.0741 39.7431C97.9485 39.6594 97.8647 39.5337 97.781 39.4081C97.7391 39.1986 97.7391 39.073 97.7391 38.9473ZM98.1579 38.9473C98.1579 39.073 98.1998 39.1986 98.2836 39.3243C98.3673 39.408 98.493 39.4918 98.6187 39.4918C98.7443 39.4918 98.87 39.4499 98.9537 39.3662C99.0794 39.2824 99.1632 39.1567 99.205 39.0311C99.2888 38.8635 99.3307 38.7379 99.3307 38.5704C99.3307 38.4028 99.2888 38.2772 99.205 38.1934C99.1213 38.1096 98.9956 38.0677 98.87 38.0677C98.6605 38.0677 98.493 38.1515 98.3673 38.3609C98.1998 38.4866 98.1579 38.696 98.1579 38.9473ZM101.676 38.8217H100.839L100.629 39.785H100.21L100.671 37.6489H101.09L100.922 38.4866H101.76L101.928 37.6489H102.346L101.886 39.785H101.467L101.676 38.8217ZM104.106 38.8217H103.268L103.058 39.785H102.64L103.1 37.6489H103.519L103.352 38.4866H104.189L104.357 37.6489H104.776L104.315 39.785H103.896L104.106 38.8217ZM107.624 37.6489H108.043L107.582 39.785H107.163L107.624 37.6489ZM105.572 37.6489H105.99L105.823 38.4447H106.158C106.367 38.4447 106.535 38.4447 106.661 38.4866C106.786 38.5285 106.87 38.6122 106.912 38.696C106.954 38.7798 106.996 38.9054 106.996 39.0311C106.996 39.2405 106.912 39.408 106.786 39.5337C106.619 39.6594 106.409 39.7431 106.158 39.7431H105.111L105.572 37.6489ZM105.613 39.4499H106.032C106.242 39.4499 106.409 39.408 106.451 39.3243C106.493 39.2405 106.535 39.1567 106.535 39.1149C106.535 39.0311 106.535 38.9892 106.493 38.9473C106.451 38.9054 106.409 38.8635 106.367 38.8635C106.325 38.8635 106.2 38.8217 106.074 38.8217H105.739L105.613 39.4499ZM108.755 39.785H108.168L109.09 38.696L108.545 37.6489H109.006L109.216 38.0258C109.216 38.0258 109.257 38.1515 109.341 38.319V38.3609C109.467 38.2353 109.551 38.1096 109.634 38.0258L109.969 37.6489H110.514L109.551 38.7798L110.053 39.785H109.551L109.383 39.4918C109.299 39.3243 109.257 39.1986 109.216 39.1567C109.174 39.1986 109.09 39.3243 108.922 39.4918L108.755 39.785ZM112.776 37.6489H114.451L113.99 39.785H113.572L113.948 38.0258H113.153L112.776 39.785H112.357L112.776 37.6489ZM115.373 37.6489H116.839L116.378 39.785H115.959L116.336 38.0258H115.75L115.498 39.1567C115.456 39.2824 115.414 39.408 115.373 39.5337C115.331 39.6594 115.247 39.7012 115.205 39.785C115.121 39.8269 115.037 39.8688 114.912 39.8688C114.828 39.8688 114.744 39.8688 114.619 39.8269L114.702 39.4499C114.786 39.4499 114.828 39.4499 114.828 39.4499C114.954 39.4499 115.038 39.3662 115.079 39.1567V39.1149L115.373 37.6489ZM118.514 39.3243H117.676L117.425 39.785H116.964L118.179 37.6489H118.681L119.017 39.785H118.598L118.514 39.3243ZM118.472 38.9473L118.346 38.1096L117.886 38.9473H118.472ZM120.189 39.785H119.77L120.147 38.0258H119.519L119.603 37.6908H121.278L121.195 38.0258H120.566L120.189 39.785ZM121.404 39.785L121.865 37.6489H123.414L123.331 37.984H122.2L122.116 38.4447H123.205L123.121 38.7798H122.032L121.907 39.3662H123.121L123.038 39.7012H121.404V39.785ZM125.09 37.6489H125.509L125.341 38.5285C125.425 38.5285 125.467 38.4866 125.509 38.4447C125.551 38.4028 125.634 38.2772 125.76 38.0677C125.844 37.9421 125.886 37.8583 125.928 37.8164C125.969 37.7745 126.053 37.7327 126.137 37.6908C126.221 37.6489 126.305 37.6489 126.43 37.6489C126.472 37.6489 126.556 37.6489 126.598 37.6489L126.514 37.984C126.472 37.984 126.43 37.984 126.388 37.984C126.305 37.984 126.221 37.984 126.221 38.0258C126.179 38.0677 126.137 38.1515 126.053 38.319C125.928 38.5285 125.802 38.696 125.676 38.7379C125.802 38.7798 125.886 38.9054 125.969 39.1149L126.179 39.8269H125.718L125.551 39.2405C125.509 39.1148 125.467 39.0311 125.425 38.9892C125.383 38.9473 125.341 38.9473 125.257 38.9473L125.048 39.8688H124.629L124.839 38.9473C124.797 38.9473 124.755 38.9473 124.713 38.9892C124.671 39.0311 124.629 39.073 124.587 39.1149L124.503 39.2405L124.462 39.2824L124.043 39.9107H123.54L124.085 39.1567C124.21 38.9892 124.336 38.8635 124.503 38.8635C124.462 38.8217 124.42 38.7798 124.378 38.696C124.336 38.6122 124.294 38.5285 124.294 38.3609C124.294 38.2353 124.252 38.1934 124.252 38.1515C124.21 38.1096 124.168 38.1096 124.127 38.1096C124.085 38.1096 124.085 38.1096 124.001 38.1096L124.085 37.7745C124.127 37.7745 124.168 37.7745 124.21 37.7745C124.336 37.7745 124.378 37.7745 124.462 37.8164C124.503 37.8583 124.545 37.9002 124.587 37.984C124.629 38.0677 124.671 38.1515 124.671 38.2772C124.713 38.4447 124.755 38.5703 124.797 38.6122C124.839 38.6541 124.88 38.6541 124.922 38.6541C124.922 38.6541 124.922 38.6541 124.964 38.6541L125.09 37.6489ZM126.765 39.785L127.226 37.6489H128.776L128.692 37.984H127.561L127.477 38.4447H128.566L128.483 38.7798H127.394L127.268 39.3662H128.483L128.399 39.7012H126.765V39.785ZM129.488 37.6489H129.907L129.613 38.9473L130.744 37.6489H131.163L130.744 39.785H130.325L130.619 38.4447L129.446 39.785H129.027L129.488 37.6489ZM129.99 37.0625H130.2C130.242 37.1463 130.242 37.1882 130.284 37.23C130.325 37.2719 130.367 37.2719 130.409 37.2719C130.535 37.2719 130.619 37.1882 130.702 37.0625H130.912C130.87 37.1882 130.828 37.3138 130.702 37.3557C130.619 37.4395 130.535 37.4813 130.409 37.4813C130.284 37.4813 130.2 37.4395 130.116 37.3557C130.032 37.3138 129.99 37.1882 129.99 37.0625Z" fill="#3B733C"/>
<path fill-rule="evenodd" clip-rule="evenodd" d="M73.8201 33.2512H70.93L71.307 31.2826C70.93 31.5339 70.5112 31.8271 70.1342 32.0784C69.7572 32.3297 69.3384 32.581 68.9195 32.8323C68.5007 33.0418 68.04 33.2512 67.5373 33.3768C67.0347 33.5025 66.4902 33.5863 65.9038 33.5863C65.3175 33.5863 64.8567 33.5025 64.4379 33.2931C64.019 33.1255 63.6839 32.8742 63.4326 32.5391C63.1813 32.2041 63.0138 31.8271 62.93 31.4083C62.8462 30.9475 62.8462 30.4868 62.93 29.9842C63.0557 29.3559 63.2651 28.8114 63.6421 28.3088C63.9771 27.8062 64.396 27.3454 64.8986 26.9685C65.4012 26.5915 65.9876 26.2145 66.6159 25.9213C67.2442 25.6281 67.9143 25.3349 68.5845 25.0836C69.2546 24.8323 69.9667 24.6229 70.6787 24.4554C71.3907 24.2459 72.1028 24.0784 72.7729 23.9109L72.9405 22.9894C73.0661 22.3192 73.108 21.7747 73.0661 21.314C73.0243 20.8533 72.8986 20.4763 72.7311 20.225C72.5216 19.9318 72.2703 19.7643 71.9771 19.6386C71.6421 19.513 71.2651 19.4711 70.8462 19.4711C70.3436 19.4711 69.9667 19.5548 69.6316 19.6805C69.2965 19.8062 69.0452 19.9737 68.7939 20.1831C68.5845 20.3925 68.4169 20.6439 68.2913 20.8952C68.1656 21.1465 68.0819 21.4397 68.04 21.691C67.9981 21.9423 67.9143 22.1936 67.8305 22.403C67.7468 22.6543 67.6211 22.8219 67.4955 23.0313C67.3698 23.1988 67.1604 23.3664 66.9928 23.4501C66.7834 23.5758 66.5321 23.6177 66.2389 23.6177C66.0295 23.6177 65.8201 23.5758 65.6525 23.492C65.485 23.4083 65.3593 23.2826 65.2337 23.115C65.108 22.9475 65.0661 22.78 65.0243 22.5706C64.9824 22.3611 64.9824 22.1517 65.0661 21.9004C65.1499 21.4397 65.4012 20.9789 65.7782 20.5601C66.1552 20.1412 66.6578 19.8062 67.2442 19.4711C67.8305 19.1779 68.5007 18.9266 69.2546 18.759C70.0085 18.5915 70.7625 18.5077 71.5583 18.5077C72.5216 18.5077 73.3175 18.5915 73.9038 18.8009C74.5321 18.9685 74.9928 19.2616 75.3279 19.5967C75.663 19.9318 75.8724 20.3507 75.9562 20.8114C76.04 21.2721 76.04 21.8166 75.9143 22.403L73.8201 33.2512ZM72.5635 24.8323C72.1447 24.958 71.6839 25.1255 71.1813 25.2931C70.7206 25.4606 70.218 25.67 69.7572 25.8794C69.2965 26.0889 68.8358 26.3402 68.4169 26.5496C67.9981 26.8009 67.5792 27.0522 67.2442 27.3454C66.9091 27.6386 66.6159 27.9318 66.3646 28.225C66.1133 28.5601 65.9876 28.8533 65.9038 29.1883C65.8201 29.5234 65.8201 29.8585 65.9038 30.1936C65.9876 30.5287 66.0714 30.78 66.2808 31.0313C66.4483 31.2826 66.6578 31.4501 66.9091 31.6177C67.1604 31.7433 67.4536 31.8271 67.7468 31.8271C68.0818 31.8271 68.375 31.7852 68.7101 31.7014C69.0033 31.6177 69.3384 31.492 69.6316 31.3664C69.9248 31.2407 70.2599 31.0732 70.5531 30.8637C70.8462 30.6543 71.1813 30.4868 71.5164 30.2355L72.5635 24.8323ZM82.4065 32.581C82.7834 32.581 83.1604 32.5391 83.5373 32.4135C83.8724 32.2878 84.2075 32.1203 84.5007 31.9527C84.7939 31.7433 85.0033 31.5339 85.2127 31.2826C85.3803 31.0313 85.5059 30.7381 85.5897 30.4868C85.6735 30.026 85.6316 29.6491 85.464 29.314C85.2965 28.9789 85.0871 28.6857 84.752 28.4344C84.4588 28.1831 84.0818 27.9318 83.663 27.7224C83.2441 27.513 82.8253 27.3035 82.3646 27.0522C81.9457 26.8428 81.485 26.5915 81.0661 26.2983C80.6473 26.047 80.3122 25.7119 79.9771 25.3768C79.6839 25.0418 79.4745 24.6229 79.3489 24.1622C79.2232 23.7014 79.2232 23.1569 79.3489 22.5706C79.4745 21.9842 79.6839 21.4397 80.019 20.937C80.3541 20.4344 80.773 20.0156 81.2756 19.6386C81.7782 19.2617 82.3646 19.0103 82.9928 18.8009C83.6211 18.5915 84.3332 18.5077 85.0452 18.5077C85.5059 18.5077 85.9667 18.5496 86.3855 18.5915C86.8044 18.6753 87.1813 18.8009 87.5583 18.9685C87.9353 19.1779 88.2703 19.4292 88.6054 19.7643C88.9405 20.0993 89.2756 20.5601 89.5688 21.1465L88.3541 22.1098C87.9771 21.2302 87.5164 20.5601 86.8881 20.0994C86.3017 19.6386 85.6316 19.4292 84.8358 19.4292C84.4169 19.4292 84.04 19.4711 83.7049 19.5967C83.3279 19.6805 83.0347 19.848 82.7415 20.0156C82.4483 20.1831 82.2389 20.3925 82.0714 20.6438C81.9038 20.8952 81.7782 21.1046 81.7363 21.3978C81.6525 21.8166 81.6944 22.1936 81.862 22.5287C82.0295 22.8637 82.3227 23.1569 82.6578 23.4082C82.9928 23.6596 83.4117 23.9109 83.8724 24.1203C84.3332 24.3297 84.7939 24.581 85.2965 24.7904C85.7991 24.9999 86.2599 25.2512 86.7206 25.5444C87.1813 25.7957 87.5583 26.0889 87.8934 26.4658C88.2284 26.8009 88.4798 27.2198 88.6054 27.6805C88.7729 28.1412 88.7729 28.6438 88.6473 29.2721C88.5216 29.9004 88.3122 30.4449 87.9771 30.9894C87.6421 31.5339 87.2232 31.9946 86.6787 32.3716C86.1342 32.7486 85.5059 33.0836 84.752 33.2931C83.9981 33.5025 83.1604 33.6281 82.2389 33.6281C81.8201 33.6281 81.4012 33.5863 80.9405 33.5444C80.5216 33.4606 80.1028 33.3349 79.6839 33.1674C79.2651 32.958 78.8462 32.7067 78.4693 32.3716C78.0923 32.0365 77.7154 31.5758 77.4222 30.9894L78.8044 29.9423C79.0557 30.4449 79.307 30.8637 79.5583 31.1988C79.8096 31.5339 80.1028 31.8271 80.3541 32.0365C80.6473 32.2459 80.9405 32.4135 81.2756 32.5391C81.6106 32.4972 81.9876 32.581 82.4065 32.581ZM95.4745 32.581C95.8515 32.581 96.2284 32.5391 96.6054 32.4135C96.9824 32.2878 97.2756 32.1203 97.5688 31.9527C97.8619 31.7433 98.0714 31.5339 98.2808 31.2826C98.4483 31.0313 98.574 30.7381 98.6578 30.4868C98.7415 30.026 98.6996 29.6491 98.5321 29.314C98.3646 28.9789 98.1551 28.6857 97.8201 28.4344C97.5269 28.1831 97.1499 27.9318 96.7311 27.7224C96.3122 27.513 95.8934 27.3035 95.4326 27.0522C95.0138 26.8428 94.553 26.5915 94.1342 26.2983C93.7153 26.047 93.3803 25.7119 93.0452 25.3768C92.752 25.0418 92.5426 24.6229 92.4169 24.1622C92.2913 23.7014 92.2913 23.1569 92.4169 22.5706C92.5426 21.9842 92.752 21.4397 93.0871 20.937C93.4222 20.4344 93.841 20.0156 94.3436 19.6386C94.8462 19.2617 95.4326 19.0103 96.0609 18.8009C96.6892 18.5915 97.4012 18.5077 98.1133 18.5077C98.574 18.5077 99.0347 18.5496 99.4536 18.5915C99.8724 18.6753 100.249 18.8009 100.626 18.9685C101.003 19.1779 101.338 19.4292 101.673 19.7643C102.009 20.0993 102.344 20.5601 102.637 21.1465L101.422 22.1098C101.045 21.2302 100.584 20.5601 99.9562 20.0994C99.3698 19.6386 98.6996 19.4292 97.9038 19.4292C97.485 19.4292 97.108 19.4711 96.7729 19.5967C96.396 19.6805 96.1028 19.848 95.8096 20.0156C95.5164 20.1831 95.307 20.3925 95.1394 20.6438C94.9719 20.8952 94.8462 21.1046 94.8044 21.3978C94.7206 21.8166 94.7625 22.1936 94.93 22.5287C95.0975 22.8637 95.3907 23.1569 95.7258 23.4082C96.0609 23.6596 96.4798 23.9109 96.9405 24.1203C97.4012 24.3297 97.8619 24.581 98.3646 24.7904C98.8672 24.9999 99.3279 25.2512 99.7886 25.5444C100.249 25.7957 100.626 26.0889 100.961 26.4658C101.297 26.8009 101.548 27.2198 101.673 27.6805C101.841 28.1412 101.841 28.6438 101.715 29.2721C101.59 29.9004 101.38 30.4449 101.045 30.9894C100.71 31.5339 100.291 31.9946 99.7468 32.3716C99.2023 32.7486 98.574 33.0836 97.8201 33.2931C97.0661 33.5025 96.2284 33.6281 95.307 33.6281C94.8881 33.6281 94.4693 33.5863 94.0085 33.5444C93.5897 33.4606 93.1709 33.3349 92.752 33.1674C92.3332 32.958 91.9143 32.7067 91.5373 32.3716C91.1604 32.0365 90.7834 31.5758 90.4902 30.9894L91.8724 29.9423C92.1237 30.4449 92.375 30.8637 92.6263 31.1988C92.8776 31.5339 93.1709 31.8271 93.4222 32.0365C93.7154 32.2459 94.0085 32.4135 94.3436 32.5391C94.6787 32.4972 95.0557 32.581 95.4745 32.581ZM106.616 19.3035L108.794 18.4658H109.632L106.783 33.2512H103.935L106.616 19.3035ZM115.035 32.581C115.412 32.581 115.789 32.5391 116.166 32.4135C116.501 32.2878 116.836 32.1203 117.129 31.9527C117.422 31.7433 117.632 31.5339 117.841 31.2826C118.009 31.0313 118.134 30.7381 118.218 30.4868C118.302 30.026 118.26 29.6491 118.092 29.314C117.925 28.9789 117.715 28.6857 117.38 28.4344C117.087 28.1831 116.71 27.9318 116.291 27.7224C115.872 27.513 115.454 27.3035 114.993 27.0522C114.574 26.8428 114.113 26.5915 113.694 26.2983C113.276 26.047 112.94 25.7119 112.605 25.3768C112.312 25.0418 112.103 24.6229 111.977 24.1622C111.851 23.7014 111.851 23.1569 111.977 22.5706C112.103 21.9842 112.312 21.4397 112.647 20.937C112.982 20.4344 113.401 20.0156 113.904 19.6386C114.406 19.2617 114.993 19.0103 115.621 18.8009C116.249 18.5915 116.961 18.5077 117.673 18.5077C118.134 18.5077 118.595 18.5496 119.014 18.5915C119.433 18.6753 119.81 18.8009 120.187 18.9685C120.563 19.1779 120.899 19.4292 121.234 19.7643C121.569 20.0993 121.904 20.5601 122.197 21.1465L120.982 22.1098C120.605 21.2302 120.145 20.5601 119.516 20.0994C118.93 19.6386 118.26 19.4292 117.464 19.4292C117.045 19.4292 116.668 19.4711 116.333 19.5967C115.956 19.6805 115.663 19.848 115.37 20.0156C115.077 20.1831 114.867 20.3925 114.7 20.6438C114.532 20.8952 114.406 21.1046 114.365 21.3978C114.281 21.8166 114.323 22.1936 114.49 22.5287C114.658 22.8637 114.951 23.1569 115.286 23.4082C115.621 23.6596 116.04 23.9109 116.501 24.1203C116.961 24.3297 117.422 24.581 117.925 24.7904C118.427 24.9999 118.888 25.2512 119.349 25.5444C119.81 25.7957 120.187 26.0889 120.522 26.4658C120.857 26.8009 121.108 27.2198 121.234 27.6805C121.401 28.1412 121.401 28.6438 121.276 29.2721C121.15 29.9004 120.94 30.4449 120.605 30.9894C120.27 31.5339 119.851 31.9946 119.307 32.3716C118.762 32.7486 118.134 33.0836 117.38 33.2931C116.626 33.5025 115.789 33.6281 114.867 33.6281C114.448 33.6281 114.029 33.5863 113.569 33.5444C113.15 33.4606 112.731 33.3349 112.312 33.1674C111.893 32.958 111.475 32.7067 111.098 32.3716C110.721 32.0365 110.344 31.5758 110.05 30.9894L111.433 29.9423C111.684 30.4449 111.935 30.8637 112.187 31.1988C112.438 31.5339 112.731 31.8271 112.982 32.0365C113.276 32.2459 113.569 32.4135 113.904 32.5391C114.239 32.4972 114.616 32.581 115.035 32.581ZM131.412 31.4083C130.909 32.0784 130.281 32.581 129.569 32.9999C128.857 33.3768 128.019 33.5863 127.098 33.5863C126.595 33.5863 126.218 33.5025 125.883 33.335C125.548 33.1674 125.297 32.958 125.129 32.6648C124.961 32.3716 124.836 31.9946 124.836 31.6177C124.794 31.1988 124.836 30.7381 124.92 30.2355L126.888 20.0156H124.375L124.501 19.3035C125.297 19.3035 126.009 19.1779 126.595 18.8847C127.181 18.5915 127.684 18.2145 128.103 17.7119C128.522 17.2093 128.899 16.6229 129.234 15.9946C129.569 15.3245 129.862 14.6543 130.155 13.9004H130.993L130.029 18.8428H133.297L133.045 20.0575H129.778L127.81 30.2774C127.768 30.4868 127.768 30.6962 127.81 30.8637C127.851 31.0732 127.935 31.1988 128.061 31.3664C128.187 31.492 128.312 31.6177 128.48 31.7014C128.647 31.7852 128.857 31.8271 129.066 31.8271C129.401 31.8271 129.694 31.7433 129.988 31.5758C130.281 31.4082 130.532 31.2407 130.783 30.9894L131.412 31.4083Z" fill="#3B733C"/>
<path fill-rule="evenodd" clip-rule="evenodd" d="M109.17 14.0254C109.379 14.0254 109.588 14.0673 109.798 14.151C109.965 14.2348 110.133 14.3186 110.259 14.4442C110.384 14.5699 110.468 14.7374 110.51 14.905C110.552 15.0725 110.594 15.2819 110.552 15.4495C110.51 15.6589 110.426 15.8264 110.3 15.994C110.175 16.1615 110.007 16.3291 109.84 16.4547C109.672 16.5804 109.463 16.706 109.253 16.7479C109.044 16.8317 108.834 16.8736 108.583 16.8736C108.374 16.8736 108.164 16.8317 107.955 16.7479C107.787 16.6641 107.62 16.5804 107.494 16.4547C107.368 16.3291 107.285 16.1615 107.243 15.994C107.201 15.8264 107.159 15.617 107.201 15.4495C107.243 15.24 107.327 15.0725 107.452 14.905C107.578 14.7374 107.745 14.5699 107.913 14.4442C108.081 14.3186 108.29 14.1929 108.499 14.151C108.709 14.0673 108.918 14.0254 109.17 14.0254Z" fill="#3B733C"/>
<path fill-rule="evenodd" clip-rule="evenodd" d="M73.9879 32.8743H71.0978L71.4748 30.9058C71.0978 31.1571 70.679 31.4503 70.302 31.7016C69.9251 31.9529 69.5062 32.2042 69.0874 32.4555C68.6685 32.6649 68.2078 32.8743 67.7052 33C67.2025 33.1257 66.6581 33.2094 66.0717 33.2094C65.4853 33.2094 65.0245 33.1257 64.6057 32.9162C64.1868 32.7487 63.8518 32.4974 63.5586 32.1623C63.3073 31.8272 63.1397 31.4503 63.056 31.0314C62.9722 30.5707 62.9722 30.1099 63.0978 29.6073C63.2235 28.9791 63.4329 28.4345 63.8099 27.9319C64.145 27.4293 64.5638 26.9686 65.0664 26.5916C65.569 26.2147 66.1554 25.8377 66.7837 25.5445C67.412 25.2513 68.0821 24.9581 68.7523 24.7068C69.4224 24.4555 70.1345 24.2461 70.8465 24.0785C71.5586 23.8691 72.2706 23.7016 72.9408 23.534L73.1083 22.6126C73.234 21.9424 73.2758 21.3979 73.234 20.9372C73.1921 20.4764 73.0664 20.0995 72.8989 19.8482C72.6895 19.555 72.4382 19.3874 72.145 19.2618C71.8099 19.1361 71.4329 19.0942 71.0141 19.0942C70.5115 19.0942 70.1345 19.178 69.7994 19.3037C69.4643 19.4293 69.213 19.5969 68.9617 19.8063C68.7523 20.0157 68.5848 20.267 68.4591 20.5183C68.3334 20.7696 68.2497 21.0628 68.2078 21.3141C68.1659 21.5654 68.0821 21.8168 67.9984 22.0262C67.9146 22.2775 67.7889 22.445 67.6633 22.6545C67.5376 22.822 67.3282 22.9895 67.1607 23.0733C66.9512 23.199 66.6999 23.2408 66.4067 23.2408C66.1973 23.2408 65.9879 23.1989 65.8204 23.1152C65.6528 23.0314 65.5272 22.9058 65.4015 22.7382C65.2758 22.5707 65.234 22.4031 65.1921 22.1937C65.1502 21.9843 65.1502 21.7749 65.234 21.5236C65.3177 21.0628 65.569 20.6021 65.946 20.1832C66.323 19.7644 66.8256 19.4293 67.412 19.0942C67.9984 18.8011 68.6685 18.5497 69.4224 18.3822C70.1764 18.2147 70.9303 18.1309 71.7261 18.1309C72.6895 18.1309 73.4853 18.2147 74.0717 18.4241C74.6999 18.5916 75.1607 18.8848 75.4957 19.2199C75.8308 19.555 76.0402 19.9738 76.124 20.4346C76.2078 20.8953 76.2078 21.4398 76.0821 22.0262L73.9879 32.8743ZM72.7313 24.4555C72.2706 24.5812 71.8518 24.7487 71.3492 24.9162C70.8884 25.0838 70.3858 25.2932 69.9251 25.5026C69.4643 25.712 69.0036 25.9634 68.5847 26.1728C68.1659 26.4241 67.7471 26.6754 67.412 26.9686C67.0769 27.2618 66.7837 27.555 66.5324 27.8482C66.2811 28.1832 66.1554 28.4764 66.0717 28.8534C65.9879 29.1885 65.9879 29.5236 66.0717 29.8586C66.1554 30.1937 66.2392 30.445 66.4486 30.6963C66.6162 30.9476 66.8256 31.1152 67.0769 31.2827C67.3282 31.4084 67.6214 31.4921 67.9146 31.4921C68.2497 31.4921 68.5429 31.4503 68.8779 31.3665C69.1711 31.2827 69.5062 31.1571 69.7994 31.0314C70.0926 30.9058 70.4277 30.7382 70.7209 30.5288C71.0141 30.3194 71.3491 30.1099 71.6842 29.9005L72.7313 24.4555ZM82.5743 32.2042C82.9512 32.2042 83.3282 32.1623 83.7052 32.0367C84.0821 31.911 84.3753 31.7435 84.6685 31.5759C84.9617 31.3665 85.1711 31.1571 85.3806 30.9058C85.5481 30.6544 85.6738 30.3613 85.7575 30.1099C85.8413 29.6492 85.7994 29.2723 85.6319 28.9372C85.4643 28.6021 85.2549 28.3089 84.9198 28.0576C84.6266 27.8063 84.2497 27.555 83.8308 27.3455C83.412 27.1361 82.9931 26.9267 82.5324 26.6754C82.1136 26.466 81.6528 26.2147 81.234 25.9215C80.8151 25.6702 80.48 25.3351 80.145 25C79.8518 24.6649 79.6423 24.2461 79.5167 23.7853C79.391 23.3246 79.391 22.7801 79.5167 22.1518C79.6423 21.5654 79.8518 21.0209 80.1869 20.5183C80.5219 20.0157 80.9408 19.5969 81.4434 19.2199C81.946 18.8429 82.5324 18.5916 83.1607 18.3822C83.7889 18.1728 84.501 18.089 85.213 18.089C85.6738 18.089 86.1345 18.1309 86.5533 18.1728C86.9722 18.2565 87.3492 18.3822 87.7261 18.5497C88.1031 18.7592 88.4382 19.0105 88.7732 19.3455C89.1083 19.6806 89.4434 20.1414 89.7366 20.7278L88.48 21.6911C88.1031 20.8115 87.6005 20.1414 87.0141 19.6806C86.4277 19.2199 85.7156 19.0105 84.9617 19.0105C84.5429 19.0105 84.1659 19.0524 83.8308 19.178C83.4539 19.2618 83.1607 19.4293 82.8675 19.5969C82.5743 19.7644 82.3649 19.9738 82.1973 20.2251C82.0298 20.4764 81.9041 20.6859 81.8622 20.9791C81.7785 21.3979 81.8204 21.7749 81.9879 22.1099C82.1554 22.445 82.4486 22.7382 82.7837 22.9895C83.1188 23.2408 83.5376 23.4922 83.9984 23.7016C84.4591 23.911 84.9198 24.1623 85.4224 24.3717C85.9251 24.5811 86.3858 24.8325 86.8465 25.1257C87.3073 25.377 87.6842 25.6702 88.0193 26.0471C88.3544 26.3822 88.6057 26.8011 88.7313 27.2618C88.8989 27.7225 88.8989 28.2251 88.7732 28.8534C88.6476 29.4817 88.4382 30.0262 88.1031 30.5707C87.768 31.1152 87.3491 31.5759 86.8046 31.9529C86.2601 32.3298 85.6319 32.6649 84.8779 32.8743C84.124 33.0838 83.2863 33.2094 82.3649 33.2094C81.946 33.2094 81.5272 33.1675 81.0664 33.1257C80.6476 33.0419 80.2287 32.9162 79.8099 32.7487C79.391 32.5393 78.9722 32.288 78.5952 31.911C78.2183 31.5759 77.8413 31.1152 77.5481 30.5288L78.9303 29.4817C79.1816 29.9843 79.4329 30.4031 79.6842 30.7382C79.9355 31.0733 80.2287 31.3665 80.48 31.5759C80.7732 31.7853 81.0664 31.9529 81.4015 32.0785C81.7785 32.1623 82.1554 32.2042 82.5743 32.2042ZM95.6423 32.2042C96.0193 32.2042 96.3963 32.1623 96.7732 32.0367C97.1502 31.911 97.4434 31.7435 97.7366 31.5759C98.0298 31.3665 98.2392 31.1571 98.4486 30.9058C98.6162 30.6544 98.7418 30.3613 98.8256 30.1099C98.9094 29.6492 98.8675 29.2723 98.6999 28.9372C98.5324 28.6021 98.323 28.3089 97.9879 28.0576C97.6947 27.8063 97.3177 27.555 96.8989 27.3455C96.48 27.1361 96.0612 26.9267 95.6005 26.6754C95.1816 26.466 94.7209 26.2147 94.302 25.9215C93.8832 25.6702 93.5481 25.3351 93.213 25C92.9198 24.6649 92.7104 24.2461 92.5848 23.7853C92.4591 23.3246 92.4591 22.7801 92.5848 22.1518C92.7104 21.5654 92.9198 21.0209 93.2549 20.5183C93.59 20.0157 94.0088 19.5969 94.5115 19.2199C95.0141 18.8429 95.6005 18.5916 96.2287 18.3822C96.857 18.1728 97.569 18.089 98.2811 18.089C98.7418 18.089 99.2026 18.1309 99.6214 18.1728C100.04 18.2565 100.417 18.3822 100.794 18.5497C101.171 18.7592 101.506 19.0105 101.841 19.3455C102.176 19.6806 102.511 20.1414 102.805 20.7278L101.548 21.6911C101.171 20.8115 100.669 20.1414 100.082 19.6806C99.4958 19.2199 98.7837 19.0105 98.0298 19.0105C97.6109 19.0105 97.234 19.0524 96.8989 19.178C96.5219 19.2618 96.2287 19.4293 95.9355 19.5969C95.6423 19.7644 95.4329 19.9738 95.2654 20.2251C95.0978 20.4764 94.9722 20.6859 94.9303 20.9791C94.8465 21.3979 94.8884 21.7749 95.056 22.1099C95.2235 22.445 95.5167 22.7382 95.8518 22.9895C96.1868 23.2408 96.6057 23.4922 97.0664 23.7016C97.5272 23.911 97.9879 24.1623 98.4905 24.3717C98.9931 24.5811 99.4539 24.8325 99.9146 25.1257C100.375 25.377 100.752 25.6702 101.087 26.0471C101.422 26.3822 101.674 26.8011 101.799 27.2618C101.967 27.7225 101.967 28.2251 101.841 28.8534C101.716 29.4817 101.506 30.0262 101.171 30.5707C100.836 31.1152 100.417 31.5759 99.8727 31.9529C99.3282 32.3298 98.6999 32.6649 97.946 32.8743C97.1921 33.0838 96.3544 33.2094 95.4329 33.2094C95.0141 33.2094 94.5952 33.1675 94.1345 33.1257C93.7156 33.0419 93.2968 32.9162 92.8779 32.7487C92.4591 32.5393 92.0403 32.288 91.6633 31.911C91.2863 31.5759 90.9094 31.1152 90.6162 30.5288L91.9984 29.4817C92.2497 29.9843 92.501 30.4031 92.7523 30.7382C93.0036 31.0733 93.2968 31.3665 93.5481 31.5759C93.8413 31.7853 94.1345 31.9529 94.4696 32.0785C94.8884 32.1623 95.2235 32.2042 95.6423 32.2042ZM106.826 18.9267L109.004 18.089H109.841L106.951 32.8743H104.103L106.826 18.9267ZM115.244 32.2042C115.621 32.2042 115.998 32.1623 116.375 32.0367C116.752 31.911 117.045 31.7435 117.339 31.5759C117.632 31.3665 117.841 31.1571 118.051 30.9058C118.218 30.6544 118.344 30.3613 118.428 30.1099C118.511 29.6492 118.47 29.2723 118.302 28.9372C118.134 28.6021 117.925 28.3089 117.59 28.0576C117.297 27.8063 116.92 27.555 116.501 27.3455C116.082 27.1361 115.663 26.9267 115.203 26.6754C114.784 26.466 114.323 26.2147 113.904 25.9215C113.485 25.6702 113.15 25.3351 112.815 25C112.522 24.6649 112.312 24.2461 112.187 23.7853C112.061 23.3246 112.061 22.7801 112.187 22.1518C112.312 21.5654 112.522 21.0209 112.857 20.5183C113.192 20.0157 113.611 19.5969 114.114 19.2199C114.616 18.8429 115.203 18.5916 115.831 18.3822C116.459 18.1728 117.171 18.089 117.883 18.089C118.344 18.089 118.805 18.1309 119.223 18.1728C119.642 18.2565 120.019 18.3822 120.396 18.5497C120.773 18.7592 121.108 19.0105 121.443 19.3455C121.778 19.6806 122.114 20.1414 122.407 20.7278L121.15 21.6911C120.773 20.8115 120.271 20.1414 119.684 19.6806C119.098 19.2199 118.386 19.0105 117.632 19.0105C117.213 19.0105 116.836 19.0524 116.501 19.178C116.124 19.2618 115.831 19.4293 115.538 19.5969C115.244 19.7644 115.035 19.9738 114.867 20.2251C114.7 20.4764 114.574 20.6859 114.532 20.9791C114.449 21.3979 114.491 21.7749 114.658 22.1099C114.826 22.445 115.119 22.7382 115.454 22.9895C115.789 23.2408 116.208 23.4922 116.669 23.7016C117.129 23.911 117.59 24.1623 118.093 24.3717C118.595 24.5811 119.056 24.8325 119.517 25.1257C119.977 25.377 120.354 25.6702 120.689 26.0471C121.025 26.3822 121.276 26.8011 121.402 27.2618C121.569 27.7225 121.569 28.2251 121.443 28.8534C121.318 29.4817 121.108 30.0262 120.773 30.5707C120.438 31.1152 120.019 31.5759 119.475 31.9529C118.93 32.3298 118.302 32.6649 117.548 32.8743C116.794 33.0838 115.956 33.2094 115.035 33.2094C114.616 33.2094 114.197 33.1675 113.737 33.1257C113.318 33.0419 112.899 32.9162 112.48 32.7487C112.061 32.5393 111.642 32.288 111.265 31.911C110.888 31.5759 110.511 31.1152 110.218 30.5288L111.6 29.4817C111.852 29.9843 112.103 30.4031 112.354 30.7382C112.606 31.0733 112.899 31.3665 113.15 31.5759C113.443 31.7853 113.737 31.9529 114.072 32.0785C114.449 32.1623 114.826 32.2042 115.244 32.2042ZM131.621 31.0314C131.119 31.7016 130.491 32.2042 129.778 32.623C129.066 33 128.229 33.2094 127.307 33.2094C126.805 33.2094 126.428 33.1256 126.093 32.9581C125.758 32.7906 125.506 32.5812 125.339 32.288C125.171 31.9948 125.045 31.6178 125.045 31.2408C125.004 30.822 125.045 30.3613 125.129 29.8586L127.098 19.6387H124.585L124.71 18.9267C125.506 18.9267 126.218 18.801 126.805 18.5078C127.391 18.2147 127.894 17.8377 128.312 17.3351C128.731 16.8325 129.108 16.2461 129.443 15.6178C129.778 14.9476 130.072 14.2775 130.365 13.5236H131.203L130.239 18.466H133.506L133.255 19.6806H129.988L128.019 29.9005C127.977 30.1099 127.977 30.3194 128.019 30.5288C128.061 30.7382 128.145 30.8639 128.271 31.0314C128.396 31.1571 128.522 31.2827 128.689 31.3665C128.857 31.4503 129.066 31.4921 129.276 31.4921C129.611 31.4921 129.904 31.4084 130.197 31.2408C130.491 31.0733 130.784 30.9058 130.993 30.6544L131.621 31.0314ZM31.4748 1C42.7418 1 52.124 9 54.5533 19.6806C57.4015 18.8011 60.8361 17.4607 62.7209 15.0733C46.0507 42.0471 23.768 6.48691 2.11355 24.4136C4.50099 21.4398 6.67899 18.7173 9.10831 17.2932C12.2916 7.82722 21.0874 1 31.4748 1ZM49.0664 20.644C47.1397 12.6021 39.9774 6.65445 31.4748 6.65445C25.1921 6.65445 19.7052 9.92147 16.4382 14.822C30.0088 13.8168 37.8413 22.2356 49.0664 20.644ZM31.5167 49C41.9041 49 50.7418 42.2147 53.9251 32.7487C56.3544 31.3246 58.5324 28.6021 60.9198 25.6283C39.2235 43.555 16.9408 7.95288 0.3125 34.9686C2.19732 32.5812 5.63187 31.2408 8.48004 30.3613C10.8256 41 20.2497 49 31.5167 49ZM13.9251 29.356C15.8518 37.3979 23.0141 43.3456 31.5167 43.3456C37.7994 43.3456 43.2863 40.0785 46.5533 35.178C32.9827 36.2251 25.1921 27.7644 13.9251 29.356ZM8.27062 18.5497C19.412 12.644 30.1764 21.2304 42.2811 22.2356C27.9984 19.3874 19.035 11.6387 8.27062 18.5497ZM6.76276 28.1832C17.9041 22.2775 28.6685 30.8639 40.7732 31.8691C26.4905 29.0209 17.5272 21.2722 6.76276 28.1832ZM23.8518 44.4764C32.145 47.6178 44.4591 46.6126 49.0245 35.2618C42.2811 45.9005 33.4853 45.9005 23.8518 44.4764ZM39.056 3.97382C30.7628 0.832463 18.2392 2.50786 13.7156 13.8586C20.4591 3.17802 29.4224 2.54974 39.056 3.97382ZM109.381 13.4817C109.59 13.4817 109.799 13.5236 110.009 13.6073C110.176 13.6911 110.344 13.7749 110.47 13.9005C110.595 14.0262 110.679 14.1937 110.721 14.3613C110.763 14.5288 110.805 14.7382 110.763 14.9058C110.721 15.1152 110.637 15.2827 110.511 15.4503C110.386 15.6178 110.218 15.7853 110.051 15.911C109.883 16.0367 109.674 16.1623 109.464 16.2042C109.255 16.288 109.045 16.3298 108.794 16.3298C108.585 16.3298 108.375 16.288 108.166 16.2042C107.998 16.1204 107.831 16.0367 107.705 15.911C107.58 15.7853 107.496 15.6178 107.454 15.4503C107.412 15.2827 107.37 15.0733 107.412 14.9058C107.454 14.6963 107.538 14.5288 107.663 14.3613C107.789 14.1937 107.956 14.0262 108.124 13.9005C108.292 13.7749 108.501 13.6492 108.71 13.6073C108.962 13.5236 109.171 13.4817 109.381 13.4817Z" fill="#3B733C"/>
<path fill-rule="evenodd" clip-rule="evenodd" d="M48.566 34.9269C31.6864 37.5656 25.5293 25.6703 9.15236 30.1939C6.59739 30.9059 2.40891 32.4138 0.398438 34.7593C17.1105 7.57609 39.2257 44.0996 61.1314 25.2515C58.6602 30.152 54.1367 33.796 48.566 34.9269ZM22.8068 26.5499C17.6969 25.0002 13.7178 24.707 8.27278 27.5133C18.7021 23.1153 29.2152 30.6965 40.2728 31.8274C31.2257 29.9426 28.922 28.3928 22.8068 26.5499Z" fill="#3B733C"/>
</svg>
