<svg width="45" height="50" viewBox="0 0 45 50" fill="none" xmlns="http://www.w3.org/2000/svg">
<path fill-rule="evenodd" clip-rule="evenodd" d="M5.05226 46.3989C5.07005 46.9657 4.62177 47.376 4.05488 47.376H2.56377V45.4627H4.0646C4.59491 45.4627 5.0351 45.8321 5.05226 46.3989ZM42.015 42.8822V48.5786C42.015 48.6764 41.9281 48.7437 41.83 48.7437H40.6368C40.542 48.7437 40.4519 48.6741 40.4519 48.5786V42.8822H38.5798C38.4845 42.8822 38.4147 42.7921 38.4147 42.6973V41.7202C38.4147 41.622 38.4822 41.5353 38.5798 41.5353H43.9178C44.0154 41.5353 44.0822 41.622 44.0822 41.7202V42.6973C44.0822 42.7921 44.0131 42.8822 43.9178 42.8822H42.015ZM12.1354 48.5068V47.5605C12.1354 47.4902 12.0824 47.3864 11.9613 47.3864H9.1673C8.99672 47.3864 8.6593 47.2682 8.6593 46.8349V45.4634H11.6291C11.7535 45.4634 11.8066 45.3577 11.8066 45.2956V44.3315C11.8066 44.2305 11.7364 44.1574 11.6108 44.1574H8.6593V43.3885C8.6593 43.0615 8.93101 42.8822 9.1673 42.8822H11.9534C12.083 42.8822 12.1354 42.7818 12.1354 42.7081V41.7094C12.1354 41.6105 12.0613 41.5357 11.9403 41.5353L9.03944 41.5215C7.95017 41.5163 7.09618 42.4285 7.09618 43.4377V46.8515C7.09618 47.8978 7.98042 48.7437 8.99899 48.7437H11.9586C12.0629 48.7437 12.1332 48.6667 12.1354 48.5696C12.1361 48.5519 12.1354 48.5285 12.1354 48.5068ZM23.9692 44.9079V44.8566C24.1901 44.723 24.3757 44.5478 24.5212 44.3337C24.6686 44.1196 24.7764 43.8663 24.8439 43.5746L25.3166 41.739C25.3336 41.6574 25.2794 41.5353 25.1447 41.5353H24.0211C23.9829 41.5334 23.9435 41.5403 23.9023 41.5574C23.8612 41.5728 23.8321 41.6139 23.8151 41.6796L23.3526 43.4102C23.2973 43.6208 23.2236 43.7893 23.1328 43.9126C23.0421 44.037 22.9411 44.13 22.8297 44.1899C22.7195 44.2492 22.6064 44.2892 22.4935 44.3081C22.3787 44.3251 22.2701 44.3337 22.1691 44.3321H21.3574V41.7064C21.3574 41.5958 21.263 41.5357 21.1855 41.5357H19.9786C19.8763 41.5357 19.7936 41.6094 19.7936 41.7001V48.5786C19.7936 48.6741 19.8838 48.7437 19.9786 48.7437H21.1718C21.2705 48.7437 21.3574 48.6769 21.3574 48.5786V45.525H22.1903C22.4284 45.5216 22.6304 45.5438 22.7948 45.5919C22.9592 45.638 23.0963 45.7236 23.2065 45.8486C23.3144 45.9742 23.4052 46.1539 23.4755 46.3885L24.109 48.6198C24.1433 48.7116 24.2072 48.7437 24.2729 48.7437H25.4666C25.6168 48.7505 25.6619 48.6055 25.6454 48.5382L25.0083 46.1517C24.9688 45.9981 24.9243 45.8572 24.878 45.7321C24.8301 45.6054 24.7696 45.4919 24.696 45.3909C24.6239 45.2904 24.5281 45.1997 24.4116 45.1186C24.2951 45.0398 24.1474 44.9696 23.9692 44.9079ZM28.2983 45.9667L28.6888 44.6648L29.08 43.1979H29.1416L29.5224 44.6648L29.9129 45.9667H28.2983ZM30.2834 47.2425L30.6842 48.5786C30.7184 48.7014 30.784 48.7437 30.8617 48.7437H32.1629C32.2844 48.743 32.3639 48.6409 32.3341 48.5194L30.2011 42.0991C30.1002 41.7864 29.95 41.5353 29.5868 41.5353L28.6626 41.5376C28.4794 41.5256 28.3189 41.5878 28.194 41.7528C28.1305 41.8366 28.0752 41.9497 28.0311 42.0992L25.9 48.5109C25.8526 48.6536 25.972 48.7437 26.0667 48.7437H27.3181C27.3575 48.7437 27.4432 48.7489 27.4957 48.637C27.5076 48.6119 27.5191 48.5771 27.5265 48.5485L27.9279 47.2426L30.2834 47.2425ZM36.6896 43.8263C36.6889 44.3292 36.2888 44.7711 35.7453 44.7704L34.3442 44.7693V42.8822H35.6807C36.287 42.8634 36.6901 43.3229 36.6896 43.8263V43.8263ZM34.3442 48.5278V46.1175H36.053C37.2353 46.1175 38.3422 45.1511 38.3241 43.787C38.3241 43.4598 38.2419 43.1523 38.1213 42.8822C37.8381 42.2475 37.3198 41.8234 36.7089 41.6369C36.4588 41.5608 36.186 41.5375 35.917 41.5353H33.308C33.0306 41.5353 32.7989 41.727 32.7862 42.0289C32.7846 42.0711 32.7799 42.1156 32.7806 42.1625V48.5696C32.7806 48.6694 32.8553 48.743 32.9575 48.7437H34.1718C34.2346 48.7437 34.2951 48.706 34.3225 48.6506C34.3408 48.617 34.3442 48.577 34.3442 48.5278ZM1.50814 48.7437H4.20912C5.54437 48.7904 6.63366 47.8642 6.67768 46.4816C6.6793 46.363 6.68561 46.2219 6.65372 46.0661C6.41729 44.9348 5.52268 44.1574 4.38323 44.1574H2.56377V42.872H5.66947C5.78697 42.8743 5.8572 42.7903 5.85444 42.6767V41.7613C5.8572 41.6357 5.81042 41.5323 5.66947 41.5353H1.5452C1.12332 41.5353 1 41.8446 1 42.0426V48.2368C1 48.5147 1.21976 48.7437 1.50814 48.7437ZM13.8413 42.2242L13.7482 43.787C13.7175 44.3206 13.6832 44.7812 13.6478 45.1757C13.5908 45.8258 13.5251 47.3864 12.6818 47.3864H12.6488C12.5729 47.3857 12.4763 47.4496 12.4763 47.5548V48.5068V48.5576C12.4763 48.6683 12.5505 48.7437 12.651 48.7437H12.7258C13.3612 48.7413 13.9179 48.6735 14.398 47.948C14.5493 47.7208 14.6806 47.4645 14.7754 47.1752C14.8712 46.8858 14.9466 46.5599 15.0015 46.202C15.0562 45.8435 15.1013 45.4496 15.1367 45.0176C15.1716 44.5872 15.2059 44.1197 15.24 43.6123L15.2806 42.8931H17.2867V48.5696C17.2867 48.6655 17.3689 48.7522 17.4717 48.7437H18.6637C18.7877 48.7437 18.85 48.6581 18.85 48.5581V42.0431C18.8511 41.7733 18.6244 41.5353 18.3059 41.5353H14.3603C14.0565 41.5353 13.8767 41.8001 13.8641 42.0203C13.8602 42.0831 13.8447 42.1499 13.8413 42.2242Z" fill="#026499"/>
<path fill-rule="evenodd" clip-rule="evenodd" d="M26.289 23.4116C26.0663 23.4116 25.8836 23.5943 25.8836 23.8174V27.4363L28.311 30.5236L22.8617 25.0749C22.7036 24.9168 22.4456 24.9168 22.2887 25.0749L19.6881 27.6737L19.204 31.5356V23.83C19.204 23.6069 19.0219 23.4242 18.7986 23.4242H14.9056L12.0346 25.7672L17.4844 20.3185C17.642 20.1609 17.642 19.9024 17.4844 19.7449L14.7554 17.017L11.0584 16.6649H18.7661C18.9888 16.6649 19.1715 16.4828 19.1715 16.2591V12.5799L16.7685 9.56152L22.2189 15.0107C22.3766 15.1683 22.6352 15.1683 22.7921 15.0107L25.4719 12.332L25.8676 8.55287V16.2585C25.8676 16.4816 26.0503 16.6643 26.273 16.6643H30.1106L33.0255 14.3218L27.5757 19.7705C27.4176 19.9281 27.4176 20.1862 27.5757 20.3442L30.2482 23.016L33.9962 23.4116H26.289ZM41.7969 22.5172L35.9429 16.6643L33.5994 14.3218L37.8669 16.6643C38.0896 16.6643 38.2723 16.4816 38.2723 16.2585V8.55287C38.2723 8.33024 38.0896 8.14756 37.8669 8.14756H29.6567H26.273L30.9903 6.81483C31.148 6.65676 31.148 6.39934 30.9903 6.24175L25.5399 0.792385C25.3824 0.634309 25.1243 0.634309 24.9666 0.792385L19.1715 6.58589L16.6948 9.09279L16.6925 9.09511H16.692L16.6959 9.08783L16.7092 9.06436L19.1714 4.66879C19.1714 4.44551 18.9887 4.26348 18.7661 4.26348H11.0584C10.835 4.26348 10.653 4.44551 10.653 4.66879V12.9144V12.9148V16.2592L9.28679 11.5489C9.12868 11.3915 8.87121 11.3915 8.71294 11.5489L3.26311 16.9978C3.105 17.1559 3.105 17.4138 3.26311 17.5714L11.4608 25.7673L7.20532 23.4242C6.98199 23.4242 6.79993 23.6069 6.79993 23.83V31.5357C6.79993 31.7588 6.98199 31.941 7.20532 31.941H15.42H18.7986L14.0898 33.2703C13.9321 33.4279 13.9321 33.687 14.0898 33.8445L19.5402 39.2928C19.6983 39.4502 19.9565 39.4502 20.1135 39.2928L25.8835 33.5243L28.2778 31.1304L25.8835 35.4078C25.8835 35.6311 26.0663 35.8138 26.2889 35.8138H33.9961C34.2193 35.8138 34.402 35.6311 34.402 35.4078V27.1692V23.8174L35.7734 28.5401C35.9308 28.6971 36.1889 28.6971 36.3471 28.5401L41.7969 23.0914C41.9545 22.9334 41.9545 22.6753 41.7969 22.5172L41.7969 22.5172Z" fill="#026499"/>
</svg>
