<svg width="210" height="50" viewBox="0 0 210 50" fill="none" xmlns="http://www.w3.org/2000/svg">
<path fill-rule="evenodd" clip-rule="evenodd" d="M4.59567 0.513672H39.1016C41.8248 0.513672 44.0526 2.74037 44.0526 5.46202V39.9491C44.0526 42.6709 41.8248 44.8974 39.1016 44.8974H4.59567C1.87254 44.8974 -0.355469 42.6709 -0.355469 39.9491V5.46202C-0.355469 2.74037 1.87254 0.513672 4.59567 0.513672Z" fill="#014978"/>
<path fill-rule="evenodd" clip-rule="evenodd" d="M29.7157 33.513H24.4213C24.2684 33.513 24.1433 33.3881 24.1433 33.2353V31.9257L20.1588 35.9078C20.0507 36.0159 19.8738 36.0159 19.7658 35.9078L16.0221 32.1663C15.9139 32.0582 15.9139 31.8815 16.0221 31.7734L16.9487 30.8473H11.3137C11.1608 30.8473 11.0358 30.7222 11.0358 30.5694V25.2781C11.0358 25.1252 11.1608 25.0002 11.3137 25.0002H12.6241L8.63967 21.0179C8.53157 20.9099 8.53157 20.733 8.63967 20.625L12.3833 16.8833C12.4914 16.7753 12.6683 16.7753 12.7764 16.8833L13.703 17.8094V12.1776C13.703 12.0247 13.828 11.8997 13.9809 11.8997H19.2753C19.4282 11.8997 19.5532 12.0247 19.5532 12.1776V13.4873L23.5378 9.50502C23.6459 9.39679 23.8227 9.39679 23.9309 9.50484L27.6744 13.2466C27.7826 13.3546 27.7826 13.5314 27.6744 13.6395L26.7474 14.5661H32.3827C32.5357 14.5661 32.6608 14.6912 32.6608 14.844V20.1353C32.6608 20.2881 32.5357 20.4132 32.3827 20.4132H31.0731L35.0569 24.395C35.165 24.503 35.165 24.6798 35.0569 24.7879L31.3133 28.5294C31.2052 28.6375 31.0283 28.6375 30.9202 28.5294L29.9936 27.6033V33.2353C29.9936 33.3881 29.8686 33.513 29.7157 33.513ZM29.0341 18.7683L26.9657 20.4127L24.4213 20.4132C24.2684 20.4132 24.1433 20.2881 24.1433 20.1353V14.8439L23.844 17.4677L22.0449 19.266C21.9367 19.3741 21.7597 19.3741 21.6517 19.266L19.5532 17.1687L17.908 15.5245L19.5532 17.5917V20.1348C19.5532 20.2876 19.4282 20.4125 19.2753 20.4125H13.9809L16.6069 20.7117L18.4061 22.5099C18.5142 22.6181 18.5142 22.7947 18.4061 22.9029L14.6625 26.6445L16.731 25.0001H19.2753C19.4282 25.0001 19.5534 25.1252 19.5534 25.278V30.5693L19.8525 27.9449L21.6517 26.1467C21.7599 26.0387 21.9367 26.0387 22.0449 26.1467L25.7886 29.8883L24.1433 27.8211V25.278C24.1433 25.1252 24.2684 25.0001 24.4213 25.0001H29.7151H29.7155L27.0896 24.7011L25.2903 22.9027C25.1822 22.7947 25.1822 22.6179 25.2903 22.5099L27.3886 20.4127H27.3888L29.0341 18.7683ZM29.0341 18.7683L29.0338 18.7687L29.0341 18.7683ZM24.1433 14.844V14.8441V14.844Z" fill="white"/>
<path fill-rule="evenodd" clip-rule="evenodd" d="M67.7655 18.2876C67.8296 20.3544 66.1962 21.8477 64.1286 21.8477H58.6917V14.8771H64.1658C66.0973 14.8771 67.7015 16.2207 67.7655 18.2876ZM202.518 5.47115V26.2319C202.518 26.5888 202.202 26.8315 201.843 26.8315H197.493C197.148 26.8315 196.818 26.5796 196.818 26.2319V5.47115H189.994C189.646 5.47115 189.394 5.14113 189.394 4.79612V1.23606C189.394 0.877459 189.637 0.561564 189.994 0.561564C196.481 0.561564 202.968 0.561564 209.454 0.561564C209.811 0.561564 210.054 0.877459 210.054 1.23606V4.79612C210.054 5.14113 209.802 5.47115 209.454 5.47115H202.518ZM93.5884 25.9698V22.5202C93.5884 22.2639 93.3952 21.8848 92.9528 21.8848H82.767C82.1452 21.8848 80.9153 21.454 80.9153 19.8751V14.8775H91.7425C92.1956 14.8775 92.3885 14.4916 92.3885 14.2642V10.753C92.3885 10.3857 92.1321 10.1176 91.6765 10.1176H80.9153V7.31607C80.9153 6.12513 81.9043 5.47115 82.767 5.47115H92.9223C93.3976 5.47115 93.5884 5.10535 93.5884 4.83633V1.19697C93.5884 0.837971 93.3186 0.563647 92.8764 0.561564L82.3016 0.511797C78.3289 0.493095 75.2156 3.81809 75.2156 7.49458V19.9362C75.2156 23.751 78.44 26.8315 82.1524 26.8315H92.942C93.3246 26.8315 93.5793 26.5514 93.5884 26.1967C93.5898 26.1324 93.5884 26.0462 93.5884 25.9698ZM136.729 12.8537V12.6663C137.536 12.1792 138.211 11.5418 138.742 10.7613C139.279 9.9807 139.673 9.05629 139.916 7.99441L141.641 1.30507C141.705 1.00778 141.504 0.561564 141.014 0.561564H136.917C136.779 0.555768 136.636 0.580718 136.486 0.642801C136.336 0.699087 136.23 0.849203 136.167 1.08649L134.48 7.39477C134.279 8.16268 134.011 8.77505 133.68 9.22457C133.349 9.68089 132.98 10.0178 132.574 10.2364C132.174 10.4551 131.761 10.5989 131.349 10.6674C130.93 10.73 130.536 10.7613 130.168 10.755H127.206V1.18575C127.206 0.782682 126.866 0.562151 126.58 0.562151H122.182C121.809 0.562151 121.506 0.830183 121.506 1.16175V26.2319C121.506 26.5796 121.836 26.8315 122.182 26.8315H126.531C126.89 26.8315 127.206 26.589 127.206 26.2319V15.1021H130.243C131.111 15.0893 131.849 15.1705 132.449 15.3456C133.049 15.5143 133.548 15.8264 133.949 16.2822C134.342 16.7386 134.673 17.3944 134.929 18.2499L137.239 26.3812C137.366 26.7152 137.596 26.8315 137.837 26.8315H142.188C142.738 26.8575 142.901 26.3284 142.841 26.0824L140.516 17.388C140.373 16.8257 140.21 16.3135 140.041 15.8578C139.867 15.3955 139.648 14.9831 139.379 14.6148C139.116 14.2461 138.767 13.9156 138.342 13.6215C137.917 13.3345 137.379 13.0782 136.729 12.8537ZM152.512 16.7137L153.936 11.9664L155.361 6.62007H155.586L156.974 11.9664L158.398 16.7137H152.512ZM159.748 21.36L161.211 26.2319C161.336 26.6795 161.575 26.8315 161.857 26.8315H166.6C167.044 26.8292 167.333 26.458 167.224 26.0143L159.448 2.61687C159.081 1.47723 158.533 0.561564 157.208 0.561564L153.841 0.569489C153.172 0.527331 152.586 0.754786 152.131 1.35497C151.899 1.65963 151.7 2.07338 151.537 2.61687L143.766 25.9839C143.594 26.5044 144.03 26.8315 144.376 26.8315H148.937C149.082 26.8315 149.394 26.8516 149.586 26.4437C149.629 26.3528 149.672 26.2251 149.699 26.1195L151.162 21.36H159.748ZM183.103 8.91157C183.101 10.7447 181.642 12.3539 179.661 12.3519L174.552 12.3465V5.47115H179.426C181.636 5.40228 183.105 7.07833 183.103 8.91157ZM174.552 26.0446V17.2609H180.782C185.093 17.2614 189.13 13.7384 189.062 8.7687C189.062 7.57581 188.761 6.45375 188.323 5.47115C187.289 3.15832 185.402 1.61127 183.174 0.932342C182.262 0.654576 181.268 0.569488 180.289 0.561564H170.776C169.764 0.561564 168.917 1.25906 168.873 2.36197C168.866 2.51516 168.85 2.67705 168.852 2.84768V26.1967C168.852 26.5601 169.124 26.8296 169.498 26.8315H173.924C174.154 26.8315 174.373 26.6946 174.476 26.4936C174.54 26.3694 174.552 26.2245 174.552 26.0446ZM54.8439 26.8315H64.6909C69.5586 27.0017 73.5318 23.6276 73.6898 18.5874C73.6961 18.1559 73.7207 17.6414 73.6023 17.0756C72.7405 12.9515 69.4793 10.1176 65.3256 10.1176H58.6917V5.43357H70.0152C70.4429 5.4433 70.6998 5.13669 70.69 4.7214V1.3863C70.6993 0.929442 70.529 0.550922 70.0152 0.561564H54.9809C53.4424 0.561564 52.9922 1.68807 52.9922 2.41187V24.9843C52.9917 25.9996 53.7932 26.8315 54.8439 26.8315ZM99.8057 3.07264L99.4681 8.7687C99.3555 10.7114 99.2307 12.3914 99.0996 13.8279C98.8922 16.1986 98.6528 21.8848 95.5796 21.8848C95.5439 21.8848 95.5017 21.8852 95.4587 21.8848C95.1817 21.883 94.8299 22.1177 94.8299 22.4977V25.9698C94.8299 26.0431 94.8299 26.0911 94.8299 26.1551C94.8299 26.5572 95.1005 26.8315 95.4655 26.8315C95.5189 26.8315 95.6873 26.8311 95.7396 26.8311C98.0548 26.8222 100.087 26.5783 101.837 23.9338C102.386 23.1037 102.868 22.1724 103.211 21.1165C103.561 20.061 103.836 18.8745 104.036 17.5691C104.236 16.2636 104.399 14.8272 104.53 13.2533C104.655 11.6857 104.78 9.9807 104.905 8.13189L105.055 5.50842H112.366V26.1976C112.366 26.547 112.668 26.8644 113.041 26.8315H117.387C117.838 26.8315 118.066 26.5205 118.066 26.1572V2.41246C118.07 1.42833 117.245 0.561564 116.083 0.561564H101.697C100.592 0.561564 99.9365 1.52809 99.8885 2.32928C99.8752 2.55769 99.8204 2.80126 99.8057 3.07264Z" fill="#014978"/>
<path fill-rule="evenodd" clip-rule="evenodd" d="M61.2955 35.7626L59.5948 38.6273L56.3654 43.8602C56.2506 44.0386 56.1487 44.1819 56.0595 44.29C55.9705 44.3982 55.8749 44.4841 55.773 44.5479C55.671 44.6114 55.5533 44.6529 55.4194 44.6719C55.2856 44.6911 55.1233 44.7006 54.9322 44.7006H54.1678C53.671 44.7006 53.3397 44.5828 53.1741 44.3472C53.0086 44.1117 52.9258 43.7902 52.9258 43.3828V31.6754C52.9258 31.4335 53.0594 31.3125 53.3271 31.3125H55.3717C55.55 31.3125 55.6615 31.338 55.7061 31.3889C55.7507 31.4398 55.773 31.5354 55.773 31.6754V40.2697H55.8877L57.512 37.596L60.8178 32.1721C60.9324 31.9937 61.0342 31.8473 61.1234 31.7328C61.2127 31.6182 61.3081 31.529 61.4102 31.4652C61.512 31.4017 61.6266 31.3604 61.754 31.3412C61.8815 31.3221 62.0407 31.3125 62.2318 31.3125H63.0152C63.4866 31.3125 63.8115 31.4112 63.9897 31.6085C64.1682 31.8059 64.2574 32.1529 64.2574 32.6494V44.3377C64.2574 44.5797 64.1236 44.7006 63.8561 44.7006H61.8114C61.633 44.7006 61.5184 44.6752 61.4674 44.6243C61.4165 44.5733 61.3909 44.4779 61.3909 44.3377V35.7626H61.2955ZM69.7033 44.3187C69.7033 44.4841 69.6747 44.5892 69.6173 44.6338C69.5599 44.6783 69.4422 44.7006 69.2637 44.7006H67.3529C67.0727 44.7006 66.9326 44.5733 66.9326 44.3187V35.0368C66.9326 34.7949 67.0727 34.6739 67.3529 34.6739H69.2637C69.4422 34.6739 69.5599 34.6961 69.6173 34.7407C69.6747 34.7853 69.7033 34.884 69.7033 35.0368V38.3026H73.2767V35.0368C73.2767 34.7949 73.4168 34.6739 73.7004 34.6739H75.624C75.8022 34.6739 75.9201 34.6961 75.9712 34.7407C76.022 34.7853 76.0476 34.884 76.0476 35.0368V44.3187C76.0476 44.4841 76.022 44.5892 75.9712 44.6338C75.9201 44.6783 75.8022 44.7006 75.624 44.7006H73.7004C73.4168 44.7006 73.2767 44.5733 73.2767 44.3187V40.4799H69.7033V44.3187ZM83.3282 36.9275V44.3187C83.3282 44.4841 83.2995 44.5892 83.242 44.6338C83.1848 44.6783 83.0669 44.7006 82.8886 44.7006H80.9969C80.7038 44.7006 80.5573 44.5733 80.5573 44.3187V36.9275H77.8437C77.589 36.9275 77.4616 36.7875 77.4616 36.5074V35.1131C77.4616 34.9348 77.4839 34.8171 77.5285 34.7598C77.5731 34.7026 77.6783 34.6739 77.8437 34.6739H86.0988C86.2518 34.6739 86.3537 34.7026 86.4047 34.7598C86.4555 34.8171 86.4811 34.9348 86.4811 35.1131V36.5074C86.4811 36.7875 86.3537 36.9275 86.0988 36.9275H83.3282ZM91.6977 34.4255C93.1882 34.4255 94.3062 34.7979 95.0514 35.5429C95.7967 36.2877 96.1693 37.354 96.1693 38.7419C96.1693 39.4039 96.0418 39.856 95.7872 40.098C95.5323 40.3399 95.182 40.4607 94.7361 40.4607H89.8441C89.857 40.8682 89.9239 41.2057 90.0449 41.473C90.1658 41.7404 90.3283 41.9569 90.5321 42.1223C90.736 42.2878 90.9748 42.4024 91.2487 42.4662C91.5226 42.5297 91.8188 42.5616 92.1373 42.5616C92.5068 42.5616 92.8825 42.517 93.2646 42.428C93.6469 42.3388 94.0036 42.2242 94.3347 42.0841C94.4877 42.0333 94.5927 42.0174 94.6501 42.0364C94.7073 42.0555 94.7616 42.116 94.8125 42.2178L95.4241 43.5929C95.475 43.7075 95.4846 43.7967 95.4528 43.8602C95.4208 43.924 95.354 43.9876 95.252 44.0512C94.7806 44.3569 94.2329 44.5765 93.6087 44.7101C92.9845 44.8439 92.4048 44.9108 91.8698 44.9108C90.2009 44.9108 88.9651 44.4969 88.1626 43.6693C87.36 42.8417 86.9587 41.5302 86.9587 39.7351C86.9587 38.8946 87.0702 38.1467 87.2931 37.4909C87.5162 36.8352 87.8347 36.2781 88.2486 35.8198C88.6627 35.3615 89.1595 35.0145 89.739 34.7789C90.3188 34.5434 90.9717 34.4255 91.6977 34.4255ZM91.7551 36.7174C91.2328 36.7174 90.806 36.9021 90.4747 37.2713C90.1436 37.6405 89.9524 38.1116 89.9016 38.6845H93.4749C93.4749 38.4045 93.4462 38.1434 93.3889 37.9015C93.3315 37.6596 93.2392 37.4527 93.1118 37.2809C92.9845 37.109 92.8124 36.9721 92.5958 36.8701C92.3793 36.7683 92.0991 36.7174 91.7551 36.7174ZM100.966 48.272C100.966 48.4121 100.943 48.5013 100.899 48.5395C100.854 48.5777 100.743 48.5967 100.567 48.5967H98.5929C98.4528 48.5967 98.3541 48.5777 98.2903 48.5395C98.2267 48.5013 98.1949 48.4121 98.1949 48.272V35.8198C98.1949 35.6798 98.217 35.5683 98.2616 35.4856C98.3062 35.4028 98.4113 35.3169 98.577 35.2277C99.1884 34.9476 99.8733 34.7503 100.631 34.6357C101.389 34.5211 102.112 34.4637 102.8 34.4637C103.705 34.4637 104.466 34.6006 105.084 34.8745C105.701 35.1482 106.198 35.5173 106.574 35.9821C106.95 36.4469 107.221 36.9975 107.386 37.6341C107.552 38.2708 107.635 38.952 107.635 39.6777C107.635 40.3907 107.546 41.0624 107.367 41.6926C107.189 42.3229 106.912 42.8735 106.542 43.3446C106.173 43.8156 105.701 44.1881 105.135 44.462C104.564 44.7357 103.899 44.8726 103.131 44.8726C102.749 44.8726 102.392 44.8567 102.068 44.8247C101.743 44.7929 101.373 44.7324 100.966 44.6433V48.272ZM104.73 39.6204C104.73 39.0984 104.679 38.6591 104.577 38.3026C104.475 37.9461 104.322 37.6596 104.125 37.4432C103.927 37.2266 103.682 37.0739 103.396 36.9849C103.106 36.8957 102.784 36.8511 102.424 36.8511C102.246 36.8511 102.013 36.8701 101.724 36.9083C101.437 36.9467 101.182 36.9975 100.966 37.0613V42.275C101.3 42.3642 101.596 42.4216 101.857 42.447C102.122 42.4724 102.354 42.4852 102.561 42.4852C103.201 42.4852 103.72 42.2688 104.125 41.8359C104.53 41.403 104.73 40.6644 104.73 39.6204ZM112.507 44.3187C112.507 44.4841 112.479 44.5892 112.421 44.6338C112.364 44.6783 112.246 44.7006 112.068 44.7006H110.157C109.877 44.7006 109.737 44.5733 109.737 44.3187V35.0368C109.737 34.7949 109.877 34.6739 110.157 34.6739H112.068C112.246 34.6739 112.364 34.6961 112.421 34.7407C112.479 34.7853 112.507 34.884 112.507 35.0368V38.3026H116.081V35.0368C116.081 34.7949 116.221 34.6739 116.504 34.6739H118.428C118.606 34.6739 118.724 34.6961 118.775 34.7407C118.826 34.7853 118.852 34.884 118.852 35.0368V44.3187C118.852 44.4841 118.826 44.5892 118.775 44.6338C118.724 44.6783 118.606 44.7006 118.428 44.7006H116.504C116.221 44.7006 116.081 44.5733 116.081 44.3187V40.4799H112.507V44.3187ZM125.674 34.4255C127.164 34.4255 128.282 34.7979 129.027 35.5429C129.773 36.2877 130.145 37.354 130.145 38.7419C130.145 39.4039 130.018 39.856 129.763 40.098C129.508 40.3399 129.158 40.4607 128.712 40.4607H123.82C123.833 40.8682 123.9 41.2057 124.021 41.473C124.142 41.7404 124.304 41.9569 124.508 42.1223C124.712 42.2878 124.951 42.4024 125.225 42.4662C125.498 42.5297 125.795 42.5616 126.113 42.5616C126.483 42.5616 126.858 42.517 127.24 42.428C127.623 42.3388 127.979 42.2242 128.311 42.0841C128.464 42.0333 128.569 42.0174 128.626 42.0364C128.683 42.0555 128.737 42.116 128.788 42.2178L129.4 43.5929C129.451 43.7075 129.46 43.7967 129.429 43.8602C129.397 43.924 129.33 43.9876 129.228 44.0512C128.757 44.3569 128.209 44.5765 127.585 44.7101C126.96 44.8439 126.381 44.9108 125.846 44.9108C124.177 44.9108 122.941 44.4969 122.139 43.6693C121.336 42.8417 120.935 41.5302 120.935 39.7351C120.935 38.8946 121.046 38.1467 121.269 37.4909C121.492 36.8352 121.811 36.2781 122.224 35.8198C122.639 35.3615 123.135 35.0145 123.715 34.7789C124.295 34.5434 124.948 34.4255 125.674 34.4255ZM125.731 36.7174C125.209 36.7174 124.782 36.9021 124.451 37.2713C124.119 37.6405 123.928 38.1116 123.877 38.6845H127.451C127.451 38.4045 127.422 38.1434 127.365 37.9015C127.307 37.6596 127.215 37.4527 127.088 37.2809C126.96 37.109 126.788 36.9721 126.572 36.8701C126.355 36.7683 126.075 36.7174 125.731 36.7174ZM136.986 36.9275V44.3187C136.986 44.4841 136.957 44.5892 136.9 44.6338C136.843 44.6783 136.725 44.7006 136.547 44.7006H134.655C134.362 44.7006 134.215 44.5733 134.215 44.3187V36.9275H131.502C131.247 36.9275 131.12 36.7875 131.12 36.5074V35.1131C131.12 34.9348 131.142 34.8171 131.187 34.7598C131.231 34.7026 131.336 34.6739 131.502 34.6739H139.757C139.91 34.6739 140.012 34.7026 140.063 34.7598C140.114 34.8171 140.139 34.9348 140.139 35.1131V36.5074C140.139 36.7875 140.012 36.9275 139.757 36.9275H136.986ZM152.751 44.3377C152.751 44.4779 152.726 44.5733 152.675 44.6243C152.624 44.6752 152.509 44.7006 152.331 44.7006H150.248C149.98 44.7006 149.846 44.5797 149.846 44.3377V33.8527H144.687V44.3377C144.687 44.4779 144.662 44.5733 144.611 44.6243C144.56 44.6752 144.445 44.7006 144.267 44.7006H142.165C141.897 44.7006 141.763 44.5797 141.763 44.3377V32.6112C141.763 32.1657 141.856 31.8377 142.04 31.6277C142.225 31.4176 142.54 31.3125 142.986 31.3125H151.528C151.987 31.3125 152.305 31.4176 152.483 31.6277C152.662 31.8377 152.751 32.1657 152.751 32.6112V44.3377ZM163.93 43.4591C163.93 43.6247 163.907 43.7648 163.863 43.8794C163.818 43.994 163.707 44.1022 163.528 44.2041C163.236 44.3441 162.923 44.4587 162.586 44.5479C162.248 44.637 161.904 44.707 161.557 44.758C161.207 44.8088 160.853 44.847 160.497 44.8726C160.143 44.898 159.805 44.9108 159.487 44.9108C158.624 44.9108 157.907 44.828 157.34 44.6624C156.777 44.4969 156.321 44.2708 155.977 43.9845C155.636 43.698 155.394 43.3605 155.254 42.9722C155.114 42.5839 155.044 42.1668 155.044 41.7214C155.044 41.2247 155.127 40.7695 155.293 40.3558C155.458 39.9419 155.706 39.5823 156.038 39.2766C156.369 38.971 156.786 38.7324 157.289 38.5604C157.793 38.3885 158.388 38.3026 159.076 38.3026H161.178V37.997C161.178 37.8187 161.159 37.6469 161.121 37.4814C161.082 37.3158 161.003 37.1726 160.882 37.0516C160.761 36.9306 160.592 36.832 160.376 36.7556C160.159 36.6792 159.872 36.641 159.516 36.641C159.325 36.641 159.108 36.6506 158.866 36.6697C158.624 36.6889 158.382 36.7143 158.14 36.7461C157.898 36.7778 157.662 36.8161 157.433 36.8606C157.204 36.9052 157 36.9529 156.821 37.0039C156.656 37.0421 156.541 37.0421 156.477 37.0039C156.414 36.9657 156.369 36.8829 156.343 36.7556L156.038 35.4187C156 35.2787 155.996 35.18 156.028 35.1227C156.06 35.0655 156.127 35.0176 156.229 34.9794C156.802 34.7758 157.404 34.6293 158.035 34.5401C158.665 34.4511 159.293 34.4065 159.917 34.4065C161.302 34.4065 162.318 34.7026 162.962 35.2946C163.608 35.8867 163.93 36.762 163.93 37.9207V43.4591ZM161.159 40.1551H159.649C159.471 40.1551 159.28 40.1679 159.076 40.1933C158.872 40.2189 158.684 40.2794 158.512 40.3748C158.34 40.4704 158.197 40.6072 158.082 40.7854C157.968 40.9637 157.911 41.2057 157.911 41.5112C157.911 41.9569 158.06 42.2688 158.36 42.447C158.659 42.6253 159.063 42.7143 159.573 42.7143C159.649 42.7143 159.751 42.7111 159.879 42.7048C160.006 42.6984 160.143 42.6858 160.29 42.6666C160.436 42.6476 160.586 42.622 160.739 42.5902C160.891 42.5585 161.032 42.517 161.159 42.4662V40.1551ZM169.204 48.272C169.204 48.4121 169.181 48.5013 169.137 48.5395C169.092 48.5777 168.981 48.5967 168.806 48.5967H166.831C166.691 48.5967 166.592 48.5777 166.529 48.5395C166.465 48.5013 166.433 48.4121 166.433 48.272V35.8198C166.433 35.6798 166.455 35.5683 166.5 35.4856C166.544 35.4028 166.65 35.3169 166.815 35.2277C167.427 34.9476 168.112 34.7503 168.869 34.6357C169.627 34.5211 170.35 34.4637 171.038 34.4637C171.943 34.4637 172.704 34.6006 173.322 34.8745C173.94 35.1482 174.436 35.5173 174.812 35.9821C175.188 36.4469 175.459 36.9975 175.624 37.6341C175.79 38.2708 175.873 38.952 175.873 39.6777C175.873 40.3907 175.784 41.0624 175.605 41.6926C175.427 42.3229 175.15 42.8735 174.781 43.3446C174.411 43.8156 173.94 44.1881 173.373 44.462C172.803 44.7357 172.137 44.8726 171.37 44.8726C170.987 44.8726 170.631 44.8567 170.306 44.8247C169.981 44.7929 169.611 44.7324 169.204 44.6433V48.272ZM172.968 39.6204C172.968 39.0984 172.917 38.6591 172.815 38.3026C172.713 37.9461 172.561 37.6596 172.363 37.4432C172.166 37.2266 171.921 37.0739 171.634 36.9849C171.344 36.8957 171.022 36.8511 170.662 36.8511C170.484 36.8511 170.252 36.8701 169.962 36.9083C169.675 36.9467 169.42 36.9975 169.204 37.0613V42.275C169.538 42.3642 169.834 42.4216 170.096 42.447C170.36 42.4724 170.592 42.4852 170.799 42.4852C171.44 42.4852 171.959 42.2688 172.363 41.8359C172.768 41.403 172.968 40.6644 172.968 39.6204ZM187.243 39.6395C187.243 41.3202 186.841 42.619 186.039 43.5357C185.236 44.4523 184.013 44.9108 182.37 44.9108C180.714 44.9108 179.504 44.4523 178.739 43.5357C177.975 42.619 177.593 41.3329 177.593 39.6777C177.593 38.8629 177.704 38.1276 177.927 37.4719C178.15 36.8161 178.469 36.2655 178.883 35.8198C179.297 35.3741 179.8 35.0304 180.392 34.7884C180.985 34.5465 181.657 34.4255 182.408 34.4255C184.013 34.4255 185.22 34.8871 186.029 35.8103C186.838 36.7333 187.243 38.0099 187.243 39.6395ZM184.357 39.6968C184.357 39.2639 184.325 38.8692 184.262 38.5127C184.198 38.1562 184.09 37.8507 183.937 37.596C183.784 37.3414 183.587 37.1408 183.345 36.9944C183.103 36.848 182.803 36.7748 182.446 36.7748C181.771 36.7748 181.271 37.0326 180.946 37.5482C180.621 38.0639 180.459 38.7611 180.459 39.6395C180.459 40.5944 180.609 41.3202 180.908 41.8167C181.208 42.3134 181.701 42.5616 182.389 42.5616C182.746 42.5616 183.048 42.4884 183.297 42.3419C183.545 42.1956 183.749 41.9918 183.908 41.7309C184.068 41.4697 184.182 41.1675 184.252 40.8236C184.322 40.4799 184.357 40.1042 184.357 39.6968ZM197.103 34.6739C197.549 34.6739 197.851 34.7661 198.011 34.9509C198.17 35.1354 198.25 35.4315 198.25 35.8389V44.3377C198.25 44.4905 198.221 44.5892 198.164 44.6338C198.106 44.6783 197.988 44.7006 197.81 44.7006H195.88C195.702 44.7006 195.584 44.6719 195.526 44.6148C195.469 44.5574 195.44 44.4587 195.44 44.3187V36.9275H193.09L193.033 37.9207C192.969 39.0284 192.886 39.9833 192.784 40.7854C192.682 41.5876 192.51 42.2719 192.268 42.8386C192.026 43.4051 191.682 43.8666 191.237 44.2231C190.791 44.5797 190.198 44.8726 189.459 45.1017C189.281 45.1653 189.154 45.1748 189.077 45.1304C189.001 45.0858 188.937 44.9998 188.886 44.8726L188.37 43.5739C188.307 43.4083 188.284 43.2905 188.303 43.2205C188.322 43.1505 188.415 43.0708 188.58 42.9818C188.924 42.8289 189.202 42.6571 189.412 42.4662C189.622 42.275 189.794 42.0013 189.928 41.6448C190.061 41.2883 190.166 40.8141 190.243 40.222C190.319 39.63 190.389 38.85 190.453 37.8825L190.587 35.8008C190.612 35.3805 190.711 35.0877 190.883 34.9222C191.055 34.7566 191.351 34.6739 191.772 34.6739H197.103ZM201.938 44.7006C201.441 44.7006 201.116 44.6019 200.963 44.4046C200.81 44.2073 200.734 43.9366 200.734 43.5929V35.0368C200.734 34.7949 200.874 34.6739 201.154 34.6739H203.065C203.243 34.6739 203.361 34.6961 203.419 34.7407C203.476 34.7853 203.505 34.884 203.505 35.0368V37.8061H205.874C206.804 37.8061 207.54 37.9366 208.081 38.1975C208.623 38.4586 209.033 38.7737 209.314 39.143C209.594 39.5121 209.769 39.8909 209.839 40.2794C209.909 40.6677 209.944 40.9891 209.944 41.2438C209.944 41.7404 209.849 42.1986 209.658 42.6189C209.467 43.039 209.202 43.4019 208.865 43.7075C208.527 44.013 208.129 44.2549 207.67 44.4333C207.212 44.6114 206.715 44.7006 206.18 44.7006H201.938ZM207.097 41.2057C207.097 40.8492 206.986 40.5468 206.763 40.2984C206.54 40.0501 206.205 39.926 205.759 39.926H203.505V42.5234H205.74C206.008 42.5234 206.231 42.4788 206.409 42.3898C206.587 42.3006 206.728 42.1892 206.83 42.0555C206.932 41.9218 207.002 41.7785 207.04 41.6258C207.078 41.473 207.097 41.3329 207.097 41.2057Z" fill="#014978"/>
</svg>
