<svg width="62" height="50" viewBox="0 0 62 50" fill="none" xmlns="http://www.w3.org/2000/svg">
<path d="M11.2526 48.6091V45.4443C11.271 45.1781 11.2326 44.9111 11.1398 44.661C11.047 44.4109 10.902 44.1834 10.7145 43.9937C10.5269 43.8041 10.3012 43.6566 10.0522 43.5611C9.80327 43.4656 9.53684 43.4243 9.27068 43.4399C8.92229 43.4171 8.57416 43.4882 8.26263 43.6459C7.9511 43.8037 7.68759 44.0422 7.49962 44.3366C7.32827 44.051 7.0831 43.817 6.78995 43.6592C6.49681 43.5014 6.16654 43.4256 5.83397 43.4399C5.54408 43.4252 5.25538 43.4866 4.9965 43.618C4.73763 43.7494 4.51755 43.9462 4.35809 44.1889V43.5665H3.26172V48.6091H4.36863V45.8346C4.34509 45.6622 4.3599 45.4867 4.41201 45.3206C4.46413 45.1546 4.55226 45.0021 4.6701 44.8741C4.78794 44.7461 4.93258 44.6458 5.09369 44.5802C5.25479 44.5146 5.42838 44.4855 5.60205 44.4949C6.32945 44.4949 6.69842 44.9696 6.69842 45.8241V48.6302H7.80533V45.8346C7.78275 45.6624 7.79824 45.4872 7.85071 45.3216C7.90318 45.156 7.99135 45.0039 8.10899 44.8761C8.22663 44.7484 8.37087 44.648 8.53153 44.5821C8.69218 44.5162 8.86533 44.4864 9.03875 44.4949C9.78724 44.4949 10.1457 44.9696 10.1457 45.8241V48.6302L11.2526 48.6091ZM27.6296 43.5665H25.8269V42.0368H24.72V43.5665H23.7185V44.5687H24.7411V46.8896C24.7411 48.0606 25.1944 48.7568 26.4911 48.7568C26.9755 48.7585 27.4506 48.6232 27.8616 48.3665L27.5453 47.4276C27.2513 47.6031 26.9176 47.7011 26.5754 47.7124C26.0483 47.7124 25.848 47.3749 25.848 46.8685V44.5687H27.6402L27.6296 43.5665ZM36.9804 43.4399C36.7131 43.432 36.4486 43.4965 36.2148 43.6265C35.9811 43.7564 35.7867 43.9471 35.6521 44.1784V43.5665H34.5663V48.6091H35.6627V45.7819C35.6627 44.9485 36.0211 44.4843 36.7169 44.4843C36.9514 44.4811 37.1842 44.5241 37.4021 44.6109L37.7394 43.556C37.489 43.4663 37.2253 43.4199 36.9593 43.4188L36.9804 43.4399ZM22.8435 43.9674C22.2229 43.5981 21.5094 43.4151 20.7878 43.4399C19.5123 43.4399 18.6794 44.0518 18.6794 45.054C18.6794 45.8768 19.2909 46.3832 20.4189 46.5415L20.946 46.6153C21.5469 46.6997 21.8315 46.8579 21.8315 47.1428C21.8315 47.5331 21.4309 47.7546 20.6824 47.7546C20.0804 47.7721 19.49 47.5863 19.0062 47.2272L18.4791 48.0817C19.1178 48.5279 19.8827 48.7572 20.6613 48.7357C22.1161 48.7357 22.9595 48.05 22.9595 47.09C22.9595 46.13 22.2954 45.7397 21.199 45.5815L20.6719 45.5076C20.1975 45.4443 19.818 45.3494 19.818 45.0118C19.818 44.6742 20.1764 44.421 20.7773 44.421C21.3327 44.4275 21.8772 44.5764 22.3586 44.8535L22.8435 43.9674ZM52.2084 43.4399C51.9411 43.432 51.6766 43.4965 51.4428 43.6265C51.209 43.7564 51.0146 43.9471 50.8801 44.1784V43.5665H49.7943V48.6091H50.8906V45.7819C50.8906 44.9485 51.2491 44.4843 51.9448 44.4843C52.1793 44.4811 52.4122 44.5241 52.6301 44.6109L52.9674 43.556C52.717 43.4663 52.4532 43.4199 52.1873 43.4188L52.2084 43.4399ZM38.0821 46.0773C38.069 46.4316 38.13 46.7848 38.2612 47.1142C38.3924 47.4436 38.5909 47.742 38.8439 47.9903C39.097 48.2385 39.399 48.4312 39.7307 48.5559C40.0624 48.6806 40.4165 48.7347 40.7703 48.7146C41.4286 48.7482 42.0755 48.5336 42.5835 48.1133L42.0564 47.2272C41.6774 47.5164 41.2152 47.6755 40.7386 47.6808C40.3334 47.648 39.9553 47.4637 39.6797 47.1646C39.404 46.8656 39.2509 46.4736 39.2509 46.0667C39.2509 45.6599 39.404 45.2679 39.6797 44.9688C39.9553 44.6697 40.3334 44.4855 40.7386 44.4527C41.2152 44.458 41.6774 44.6171 42.0564 44.9063L42.5835 44.0201C42.0755 43.5998 41.4286 43.3853 40.7703 43.4188C40.4165 43.3988 40.0624 43.4528 39.7307 43.5776C39.399 43.7023 39.097 43.8949 38.8439 44.1432C38.5909 44.3914 38.3924 44.6898 38.2612 45.0192C38.13 45.3486 38.069 45.7018 38.0821 46.0562V46.0773ZM48.35 46.0773V43.5665H47.2536V44.1784C47.0674 43.9386 46.8269 43.7466 46.552 43.6182C46.277 43.4898 45.9755 43.4287 45.6723 43.4399C44.9733 43.4399 44.303 43.7178 43.8087 44.2124C43.3145 44.707 43.0368 45.3778 43.0368 46.0773C43.0368 46.7767 43.3145 47.4476 43.8087 47.9422C44.303 48.4368 44.9733 48.7146 45.6723 48.7146C45.9755 48.7258 46.277 48.6647 46.552 48.5363C46.8269 48.4079 47.0674 48.2159 47.2536 47.9762V48.588H48.35V46.0773ZM44.2702 46.0773C44.2877 45.7805 44.3916 45.4952 44.569 45.2567C44.7464 45.0182 44.9897 44.8368 45.2688 44.7349C45.5479 44.633 45.8507 44.615 46.14 44.6831C46.4292 44.7513 46.6922 44.9026 46.8966 45.1184C47.101 45.3342 47.2378 45.6051 47.2903 45.8978C47.3428 46.1904 47.3086 46.4921 47.1919 46.7655C47.0752 47.039 46.8812 47.2723 46.6337 47.4368C46.3861 47.6013 46.0959 47.6898 45.7988 47.6913C45.5901 47.694 45.3831 47.6534 45.1909 47.5721C44.9986 47.4908 44.8252 47.3706 44.6817 47.219C44.5381 47.0674 44.4274 46.8877 44.3566 46.6912C44.2858 46.4947 44.2564 46.2857 44.2702 46.0773ZM31.04 43.4399C30.341 43.4497 29.6745 43.737 29.1872 44.2385C28.6999 44.74 28.4316 45.4147 28.4414 46.1142C28.4511 46.8137 28.7382 47.4806 29.2394 47.9683C29.7405 48.456 30.4148 48.7244 31.1138 48.7146C31.8721 48.7536 32.6179 48.5092 33.2064 48.0289L32.6793 47.2166C32.263 47.5507 31.7474 47.7363 31.2139 47.7441C30.8515 47.7753 30.4912 47.6638 30.2097 47.4333C29.9282 47.2028 29.7476 46.8715 29.7064 46.5098H33.4488C33.4488 46.3727 33.4488 46.2355 33.4488 46.0878C33.4488 44.5054 32.4684 43.4505 31.0558 43.4505L31.04 43.4399ZM31.04 44.421C31.204 44.4175 31.3672 44.4464 31.5201 44.506C31.673 44.5656 31.8127 44.6548 31.9311 44.7684C32.0496 44.8821 32.1445 45.018 32.2105 45.1683C32.2764 45.3187 32.3121 45.4806 32.3156 45.6448H29.68C29.6991 45.3061 29.8499 44.9885 30.1002 44.7598C30.3504 44.531 30.6802 44.4094 31.0189 44.421H31.04ZM58.5072 46.0878V41.541H57.453V44.1784C57.2668 43.9386 57.0264 43.7466 56.7514 43.6182C56.4765 43.4898 56.1749 43.4287 55.8717 43.4399C55.1728 43.4399 54.5024 43.7178 54.0081 44.2124C53.5139 44.707 53.2362 45.3778 53.2362 46.0773C53.2362 46.7767 53.5139 47.4476 54.0081 47.9422C54.5024 48.4368 55.1728 48.7146 55.8717 48.7146C56.1749 48.7258 56.4765 48.6647 56.7514 48.5363C57.0264 48.4079 57.2668 48.2159 57.453 47.9762V48.588H58.5072V46.0878ZM60.3363 47.876C60.4048 47.8751 60.4729 47.8877 60.5366 47.9129C60.5971 47.9376 60.6525 47.9734 60.7 48.0184C60.7463 48.0639 60.7838 48.1175 60.8107 48.1766C60.8374 48.2382 60.8511 48.3046 60.8511 48.3718C60.8511 48.4389 60.8374 48.5053 60.8107 48.5669C60.7838 48.6261 60.7463 48.6797 60.7 48.7252C60.6525 48.7702 60.5971 48.806 60.5366 48.8307C60.4735 48.8585 60.4053 48.8729 60.3363 48.8729C60.2364 48.8721 60.1387 48.843 60.0547 48.7888C59.9707 48.7346 59.9039 48.6577 59.8619 48.5669C59.8355 48.5053 59.8219 48.4389 59.8219 48.3718C59.8219 48.3047 59.8355 48.2383 59.8619 48.1766C59.8887 48.1175 59.9263 48.0639 59.9726 48.0184C60.02 47.9734 60.0754 47.9376 60.136 47.9129C60.2046 47.8856 60.2783 47.873 60.3521 47.876H60.3363ZM60.3363 48.7674C60.3889 48.7677 60.441 48.7569 60.4891 48.7357C60.5345 48.7155 60.5756 48.6868 60.6104 48.6513C60.6763 48.5794 60.7129 48.4853 60.7129 48.3876C60.7129 48.29 60.6763 48.1959 60.6104 48.1239C60.5757 48.0883 60.5346 48.0596 60.4891 48.0395C60.4409 48.0184 60.3889 48.0077 60.3363 48.0078C60.2837 48.0081 60.2318 48.0189 60.1834 48.0395C60.1361 48.0589 60.0931 48.0876 60.0569 48.1239C59.991 48.1959 59.9544 48.29 59.9544 48.3876C59.9544 48.4853 59.991 48.5794 60.0569 48.6513C60.0931 48.6875 60.1361 48.7162 60.1834 48.7357C60.2366 48.7587 60.2942 48.7695 60.3521 48.7674H60.3363ZM60.3679 48.1397C60.4171 48.1373 60.4656 48.1522 60.505 48.1819C60.5211 48.1953 60.5338 48.2123 60.5421 48.2315C60.5503 48.2508 60.5539 48.2718 60.5524 48.2927C60.5532 48.3102 60.5503 48.3277 60.5439 48.344C60.5376 48.3604 60.5279 48.3752 60.5155 48.3876C60.4849 48.4154 60.446 48.4321 60.4048 48.4351L60.5577 48.6091H60.4364L60.2941 48.4351H60.2467V48.6091H60.1465V48.145L60.3679 48.1397ZM60.2519 48.2294V48.356H60.3679C60.3885 48.3621 60.4105 48.3621 60.4312 48.356C60.4349 48.3486 60.4368 48.3405 60.4368 48.3322C60.4368 48.324 60.4349 48.3158 60.4312 48.3085C60.4349 48.3011 60.4368 48.293 60.4368 48.2847C60.4368 48.2765 60.4349 48.2684 60.4312 48.261C60.4105 48.2549 60.3885 48.2549 60.3679 48.261L60.2519 48.2294ZM54.4538 46.0878C54.4713 45.791 54.5752 45.5058 54.7526 45.2673C54.93 45.0288 55.1733 44.8474 55.4524 44.7455C55.7315 44.6435 56.0343 44.6256 56.3236 44.6937C56.6128 44.7618 56.8758 44.9131 57.0802 45.1289C57.2846 45.3447 57.4214 45.6157 57.4739 45.9083C57.5264 46.201 57.4922 46.5026 57.3755 46.7761C57.2588 47.0495 57.0648 47.2829 56.8173 47.4474C56.5697 47.6119 56.2795 47.7003 55.9824 47.7019C55.7737 47.7045 55.5667 47.6639 55.3745 47.5826C55.1822 47.5013 55.0088 47.3811 54.8653 47.2295C54.7217 47.0779 54.611 46.8982 54.5402 46.7017C54.4694 46.5053 54.44 46.2962 54.4538 46.0878ZM17.4355 46.0878V43.5665H16.3391V44.1784C16.1529 43.9386 15.9124 43.7466 15.6375 43.6182C15.3625 43.4898 15.061 43.4287 14.7578 43.4399C14.0588 43.4399 13.3885 43.7178 12.8942 44.2124C12.4 44.707 12.1223 45.3778 12.1223 46.0773C12.1223 46.7767 12.4 47.4476 12.8942 47.9422C13.3885 48.4368 14.0588 48.7146 14.7578 48.7146C15.061 48.7258 15.3625 48.6647 15.6375 48.5363C15.9124 48.4079 16.1529 48.2159 16.3391 47.9762V48.588H17.4355V46.0878ZM13.3557 46.0878C13.3732 45.791 13.477 45.5058 13.6545 45.2673C13.8319 45.0288 14.0751 44.8474 14.3543 44.7455C14.6334 44.6435 14.9362 44.6256 15.2255 44.6937C15.5147 44.7618 15.7777 44.9131 15.9821 45.1289C16.1865 45.3447 16.3233 45.6157 16.3758 45.9083C16.4283 46.201 16.394 46.5026 16.2774 46.7761C16.1607 47.0495 15.9667 47.2829 15.7191 47.4474C15.4716 47.6119 15.1814 47.7003 14.8843 47.7019C14.6747 47.706 14.4666 47.6665 14.2731 47.5859C14.0795 47.5052 13.9049 47.3852 13.7602 47.2334C13.6155 47.0817 13.5038 46.9015 13.4324 46.7043C13.361 46.5071 13.3313 46.2971 13.3452 46.0878H13.3557Z" fill="black"/>
<path d="M23.5353 20.0756C23.5322 17.1995 24.1832 14.3603 25.4388 11.7732C26.6945 9.18601 28.522 6.91869 30.7829 5.1429C27.9835 2.94134 24.6217 1.57232 21.0816 1.19231C17.5415 0.8123 13.966 1.43662 10.7637 2.99393C7.56136 4.55124 4.86148 6.9787 2.9726 9.99887C1.08372 13.019 0.0820313 16.5101 0.0820312 20.073C0.0820312 23.6359 1.08372 27.127 2.9726 30.1471C4.86148 33.1673 7.56136 35.5948 10.7637 37.1521C13.966 38.7094 17.5415 39.3337 21.0816 38.9537C24.6217 38.5737 27.9835 37.2047 30.7829 35.0031C28.5227 33.2279 26.6956 30.9614 25.44 28.3752C24.1843 25.789 23.533 22.9509 23.5353 20.0756Z" fill="#EB001B"/>
<path d="M61.4888 20.0739C61.4887 23.6371 60.4868 27.1284 58.5976 30.1487C56.7084 33.1689 54.0081 35.5963 50.8054 37.1534C47.6027 38.7105 44.0268 39.3344 40.4865 38.9539C36.9462 38.5733 33.5843 37.2036 30.7852 35.0014C33.0445 33.2246 34.871 30.9575 36.127 28.3712C37.383 25.7848 38.0356 22.9468 38.0356 20.0713C38.0356 17.1957 37.383 14.3577 36.127 11.7714C34.871 9.18511 33.0445 6.91801 30.7852 5.14118C33.5843 2.93894 36.9462 1.56926 40.4865 1.1887C44.0268 0.808144 47.6027 1.43207 50.8054 2.98915C54.0081 4.54624 56.7084 6.97365 58.5976 9.99393C60.4868 13.0142 61.4887 16.5055 61.4888 20.0687V20.0739Z" fill="#F79E1B"/>
<path fill-rule="evenodd" clip-rule="evenodd" d="M30.7844 6.4707H30.7827L30.7843 6.47198C28.7246 8.08974 27.0597 10.1553 25.9158 12.5122C24.7719 14.8691 24.1789 17.4556 24.1817 20.0758C24.1796 22.6952 24.773 25.2807 25.9169 27.6367C27.0605 29.9921 28.7244 32.0564 30.7827 33.6735H30.7844C30.7844 33.6735 30.7844 33.6735 30.7844 33.6735C32.8426 32.0548 34.5066 29.9895 35.6508 27.6333C36.795 25.2772 37.3896 22.6917 37.3896 20.0721C37.3896 17.4524 36.795 14.867 35.6508 12.5109C34.5066 10.1547 32.8426 8.0894 30.7844 6.4707Z" fill="#FF5F00"/>
<path d="M59.6686 31.8361V31.2243H59.9163V31.0977H59.2891V31.2243H59.5579V31.8361H59.6686ZM60.8862 31.8361V31.0977H60.6964L60.475 31.6251L60.2537 31.0977H60.085V31.8361H60.222V31.2823L60.4276 31.7623H60.5699L60.7755 31.2823V31.8414L60.8862 31.8361Z" fill="black"/>
</svg>
