<svg width="150" height="50" viewBox="0 0 150 50" fill="none" xmlns="http://www.w3.org/2000/svg">
<path d="M13.6385 33.4021C12.8613 32.907 12.0245 32.5127 11.1482 32.2283C10.2697 31.9482 9.35278 31.8074 8.43076 31.8112C7.85986 31.8056 7.29043 31.8701 6.7352 32.0032C6.26678 32.1116 5.82061 32.3003 5.41643 32.5609C5.05106 32.8043 4.76561 33.0958 4.56237 33.4352C4.3575 33.7824 4.25203 34.1794 4.25751 34.5826C4.25751 34.9712 4.34657 35.3026 4.52241 35.5769C4.69939 35.8512 4.95401 36.0832 5.28513 36.2741C5.61625 36.4638 6.02044 36.6203 6.49657 36.7449C6.97384 36.8683 7.51276 36.9746 8.11334 37.0626L9.399 37.2352C10.1492 37.3415 10.8833 37.5049 11.5981 37.7266C12.2818 37.9315 12.9283 38.2448 13.5129 38.6546C14.0735 39.0523 14.5245 39.5529 14.8648 40.1529C15.205 40.7541 15.3751 41.4843 15.3751 42.3415C15.3751 43.2878 15.1765 44.1232 14.778 44.8478C14.3823 45.5705 13.8303 46.1957 13.1623 46.6775C12.4464 47.1902 11.6455 47.5721 10.7966 47.8055C9.86761 48.0663 8.90684 48.1959 7.94207 48.1906C6.59994 48.1774 5.26713 47.9656 3.98691 47.5621C3.33639 47.3564 2.70428 47.0965 2.09725 46.7849C1.5163 46.4886 0.973405 46.1229 0.480469 45.6958L2.11095 43.3095C2.46024 43.623 2.84498 43.8946 3.25731 44.1186C4.20397 44.6398 5.22834 45.0048 6.29104 45.1998C6.84253 45.3015 7.38945 45.3529 7.92723 45.3529C8.53695 45.3529 9.10442 45.2912 9.62964 45.1666C10.156 45.0432 10.6127 44.8615 11.0021 44.6226C11.3903 44.3838 11.6974 44.0946 11.9224 43.7541C12.1478 43.4148 12.2656 43.0152 12.2603 42.6078C12.2603 41.8821 11.9041 41.3289 11.1939 40.9495C10.4826 40.5689 9.44695 40.2866 8.08708 40.1003L6.64272 39.9015C5.95584 39.8047 5.27933 39.6447 4.62175 39.4238C3.98496 39.2155 3.38865 38.8993 2.85882 38.4889C2.33839 38.0822 1.91354 37.566 1.61427 36.9769C1.30027 36.3723 1.14271 35.6363 1.14271 34.7701C1.14271 33.8409 1.33567 33.0169 1.72045 32.2958C2.1041 31.5758 2.62704 30.9701 3.28928 30.4786C3.95151 29.9872 4.72793 29.6135 5.6151 29.3586C6.53987 29.0965 7.49706 28.9668 8.45816 28.9735C9.8089 28.9735 11.0306 29.1518 12.121 29.5106C13.2114 29.8683 14.2254 30.3563 15.1628 30.9758L13.6385 33.4021ZM23.749 34.8215C24.6316 34.8215 25.4423 34.9838 26.181 35.3049C26.9039 35.6179 27.5501 36.0843 28.0753 36.6718C28.6005 37.2603 29.0115 37.9632 29.3073 38.7803C29.603 39.5986 29.7503 40.5026 29.7503 41.4935C29.753 41.839 29.7351 42.1844 29.6966 42.5278H20.3168C20.4047 43.1026 20.568 43.5929 20.8066 43.9986C21.0441 44.4066 21.3319 44.7403 21.6675 45.0009C22.0044 45.2615 22.3789 45.4546 22.7945 45.5769C23.2101 45.7015 23.6417 45.7632 24.0927 45.7632C24.7298 45.7632 25.3669 45.6466 26.0075 45.4123C26.6426 45.1811 27.2358 44.8475 27.7636 44.4249L29.1406 46.3998C28.3642 47.0626 27.5409 47.5278 26.6709 47.7918C25.779 48.0614 24.8519 48.1962 23.9203 48.1918C22.9669 48.1918 22.0923 48.0318 21.2976 47.7141C20.5263 47.4109 19.8267 46.9501 19.2435 46.3609C18.6567 45.7577 18.2011 45.0394 17.9053 44.2512C17.5868 43.4283 17.4281 42.5141 17.4281 41.5061C17.4281 40.5163 17.5822 39.6089 17.8916 38.7883C18.1999 37.9655 18.6338 37.2603 19.1899 36.6729C19.7511 36.0817 20.4309 35.6159 21.1846 35.3061C21.9576 34.9838 22.8128 34.8215 23.749 34.8215ZM23.6954 37.2889C23.201 37.2889 22.7614 37.3632 22.3766 37.5129C21.993 37.6649 21.6607 37.8786 21.3832 38.1575C21.0986 38.4455 20.8677 38.7823 20.7016 39.1518C20.5192 39.5544 20.3943 39.9806 20.3305 40.4181H26.9152C26.7645 39.4283 26.4128 38.6581 25.8556 38.1106C25.2984 37.5621 24.5791 37.2878 23.6954 37.2878V37.2889ZM38.4165 34.8215C39.371 34.8215 40.2582 34.9918 41.0791 35.3323C41.9012 35.6729 42.5943 36.1781 43.1606 36.8512L41.384 38.7472C40.9713 38.3488 40.4971 38.0196 39.9796 37.7723C39.4636 37.541 38.9031 37.4259 38.3377 37.4352C37.8068 37.4352 37.3112 37.5335 36.8534 37.7323C36.3932 37.9312 35.9959 38.2101 35.6602 38.5678C35.3245 38.9255 35.0619 39.3563 34.8724 39.8546C34.6828 40.3552 34.5869 40.9061 34.5869 41.5061C34.5869 42.1072 34.6828 42.6581 34.8724 43.1575C35.0619 43.6569 35.3245 44.0866 35.6602 44.4443C35.9959 44.8009 36.3932 45.0798 36.8534 45.2786C37.3112 45.4775 37.8068 45.5769 38.3377 45.5769C38.9463 45.5769 39.516 45.4512 40.0458 45.1998C40.5768 44.9483 41.0449 44.6306 41.4502 44.2512L43.1606 46.1609C42.5902 46.8234 41.8732 47.3435 41.0666 47.6798C40.2266 48.0256 39.3259 48.1994 38.4176 48.1906C37.4094 48.1906 36.4948 48.0192 35.6739 47.6798C34.8835 47.3594 34.1667 46.8811 33.5673 46.2741C32.978 45.6676 32.518 44.9474 32.2154 44.1575C31.8912 43.3116 31.7293 42.412 31.7381 41.5061C31.7381 40.5518 31.898 39.6661 32.2154 38.8535C32.518 38.0642 32.978 37.3448 33.5673 36.7392C34.1663 36.1313 34.8832 35.6526 35.6739 35.3323C36.496 34.9918 37.4094 34.8215 38.4165 34.8215ZM57.3634 42.4741C57.3634 43.4809 57.1967 44.3483 56.861 45.0729C56.5253 45.7986 56.0823 46.3918 55.5365 46.8512C54.9841 47.3134 54.3435 47.6583 53.6537 47.8649C52.9469 48.0821 52.223 48.1906 51.4809 48.1906C50.7387 48.1906 50.0148 48.0821 49.308 47.8649C48.617 47.6572 47.9747 47.3125 47.4195 46.8512C46.8669 46.3918 46.4261 45.7986 46.095 45.0729C45.7628 44.3483 45.5972 43.4809 45.5972 42.4741V35.1529H48.3798V42.2226C48.3798 42.8318 48.4597 43.3529 48.6184 43.7803C48.7782 44.2089 48.9952 44.5563 49.2738 44.8215C49.5524 45.0866 49.8812 45.2786 50.2614 45.3986C50.6561 45.5198 51.0669 45.5799 51.4797 45.5769C51.9136 45.5769 52.3189 45.5175 52.7003 45.3986C53.0794 45.2786 53.4082 45.0866 53.6868 44.8215C53.9654 44.5563 54.1835 44.2089 54.3422 43.7803C54.502 43.3529 54.582 42.8318 54.582 42.2226V35.1529H57.3634V42.4741ZM67.4739 34.8215C67.8975 34.8215 68.2789 34.8501 68.6191 34.9072C68.9594 34.9643 69.2894 35.0558 69.6068 35.1792L68.9446 37.9255C68.622 37.7642 68.279 37.6477 67.9249 37.5792C67.5675 37.5032 67.2033 37.4634 66.838 37.4603C66.4207 37.4556 66.0066 37.5321 65.6185 37.6855C65.2545 37.8309 64.9284 38.0577 64.6651 38.3483C64.3877 38.6612 64.1757 39.0264 64.0417 39.4226C63.885 39.8886 63.8089 40.3779 63.8168 40.8695V47.8569H61.0468V35.1529H63.7894V36.5849C64.1814 36.0013 64.7272 35.5378 65.3662 35.2455C65.9942 34.9621 66.6964 34.8215 67.4739 34.8215ZM76.7761 34.8215C77.6115 34.8119 78.4398 34.9765 79.2081 35.3049C79.9457 35.6295 80.5771 36.0843 81.1035 36.6718C81.6276 37.2603 82.0386 37.9632 82.3355 38.7803C82.6301 39.5986 82.7774 40.5026 82.7774 41.4935C82.7794 41.839 82.7619 42.1843 82.7248 42.5278H73.3439C73.4318 43.1026 73.5951 43.5929 73.8348 43.9986C74.0723 44.4066 74.3601 44.7403 74.6946 45.0009C75.0303 45.2615 75.4048 45.4546 75.8216 45.5769C76.2426 45.7019 76.6795 45.7646 77.1186 45.7632C77.7558 45.7632 78.394 45.6466 79.0346 45.4123C79.6696 45.1809 80.2628 44.8474 80.7906 44.4249L82.1676 46.3998C81.3912 47.0626 80.5668 47.5278 79.6968 47.7918C78.8053 48.0613 77.8786 48.1962 76.9474 48.1918C75.994 48.1918 75.1182 48.0318 74.3235 47.7141C73.5526 47.4109 72.8534 46.95 72.2706 46.3609C71.6837 45.7578 71.2281 45.0394 70.9324 44.2512C70.6127 43.4283 70.4551 42.5141 70.4551 41.5061C70.4551 40.5163 70.6093 39.6089 70.9187 38.7883C71.227 37.9655 71.6609 37.2603 72.2169 36.6729C72.7779 36.0819 73.4572 35.6161 74.2105 35.3061C74.9846 34.9838 75.8398 34.8215 76.7761 34.8215ZM76.7224 37.2889C76.2727 37.2807 75.8255 37.3566 75.4037 37.5129C75.02 37.6649 74.6889 37.8786 74.4103 38.1575C74.1256 38.4455 73.8947 38.7822 73.7287 39.1518C73.5462 39.5544 73.4213 39.9806 73.3576 40.4181H79.9434C79.7927 39.4283 79.4399 38.6581 78.8827 38.1106C78.3255 37.5621 77.6073 37.2878 76.7224 37.2878V37.2889ZM94.7296 28.946C95.5517 28.946 96.3475 29.034 97.116 29.2112C97.8844 29.3883 98.5992 29.6432 99.2625 29.9803C99.9236 30.3175 100.525 30.7255 101.063 31.2078C101.602 31.6901 102.054 32.2306 102.415 32.8318L99.9111 34.5026C99.355 33.6806 98.6068 33.007 97.7314 32.5403C96.8419 32.0638 95.8429 31.8249 94.7296 31.8249C93.8316 31.8157 92.9403 31.9818 92.1058 32.3141C91.3252 32.6268 90.6171 33.0967 90.0255 33.6946C89.4298 34.3067 88.9638 35.0328 88.6553 35.8295C88.3242 36.6615 88.1575 37.5758 88.1575 38.5746C88.1575 39.5746 88.323 40.4901 88.6553 41.3209C88.9864 42.1518 89.4431 42.8638 90.0255 43.4558C90.6078 44.0501 91.302 44.5072 92.1058 44.8341C92.94 45.1676 93.8314 45.3346 94.7296 45.3255C95.8337 45.3255 96.826 45.0923 97.704 44.6238C98.5832 44.1552 99.3139 43.5003 99.8974 42.6603L102.337 44.4512C101.938 45.0341 101.474 45.5552 100.939 46.0158C100.397 46.4805 99.8003 46.877 99.1621 47.1963C98.5124 47.5232 97.8148 47.7735 97.0692 47.9461C96.3017 48.1209 95.5167 48.2075 94.7296 48.2043C93.3081 48.2043 92.0007 47.9643 90.8087 47.4809C89.6585 47.027 88.6127 46.3434 87.735 45.4718C86.8691 44.6006 86.1882 43.563 85.7335 42.4215C85.2573 41.2443 85.0175 39.9643 85.0175 38.5758C85.0175 37.1861 85.2573 35.9061 85.7335 34.7289C86.188 33.5873 86.8689 32.5497 87.735 31.6786C88.6129 30.8075 89.6587 30.1243 90.8087 29.6706C91.9996 29.1872 93.3081 28.946 94.7296 28.946ZM111.095 34.8215C112.075 34.8215 112.982 34.9918 113.817 35.3323C114.624 35.6545 115.36 36.1321 115.983 36.7381C116.597 37.3399 117.084 38.0588 117.415 38.8523C117.764 39.6929 117.94 40.5957 117.931 41.5061C117.931 42.4615 117.76 43.3461 117.415 44.1575C117.084 44.9517 116.597 45.6714 115.983 46.2741C115.36 46.8797 114.624 47.3573 113.817 47.6798C112.952 48.0262 112.027 48.1998 111.095 48.1906C110.113 48.1906 109.205 48.0192 108.371 47.6798C107.566 47.3583 106.832 46.8806 106.213 46.2741C105.602 45.6701 105.117 44.9506 104.787 44.1575C104.437 43.3178 104.261 42.4157 104.27 41.5061C104.27 40.5518 104.442 39.6661 104.787 38.8535C105.117 38.0612 105.601 37.3425 106.211 36.7392C106.831 36.1319 107.565 35.6538 108.371 35.3323C109.237 34.9857 110.162 34.8121 111.095 34.8215ZM111.095 37.4352C110.527 37.4352 110.002 37.5335 109.517 37.7323C109.041 37.9232 108.609 38.2101 108.249 38.5752C107.889 38.9404 107.608 39.3759 107.423 39.8546C107.215 40.3801 107.112 40.941 107.118 41.5061C107.118 42.1072 107.221 42.6581 107.423 43.1575C107.626 43.6569 107.905 44.0866 108.259 44.4443C108.612 44.8009 109.032 45.0798 109.517 45.2786C110.002 45.4775 110.527 45.5769 111.095 45.5769C111.659 45.5769 112.184 45.4775 112.671 45.2798C113.144 45.0885 113.574 44.8044 113.936 44.4443C114.294 44.0866 114.574 43.6569 114.778 43.1575C114.986 42.6319 115.089 42.071 115.082 41.5061C115.082 40.9049 114.98 40.3552 114.778 39.8546C114.586 39.3735 114.3 38.9359 113.936 38.5678C113.574 38.2079 113.144 37.9242 112.671 37.7335C112.17 37.5318 111.635 37.4304 111.095 37.4352ZM126.266 34.8215C127.176 34.8215 127.958 34.9918 128.611 35.3323C129.251 35.6617 129.812 36.1256 130.255 36.6923V28.7598H133.024V47.8581H130.255V46.3335C129.812 46.8992 129.264 47.3506 128.611 47.6866C127.958 48.0226 127.176 48.1895 126.266 48.1895C125.427 48.1967 124.595 48.0335 123.821 47.7098C123.047 47.3861 122.346 46.9085 121.762 46.3061C121.176 45.6977 120.716 44.9791 120.41 44.1918C120.075 43.3363 119.909 42.4245 119.919 41.5061C119.919 40.5335 120.082 39.6375 120.41 38.8203C120.717 38.033 121.176 37.3141 121.762 36.7049C122.346 36.1019 123.046 35.624 123.82 35.3002C124.595 34.9765 125.427 34.8136 126.266 34.8215ZM126.597 37.4352C125.995 37.4352 125.46 37.5426 124.987 37.7586C124.514 37.9758 124.116 38.2683 123.788 38.6341C123.462 39.0009 123.209 39.4318 123.032 39.9278C122.854 40.4347 122.764 40.9686 122.767 41.5061C122.767 42.0626 122.857 42.5883 123.032 43.0843C123.209 43.5803 123.462 44.0101 123.788 44.3781C124.115 44.7438 124.514 45.0363 124.987 45.2535C125.46 45.4706 125.995 45.5769 126.597 45.5769C127.171 45.5769 127.692 45.4741 128.161 45.2661C128.629 45.0592 129.031 44.7723 129.367 44.4101C129.703 44.0489 129.962 43.6203 130.148 43.1243C130.333 42.6295 130.427 42.0901 130.427 41.5061C130.432 40.9542 130.338 40.4059 130.148 39.8878C129.974 39.412 129.709 38.9752 129.367 38.6021C129.028 38.2371 128.618 37.9457 128.161 37.7461C127.667 37.5338 127.134 37.4279 126.597 37.4352ZM142.246 34.8215C143.13 34.8215 143.94 34.9838 144.677 35.3049C145.401 35.6176 146.047 36.084 146.573 36.6718C147.098 37.2603 147.508 37.9632 147.805 38.7803C148.102 39.5986 148.248 40.5026 148.248 41.4935C148.25 41.839 148.232 42.1843 148.195 42.5278H138.814C138.902 43.1026 139.065 43.5929 139.305 43.9986C139.543 44.4066 139.83 44.7403 140.166 45.0009C140.502 45.2615 140.876 45.4546 141.292 45.5769C141.713 45.702 142.151 45.7647 142.59 45.7632C143.227 45.7632 143.865 45.6466 144.505 45.4123C145.14 45.1807 145.733 44.8472 146.261 44.4249L147.639 46.3998C146.86 47.0626 146.037 47.5278 145.167 47.7918C144.276 48.0614 143.35 48.1963 142.419 48.1918C141.464 48.1918 140.59 48.0318 139.795 47.7141C139.023 47.4113 138.323 46.9504 137.74 46.3609C137.154 45.7572 136.699 45.039 136.404 44.2512C136.084 43.4283 135.925 42.5141 135.925 41.5061C135.925 40.5163 136.08 39.6089 136.389 38.7883C136.698 37.9655 137.131 37.2603 137.688 36.6729C138.249 36.0818 138.929 35.616 139.682 35.3061C140.456 34.9838 141.31 34.8215 142.246 34.8215ZM149.571 47.8581V47.2203H149.829V47.0889H149.174V47.2203H149.431V47.8569H149.571V47.8581ZM150.844 47.8581V47.0878H150.644L150.412 47.6181L150.181 47.0878H149.98V47.8569H150.122V47.2763L150.339 47.7769H150.487L150.702 47.2741V47.8569H150.844V47.8581ZM142.194 37.2889C141.744 37.2805 141.296 37.3565 140.874 37.5129C140.49 37.6649 140.159 37.8786 139.881 38.1575C139.596 38.4455 139.365 38.7823 139.199 39.1518C139.016 39.5542 138.891 39.9806 138.828 40.4181H145.413C145.262 39.4283 144.91 38.6581 144.353 38.1106C143.797 37.5621 143.076 37.2878 142.194 37.2878V37.2889Z" fill="#FEAA13"/>
<path d="M22.7531 21.6599H19.6475V5.81075L14.0253 19.773H10.7552L5.13302 5.9639V21.6599H2.02734V2.40047H6.7966L12.3914 16.157L17.9839 2.40047H22.7531V21.6599ZM39.107 21.6599H36.2343V20.0782C35.776 20.665 35.1944 21.1438 34.5307 21.4805C33.8525 21.8302 33.0418 22.0039 32.0987 22.0039C31.228 22.0126 30.3647 21.8438 29.5612 21.5078C28.7578 21.1718 28.0311 20.6757 27.4253 20.0496C26.8181 19.4178 26.3415 18.6721 26.0232 17.8553C25.6841 17.0073 25.5151 16.0793 25.5151 15.0702C25.5151 14.061 25.6841 13.133 26.0232 12.285C26.342 11.4685 26.8185 10.7229 27.4253 10.0908C28.0194 9.47693 28.7297 8.98778 29.5148 8.6519C30.3316 8.30428 31.2112 8.12882 32.0987 8.13647C33.0418 8.13647 33.8525 8.31361 34.5307 8.66675C35.2089 9.0199 35.7764 9.48961 36.2343 10.0759V8.48047H39.107V21.6599ZM32.4412 10.8473C31.8178 10.8473 31.2618 10.9593 30.7719 11.1833C30.281 11.4096 29.8676 11.7125 29.5274 12.0919C29.1821 12.484 28.9164 12.9398 28.7452 13.4336C28.5614 13.9479 28.4701 14.493 28.4701 15.0702C28.4701 15.6485 28.5614 16.1936 28.7441 16.7068C28.9268 17.221 29.1894 17.669 29.5285 18.0485C29.8676 18.429 30.2821 18.7319 30.7731 18.957C31.2618 19.181 31.8178 19.2942 32.4412 19.2942C33.0372 19.2942 33.5773 19.1856 34.0626 18.9708C34.549 18.7548 34.9657 18.4599 35.314 18.0828C35.6622 17.7068 35.9328 17.2622 36.1246 16.749C36.3176 16.2348 36.4135 15.6748 36.4135 15.0702C36.4135 14.4645 36.3176 13.9045 36.1258 13.3913C35.9453 12.8976 35.6699 12.4441 35.3151 12.0565C34.9629 11.6784 34.537 11.3765 34.0637 11.1696C33.5519 10.9494 32.9994 10.8396 32.4424 10.8473H32.4412ZM52.3015 11.7822C51.7585 11.4713 51.1825 11.2222 50.5843 11.0393C50.2115 10.9263 49.8326 10.8347 49.4493 10.765C49.0482 10.6916 48.6412 10.6548 48.2333 10.6553C47.4455 10.6553 46.8335 10.7993 46.3985 11.0885C45.9635 11.3765 45.7454 11.7559 45.7454 12.2233C45.7454 12.4519 45.8025 12.645 45.9166 12.8005C46.032 12.957 46.185 13.0862 46.3768 13.1868C46.5709 13.2873 46.7992 13.3673 47.0641 13.4268C47.3302 13.4873 47.6145 13.5388 47.9171 13.5845L49.2769 13.7913C50.7156 14.0028 51.838 14.421 52.6452 15.0496C53.4513 15.6782 53.8544 16.557 53.8544 17.685C53.8544 18.317 53.7185 18.8976 53.449 19.4245C53.1699 19.9627 52.7701 20.4289 52.281 20.7868C51.7717 21.1673 51.1449 21.4622 50.397 21.6748C49.6514 21.885 48.8054 21.989 47.8623 21.989C47.5231 21.989 47.1292 21.9696 46.6805 21.9285C46.1986 21.8813 45.7208 21.7988 45.251 21.6816C44.7252 21.5499 44.2106 21.3772 43.7118 21.165C43.179 20.9386 42.6759 20.6477 42.2138 20.2988L43.5463 18.1388C43.7849 18.3216 44.043 18.493 44.3227 18.653C44.6024 18.8142 44.9187 18.957 45.2704 19.0805C45.6243 19.2039 46.0137 19.3033 46.4396 19.3765C46.919 19.4539 47.4041 19.4906 47.8897 19.4862C48.8796 19.4862 49.6252 19.3422 50.1298 19.053C50.6334 18.765 50.8857 18.3719 50.8857 17.8759C50.8857 17.501 50.703 17.1925 50.3365 16.9479C49.9689 16.7056 49.3923 16.5285 48.6044 16.4188L47.2297 16.2405C45.7636 16.0382 44.6527 15.6108 43.8968 14.9536C43.1409 14.2988 42.763 13.4382 42.763 12.3742C42.763 11.7228 42.8886 11.1353 43.1409 10.6142C43.3921 10.0908 43.7552 9.64847 44.2257 9.28618C44.6984 8.9239 45.2692 8.6439 45.9383 8.44732C46.6074 8.24961 47.3633 8.15132 48.2059 8.15132C49.2415 8.15132 50.2166 8.27247 51.1335 8.51704C52.0503 8.75818 52.8519 9.0999 53.5381 9.54104L52.3015 11.7822ZM65.9345 11.0942H60.8912V16.8313C60.8828 17.2139 60.9383 17.5951 61.0556 17.9593C61.1653 18.2702 61.3148 18.5262 61.5032 18.7228C61.6905 18.9205 61.9109 19.0656 62.162 19.157C62.4132 19.2485 62.6873 19.2942 62.9807 19.2942C63.4294 19.2942 63.885 19.2073 64.3474 19.0313C64.811 18.8576 65.238 18.6473 65.6331 18.3993L66.7726 20.6965C66.2113 21.0699 65.6101 21.3793 64.98 21.6188C64.3155 21.8759 63.5664 22.0039 62.7329 22.0039C61.2395 22.0039 60.0771 21.5902 59.2482 20.7593C58.4193 19.9296 58.0048 18.6393 58.0048 16.8862V11.0942H55.3787V8.48161H58.0048V4.4919H60.8912V8.48047H65.9345V11.0942ZM74.772 8.13647C75.6877 8.13647 76.5303 8.30447 77.2953 8.63932C78.0603 8.97418 78.7146 9.44618 79.2592 10.0565C79.805 10.6668 80.2297 11.3959 80.538 12.2428C80.8452 13.0919 80.9993 14.0302 80.9993 15.0565C80.9981 15.4149 80.9798 15.773 80.9445 16.1296H71.2119C71.3032 16.7262 71.4722 17.2348 71.72 17.6576C71.9666 18.0782 72.2657 18.4245 72.6129 18.6953C72.9611 18.9662 73.3505 19.1662 73.7809 19.2942C74.2125 19.4233 74.6601 19.4862 75.1282 19.4862C75.7882 19.4862 76.4493 19.365 77.1149 19.1216C77.774 18.8825 78.3892 18.5366 78.9361 18.0976L80.3656 20.1468C79.5595 20.8348 78.7043 21.3159 77.8011 21.5913C76.8765 21.8695 75.9156 22.0086 74.9501 22.0039C73.9602 22.0039 73.0536 21.8382 72.2292 21.509C71.429 21.1951 70.7033 20.717 70.0986 20.1056C69.4901 19.4801 69.0174 18.7353 68.7102 17.9182C68.3802 17.0656 68.2158 16.1159 68.2158 15.0713C68.2158 14.0428 68.3757 13.1033 68.6954 12.2508C68.9928 11.4362 69.451 10.69 70.0427 10.0565C70.6247 9.44325 71.3298 8.96028 72.1116 8.63932C72.9131 8.30447 73.8003 8.13647 74.7708 8.13647H74.772ZM74.7172 10.6965C74.2034 10.6965 73.7489 10.7742 73.3493 10.9296C72.9508 11.0862 72.6071 11.3068 72.3194 11.597C72.0305 11.8862 71.7942 12.229 71.6115 12.629C71.4277 13.0279 71.2998 13.4656 71.2256 13.9433H78.0569C77.9016 12.9148 77.5351 12.117 76.9574 11.549C76.3808 10.9799 75.6329 10.6965 74.7172 10.6965ZM90.9489 8.13647C91.3896 8.13647 91.7847 8.16618 92.1363 8.22675C92.4903 8.28618 92.8328 8.3799 93.1605 8.5079L92.4743 11.3559C92.1395 11.1888 91.7833 11.0685 91.4159 10.9982C91.0452 10.9199 90.6677 10.879 90.2889 10.8759C89.8311 10.8759 89.4097 10.9525 89.0238 11.109C88.6461 11.2599 88.3079 11.4952 88.035 11.797C87.761 12.0999 87.5441 12.4713 87.3888 12.9113C87.2266 13.3943 87.1478 13.9013 87.1558 14.4108V21.6599H84.2831V8.48161H87.1284V9.96732C87.5354 9.36242 88.1012 8.88156 88.7635 8.57761C89.4143 8.2839 90.1416 8.13647 90.9489 8.13647ZM100.775 8.13647C101.765 8.13647 102.686 8.31361 103.538 8.66675C104.374 9.00852 105.115 9.54906 105.695 10.2416L103.853 12.2108C103.426 11.7975 102.935 11.456 102.399 11.1993C101.863 10.9589 101.28 10.8387 100.693 10.8473C100.145 10.8473 99.6311 10.9502 99.1538 11.157C98.6777 11.3628 98.2643 11.6519 97.9161 12.0256C97.5594 12.412 97.282 12.8647 97.0997 13.3582C96.8965 13.9065 96.7963 14.4877 96.804 15.0725C96.804 15.6953 96.901 16.2656 97.0997 16.7845C97.2961 17.301 97.569 17.7468 97.9161 18.1182C98.2643 18.4896 98.6777 18.7788 99.1538 18.9845C99.6311 19.1925 100.144 19.2942 100.693 19.2942C101.325 19.2942 101.915 19.1639 102.465 18.9033C102.999 18.6528 103.491 18.3204 103.923 17.9182L105.695 19.8999C105.105 20.587 104.362 21.1263 103.526 21.4748C102.653 21.8337 101.718 22.014 100.775 22.005C99.7315 22.005 98.7827 21.8279 97.9321 21.4748C97.1114 21.1436 96.3673 20.6477 95.7455 20.0176C95.135 19.3886 94.6583 18.6421 94.3446 17.8233C94.0079 16.9453 93.8398 16.0117 93.849 15.0713C93.849 14.0805 94.0146 13.1639 94.3446 12.3193C94.6584 11.5005 95.135 10.754 95.7455 10.125C96.367 9.49512 97.1107 8.99923 97.9309 8.6679C98.7827 8.31475 99.7315 8.13761 100.775 8.13761V8.13647ZM121.008 21.6599H118.134V20.0782C117.675 20.6649 117.094 21.1437 116.43 21.4805C115.752 21.8302 114.941 22.0039 113.998 22.0039C113.071 22.0039 112.21 21.8325 111.413 21.4885C110.628 21.1526 109.918 20.6635 109.324 20.0496C108.717 19.4179 108.241 18.6721 107.923 17.8553C107.577 16.9681 107.404 16.0226 107.413 15.0702C107.413 14.061 107.585 13.133 107.923 12.285C108.241 11.4683 108.718 10.7226 109.325 10.0908C109.919 9.47705 110.629 8.98792 111.414 8.6519C112.231 8.3044 113.11 8.12895 113.997 8.13647C114.941 8.13647 115.752 8.31361 116.43 8.66675C117.108 9.0199 117.676 9.48961 118.134 10.0759V8.48047H121.007V21.6599H121.008ZM114.34 10.8473C113.717 10.8473 113.161 10.9593 112.67 11.1833C112.18 11.4096 111.767 11.7125 111.428 12.0919C111.082 12.4841 110.816 12.9398 110.644 13.4336C110.461 13.9479 110.37 14.493 110.37 15.0702C110.37 15.6485 110.461 16.1936 110.644 16.7068C110.826 17.221 111.089 17.669 111.428 18.0485C111.767 18.429 112.182 18.7319 112.67 18.957C113.161 19.181 113.717 19.2942 114.341 19.2942C114.936 19.2942 115.477 19.1856 115.962 18.9708C116.448 18.7548 116.864 18.4599 117.213 18.0828C117.562 17.7068 117.831 17.2622 118.024 16.749C118.218 16.2348 118.313 15.6748 118.313 15.0702C118.313 14.4645 118.218 13.9045 118.024 13.3913C117.844 12.8976 117.568 12.444 117.213 12.0565C116.862 11.6785 116.436 11.3767 115.963 11.1696C115.451 10.9494 114.898 10.8396 114.341 10.8473H114.34ZM131.905 8.13647C132.346 8.13647 132.742 8.16618 133.095 8.22675C133.447 8.28618 133.789 8.3799 134.118 8.5079L133.43 11.3559C133.096 11.1888 132.741 11.0685 132.374 10.9982C132.003 10.9199 131.624 10.879 131.245 10.8759C130.787 10.8759 130.366 10.9525 129.982 11.109C129.604 11.2596 129.265 11.4949 128.992 11.797C128.718 12.0999 128.501 12.4713 128.346 12.9113C128.183 13.3941 128.104 13.9012 128.112 14.4108V21.6599H125.24V8.48161H128.086V9.96732C128.492 9.36222 129.058 8.8813 129.721 8.57761C130.371 8.2839 131.1 8.13647 131.905 8.13647ZM141.334 8.13647C142.278 8.13647 143.089 8.31361 143.767 8.66675C144.445 9.0199 145.012 9.48961 145.472 10.0759V1.84961H148.343V21.6599H145.472V20.0782C145.013 20.665 144.431 21.1437 143.767 21.4805C143.089 21.8302 142.278 22.0039 141.335 22.0039C140.408 22.0039 139.547 21.8325 138.75 21.4885C137.965 21.1526 137.255 20.6634 136.662 20.0496C136.055 19.4176 135.578 18.6719 135.259 17.8553C134.913 16.9681 134.741 16.0226 134.75 15.0702C134.75 14.061 134.922 13.133 135.259 12.285C135.578 11.4686 136.055 10.723 136.662 10.0908C137.256 9.477 137.966 8.98787 138.751 8.6519C139.568 8.3045 140.447 8.12905 141.334 8.13647ZM151.698 20.4416C151.864 20.4421 152.027 20.4907 152.166 20.5816C152.305 20.6724 152.416 20.8016 152.483 20.9536C152.528 21.0565 152.55 21.1639 152.55 21.2793C152.549 21.3895 152.527 21.4985 152.484 21.6C152.441 21.7015 152.378 21.7933 152.3 21.8702C152.178 21.9887 152.024 22.0689 151.857 22.1008C151.69 22.1327 151.517 22.1149 151.36 22.0496C151.157 21.9652 150.995 21.8055 150.907 21.6039C150.862 21.5016 150.839 21.391 150.84 21.2793C150.84 21.165 150.863 21.0553 150.907 20.9536C150.995 20.7522 151.157 20.5926 151.36 20.5079C151.467 20.4632 151.582 20.4407 151.698 20.4416ZM151.698 21.933C151.783 21.9334 151.867 21.9166 151.946 21.8836C152.024 21.8507 152.095 21.8022 152.155 21.741C152.216 21.6808 152.264 21.6088 152.296 21.5295C152.329 21.4502 152.345 21.3651 152.344 21.2793C152.345 21.194 152.329 21.1093 152.297 21.0302C152.264 20.9511 152.217 20.8792 152.157 20.8186C152.097 20.758 152.025 20.71 151.946 20.6773C151.868 20.6445 151.783 20.6277 151.698 20.6279C151.59 20.6263 151.483 20.6518 151.387 20.7022C151.291 20.7526 151.209 20.8261 151.149 20.9163C151.089 21.0064 151.052 21.1101 151.042 21.2181C151.032 21.326 151.05 21.4347 151.093 21.5342C151.143 21.6529 151.228 21.754 151.335 21.8249C151.443 21.8959 151.569 21.9335 151.698 21.933ZM151.747 20.8873C151.83 20.8816 151.912 20.9051 151.979 20.9536C152.032 20.9993 152.059 21.0588 152.059 21.1353C152.06 21.165 152.055 21.1946 152.044 21.2222C152.033 21.2498 152.016 21.2747 151.995 21.2953C151.944 21.3405 151.879 21.3674 151.811 21.3719L152.066 21.6656H151.866L151.631 21.373H151.554V21.6656H151.387V20.8873H151.747ZM151.555 21.0325V21.2405H151.746C151.782 21.242 151.818 21.2329 151.849 21.2142C151.876 21.197 151.89 21.1708 151.89 21.1353C151.89 21.1202 151.887 21.1051 151.88 21.0916C151.873 21.0782 151.863 21.0668 151.85 21.0588C151.818 21.0402 151.782 21.031 151.746 21.0325H151.555ZM141.678 10.8473C141.103 10.8373 140.534 10.9519 140.008 11.1833C139.517 11.4096 139.104 11.7125 138.764 12.0919C138.418 12.4843 138.152 12.9399 137.98 13.4336C137.798 13.9479 137.706 14.493 137.706 15.0702C137.706 15.6485 137.798 16.1936 137.98 16.7068C138.163 17.221 138.426 17.669 138.764 18.0485C139.104 18.429 139.517 18.7319 140.008 18.957C140.498 19.181 141.054 19.2942 141.678 19.2942C142.272 19.2942 142.814 19.1856 143.3 18.9708C143.785 18.7548 144.202 18.4599 144.55 18.0828C144.905 17.6958 145.181 17.2426 145.361 16.749C145.555 16.2348 145.651 15.6748 145.651 15.0702C145.651 14.4645 145.555 13.9045 145.361 13.3913C145.181 12.8974 144.905 12.4439 144.55 12.0565C144.198 11.6785 143.773 11.3767 143.3 11.1696C142.788 10.9495 142.235 10.8397 141.678 10.8473Z" fill="#F20717"/>
</svg>
