<svg width="112" height="50" viewBox="0 0 112 50" fill="none" xmlns="http://www.w3.org/2000/svg">
<path d="M44.6821 26.3116L39.0923 41.3496L38.4847 38.2812C37.0872 34.5445 34.0796 30.5952 30.5859 29.0154L35.6897 48.3066H41.7049L50.667 26.2812H44.6821V26.3116Z" fill="#0730AE"/>
<path d="M49.4492 48.3663L53.034 26.3105H58.715L55.1606 48.3663H49.4492Z" fill="#0730AE"/>
<path d="M75.8195 26.8285C74.6955 26.3728 72.9334 25.8867 70.7157 25.8867C65.0955 25.8867 61.1157 28.8943 61.0853 33.1779C61.055 36.3373 63.9107 38.1298 66.0676 39.1627C68.2853 40.2563 69.0448 40.9247 69.0145 41.8968C68.9841 43.3854 67.222 44.0538 65.6119 44.0538C63.3334 44.0538 62.1182 43.7196 60.2651 42.8994L59.536 42.5348L58.7461 47.4563C60.0828 48.0639 62.5436 48.6108 65.0955 48.6411C71.0803 48.6411 74.9689 45.6943 74.9993 41.107C75.0296 38.5854 73.5107 36.6715 70.1993 35.1222C68.2246 34.0892 66.979 33.4209 67.0094 32.388C67.0094 31.4766 68.0423 30.5044 70.26 30.5044C72.1132 30.4741 73.4803 30.8994 74.5132 31.3551L75.0296 31.5981L75.8195 26.8285Z" fill="#0730AE"/>
<path d="M90.4294 26.3105H86.0244C84.6573 26.3105 83.6243 26.7055 83.0471 28.1333L74.6016 48.3359H80.5864C80.5864 48.3359 81.5585 45.6017 81.7712 45.0245C82.4092 45.0245 88.2421 45.0245 89.0623 45.0245C89.2446 45.784 89.7611 48.3359 89.7611 48.3359H95.0471L90.4294 26.3105ZM83.3813 40.5283C83.8674 39.2523 85.6598 34.3612 85.6598 34.3612C85.6294 34.4219 86.1155 33.0852 86.4193 32.265L86.7838 34.1789C86.7838 34.1789 87.8775 39.4346 88.1206 40.5587C87.2395 40.5283 84.5054 40.5283 83.3813 40.5283Z" fill="#0730AE"/>
<path d="M33.9229 26.3105H24.7483L24.6875 26.6751C31.8267 28.4979 36.5356 32.9941 38.5103 38.2802L36.5052 28.1333C36.171 26.7662 35.1685 26.3409 33.9229 26.3105Z" fill="#F99E10"/>
<path d="M7.52547 20.9639H3.8799L-0.3125 2.09805L3.72801 1.42969L6.5837 16.1942L13.8748 1.61197H17.7331L7.52547 20.9639Z" fill="#0730AE"/>
<path d="M26.4212 14.7965H17.7629C17.5199 17.4092 18.7351 18.5636 20.8009 18.5636C22.5325 18.5636 24.0515 17.9256 25.692 16.8927V19.5054C24.0819 20.5079 22.2287 21.1459 20.0414 21.1459C16.2743 21.1459 13.7832 18.9889 14.5427 14.1282C15.211 9.75349 18.249 7.08008 21.7731 7.08008C25.8136 7.08008 27.1806 10.1181 26.573 13.9459C26.5123 14.2801 26.4515 14.6143 26.4212 14.7965ZM21.3174 9.4497C19.9806 9.4497 18.7351 10.513 18.1275 12.7307H23.5047C23.5958 10.6041 22.9275 9.4497 21.3174 9.4497Z" fill="#0730AE"/>
<path d="M32.0422 13.1558L30.8574 20.9026H27.5156L29.5814 7.41405H32.4371V10.1178C33.5612 8.53809 35.1106 7.23176 37.2371 7.14062L37.2675 10.452C35.1409 10.5735 33.227 11.6976 32.0422 13.1558Z" fill="#0730AE"/>
<path d="M37.2031 20.9027L39.2689 7.41406H42.6107L40.5449 20.9027H37.2031ZM41.3348 5.13558C40.2107 5.13558 39.4512 4.3457 39.6031 3.22165C39.7854 2.06722 40.7879 1.27734 41.912 1.27734C43.0057 1.27734 43.7651 2.0976 43.5829 3.22165C43.431 4.3457 42.4284 5.13558 41.3348 5.13558Z" fill="#0730AE"/>
<path d="M51.9117 3.70879C50.7573 3.70879 50.089 4.22524 49.8763 5.41005L49.5725 7.38474H52.1548V10.1189H49.1776L47.5067 20.8733H44.1953L45.8662 10.1189H43.9219L44.3472 7.38474H46.2915L46.6561 5.07587C47.1117 2.09866 49.1776 0.974609 51.9421 0.974609C52.5193 0.974609 52.975 1.03537 53.3092 1.09613L53.3396 3.83031C52.975 3.76955 52.489 3.70879 51.9117 3.70879Z" fill="#0730AE"/>
<path d="M51.9453 20.9027L54.0111 7.41406H57.3529L55.2871 20.9027H51.9453ZM56.077 5.13558C54.9529 5.13558 54.1934 4.3457 54.3453 3.22165C54.5276 2.06722 55.5301 1.27734 56.6542 1.27734C57.7478 1.27734 58.5073 2.0976 58.3251 3.22165C58.2035 4.3457 57.1706 5.13558 56.077 5.13558Z" fill="#0730AE"/>
<path d="M70.3821 14.7965H61.7239C61.4808 17.4092 62.696 18.5636 64.7618 18.5636C66.4935 18.5636 68.0125 17.9256 69.653 16.8927V19.5054C68.0429 20.5079 66.1897 21.1459 64.0023 21.1459C60.2353 21.1459 57.7441 18.9889 58.5036 14.1282C59.172 9.75349 62.2099 7.08008 65.734 7.08008C69.7745 7.08008 71.1416 10.1181 70.534 13.9459C70.5036 14.2801 70.4125 14.6143 70.3821 14.7965ZM65.2783 9.4497C63.9416 9.4497 62.696 10.513 62.0884 12.7307H67.4656C67.5568 10.6041 66.9188 9.4497 65.2783 9.4497Z" fill="#0730AE"/>
<path d="M80.3163 20.9035V19.0199C79.1923 20.1744 77.7341 21.1769 75.8505 21.1769C73.0252 21.1769 71.0809 19.0807 71.7796 14.5237C72.5391 9.48071 75.6682 7.26299 78.7973 7.26299C80.0733 7.26299 81.0758 7.47564 81.8353 7.77944L82.8379 1.27817L86.2708 0.761719L83.172 20.9339H80.3163V20.9035ZM81.4404 10.5136C80.6505 10.1187 80.0429 9.9364 78.9189 9.9364C77.1568 9.9364 75.6682 11.3643 75.2125 14.3111C74.8176 16.9237 75.729 18.1693 77.2176 18.1693C78.4328 18.1693 79.4961 17.4402 80.5594 16.3161L81.4404 10.5136Z" fill="#0730AE"/>
<path d="M93.4693 21.0256C91.8896 21.0256 90.5832 20.7825 89.3984 20.3572L91.6162 6.01798L94.2288 5.62305L93.287 11.8205C94.0465 11.1522 95.1098 10.4534 96.3858 10.4534C98.5428 10.4534 100.001 12.0636 99.4541 15.4965C98.8465 19.2636 96.5073 21.0256 93.4693 21.0256ZM95.3225 12.7015C94.4719 12.7015 93.6212 13.2787 92.8617 14.0382L92.163 18.6863C92.6491 18.8686 93.0136 18.9598 93.7427 18.9598C95.3529 18.9598 96.4769 17.9876 96.8415 15.6484C97.1453 13.6737 96.4769 12.7015 95.3225 12.7015Z" fill="#0730AE"/>
<path d="M105.409 21.4513C104.103 23.9728 102.827 24.7626 100.852 24.7626C100.396 24.7626 100.153 24.7323 99.9405 24.6715L99.9102 22.5753C100.244 22.6664 100.579 22.7272 101.065 22.7272C101.794 22.7272 102.462 22.393 102.887 21.6335L103.222 20.9652L101.065 10.8791L103.768 10.5449L105.014 17.8361L108.386 10.6968H110.908L105.409 21.4513Z" fill="#0730AE"/>
</svg>
