<svg width="150" height="50" viewBox="0 0 150 50" fill="none" xmlns="http://www.w3.org/2000/svg">
<path d="M56.4946 1.82443L37.0546 48.2672H24.3684L14.6941 11.2595C14.1465 8.96947 13.5989 8.14504 11.8648 7.1374C8.94421 5.58015 4.1983 4.1145 0 3.19847L0.273802 1.82443H20.7177C23.3645 1.82443 25.6462 3.56489 26.285 6.58779L31.396 33.4275L43.8996 1.82443H56.4946ZM106.327 33.1527C106.418 20.8779 89.4421 20.145 89.5334 14.7405C89.5334 13.0916 91.1762 11.2595 94.6443 10.8931C96.3784 10.7099 101.124 10.5267 106.509 13L108.608 3.01527C105.688 2.00763 101.946 1 97.3824 1C85.5176 1 77.121 7.32061 77.0297 16.3893C76.9385 23.0763 83.0534 26.8321 87.5255 29.0305C92.1801 31.3206 93.8229 32.7863 93.7317 34.8015C93.7317 37.916 89.9897 39.2901 86.5215 39.3817C80.4979 39.4733 76.9385 37.7328 74.2004 36.4504L72.01 46.6183C74.8393 47.9008 80.0415 49 85.4263 49.0916C98.0212 49 106.327 42.771 106.327 33.1527ZM137.814 48.2672H148.948L139.183 1.82443H128.961C126.679 1.82443 124.671 3.19847 123.85 5.21374L105.779 48.2672H118.374L120.838 41.3053H136.262L137.814 48.2672ZM124.306 31.8702L130.604 14.4656L134.254 31.8702H124.306ZM73.7441 1.82443L63.7959 48.2672H51.7486L61.6968 1.82443H73.7441Z" fill="#065BB7"/>
<path d="M0 3.19826C4.1983 4.1143 8.94421 5.57994 11.8648 7.1372C14.7853 8.69445 29.8913 25.5256 29.8913 25.5256L26.285 6.58758C25.6462 3.56468 23.3645 1.82422 20.7177 1.82422H0.273802L0 3.19826Z" fill="#FF9F01"/>
</svg>
