<svg width="44" height="66" viewBox="0 0 44 66" fill="none" xmlns="http://www.w3.org/2000/svg">
<path d="M22.0001 38.3389C16.4896 38.3389 12 33.8475 12 28.3266C12 22.8057 16.4897 18.3145 22.0001 18.3145C27.5104 18.3145 32 22.8058 32 28.3267C32 33.8477 27.5104 38.3389 22.0001 38.3389Z" stroke="black" stroke-width="4"/>
<path d="M2 20C2 10.0589 10.0589 2 20 2H24C33.9411 2 42 10.0589 42 20V40C42 48.7335 35.778 56.0183 27.524 57.6556C25.1957 58.1174 23.5815 59.8759 22.5466 61.3037C22.3376 61.5921 22.1413 61.8826 21.9579 62.1672C21.7535 61.8649 21.5352 61.5562 21.3041 61.2503C20.2586 59.8662 18.6276 58.0893 16.4226 57.6449C8.19507 55.9869 2 48.7147 2 40V20Z" stroke="black" stroke-width="4"/>
</svg>
