<svg width="140" height="140" viewBox="0 0 140 140" fill="none" xmlns="http://www.w3.org/2000/svg">
<mask id="mask0" mask-type="alpha" maskUnits="userSpaceOnUse" x="0" y="0" width="140" height="140">
<circle cx="70" cy="70" r="70" fill="#C4C4C4"/>
</mask>
<g mask="url(#mask0)">
<path d="M56.2619 14.8137C63.9993 8.45977 75.1486 8.45977 82.886 14.8137C85.2301 16.7386 88.2141 17.7082 91.242 17.5287C101.236 16.9362 110.256 23.4896 112.781 33.178C113.546 36.1131 115.391 38.6515 117.946 40.286C126.38 45.6812 129.825 56.2848 126.173 65.607C125.067 68.4312 125.067 71.5688 126.173 74.393C129.825 83.7152 126.38 94.3188 117.946 99.714C115.391 101.349 113.546 103.887 112.781 106.822C110.256 116.51 101.236 123.064 91.242 122.471C88.2142 122.292 85.2301 123.261 82.886 125.186C75.1486 131.54 63.9993 131.54 56.2619 125.186C53.9178 123.261 50.9338 122.292 47.9059 122.471C37.9115 123.064 28.8915 116.51 26.3666 106.822C25.6016 103.887 23.7574 101.349 21.2023 99.714C12.7684 94.3188 9.32306 83.7152 12.975 74.393C14.0814 71.5688 14.0814 68.4312 12.975 65.607C9.32306 56.2848 12.7684 45.6812 21.2023 40.286C23.7574 38.6515 25.6016 36.1131 26.3666 33.178C28.8915 23.4896 37.9115 16.9362 47.9059 17.5287C50.9338 17.7082 53.9178 16.7386 56.2619 14.8137Z" stroke="black" stroke-width="6"/>
<path d="M62.6962 35.3462C67.2248 31.6013 73.7752 31.6013 78.3038 35.3462C80.0113 36.7582 82.191 37.4697 84.4022 37.3377C90.237 36.9894 95.5564 40.8922 97.0304 46.5877C97.5828 48.7221 98.9231 50.5947 100.789 51.797C105.74 54.9863 107.765 61.2764 105.622 66.7856L108.418 67.8732L105.622 66.7856C104.82 68.8476 104.82 71.1524 105.622 73.2144L108.418 72.1268L105.622 73.2144C107.765 78.7236 105.74 85.0137 100.789 88.203C98.9231 89.4053 97.5828 91.2779 97.0304 93.4124C95.5564 99.1078 90.237 103.011 84.4022 102.662C82.191 102.53 80.0113 103.242 78.3038 104.654L80.2157 106.966L78.3038 104.654C73.7752 108.399 67.2248 108.399 62.6962 104.654L60.9068 106.818L62.6962 104.654C60.9887 103.242 58.809 102.53 56.5978 102.662C50.763 103.011 45.4436 99.1078 43.9696 93.4123C43.4172 91.2779 42.0769 89.4053 40.2105 88.203C35.2595 85.0137 33.235 78.7236 35.3782 73.2144C36.1804 71.1524 36.1804 68.8476 35.3782 66.7856C33.235 61.2764 35.2595 54.9863 40.2105 51.797C42.0769 50.5947 43.4172 48.7221 43.9696 46.5877C45.4436 40.8922 50.763 36.9894 56.5978 37.3377C58.809 37.4697 60.9887 36.7582 62.6962 35.3462Z" stroke="black" stroke-width="6"/>
</g>
<path d="M65.4903 78L83 62M58 71.1994L65.3946 78" stroke="black" stroke-width="6" stroke-linecap="round"/>
</svg>
