<svg width="140" height="140" viewBox="0 0 140 140" fill="none" xmlns="http://www.w3.org/2000/svg">
<path d="M66 51.0909C66 42.2042 73.2041 35 82.0909 35H85.9091C94.7959 35 102 42.2042 102 51.0909V70.1818C102 77.9877 96.4387 84.5013 89.0607 85.9648C86.6619 86.4406 84.998 88.107 83.9437 89.4691C82.8976 88.1484 81.2159 86.4237 78.8916 85.9553C71.5372 84.4732 66 77.9708 66 70.1818V51.0909Z" fill="#CBEAE7" stroke="black" stroke-width="6"/>
<path d="M84.0001 67C79.5914 67 76 63.4086 76 58.9999C76 54.5914 79.5915 51 84.0001 51C88.4086 51 92 54.5914 92 59.0001C92 63.4087 88.4086 67 84.0001 67Z" stroke="black" stroke-width="6"/>
<circle cx="70" cy="70" r="60" stroke="black" stroke-width="6"/>
<circle cx="86" cy="104" r="4" fill="black"/>
<path d="M26 37C65.5 51.5 31 70.5 39 91.5C43.7518 103.974 70.1586 112.039 81.5 105" stroke="black" stroke-width="4" stroke-linecap="round" stroke-dasharray="2.6 6.2"/>
</svg>
