<svg width="44" height="66" viewBox="0 0 44 66" fill="none" xmlns="http://www.w3.org/2000/svg">
<mask id="path-1-inside-1" fill="white">
<path fill-rule="evenodd" clip-rule="evenodd" d="M0 20C0 8.95432 8.95428 0 20 0H24C35.0457 0 44 8.95432 44 20V40C44 49.7065 37.0853 57.7979 27.9131 59.6173C25.3831 60.1192 23.7165 63.0393 22.6447 64.9172C22.3998 65.3463 22.186 65.721 22 66C21.8373 65.7559 21.6449 65.4372 21.4245 65.0721C20.2905 63.1934 18.4154 60.0867 16.0275 59.6055C6.88483 57.7631 0 49.6855 0 40V20ZM22.0001 36.3389C17.5961 36.3389 14 32.7449 14 28.3266C14 23.9084 17.5962 20.3145 22.0001 20.3145C26.4039 20.3145 30 23.9084 30 28.3267C30 32.745 26.4039 36.3389 22.0001 36.3389ZM10 28.3266C10 34.9502 15.3831 40.3389 22.0001 40.3389C28.6169 40.3389 34 34.9503 34 28.3267C34 21.7031 28.6169 16.3145 22.0001 16.3145C15.3833 16.3145 10 21.703 10 28.3266Z"/>
</mask>
<path fill-rule="evenodd" clip-rule="evenodd" d="M0 20C0 8.95432 8.95428 0 20 0H24C35.0457 0 44 8.95432 44 20V40C44 49.7065 37.0853 57.7979 27.9131 59.6173C25.3831 60.1192 23.7165 63.0393 22.6447 64.9172C22.3998 65.3463 22.186 65.721 22 66C21.8373 65.7559 21.6449 65.4372 21.4245 65.0721C20.2905 63.1934 18.4154 60.0867 16.0275 59.6055C6.88483 57.7631 0 49.6855 0 40V20ZM22.0001 36.3389C17.5961 36.3389 14 32.7449 14 28.3266C14 23.9084 17.5962 20.3145 22.0001 20.3145C26.4039 20.3145 30 23.9084 30 28.3267C30 32.745 26.4039 36.3389 22.0001 36.3389ZM10 28.3266C10 34.9502 15.3831 40.3389 22.0001 40.3389C28.6169 40.3389 34 34.9503 34 28.3267C34 21.7031 28.6169 16.3145 22.0001 16.3145C15.3833 16.3145 10 21.703 10 28.3266Z" fill="black"/>
<path d="M27.9131 59.6173L28.6914 63.5409L28.6914 63.5409L27.9131 59.6173ZM22.6447 64.9172L19.1707 62.9345L19.1707 62.9345L22.6447 64.9172ZM22 66L18.6718 68.2188L22 73.2111L25.3282 68.2188L22 66ZM21.4245 65.0721L24.8491 63.0051H24.8491L21.4245 65.0721ZM16.0275 59.6055L16.8177 55.6843L16.8177 55.6843L16.0275 59.6055ZM20 -4C6.74514 -4 -4 6.74518 -4 20H4C4 11.1635 11.1634 4 20 4V-4ZM24 -4H20V4H24V-4ZM48 20C48 6.74518 37.2549 -4 24 -4V4C32.8366 4 40 11.1635 40 20H48ZM48 40V20H40V40H48ZM28.6914 63.5409C39.6999 61.3573 48 51.6524 48 40H40C40 47.7606 34.4708 54.2386 27.1349 55.6938L28.6914 63.5409ZM26.1188 66.8999C26.679 65.9184 27.1945 65.0357 27.7894 64.3306C28.4058 63.5999 28.7187 63.5355 28.6914 63.5409L27.1349 55.6938C24.5776 56.201 22.7921 57.8476 21.6748 59.1719C20.5359 60.5218 19.6823 62.0381 19.1707 62.9345L26.1188 66.8999ZM25.3282 68.2188C25.6088 67.7979 25.9001 67.283 26.1188 66.8999L19.1707 62.9345C18.8995 63.4096 18.7632 63.6441 18.6718 63.7812L25.3282 68.2188ZM18 67.1391C18.2031 67.4756 18.4479 67.883 18.6718 68.2188L25.3282 63.7812C25.2266 63.6289 25.0867 63.3988 24.8491 63.0051L18 67.1391ZM15.2373 63.5267C15.0772 63.4944 15.4026 63.526 16.1458 64.4022C16.8149 65.191 17.4111 66.1635 18 67.1391L24.8491 63.0051C24.3039 62.1019 23.3956 60.5818 22.2466 59.2272C21.1718 57.9601 19.3657 56.1978 16.8177 55.6843L15.2373 63.5267ZM-4 40C-4 51.6273 4.26434 61.3154 15.2373 63.5267L16.8177 55.6843C9.50531 54.2107 4 47.7438 4 40H-4ZM-4 20V40H4V20H-4ZM10 28.3266C10 34.9508 15.3837 40.3389 22.0001 40.3389V32.3389C19.8085 32.3389 18 30.539 18 28.3266H10ZM22.0001 16.3145C15.3838 16.3145 10 21.7024 10 28.3266H18C18 26.1143 19.8085 24.3145 22.0001 24.3145V16.3145ZM34 28.3267C34 21.7025 28.6163 16.3145 22.0001 16.3145V24.3145C24.1914 24.3145 26 26.1142 26 28.3267H34ZM22.0001 40.3389C28.6163 40.3389 34 34.9509 34 28.3267H26C26 30.5391 24.1915 32.3389 22.0001 32.3389V40.3389ZM22.0001 36.3389C17.5961 36.3389 14 32.7449 14 28.3266H6C6 37.1555 13.1701 44.3389 22.0001 44.3389V36.3389ZM30 28.3267C30 32.745 26.4039 36.3389 22.0001 36.3389V44.3389C30.8298 44.3389 38 37.1556 38 28.3267H30ZM22.0001 20.3145C26.4039 20.3145 30 23.9084 30 28.3267H38C38 19.4979 30.8299 12.3145 22.0001 12.3145V20.3145ZM14 28.3266C14 23.9084 17.5962 20.3145 22.0001 20.3145V12.3145C13.1704 12.3145 6 19.4976 6 28.3266H14Z" fill="black" mask="url(#path-1-inside-1)"/>
</svg>
