<svg width="143" height="44" viewBox="0 0 143 44" fill="none" xmlns="http://www.w3.org/2000/svg">
<g clip-path="url(#clip0)">
<path d="M130.695 16.3531H125.087L117.63 4.14863L117.636 16.3531H109.622L108.105 12.7085H99.9094L98.3977 16.3531H93.8143C91.8791 16.3531 89.4593 15.9131 88.0868 14.5418C86.7033 13.1485 86.0013 11.2931 86.0013 8.33229C86.0013 5.91596 86.4358 3.7068 88.1147 1.9743C89.3813 0.679965 91.3944 0.067633 94.1096 0.067633H97.8721V3.5583L94.1857 3.5528C92.7297 3.5528 91.9107 3.76913 91.14 4.52813C90.4491 5.20646 89.9867 6.50446 89.9867 8.21679C89.9867 9.94929 90.3321 11.1941 91.1065 12.0301C91.6878 12.6645 92.7798 12.8625 93.8403 12.8625H95.6083L101.156 0.0694653H107.022L113.697 15.4658V0.0694653H119.714L126.641 11.4031L126.634 0.0694653H130.693L130.695 16.3531ZM80.0454 16.3531H84.0773V0.0639648H80.0473L80.0454 16.3531ZM75.7517 0.855963C74.4814 0.140963 73.0031 0.067633 71.0067 0.067633H61.9345V16.3531H65.8717V10.4241H70.0967C71.5304 10.4241 72.3958 10.5506 72.9567 11.1391C73.6884 11.9036 73.6067 13.3245 73.6067 14.2925V16.3531H77.5698V13.121C77.5698 11.7056 77.4695 10.9576 76.918 10.1693C76.5837 9.6963 75.8408 9.11329 74.9773 8.78879C76.0135 8.38546 77.7816 7.04897 77.7816 4.46763C77.7816 2.6453 77.0183 1.57646 75.7517 0.855963ZM59.2064 12.9505L49.9894 12.9615V9.7348L58.9835 9.74029V6.39447H49.9894V3.46113H59.2064V0.0694653H46.0523V16.3531H59.2064V12.9505ZM43.1143 0.0694653H36.5567L31.8136 11.1098L26.6786 0.067633H20.2324L20.238 15.4695L13.5578 0.067633H7.69112L0.637695 16.3513H4.93141L6.44127 12.7066H14.6387L16.156 16.3513H24.1696V3.58396L29.8951 16.3513H33.3587L39.0694 3.60047V16.3513H43.1124V0.067633L43.1143 0.0694653ZM106.69 9.3168L104.001 2.8488L101.317 9.3168H106.69ZM72.602 6.74647C72.0708 7.05997 71.432 7.08197 70.6705 7.08197H65.8698V3.4593H70.7281C71.4245 3.4593 72.1321 3.4813 72.602 3.74163C73.0923 4.01113 73.4098 4.51163 73.4098 5.19913C73.4098 5.89947 73.1034 6.46047 72.602 6.74647ZM7.85455 9.3168L10.5363 2.8488L13.2254 9.3168H7.85455ZM141.569 39.2075C141.569 42.6725 139.366 44.3335 135.379 44.3335H127.774V40.8428H135.351C136.083 40.8428 136.607 40.7438 136.935 40.4468C137.083 40.311 137.201 40.1464 137.281 39.9633C137.361 39.7803 137.401 39.5828 137.4 39.3835C137.406 39.1797 137.366 38.9772 137.283 38.7907C137.199 38.6042 137.075 38.4384 136.919 38.3055C136.623 38.058 136.222 37.9571 135.546 37.9425C131.867 37.8435 127.239 38.058 127.239 32.8935C127.239 30.5596 128.738 28.0498 132.881 28.0498H140.733V31.546H133.546C132.837 31.546 132.363 31.568 131.979 31.821C131.561 32.0905 131.392 32.4755 131.392 32.9998C131.392 33.6048 131.75 34.0283 132.257 34.2043C132.658 34.3418 133.111 34.3748 133.769 34.3876L135.882 34.4426C138.068 34.4903 139.494 34.8478 140.382 35.7516C141.162 36.5601 141.571 37.5116 141.571 39.2075H141.569ZM124.99 35.7516C124.104 34.8533 122.665 34.4903 120.479 34.4408L118.371 34.3858C117.714 34.3748 117.268 34.3418 116.861 34.2043C116.606 34.1218 116.384 33.96 116.229 33.7429C116.074 33.5259 115.994 33.2652 116.002 32.9998C116.002 32.4755 116.169 32.0905 116.581 31.821C116.967 31.568 117.446 31.546 118.16 31.546H125.382V28.0498H117.489C113.348 28.0498 111.847 30.5541 111.847 32.8935C111.847 38.0635 116.475 37.8435 120.15 37.9425C120.825 37.959 121.233 38.058 121.523 38.3055C121.801 38.5365 122.008 38.8995 122.008 39.3853C122.008 39.8418 121.801 40.2048 121.54 40.4486C121.211 40.7438 120.691 40.8428 119.955 40.8428H112.31V44.3335H119.983C123.971 44.3335 126.173 42.6706 126.173 39.2075C126.173 37.5135 125.772 36.5601 124.99 35.7516ZM109.968 40.9473L100.751 40.9418V37.7298H109.75V34.3748L100.751 34.3803V31.447H109.968V28.0498H96.8136V44.3335H109.968V40.9473ZM92.6034 28.8436C91.3275 28.1213 89.8548 28.0498 87.864 28.0498H78.7863V44.3335H82.716V38.4155L86.954 38.41C88.3877 38.41 89.2475 38.5383 89.814 39.1195C90.5457 39.8895 90.4566 41.3048 90.4566 42.2746V44.3335H94.4271V41.1068C94.4215 39.6933 94.3268 38.9435 93.7697 38.157C93.441 37.6785 92.6981 37.0936 91.8383 36.7691C92.8653 36.3676 94.6333 35.0348 94.6333 32.448C94.6333 30.633 93.87 29.5641 92.6034 28.8436ZM70.3121 28.0498H57.7207L52.6953 33.3958L47.8667 28.0498H32.0067V44.3335H47.6215L52.6563 38.9655L57.5034 44.3335H65.1697V38.883H70.0651C73.5064 38.883 76.918 37.9425 76.918 33.4343C76.918 28.9316 73.4173 28.0498 70.3121 28.0498ZM89.4593 34.7378C88.9244 35.0403 88.2837 35.0641 87.526 35.0641L82.7178 35.0696V31.447H87.5817C88.2781 31.447 88.9857 31.469 89.4611 31.722C89.9514 31.997 90.2634 32.4975 90.2634 33.1868C90.2634 33.8835 89.957 34.4463 89.4611 34.7378H89.4593ZM70.2675 35.5426H65.1678V31.447H70.3103C71.7217 31.447 72.6911 32.0245 72.6911 33.4343C72.6911 34.8313 71.7663 35.5426 70.2675 35.5426ZM55.1987 36.2301L61.2344 29.8171V42.8466L55.1987 36.2301ZM45.6251 40.9418H35.9494V37.7298H44.5758V34.3748L35.9494 34.3803V31.447H45.7978L50.1194 36.1806L45.6251 40.9418Z" fill="black"/>
</g>
<defs>
<clipPath id="clip0">
<rect width="143" height="44" fill="white"/>
</clipPath>
</defs>
</svg>
