<svg width="122" height="45" viewBox="0 0 122 45" fill="none" xmlns="http://www.w3.org/2000/svg">
<path fill-rule="evenodd" clip-rule="evenodd" d="M55.7443 34.4539H57.2789L56.8569 36.4132H56.4732L56.8185 34.7996H56.0512L55.7059 36.4132H55.3223L55.7443 34.4539ZM57.9694 36.4132H57.5858L58.0078 34.4539H58.8135C58.9669 34.4539 59.082 34.4539 59.1587 34.4923C59.2355 34.5307 59.3122 34.5691 59.3506 34.646C59.3889 34.7228 59.4273 34.7996 59.4273 34.9149C59.4273 35.0301 59.4273 35.107 59.3889 35.1838C59.3506 35.2606 59.3122 35.3375 59.2355 35.4143C59.1971 35.4527 59.1204 35.5296 59.0436 35.5296C58.9669 35.568 58.8902 35.568 58.7751 35.6064C58.6984 35.6064 58.5833 35.6064 58.4298 35.6064H58.1613L57.9694 36.4132ZM58.1613 35.3375H58.2763C58.4682 35.3375 58.6216 35.3375 58.6984 35.2991C58.7751 35.2606 58.8135 35.2222 58.8518 35.1838C58.8902 35.107 58.9286 35.0685 58.9286 34.9917C58.9286 34.9533 58.9285 34.9149 58.8902 34.8765C58.8518 34.838 58.8518 34.838 58.8135 34.7996C58.7751 34.7996 58.6984 34.7612 58.5449 34.7612H58.2763L58.1613 35.3375ZM59.7726 35.6448C59.7726 35.5296 59.7726 35.4143 59.8109 35.2991C59.8493 35.1454 59.926 34.9917 60.0028 34.838C60.0795 34.7228 60.1946 34.6075 60.3481 34.5307C60.5015 34.4539 60.655 34.4154 60.8468 34.4154C61.077 34.4154 61.2688 34.4923 61.4223 34.646C61.5757 34.7996 61.6525 34.9917 61.6525 35.2606C61.6525 35.4527 61.6141 35.6832 61.499 35.8753C61.3839 36.0674 61.2688 36.2211 61.1153 36.3363C60.9619 36.4516 60.7701 36.49 60.5399 36.49C60.3481 36.49 60.1946 36.4516 60.0795 36.3748C59.9644 36.2979 59.8877 36.1827 59.8109 36.0674C59.8109 35.8753 59.7726 35.7601 59.7726 35.6448ZM60.1562 35.6448C60.1562 35.7601 60.1946 35.8753 60.2713 35.9906C60.348 36.0674 60.4631 36.1442 60.5782 36.1442C60.6933 36.1442 60.8084 36.1058 60.8852 36.029C61.0003 35.9522 61.077 35.8369 61.1153 35.7216C61.1921 35.568 61.2304 35.4527 61.2304 35.2991C61.2304 35.1454 61.1921 35.0301 61.1153 34.9533C61.0386 34.8765 60.9235 34.838 60.8084 34.838C60.6166 34.838 60.4631 34.9149 60.3481 35.107C60.233 35.2222 60.1562 35.4143 60.1562 35.6448ZM62.0361 36.4132L62.4581 34.4539H63.1103C63.2638 34.4539 63.3405 34.4539 63.4172 34.4539C63.494 34.4539 63.609 34.4923 63.6474 34.5307C63.7241 34.5691 63.7625 34.6075 63.8009 34.6844C63.8392 34.7612 63.8392 34.838 63.8392 34.9149C63.8392 35.0301 63.8009 35.107 63.7625 35.1838C63.6858 35.2606 63.6091 35.3375 63.494 35.3759C63.6091 35.4143 63.6858 35.4527 63.7241 35.5296C63.7625 35.6064 63.8009 35.6832 63.8009 35.7601C63.8009 35.8753 63.7625 35.9906 63.6858 36.1058C63.6091 36.2211 63.5323 36.2979 63.4172 36.3363C63.3021 36.3747 63.1487 36.4132 62.9569 36.4132H62.0361ZM62.6883 35.2606H62.9952C63.1487 35.2606 63.2254 35.2606 63.3021 35.2222C63.3789 35.1838 63.4172 35.1838 63.4556 35.1454C63.494 35.107 63.494 35.0685 63.494 34.9917C63.494 34.9533 63.494 34.9149 63.4556 34.8765C63.4172 34.838 63.3789 34.838 63.3405 34.7996C63.3021 34.7996 63.2254 34.7996 63.1103 34.7996H62.8034L62.6883 35.2606ZM62.4965 36.1058H62.8801C63.0336 36.1058 63.1487 36.1058 63.187 36.0674C63.2254 36.029 63.3021 36.029 63.3021 35.9522C63.3405 35.9137 63.3405 35.8369 63.3405 35.7985C63.3405 35.7216 63.3021 35.6832 63.2638 35.6448C63.2254 35.6064 63.1487 35.568 63.0336 35.568H62.5732L62.4965 36.1058ZM65.4889 35.9906H64.7216L64.4914 36.4132H64.0694L65.182 34.4539H65.6424L65.9493 36.4132H65.5657L65.4889 35.9906ZM65.4122 35.6448L65.2971 34.8765L64.8751 35.6448H65.4122ZM66.8701 34.4539H67.2537L66.9852 35.6448L68.021 34.4539H68.4047L68.021 36.4132H67.6374L67.9059 35.1838L66.8317 36.4132H66.4481L66.8701 34.4539ZM67.2921 33.916H67.4839C67.5223 33.9929 67.5223 34.0313 67.5606 34.0697C67.599 34.1081 67.6374 34.1081 67.6757 34.1081C67.7908 34.1081 67.8675 34.0313 67.9443 33.916H68.1361C68.0977 34.0313 68.0594 34.1465 67.9443 34.1849C67.8675 34.2618 67.7908 34.3002 67.6757 34.3002C67.5606 34.3002 67.4839 34.2618 67.4072 34.1849C67.3688 34.1465 67.3304 34.0313 67.2921 33.916ZM69.2487 34.4539C69.1336 35.1454 68.9418 35.6832 68.7116 36.0674H68.5197L68.3279 36.9126H68.6348L68.7499 36.3748H70.016L69.9009 36.9126H70.2078L70.3996 36.0674H70.2462L70.5914 34.4539H69.2487ZM70.1694 34.7996L69.9009 36.1058H69.172C69.3638 35.7601 69.4789 35.3375 69.594 34.7996H70.1694ZM70.9367 36.4132L71.3587 34.4539H72.7782L72.7015 34.7612H71.6657L71.5889 35.1838H72.5864L72.5097 35.4911H71.5122L71.3971 36.029H72.5097L72.433 36.3363H70.9367V36.4132ZM73.4304 36.4132H73.0468L73.4688 34.4539H74.2745C74.4279 34.4539 74.543 34.4539 74.6197 34.4923C74.6965 34.5307 74.7732 34.5691 74.8116 34.646C74.8499 34.7228 74.8883 34.7996 74.8883 34.9149C74.8883 35.0301 74.8883 35.107 74.8499 35.1838C74.8116 35.2606 74.7732 35.3375 74.6965 35.4143C74.6581 35.4527 74.5814 35.5296 74.5047 35.5296C74.4279 35.568 74.3512 35.568 74.2361 35.6064C74.1594 35.6064 74.0443 35.6064 73.8908 35.6064H73.6223L73.4304 36.4132ZM73.6606 35.3375H73.7757C73.9675 35.3375 74.121 35.3375 74.1977 35.2991C74.2745 35.2606 74.3128 35.2222 74.3512 35.1838C74.3896 35.107 74.4279 35.0685 74.4279 34.9917C74.4279 34.9533 74.4279 34.9149 74.3896 34.8765C74.3512 34.838 74.3512 34.838 74.3128 34.7996C74.2745 34.7996 74.1977 34.7612 74.0443 34.7612H73.7757L73.6606 35.3375ZM77.4971 35.2606H78.1109C78.1109 35.0685 78.0726 34.9533 77.9958 34.8765C77.9191 34.7996 77.804 34.7612 77.6889 34.7612C77.5738 34.7612 77.4971 34.7996 77.4204 34.838C77.3436 34.9149 77.3053 34.9533 77.2669 35.0685L76.8833 34.9917C76.9216 34.838 76.9984 34.6844 77.1518 34.6075C77.3053 34.4923 77.4971 34.4539 77.6889 34.4539C77.9191 34.4539 78.1493 34.5307 78.2644 34.6844C78.4179 34.838 78.4946 35.0301 78.4946 35.2991C78.4946 35.6064 78.4179 35.8753 78.226 36.1058C78.0342 36.3363 77.7657 36.4516 77.4587 36.4516C77.0751 36.4516 76.8449 36.2595 76.7298 35.8753L77.1135 35.7601C77.1135 35.9137 77.1902 36.029 77.2669 36.0674C77.3436 36.1058 77.4204 36.1442 77.4971 36.1442C77.6122 36.1442 77.7273 36.1058 77.804 36.029C77.9191 35.9522 77.9958 35.7985 78.0342 35.6448H77.4204L77.4971 35.2606ZM79.3386 34.4539H80.6814L80.2594 36.4132H79.8757L80.221 34.7996H79.6839L79.4537 35.7985C79.4153 35.9137 79.377 36.029 79.3386 36.1442C79.3003 36.2595 79.2235 36.2979 79.1851 36.3748C79.1084 36.4132 79.0317 36.4516 78.9166 36.4516C78.8399 36.4516 78.7631 36.4516 78.648 36.4132L78.7248 36.0674C78.8015 36.0674 78.8399 36.0674 78.8399 36.0674C78.955 36.0674 79.0317 35.9906 79.0701 35.7985V35.7601L79.3386 34.4539ZM80.9499 36.4132L81.3719 34.4539H82.7914L82.7147 34.7612H81.6789L81.6021 35.1838H82.5996L82.5229 35.4911H81.5254L81.4103 36.029H82.5229L82.4462 36.3363H80.9499V36.4132ZM83.482 34.4539H83.8657L83.6738 35.2606C83.7506 35.2606 83.8273 35.2606 83.8657 35.2222C83.904 35.1838 83.9807 35.107 84.0575 34.9533C84.1342 34.7996 84.2109 34.6844 84.2877 34.6075C84.326 34.5307 84.4028 34.4923 84.4795 34.4923C84.5562 34.4539 84.6329 34.4539 84.7864 34.4539H84.9015L84.8248 34.7612H84.748C84.7097 34.7612 84.6713 34.7612 84.6329 34.7996C84.5946 34.7996 84.5946 34.838 84.5562 34.9149C84.4411 35.107 84.3644 35.2222 84.2877 35.2991C84.2109 35.3759 84.1726 35.4143 84.0958 35.4143C84.2109 35.4527 84.326 35.568 84.3644 35.7601V35.7985L84.5562 36.4132H84.1342L83.9807 35.7985C83.9807 35.7985 83.9808 35.7601 83.9424 35.6832C83.904 35.6064 83.8273 35.568 83.7122 35.568L83.5204 36.4132H83.1367L83.482 34.4539ZM85.899 36.4132H85.5153L85.8606 34.7996H85.2852L85.3619 34.4923H86.8965L86.8197 34.7996H86.2443L85.899 36.4132ZM87.3952 36.4132H87.0116L87.4336 34.4539H88.2392C88.3927 34.4539 88.5078 34.4539 88.5845 34.4923C88.6612 34.5307 88.738 34.5691 88.7763 34.646C88.8147 34.7228 88.8531 34.7996 88.8531 34.9149C88.8531 35.0301 88.8531 35.107 88.8147 35.1838C88.7763 35.2606 88.738 35.3375 88.6613 35.4143C88.6229 35.4527 88.5462 35.5296 88.4694 35.5296C88.3927 35.568 88.316 35.568 88.2009 35.6064C88.1241 35.6064 88.009 35.6064 87.8556 35.6064H87.587L87.3952 36.4132ZM87.6254 35.3375H87.7405C87.9323 35.3375 88.0858 35.3375 88.1625 35.2991C88.2392 35.2606 88.2776 35.2222 88.316 35.1838C88.3543 35.107 88.3927 35.0685 88.3927 34.9917C88.3927 34.9533 88.3927 34.9149 88.3543 34.8765C88.316 34.838 88.316 34.838 88.2776 34.7996C88.2392 34.7996 88.1625 34.7612 88.009 34.7612H87.7405L87.6254 35.3375ZM89.2367 35.6448C89.2367 35.5296 89.2367 35.4143 89.2751 35.2991C89.3135 35.1454 89.3902 34.9917 89.4669 34.838C89.5436 34.7228 89.6587 34.6075 89.8122 34.5307C89.9657 34.4539 90.1191 34.4154 90.3109 34.4154C90.5411 34.4154 90.7329 34.4923 90.8864 34.646C91.0399 34.7996 91.1166 34.9917 91.1166 35.2606C91.1166 35.4527 91.0782 35.6832 90.9631 35.8753C90.848 36.0674 90.7329 36.2211 90.5795 36.3363C90.426 36.4516 90.2342 36.49 90.004 36.49C89.8122 36.49 89.6587 36.4516 89.5436 36.3748C89.4285 36.2979 89.3518 36.1827 89.2751 36.0674C89.2367 35.8753 89.2367 35.7601 89.2367 35.6448ZM89.6204 35.6448C89.6204 35.7601 89.6587 35.8753 89.7355 35.9906C89.8122 36.0674 89.9273 36.1442 90.0424 36.1442C90.1575 36.1442 90.2726 36.1058 90.3493 36.029C90.4644 35.9522 90.5411 35.8369 90.5795 35.7216C90.6562 35.568 90.6946 35.4527 90.6946 35.2991C90.6946 35.1454 90.6562 35.0301 90.5795 34.9533C90.5028 34.8765 90.3877 34.838 90.2726 34.838C90.0808 34.838 89.9273 34.9149 89.8122 35.107C89.6587 35.2222 89.6204 35.4143 89.6204 35.6448ZM92.843 35.5296H92.0757L91.8839 36.4132H91.5002L91.9223 34.4539H92.3059L92.1525 35.2222H92.9197L93.0732 34.4539H93.4568L93.0348 36.4132H92.6512L92.843 35.5296ZM95.0682 35.5296H94.3009L94.1091 36.4132H93.7254L94.1474 34.4539H94.5311L94.3776 35.2222H95.1449L95.2984 34.4539H95.682L95.26 36.4132H94.8764L95.0682 35.5296ZM98.2908 34.4539H98.6744L98.2524 36.4132H97.8688L98.2908 34.4539ZM96.4109 34.4539H96.7946L96.6411 35.1838H96.948C97.1399 35.1838 97.2933 35.1838 97.4084 35.2222C97.5235 35.2606 97.6002 35.3375 97.6386 35.4143C97.677 35.4911 97.7153 35.6064 97.7153 35.7216C97.7153 35.9137 97.6386 36.0674 97.5235 36.1827C97.3701 36.2979 97.1782 36.3748 96.948 36.3748H95.9889L96.4109 34.4539ZM96.4493 36.1058H96.8329C97.0248 36.1058 97.1782 36.0674 97.2166 35.9906C97.255 35.9137 97.2933 35.8369 97.2933 35.7985C97.2933 35.7216 97.2933 35.6832 97.255 35.6448C97.2166 35.6064 97.1782 35.568 97.1399 35.568C97.1015 35.568 96.9864 35.5296 96.8713 35.5296H96.5644L96.4493 36.1058ZM99.3267 36.4132H98.7896L99.6336 35.4143L99.1348 34.4539H99.5569L99.7487 34.7996C99.7487 34.7996 99.787 34.9149 99.8638 35.0685V35.107C99.9789 34.9917 100.056 34.8765 100.132 34.7996L100.439 34.4539H100.938L100.056 35.4911L100.516 36.4132H100.056L99.9021 36.1442C99.8254 35.9906 99.787 35.8753 99.7487 35.8369C99.7103 35.8753 99.6336 35.9906 99.4801 36.1442L99.3267 36.4132ZM103.01 34.4539H104.544L104.122 36.4132H103.739L104.084 34.7996H103.355L103.01 36.4132H102.626L103.01 34.4539ZM105.388 34.4539H106.731L106.309 36.4132H105.925L106.271 34.7996H105.734L105.503 35.8369C105.465 35.9522 105.427 36.0674 105.388 36.1827C105.35 36.2979 105.273 36.3363 105.235 36.4132C105.158 36.4516 105.081 36.49 104.966 36.49C104.89 36.49 104.813 36.49 104.698 36.4516L104.774 36.1058C104.851 36.1058 104.89 36.1058 104.89 36.1058C105.005 36.1058 105.081 36.029 105.12 35.8369V35.7985L105.388 34.4539ZM108.266 35.9906H107.498L107.268 36.4132H106.846L107.959 34.4539H108.419L108.726 36.4132H108.342L108.266 35.9906ZM108.227 35.6448L108.112 34.8765L107.69 35.6448H108.227ZM109.8 36.4132H109.417L109.762 34.7996H109.186L109.263 34.4923H110.798L110.721 34.7996H110.146L109.8 36.4132ZM110.913 36.4132L111.335 34.4539H112.754L112.678 34.7612H111.642L111.565 35.1838H112.562L112.486 35.4911H111.488L111.373 36.029H112.486L112.409 36.3363H110.913V36.4132ZM114.289 34.4539H114.673L114.519 35.2606C114.596 35.2606 114.634 35.2222 114.673 35.1838C114.711 35.1454 114.788 35.0301 114.903 34.838C114.979 34.7228 115.018 34.6459 115.056 34.6075C115.095 34.5691 115.171 34.5307 115.248 34.4923C115.325 34.4539 115.402 34.4539 115.517 34.4539C115.555 34.4539 115.632 34.4539 115.67 34.4539L115.593 34.7612C115.555 34.7612 115.517 34.7612 115.478 34.7612C115.402 34.7612 115.325 34.7612 115.325 34.7996C115.286 34.838 115.248 34.9149 115.171 35.0685C115.056 35.2606 114.941 35.4143 114.826 35.4527C114.941 35.4911 115.018 35.6064 115.095 35.7985L115.286 36.4516H114.864L114.711 35.9137C114.673 35.7985 114.634 35.7217 114.596 35.6832C114.557 35.6448 114.519 35.6448 114.442 35.6448L114.251 36.49H113.867L114.059 35.6448C114.02 35.6448 113.982 35.6448 113.944 35.6832C113.905 35.7217 113.867 35.7601 113.829 35.7985L113.752 35.9137L113.713 35.9522L113.33 36.5284H112.869L113.368 35.8369C113.483 35.6832 113.598 35.568 113.752 35.568C113.713 35.5296 113.675 35.4911 113.637 35.4143C113.598 35.3375 113.56 35.2606 113.56 35.107C113.56 34.9917 113.522 34.9533 113.522 34.9149C113.483 34.8765 113.445 34.8765 113.407 34.8765C113.368 34.8765 113.368 34.8765 113.291 34.8765L113.368 34.5691C113.407 34.5691 113.445 34.5691 113.483 34.5691C113.598 34.5691 113.637 34.5691 113.713 34.6075C113.752 34.6459 113.79 34.6844 113.829 34.7612C113.867 34.838 113.905 34.9149 113.905 35.0301C113.944 35.1838 113.982 35.299 114.02 35.3375C114.059 35.3759 114.097 35.3759 114.135 35.3759C114.135 35.3759 114.135 35.3759 114.174 35.3759L114.289 34.4539ZM115.824 36.4132L116.246 34.4539H117.665L117.588 34.7612H116.552L116.476 35.1838H117.473L117.396 35.4911H116.399L116.284 36.029H117.396L117.32 36.3363H115.824V36.4132ZM118.317 34.4539H118.701L118.432 35.6448L119.468 34.4539H119.852L119.468 36.4132H119.085L119.353 35.1838L118.279 36.4132H117.895L118.317 34.4539ZM118.778 33.916H118.969C119.008 33.9929 119.008 34.0313 119.046 34.0697C119.085 34.1081 119.123 34.1081 119.161 34.1081C119.276 34.1081 119.353 34.0313 119.43 33.916H119.622C119.583 34.0313 119.545 34.1465 119.43 34.1849C119.353 34.2618 119.276 34.3002 119.161 34.3002C119.046 34.3002 118.969 34.2618 118.893 34.1849C118.816 34.1465 118.778 34.0313 118.778 33.916Z" fill="black"/>
<path fill-rule="evenodd" clip-rule="evenodd" d="M67.3327 30.4187H64.6855L65.0308 28.6123C64.6855 28.8429 64.3019 29.1119 63.9566 29.3426C63.6113 29.5732 63.2276 29.8038 62.844 30.0344C62.4604 30.2266 62.0383 30.4187 61.578 30.534C61.1176 30.6493 60.6188 30.7262 60.0817 30.7262C59.5446 30.7262 59.1226 30.6493 58.739 30.4572C58.3553 30.3034 58.0484 30.0728 57.8182 29.7653C57.588 29.4578 57.4346 29.1119 57.3578 28.7276C57.2811 28.3048 57.2811 27.882 57.3578 27.4208C57.4729 26.8443 57.6648 26.3446 58.01 25.8834C58.317 25.4221 58.7006 24.9994 59.161 24.6534C59.6214 24.3075 60.1585 23.9616 60.7339 23.6926C61.3094 23.4235 61.9232 23.1545 62.5371 22.9239C63.1509 22.6932 63.8031 22.5011 64.4553 22.3473C65.1075 22.1551 65.7597 22.0014 66.3735 21.8477L66.527 21.0021C66.6421 20.3871 66.6805 19.8875 66.6421 19.4647C66.6037 19.0419 66.4886 18.696 66.3352 18.4654C66.1434 18.1963 65.9132 18.0426 65.6446 17.9273C65.3377 17.812 64.9924 17.7735 64.6088 17.7735C64.1484 17.7735 63.8031 17.8504 63.4962 17.9657C63.1893 18.081 62.9591 18.2347 62.7289 18.4269C62.5371 18.6191 62.3836 18.8497 62.2685 19.0803C62.1534 19.3109 62.0767 19.58 62.0383 19.8106C62 20.0412 61.9232 20.2718 61.8465 20.464C61.7698 20.6946 61.6547 20.8483 61.5396 21.0405C61.4245 21.1943 61.2327 21.348 61.0792 21.4249C60.8874 21.5402 60.6572 21.5786 60.3886 21.5786C60.1968 21.5786 60.005 21.5402 59.8515 21.4633C59.6981 21.3864 59.583 21.2711 59.4679 21.1174C59.3528 20.9636 59.3144 20.8099 59.2761 20.6177C59.2377 20.4256 59.2377 20.2334 59.3144 20.0028C59.3912 19.58 59.6214 19.1572 59.9666 18.7728C60.3119 18.3885 60.7723 18.081 61.3094 17.7735C61.8465 17.5045 62.4603 17.2739 63.1509 17.1201C63.8415 16.9664 64.532 16.8895 65.261 16.8895C66.1434 16.8895 66.8723 16.9664 67.4094 17.1586C67.9849 17.3123 68.4069 17.5813 68.7138 17.8888C69.0207 18.1963 69.2125 18.5807 69.2893 19.0034C69.366 19.4262 69.366 19.9259 69.2509 20.464L67.3327 30.4187ZM66.1817 22.6932C65.7981 22.8085 65.3761 22.9623 64.9157 23.116C64.4937 23.2698 64.0333 23.4619 63.6113 23.6541C63.1893 23.8463 62.7673 24.0769 62.3836 24.2691C62 24.4997 61.6163 24.7303 61.3094 24.9994C61.0025 25.2684 60.7339 25.5375 60.5037 25.8065C60.2736 26.114 60.1585 26.383 60.0817 26.6905C60.005 26.998 60.005 27.3055 60.0817 27.613C60.1585 27.9204 60.2352 28.1511 60.427 28.3817C60.5805 28.6123 60.7723 28.766 61.0025 28.9198C61.2327 29.0351 61.5012 29.1119 61.7698 29.1119C62.0767 29.1119 62.3453 29.0735 62.6522 28.9966C62.9207 28.9198 63.2276 28.8045 63.4962 28.6891C63.7647 28.5738 64.0717 28.4201 64.3402 28.2279C64.6088 28.0357 64.9157 27.882 65.2226 27.6514L66.1817 22.6932ZM75.1974 29.8038C75.5427 29.8038 75.888 29.7653 76.2333 29.65C76.5402 29.5347 76.8471 29.381 77.1157 29.2272C77.3842 29.0351 77.576 28.8429 77.7679 28.6123C77.9213 28.3817 78.0364 28.1126 78.1131 27.882C78.1899 27.4592 78.1515 27.1133 77.9981 26.8058C77.8446 26.4983 77.6528 26.2293 77.3459 25.9987C77.0773 25.7681 76.732 25.5374 76.3484 25.3453C75.9647 25.1531 75.5811 24.9609 75.1591 24.7303C74.7754 24.5381 74.3534 24.3075 73.9698 24.0385C73.5861 23.8079 73.2792 23.5004 72.9723 23.1929C72.7037 22.8854 72.5119 22.5011 72.3968 22.0783C72.2817 21.6555 72.2817 21.1558 72.3968 20.6177C72.5119 20.0796 72.7037 19.58 73.0106 19.1188C73.3176 18.6575 73.7012 18.2732 74.1616 17.9273C74.622 17.5813 75.1591 17.3507 75.7345 17.1586C76.31 16.9664 76.9622 16.8895 77.6144 16.8895C78.0364 16.8895 78.4584 16.9279 78.8421 16.9664C79.2257 17.0432 79.571 17.1586 79.9163 17.3123C80.2616 17.5045 80.5685 17.7351 80.8754 18.0426C81.1823 18.35 81.4892 18.7728 81.7578 19.3109L80.6452 20.1949C80.2999 19.3878 79.8779 18.7728 79.3025 18.3501C78.7653 17.9273 78.1515 17.7351 77.4226 17.7351C77.0389 17.7351 76.6937 17.7735 76.3867 17.8888C76.0415 17.9657 75.7729 18.1194 75.5044 18.2732C75.2358 18.4269 75.044 18.6191 74.8905 18.8497C74.7371 19.0803 74.622 19.2725 74.5836 19.5415C74.5069 19.9259 74.5452 20.2718 74.6987 20.5793C74.8521 20.8868 75.1207 21.1558 75.4276 21.3864C75.7345 21.6171 76.1182 21.8477 76.5402 22.0398C76.9622 22.232 77.3842 22.4626 77.8446 22.6548C78.305 22.847 78.727 23.0776 79.149 23.3466C79.571 23.5773 79.9163 23.8463 80.2232 24.1922C80.5301 24.4997 80.7603 24.8841 80.8754 25.3068C81.0289 25.7296 81.0289 26.1909 80.9138 26.7674C80.7987 27.3439 80.6069 27.8436 80.2999 28.3432C79.993 28.8429 79.6094 29.2657 79.1106 29.6116C78.6119 29.9575 78.0364 30.265 77.3459 30.4572C76.6553 30.6493 75.888 30.7646 75.044 30.7646C74.6603 30.7646 74.2767 30.7262 73.8547 30.6878C73.471 30.6109 73.0874 30.4956 72.7037 30.3419C72.3201 30.1497 71.9364 29.9191 71.5911 29.6116C71.2459 29.3041 70.9006 28.8813 70.632 28.3432L71.8981 27.3823C72.1282 27.8436 72.3584 28.2279 72.5886 28.5354C72.8188 28.8429 73.0874 29.1119 73.3176 29.3041C73.5861 29.4963 73.8547 29.65 74.1616 29.7653C74.4685 29.7269 74.8138 29.8038 75.1974 29.8038ZM87.1672 29.8038C87.5125 29.8038 87.8578 29.7653 88.2031 29.65C88.5483 29.5347 88.8169 29.381 89.0855 29.2272C89.354 29.0351 89.5458 28.8429 89.7376 28.6123C89.8911 28.3817 90.0062 28.1126 90.0829 27.882C90.1597 27.4592 90.1213 27.1133 89.9678 26.8058C89.8144 26.4983 89.6226 26.2293 89.3156 25.9987C89.0471 25.7681 88.7018 25.5374 88.3182 25.3453C87.9345 25.1531 87.5509 24.9609 87.1288 24.7303C86.7452 24.5381 86.3232 24.3075 85.9395 24.0385C85.5559 23.8079 85.249 23.5004 84.9421 23.1929C84.6735 22.8854 84.4817 22.5011 84.3666 22.0783C84.2515 21.6555 84.2515 21.1558 84.3666 20.6177C84.4817 20.0796 84.6735 19.58 84.9804 19.1188C85.2873 18.6575 85.671 18.2732 86.1314 17.9273C86.5917 17.5813 87.1288 17.3507 87.7043 17.1586C88.2798 16.9664 88.932 16.8895 89.5842 16.8895C90.0062 16.8895 90.4282 16.9279 90.8119 16.9664C91.1955 17.0432 91.5408 17.1586 91.8861 17.3123C92.2314 17.5045 92.5383 17.7351 92.8452 18.0426C93.1521 18.35 93.459 18.7728 93.7276 19.3109L92.615 20.1949C92.2697 19.3878 91.8477 18.7728 91.2722 18.3501C90.7351 17.9273 90.1213 17.7351 89.3924 17.7351C89.0087 17.7351 88.6634 17.7735 88.3565 17.8888C88.0112 17.9657 87.7427 18.1194 87.4741 18.2732C87.2056 18.4269 87.0138 18.6191 86.8603 18.8497C86.7068 19.0803 86.5917 19.2725 86.5534 19.5415C86.4767 19.9259 86.515 20.2718 86.6685 20.5793C86.8219 20.8868 87.0905 21.1558 87.3974 21.3864C87.7043 21.6171 88.088 21.8477 88.51 22.0398C88.932 22.232 89.354 22.4626 89.8144 22.6548C90.2748 22.847 90.6968 23.0776 91.1188 23.3466C91.5408 23.5773 91.8861 23.8463 92.193 24.1922C92.4999 24.4997 92.7301 24.8841 92.8452 25.3068C92.9986 25.7296 92.9986 26.1909 92.8836 26.7674C92.7685 27.3439 92.5766 27.8436 92.2697 28.3432C91.9628 28.8429 91.5792 29.2657 91.0804 29.6116C90.5817 29.9575 90.0062 30.265 89.3156 30.4572C88.6251 30.6493 87.8578 30.7646 87.0138 30.7646C86.6301 30.7646 86.2465 30.7262 85.8245 30.6878C85.4408 30.6109 85.0572 30.4956 84.6735 30.3419C84.2899 30.1497 83.9062 29.9191 83.5609 29.6116C83.2157 29.3041 82.8704 28.8813 82.6018 28.3432L83.8678 27.3823C84.098 27.8436 84.3282 28.2279 84.5584 28.5354C84.7886 28.8429 85.0572 29.1119 85.2873 29.3041C85.5559 29.4963 85.8244 29.65 86.1314 29.7653C86.4383 29.7269 86.7836 29.8038 87.1672 29.8038ZM97.3722 17.6198L99.3672 16.8511H100.134L97.5257 30.4187H94.9169L97.3722 17.6198ZM105.084 29.8038C105.429 29.8038 105.774 29.7653 106.119 29.65C106.426 29.5347 106.733 29.381 107.002 29.2272C107.27 29.0351 107.462 28.8429 107.654 28.6123C107.807 28.3817 107.923 28.1126 107.999 27.882C108.076 27.4592 108.038 27.1133 107.884 26.8058C107.731 26.4983 107.539 26.2293 107.232 25.9987C106.963 25.7681 106.618 25.5374 106.234 25.3453C105.851 25.1531 105.467 24.9609 105.045 24.7303C104.662 24.5381 104.239 24.3075 103.856 24.0385C103.472 23.8079 103.165 23.5004 102.858 23.1929C102.59 22.8854 102.398 22.5011 102.283 22.0783C102.168 21.6555 102.168 21.1558 102.283 20.6177C102.398 20.0796 102.59 19.58 102.897 19.1188C103.204 18.6575 103.587 18.2732 104.048 17.9273C104.508 17.5813 105.045 17.3507 105.621 17.1586C106.196 16.9664 106.848 16.8895 107.5 16.8895C107.923 16.8895 108.345 16.9279 108.728 16.9664C109.112 17.0432 109.457 17.1586 109.802 17.3123C110.148 17.5045 110.455 17.7351 110.761 18.0426C111.068 18.35 111.375 18.7728 111.644 19.3109L110.531 20.1949C110.186 19.3878 109.764 18.7728 109.189 18.3501C108.651 17.9273 108.038 17.7351 107.309 17.7351C106.925 17.7351 106.58 17.7735 106.273 17.8888C105.928 17.9657 105.659 18.1194 105.39 18.2732C105.122 18.4269 104.93 18.6191 104.777 18.8497C104.623 19.0803 104.508 19.2725 104.47 19.5415C104.393 19.9259 104.431 20.2718 104.585 20.5793C104.738 20.8868 105.007 21.1558 105.314 21.3864C105.621 21.6171 106.004 21.8477 106.426 22.0398C106.848 22.232 107.27 22.4626 107.731 22.6548C108.191 22.847 108.613 23.0776 109.035 23.3466C109.457 23.5773 109.802 23.8463 110.109 24.1922C110.416 24.4997 110.646 24.8841 110.761 25.3068C110.915 25.7296 110.915 26.1909 110.8 26.7674C110.685 27.3439 110.493 27.8436 110.186 28.3432C109.879 28.8429 109.495 29.2657 108.997 29.6116C108.498 29.9575 107.923 30.265 107.232 30.4572C106.541 30.6493 105.774 30.7646 104.93 30.7646C104.546 30.7646 104.163 30.7262 103.741 30.6878C103.357 30.6109 102.973 30.4956 102.59 30.3419C102.206 30.1497 101.823 29.9191 101.477 29.6116C101.132 29.3041 100.787 28.8813 100.518 28.3432L101.784 27.3823C102.014 27.8436 102.245 28.2279 102.475 28.5354C102.705 28.8429 102.973 29.1119 103.204 29.3041C103.472 29.4963 103.741 29.65 104.048 29.7653C104.355 29.7269 104.7 29.8038 105.084 29.8038ZM120.084 28.7276C119.624 29.3425 119.048 29.8038 118.396 30.1881C117.744 30.534 116.977 30.7262 116.133 30.7262C115.672 30.7262 115.327 30.6493 115.02 30.4956C114.713 30.3419 114.483 30.1497 114.329 29.8806C114.176 29.6116 114.061 29.2657 114.061 28.9198C114.023 28.5354 114.061 28.1126 114.138 27.6514L115.941 18.2732H113.639L113.754 17.6198C114.483 17.6198 115.135 17.5045 115.672 17.2354C116.209 16.9664 116.67 16.6205 117.053 16.1592C117.437 15.698 117.782 15.1599 118.089 14.5834C118.396 13.9684 118.665 13.3535 118.933 12.6616H119.7L118.818 17.197H121.811L121.58 18.3116H118.588L116.785 27.6898C116.746 27.882 116.746 28.0742 116.785 28.2279C116.823 28.4201 116.9 28.5354 117.015 28.6891C117.13 28.8045 117.245 28.9198 117.399 28.9966C117.552 29.0735 117.744 29.1119 117.936 29.1119C118.243 29.1119 118.511 29.0351 118.78 28.8813C119.048 28.7276 119.278 28.5738 119.509 28.3432L120.084 28.7276Z" fill="black"/>
<path fill-rule="evenodd" clip-rule="evenodd" d="M99.7106 12.7773C99.9025 12.7773 100.094 12.8158 100.286 12.8927C100.44 12.9695 100.593 13.0464 100.708 13.1617C100.823 13.277 100.9 13.4308 100.938 13.5845C100.977 13.7383 101.015 13.9305 100.977 14.0842C100.938 14.2764 100.862 14.4302 100.746 14.5839C100.631 14.7377 100.478 14.8914 100.324 15.0067C100.171 15.122 99.9792 15.2374 99.7874 15.2758C99.5955 15.3527 99.4037 15.3911 99.1735 15.3911C98.9817 15.3911 98.7899 15.3527 98.5981 15.2758C98.4446 15.1989 98.2911 15.122 98.176 15.0067C98.0609 14.8914 97.9842 14.7377 97.9459 14.5839C97.9075 14.4302 97.8691 14.238 97.9075 14.0842C97.9459 13.892 98.0226 13.7383 98.1377 13.5845C98.2528 13.4308 98.4062 13.277 98.5597 13.1617C98.7131 13.0464 98.905 12.9311 99.0968 12.8927C99.2886 12.8158 99.4804 12.7773 99.7106 12.7773Z" fill="black"/>
<path fill-rule="evenodd" clip-rule="evenodd" d="M67.4836 30.0724H64.8365L65.1818 28.266C64.8365 28.4966 64.4528 28.7656 64.1075 28.9962C63.7623 29.2268 63.3786 29.4574 62.995 29.688C62.6113 29.8802 62.1893 30.0724 61.7289 30.1877C61.2685 30.303 60.7698 30.3798 60.2327 30.3798C59.6956 30.3798 59.2736 30.303 58.8899 30.1108C58.5063 29.9571 58.1994 29.7265 57.9308 29.419C57.7006 29.1115 57.5472 28.7656 57.4704 28.3813C57.3937 27.9585 57.3937 27.5358 57.5088 27.0746C57.6239 26.4981 57.8157 25.9984 58.161 25.5372C58.4679 25.076 58.8516 24.6533 59.3119 24.3074C59.7723 23.9615 60.3094 23.6156 60.8849 23.3466C61.4604 23.0775 62.0742 22.8085 62.688 22.5779C63.3019 22.3473 63.9541 22.1551 64.6063 22.0014C65.2585 21.8092 65.9107 21.6555 66.5245 21.5018L66.678 20.6562C66.7931 20.0413 66.8314 19.5417 66.7931 19.1189C66.7547 18.6961 66.6396 18.3502 66.4862 18.1196C66.2943 17.8506 66.0641 17.6969 65.7956 17.5816C65.4887 17.4663 65.1434 17.4278 64.7598 17.4278C64.2994 17.4278 63.9541 17.5047 63.6472 17.62C63.3402 17.7353 63.1101 17.889 62.8799 18.0812C62.688 18.2734 62.5346 18.504 62.4195 18.7346C62.3044 18.9652 62.2277 19.2342 62.1893 19.4648C62.1509 19.6954 62.0742 19.926 61.9975 20.1182C61.9208 20.3488 61.8057 20.5025 61.6906 20.6947C61.5755 20.8484 61.3836 21.0021 61.2302 21.079C61.0384 21.1943 60.8082 21.2327 60.5396 21.2327C60.3478 21.2327 60.156 21.1943 60.0025 21.1174C59.849 21.0406 59.734 20.9253 59.6189 20.7715C59.5038 20.6178 59.4654 20.4641 59.427 20.2719C59.3887 20.0797 59.3887 19.8876 59.4654 19.657C59.5421 19.2342 59.7723 18.8114 60.1176 18.4271C60.4629 18.0428 60.9233 17.7353 61.4604 17.4278C61.9975 17.1588 62.6113 16.9282 63.3019 16.7745C63.9924 16.6207 64.683 16.5439 65.4119 16.5439C66.2943 16.5439 67.0233 16.6207 67.5604 16.8129C68.1358 16.9666 68.5579 17.2357 68.8648 17.5431C69.1717 17.8506 69.3635 18.2349 69.4402 18.6577C69.517 19.0805 69.517 19.5801 69.4019 20.1182L67.4836 30.0724ZM66.3327 22.3473C65.9107 22.4626 65.527 22.6163 65.0667 22.7701C64.6447 22.9238 64.1843 23.116 63.7623 23.3081C63.3403 23.5003 62.9182 23.7309 62.5346 23.9231C62.1509 24.1537 61.7673 24.3842 61.4604 24.6533C61.1535 24.9223 60.8849 25.1913 60.6547 25.4604C60.4245 25.7678 60.3094 26.0369 60.2327 26.3828C60.156 26.6902 60.156 26.9977 60.2327 27.3052C60.3094 27.6126 60.3862 27.8432 60.578 28.0738C60.7314 28.3044 60.9233 28.4582 61.1535 28.6119C61.3836 28.7272 61.6522 28.8041 61.9207 28.8041C62.2277 28.8041 62.4962 28.7656 62.8031 28.6888C63.0717 28.6119 63.3786 28.4966 63.6472 28.3813C63.9157 28.266 64.2226 28.1123 64.4912 27.9201C64.7597 27.7279 65.0667 27.5358 65.3736 27.3436L66.3327 22.3473ZM75.3484 29.4574C75.6937 29.4574 76.039 29.419 76.3843 29.3037C76.7296 29.1884 76.9981 29.0347 77.2667 28.8809C77.5352 28.6888 77.727 28.4966 77.9189 28.266C78.0723 28.0354 78.1874 27.7664 78.2641 27.5358C78.3409 27.113 78.3025 26.7671 78.1491 26.4596C77.9956 26.1522 77.8038 25.8831 77.4968 25.6525C77.2283 25.4219 76.883 25.1913 76.4994 24.9992C76.1157 24.807 75.7321 24.6148 75.3101 24.3842C74.9264 24.1921 74.5044 23.9615 74.1208 23.6925C73.7371 23.4619 73.4302 23.1544 73.1233 22.8469C72.8547 22.5395 72.6629 22.1551 72.5478 21.7324C72.4327 21.3096 72.4327 20.81 72.5478 20.2335C72.6629 19.6954 72.8547 19.1958 73.1616 18.7346C73.4686 18.2734 73.8522 17.889 74.3126 17.5431C74.773 17.1972 75.3101 16.9666 75.8855 16.7745C76.461 16.5823 77.1132 16.5054 77.7654 16.5054C78.1874 16.5054 78.6094 16.5439 78.9931 16.5823C79.3767 16.6592 79.722 16.7745 80.0673 16.9282C80.4126 17.1204 80.7195 17.351 81.0264 17.6584C81.3333 17.9659 81.6402 18.3887 81.9088 18.9267L80.7579 19.8107C80.4126 19.0036 79.9522 18.3887 79.4151 17.9659C78.878 17.5431 78.2258 17.351 77.5352 17.351C77.1516 17.351 76.8063 17.3894 76.4994 17.5047C76.1541 17.5816 75.8855 17.7353 75.617 17.889C75.3484 18.0428 75.1566 18.2349 75.0031 18.4655C74.8497 18.6961 74.7346 18.8883 74.6962 19.1573C74.6195 19.5417 74.6579 19.8876 74.8113 20.195C74.9648 20.5025 75.2333 20.7715 75.5402 21.0021C75.8472 21.2327 76.2308 21.4633 76.6528 21.6555C77.0748 21.8477 77.4969 22.0783 77.9572 22.2704C78.4176 22.4626 78.8396 22.6932 79.2616 22.9622C79.6836 23.1928 80.0289 23.4618 80.3358 23.8077C80.6428 24.1152 80.873 24.4996 80.988 24.9223C81.1415 25.3451 81.1415 25.8063 81.0264 26.3828C80.9113 26.9593 80.7195 27.4589 80.4126 27.9585C80.1057 28.4582 79.722 28.8809 79.2233 29.2268C78.7245 29.5727 78.149 29.8802 77.4585 30.0724C76.7679 30.2645 76.0006 30.3798 75.1566 30.3798C74.7729 30.3798 74.3893 30.3414 73.9673 30.303C73.5836 30.2261 73.2 30.1108 72.8164 29.9571C72.4327 29.7649 72.049 29.5343 71.7038 29.1884C71.3585 28.8809 71.0132 28.4582 70.7446 27.9201L72.0107 26.9593C72.2409 27.4205 72.4711 27.8048 72.7013 28.1123C72.9314 28.4197 73.2 28.6888 73.4302 28.8809C73.6987 29.0731 73.9673 29.2268 74.2742 29.3421C74.6195 29.419 74.9648 29.4574 75.3484 29.4574ZM87.3182 29.4574C87.6635 29.4574 88.0088 29.419 88.3541 29.3037C88.6994 29.1884 88.9679 29.0347 89.2365 28.8809C89.505 28.6888 89.6969 28.4966 89.8887 28.266C90.0421 28.0354 90.1572 27.7664 90.234 27.5358C90.3107 27.113 90.2723 26.7671 90.1189 26.4596C89.9654 26.1522 89.7736 25.8831 89.4667 25.6525C89.1981 25.4219 88.8528 25.1913 88.4692 24.9992C88.0855 24.807 87.7019 24.6148 87.2799 24.3842C86.8962 24.1921 86.4742 23.9615 86.0906 23.6925C85.7069 23.4619 85.4 23.1544 85.0931 22.8469C84.8245 22.5395 84.6327 22.1551 84.5176 21.7324C84.4025 21.3096 84.4025 20.81 84.5176 20.2335C84.6327 19.6954 84.8245 19.1958 85.1314 18.7346C85.4384 18.2734 85.822 17.889 86.2824 17.5431C86.7428 17.1972 87.2799 16.9666 87.8553 16.7745C88.4308 16.5823 89.083 16.5054 89.7352 16.5054C90.1572 16.5054 90.5792 16.5439 90.9629 16.5823C91.3465 16.6592 91.6918 16.7745 92.0371 16.9282C92.3824 17.1204 92.6893 17.351 92.9962 17.6584C93.3031 17.9659 93.6101 18.3887 93.8786 18.9267L92.7277 19.8107C92.3824 19.0036 91.922 18.3887 91.3849 17.9659C90.8478 17.5431 90.1956 17.351 89.505 17.351C89.1214 17.351 88.7761 17.3894 88.4692 17.5047C88.1239 17.5816 87.8553 17.7353 87.5868 17.889C87.3182 18.0428 87.1264 18.2349 86.973 18.4655C86.8195 18.6961 86.7044 18.8883 86.666 19.1573C86.5893 19.5417 86.6277 19.8876 86.7811 20.195C86.9346 20.5025 87.2031 20.7715 87.5101 21.0021C87.817 21.2327 88.2006 21.4633 88.6226 21.6555C89.0446 21.8477 89.4667 22.0783 89.927 22.2704C90.3874 22.4626 90.8094 22.6932 91.2314 22.9622C91.6535 23.1928 91.9987 23.4618 92.3057 23.8077C92.6126 24.1152 92.8428 24.4996 92.9579 24.9223C93.1113 25.3451 93.1113 25.8063 92.9962 26.3828C92.8811 26.9593 92.6893 27.4589 92.3824 27.9585C92.0755 28.4582 91.6918 28.8809 91.1931 29.2268C90.6943 29.5727 90.1189 29.8802 89.4283 30.0724C88.7377 30.2645 87.9704 30.3798 87.1264 30.3798C86.7428 30.3798 86.3591 30.3414 85.9371 30.303C85.5535 30.2261 85.1698 30.1108 84.7862 29.9571C84.4025 29.7649 84.0189 29.5343 83.6736 29.1884C83.3283 28.8809 82.983 28.4582 82.7145 27.9201L83.9805 26.9593C84.2107 27.4205 84.4409 27.8048 84.6711 28.1123C84.9013 28.4197 85.1698 28.6888 85.4 28.8809C85.6685 29.0731 85.9371 29.2268 86.244 29.3421C86.6277 29.419 86.9346 29.4574 87.3182 29.4574ZM97.5616 17.2741L99.5566 16.5054H100.324L97.6767 30.0724H95.0679L97.5616 17.2741ZM105.273 29.4574C105.618 29.4574 105.964 29.419 106.309 29.3037C106.654 29.1884 106.923 29.0347 107.191 28.8809C107.46 28.6888 107.652 28.4966 107.843 28.266C107.997 28.0354 108.112 27.7664 108.189 27.5358C108.265 27.113 108.227 26.7671 108.074 26.4596C107.92 26.1522 107.728 25.8831 107.421 25.6525C107.153 25.4219 106.808 25.1913 106.424 24.9992C106.04 24.807 105.657 24.6148 105.235 24.3842C104.851 24.1921 104.429 23.9615 104.045 23.6925C103.662 23.4619 103.355 23.1544 103.048 22.8469C102.779 22.5395 102.587 22.1551 102.472 21.7324C102.357 21.3096 102.357 20.81 102.472 20.2335C102.587 19.6954 102.779 19.1958 103.086 18.7346C103.393 18.2734 103.777 17.889 104.237 17.5431C104.697 17.1972 105.235 16.9666 105.81 16.7745C106.386 16.5823 107.038 16.5054 107.69 16.5054C108.112 16.5054 108.534 16.5439 108.918 16.5823C109.301 16.6592 109.647 16.7745 109.992 16.9282C110.337 17.1204 110.644 17.351 110.951 17.6584C111.258 17.9659 111.565 18.3887 111.833 18.9267L110.682 19.8107C110.337 19.0036 109.877 18.3887 109.34 17.9659C108.803 17.5431 108.15 17.351 107.46 17.351C107.076 17.351 106.731 17.3894 106.424 17.5047C106.079 17.5816 105.81 17.7353 105.542 17.889C105.273 18.0428 105.081 18.2349 104.928 18.4655C104.774 18.6961 104.659 18.8883 104.621 19.1573C104.544 19.5417 104.582 19.8876 104.736 20.195C104.889 20.5025 105.158 20.7715 105.465 21.0021C105.772 21.2327 106.155 21.4633 106.577 21.6555C106.999 21.8477 107.421 22.0783 107.882 22.2704C108.342 22.4626 108.764 22.6932 109.186 22.9622C109.608 23.1928 109.953 23.4618 110.26 23.8077C110.567 24.1152 110.797 24.4996 110.913 24.9223C111.066 25.3451 111.066 25.8063 110.951 26.3828C110.836 26.9593 110.644 27.4589 110.337 27.9585C110.03 28.4582 109.647 28.8809 109.148 29.2268C108.649 29.5727 108.074 29.8802 107.383 30.0724C106.692 30.2645 105.925 30.3798 105.081 30.3798C104.697 30.3798 104.314 30.3414 103.892 30.303C103.508 30.2261 103.125 30.1108 102.741 29.9571C102.357 29.7649 101.974 29.5343 101.628 29.1884C101.283 28.8809 100.938 28.4582 100.669 27.9201L101.935 26.9593C102.165 27.4205 102.396 27.8048 102.626 28.1123C102.856 28.4197 103.125 28.6888 103.355 28.8809C103.623 29.0731 103.892 29.2268 104.199 29.3421C104.544 29.419 104.889 29.4574 105.273 29.4574ZM120.274 28.3813C119.813 28.9962 119.238 29.4574 118.586 29.8418C117.933 30.1877 117.166 30.3798 116.322 30.3798C115.862 30.3798 115.516 30.303 115.209 30.1492C114.903 29.9955 114.672 29.8033 114.519 29.5343C114.365 29.2653 114.25 28.9194 114.25 28.5735C114.212 28.1891 114.25 27.7664 114.327 27.3052L116.13 17.9275H113.828L113.943 17.2741C114.672 17.2741 115.325 17.1588 115.862 16.8898C116.399 16.6207 116.859 16.2748 117.243 15.8136C117.626 15.3525 117.972 14.8144 118.279 14.2379C118.586 13.623 118.854 13.008 119.123 12.3162H119.89L119.008 16.8514H122L121.77 17.9659H118.777L116.974 27.3436C116.936 27.5358 116.936 27.7279 116.974 27.9201C117.013 28.1123 117.089 28.2276 117.204 28.3813C117.319 28.4966 117.435 28.6119 117.588 28.6888C117.742 28.7656 117.933 28.8041 118.125 28.8041C118.432 28.8041 118.701 28.7272 118.969 28.5735C119.238 28.4197 119.506 28.266 119.698 28.0354L120.274 28.3813ZM28.5434 0.824707C38.8635 0.824707 47.4572 8.16545 49.6824 17.9659C52.2912 17.1588 55.4371 15.929 57.1635 13.7383C41.8943 38.4892 21.4843 5.85945 1.64969 22.3089C3.83648 19.5801 5.83145 17.0819 8.0566 15.7752C10.9723 7.08931 19.0289 0.824707 28.5434 0.824707ZM44.6566 18.8499C42.8918 11.4707 36.3314 6.01319 28.5434 6.01319C22.7887 6.01319 17.7629 9.01098 14.7704 13.5077C27.2006 12.5853 34.3748 20.3103 44.6566 18.8499ZM28.5818 44.8691C38.0962 44.8691 46.1912 38.643 49.1069 29.9571C51.3321 28.6503 53.327 26.1522 55.5138 23.4234C35.6409 39.8728 15.2308 7.20462 0 31.994C1.72641 29.8033 4.87233 28.5735 7.48113 27.7664C9.62956 37.5284 18.2616 44.8691 28.5818 44.8691ZM12.4686 26.844C14.2333 34.2231 20.7937 39.6807 28.5818 39.6807C34.3365 39.6807 39.3623 36.6829 42.3547 32.1862C29.9245 33.147 22.7887 25.3835 12.4686 26.844ZM7.28931 16.9282C17.4943 11.5091 27.3541 19.3879 38.4415 20.3103C25.3591 17.6969 17.1491 10.5867 7.28931 16.9282ZM5.90817 25.7678C16.1132 20.3488 25.973 28.2276 37.0604 29.15C23.978 26.5365 15.7679 19.4264 5.90817 25.7678ZM21.561 40.7183C29.1572 43.6008 40.4365 42.6784 44.6182 32.263C38.4415 42.0251 30.3849 42.0251 21.561 40.7183ZM35.4874 3.55347C27.8912 0.670977 16.4201 2.20831 12.2767 12.6237C18.4535 2.82324 26.6635 2.24674 35.4874 3.55347ZM99.9019 12.2778C100.094 12.2778 100.286 12.3162 100.477 12.3931C100.631 12.47 100.784 12.5468 100.899 12.6621C101.014 12.7774 101.091 12.9312 101.13 13.0849C101.168 13.2386 101.206 13.4308 101.168 13.5845C101.13 13.7767 101.053 13.9304 100.938 14.0842C100.823 14.2379 100.669 14.3916 100.516 14.5069C100.362 14.6222 100.17 14.7375 99.9786 14.7759C99.7868 14.8528 99.595 14.8913 99.3648 14.8913C99.173 14.8913 98.9811 14.8528 98.7893 14.7759C98.6359 14.6991 98.4824 14.6222 98.3673 14.5069C98.2522 14.3916 98.1755 14.2379 98.1371 14.0842C98.0987 13.9304 98.0604 13.7383 98.0987 13.5845C98.1371 13.3924 98.2138 13.2386 98.3289 13.0849C98.444 12.9312 98.5975 12.7774 98.7509 12.6621C98.9044 12.5468 99.0962 12.4315 99.288 12.3931C99.5182 12.3162 99.7101 12.2778 99.9019 12.2778Z" fill="black"/>
<path fill-rule="evenodd" clip-rule="evenodd" d="M44.1987 31.9553C28.7376 34.3765 23.098 23.4618 8.09735 27.6124C5.7571 28.2658 1.92061 29.6493 0.0791016 31.8015C15.3867 6.85905 35.6433 40.3719 55.7081 23.0774C53.4446 27.574 49.3012 30.9176 44.1987 31.9553ZM20.6043 24.2688C15.9238 22.8468 12.2791 22.5778 7.29169 25.1528C16.8445 21.1174 26.4741 28.0736 36.6024 29.1113C28.3156 27.3818 26.2056 25.9598 20.6043 24.2688Z" fill="black"/>
</svg>
