<svg width="143" height="32" viewBox="0 0 143 32" fill="none" xmlns="http://www.w3.org/2000/svg">
<g clip-path="url(#clip0)">
<path fill-rule="evenodd" clip-rule="evenodd" d="M3.23258 -0.123047H26.704C28.5564 -0.123047 30.0718 1.36142 30.0718 3.17585V26.1673C30.0718 27.9818 28.5564 29.4661 26.704 29.4661H3.23258C1.38027 29.4661 -0.135254 27.9818 -0.135254 26.1673V3.17585C-0.135254 1.36142 1.38027 -0.123047 3.23258 -0.123047Z" fill="black"/>
<path fill-rule="evenodd" clip-rule="evenodd" d="M20.3201 21.8749H16.7188C16.6147 21.8749 16.5296 21.7916 16.5296 21.6897V20.8167L13.8194 23.4714C13.7458 23.5435 13.6255 23.5435 13.552 23.4714L11.0055 20.9771C10.9319 20.905 10.9319 20.7872 11.0055 20.7151L11.6358 20.0977H7.80277C7.69875 20.0977 7.61372 20.0143 7.61372 19.9125V16.3849C7.61372 16.283 7.69875 16.1996 7.80277 16.1996H8.69414L5.98386 13.5448C5.91033 13.4728 5.91033 13.3549 5.98386 13.2829L8.53031 10.7884C8.60384 10.7164 8.72419 10.7164 8.79773 10.7884L9.42803 11.4058V7.65126C9.42803 7.54938 9.51303 7.466 9.61705 7.466H13.2184C13.3224 7.466 13.4074 7.54938 13.4074 7.65126V8.52438L16.1178 5.86956C16.1913 5.79741 16.3116 5.79741 16.3851 5.86944L18.9316 8.36393C19.0051 8.43596 19.0051 8.55382 18.9316 8.62585L18.301 9.2436H22.1342C22.2382 9.2436 22.3234 9.32698 22.3234 9.42887V12.9564C22.3234 13.0583 22.2382 13.1417 22.1342 13.1417H21.2434L23.9533 15.7962C24.0268 15.8682 24.0268 15.9861 23.9533 16.0581L21.4068 18.5525C21.3332 18.6245 21.2129 18.6245 21.1394 18.5525L20.5091 17.9351V21.6897C20.5091 21.7916 20.4241 21.8749 20.3201 21.8749ZM19.8565 12.0451L18.4495 13.1414L16.7188 13.1417C16.6147 13.1417 16.5296 13.0583 16.5296 12.9564V9.42883L16.3261 11.178L15.1023 12.3769C15.0287 12.4489 14.9083 12.4489 14.8348 12.3769L13.4074 10.9787L12.2883 9.88254L13.4074 11.2607V12.9561C13.4074 13.0579 13.3224 13.1412 13.2184 13.1412H9.61705L11.4033 13.3407L12.6271 14.5394C12.7006 14.6116 12.7006 14.7294 12.6271 14.8015L10.0807 17.2959L11.4877 16.1996H13.2184C13.3224 16.1996 13.4075 16.283 13.4075 16.3849V19.9124L13.611 18.1628L14.8348 16.964C14.9084 16.892 15.0287 16.892 15.1023 16.964L17.6488 19.4584L16.5296 18.0802V16.3849C16.5296 16.283 16.6147 16.1996 16.7188 16.1996H20.3196H20.32L18.5338 16.0002L17.3099 14.8014C17.2363 14.7294 17.2363 14.6115 17.3099 14.5394L18.7372 13.1413H18.7373L19.8565 12.0451ZM19.8565 12.0451L19.8562 12.0453L19.8565 12.0451ZM16.5296 9.42887V9.42896V9.42887Z" fill="#E5E5E5"/>
<path fill-rule="evenodd" clip-rule="evenodd" d="M46.2014 11.7246C46.245 13.1025 45.1339 14.098 43.7275 14.098H40.0292V9.45095H43.7528C45.0666 9.45095 46.1578 10.3466 46.2014 11.7246ZM137.862 3.18031V17.0208C137.862 17.2588 137.647 17.4205 137.403 17.4205H134.444C134.209 17.4205 133.985 17.2526 133.985 17.0208V3.18031H129.343C129.106 3.18031 128.935 2.9603 128.935 2.73029V0.356915C128.935 0.11785 129.1 -0.0927464 129.343 -0.0927464C133.756 -0.0927464 138.168 -0.0927464 142.58 -0.0927464C142.823 -0.0927464 142.988 0.11785 142.988 0.356915V2.73029C142.988 2.9603 142.817 3.18031 142.58 3.18031H137.862ZM63.7665 16.8461V14.5463C63.7665 14.3755 63.6351 14.1227 63.3341 14.1227H56.4056C55.9826 14.1227 55.146 13.8356 55.146 12.7829V9.45122H62.5108C62.8191 9.45122 62.9503 9.19395 62.9503 9.04232V6.70155C62.9503 6.45669 62.7759 6.27797 62.4659 6.27797H55.146V4.41026C55.146 3.6163 55.8188 3.18031 56.4056 3.18031H63.3134C63.6367 3.18031 63.7665 2.93645 63.7665 2.7571V0.330861C63.7665 0.0915247 63.583 -0.0913577 63.2822 -0.0927464L56.089 -0.125924C53.3868 -0.138392 51.269 2.07827 51.269 4.52926V12.8237C51.269 15.3669 53.4623 17.4205 55.9875 17.4205H63.3268C63.587 17.4205 63.7603 17.2338 63.7665 16.9973C63.7674 16.9545 63.7665 16.897 63.7665 16.8461ZM93.1115 8.102V7.97705C93.6601 7.65234 94.1192 7.22743 94.4803 6.7071C94.8458 6.18668 95.1138 5.57041 95.2795 4.86248L96.4526 0.402921C96.4962 0.204733 96.3594 -0.0927464 96.0262 -0.0927464H93.239C93.1455 -0.0966106 93.048 -0.0799773 92.9458 -0.0385887C92.8439 -0.00106414 92.7717 0.0990129 92.7291 0.257202L91.5814 4.46273C91.4451 4.97467 91.2624 5.38291 91.037 5.68259C90.8121 5.9868 90.561 6.21144 90.2848 6.35716C90.0128 6.50297 89.7322 6.59881 89.4516 6.64446C89.167 6.68621 88.899 6.7071 88.6484 6.70285H86.6335V0.323375C86.6335 0.0546657 86.4021 -0.0923549 86.2081 -0.0923549H83.2159C82.9622 -0.0923549 82.7565 0.0863332 82.7565 0.307375V17.0208C82.7565 17.2526 82.9808 17.4205 83.2159 17.4205H86.1745C86.4188 17.4205 86.6335 17.2589 86.6335 17.0208V9.60093H88.6993C89.2901 9.59241 89.7918 9.64657 90.1999 9.76328C90.608 9.87573 90.9479 10.0838 91.2201 10.3877C91.4878 10.6919 91.7131 11.1291 91.8872 11.6995L93.4581 17.1203C93.5446 17.343 93.7011 17.4205 93.8649 17.4205H96.8247C97.1985 17.4378 97.3093 17.0851 97.2688 16.9211L95.6876 11.1249C95.5898 10.75 95.4792 10.4085 95.3644 10.1047C95.2456 9.79655 95.0968 9.52162 94.9141 9.2761C94.7353 9.0303 94.4973 8.80993 94.2083 8.61391C93.9194 8.42254 93.5536 8.25168 93.1115 8.102ZM103.847 10.6753L104.816 7.51049L105.785 3.94626H105.938L106.882 7.51049L107.851 10.6753H103.847ZM108.769 13.7729L109.764 17.0208C109.849 17.3192 110.012 17.4205 110.204 17.4205H113.43C113.732 17.419 113.929 17.1715 113.854 16.8757L108.565 1.27746C108.315 0.5177 107.943 -0.0927464 107.042 -0.0927464L104.751 -0.0874629C104.296 -0.115569 103.898 0.0360681 103.588 0.436189C103.43 0.639298 103.295 0.915134 103.184 1.27746L97.8983 16.8555C97.7808 17.2025 98.0776 17.4205 98.313 17.4205H101.415C101.514 17.4205 101.726 17.434 101.857 17.162C101.886 17.1014 101.916 17.0163 101.934 16.9459L102.929 13.7729H108.769ZM124.656 5.47392C124.654 6.69602 123.662 7.76878 122.314 7.76748L118.839 7.76386V3.18031H122.154C123.658 3.13439 124.657 4.25177 124.656 5.47392ZM118.839 16.896V11.0401H123.077C126.009 11.0404 128.755 8.69182 128.709 5.37868C128.709 4.58342 128.504 3.83538 128.206 3.18031C127.503 1.63842 126.22 0.607058 124.704 0.154439C124.084 -0.0307383 123.407 -0.0874634 122.741 -0.0927464H116.271C115.582 -0.0927464 115.006 0.372249 114.976 1.10752C114.972 1.20965 114.961 1.31758 114.962 1.43133V16.9973C114.962 17.2396 115.147 17.4193 115.401 17.4205H118.412C118.568 17.4205 118.717 17.3293 118.787 17.1953C118.831 17.1125 118.839 17.0159 118.839 16.896ZM37.4119 17.4205H44.11C47.4211 17.534 50.1237 15.2846 50.2311 11.9245C50.2355 11.6368 50.2522 11.2938 50.1716 10.9166C49.5854 8.16724 47.3671 6.27797 44.5417 6.27797H40.0292V3.15525H47.7316C48.0225 3.16175 48.1974 2.95734 48.1907 2.68048V0.457079C48.197 0.152505 48.0811 -0.0998408 47.7316 -0.0927464H37.5051C36.4586 -0.0927464 36.1523 0.658257 36.1523 1.14079V16.1891C36.152 16.8659 36.6972 17.4205 37.4119 17.4205ZM67.9955 1.58131L67.7659 5.37868C67.6893 6.67383 67.6044 7.7938 67.5153 8.75151C67.3742 10.3319 67.2113 14.1227 65.1209 14.1227C65.0966 14.1227 65.0679 14.123 65.0387 14.1227C64.8503 14.1215 64.611 14.278 64.611 14.5314V16.8461C64.611 16.8949 64.611 16.9269 64.611 16.9696C64.611 17.2377 64.795 17.4205 65.0433 17.4205C65.0796 17.4205 65.1942 17.4203 65.2297 17.4203C66.8046 17.4144 68.1867 17.2517 69.377 15.4887C69.7509 14.9354 70.0784 14.3145 70.3121 13.6105C70.5501 12.9069 70.7371 12.1159 70.8733 11.2456C71.0094 10.3753 71.12 9.41769 71.2091 8.36839C71.294 7.32338 71.3793 6.18668 71.4641 4.95414L71.566 3.20516H76.5395V16.998C76.5395 17.2308 76.7448 17.4425 76.9985 17.4205H79.9544C80.2616 17.4205 80.4164 17.2132 80.4164 16.971V1.14119C80.4192 0.485096 79.8582 -0.0927464 79.0673 -0.0927464H69.2821C68.5302 -0.0927464 68.0845 0.551601 68.0519 1.08573C68.0428 1.238 68.0056 1.40038 67.9955 1.58131Z" fill="black"/>
<path fill-rule="evenodd" clip-rule="evenodd" d="M41.8016 23.3744L40.6448 25.2842L38.4481 28.7729C38.37 28.8918 38.3007 28.9873 38.24 29.0594C38.1795 29.1315 38.1144 29.1888 38.0451 29.2313C37.9758 29.2737 37.8957 29.3013 37.8046 29.314C37.7136 29.3268 37.6032 29.3331 37.4732 29.3331H36.9532C36.6153 29.3331 36.39 29.2546 36.2773 29.0975C36.1647 28.9405 36.1084 28.7262 36.1084 28.4546V20.6496C36.1084 20.4884 36.1993 20.4077 36.3814 20.4077H37.7722C37.8934 20.4077 37.9693 20.4247 37.9996 20.4586C38.03 20.4926 38.0451 20.5563 38.0451 20.6496V26.3792H38.1231L39.228 24.5967L41.4766 20.9808C41.5546 20.8619 41.6239 20.7643 41.6846 20.6879C41.7453 20.6115 41.8102 20.5521 41.8796 20.5095C41.9489 20.4672 42.0268 20.4396 42.1135 20.4268C42.2002 20.4141 42.3085 20.4077 42.4385 20.4077H42.9714C43.292 20.4077 43.513 20.4735 43.6343 20.6051C43.7556 20.7366 43.8163 20.968 43.8163 21.299V29.0912C43.8163 29.2525 43.7253 29.3331 43.5434 29.3331H42.1526C42.0312 29.3331 41.9532 29.3162 41.9185 29.2822C41.8839 29.2482 41.8665 29.1846 41.8665 29.0912V23.3744H41.8016ZM47.5207 29.0785C47.5207 29.1888 47.5013 29.2588 47.4622 29.2886C47.4232 29.3183 47.3431 29.3331 47.2217 29.3331H45.922C45.7313 29.3331 45.6361 29.2482 45.6361 29.0785V22.8906C45.6361 22.7293 45.7313 22.6486 45.922 22.6486H47.2217C47.3431 22.6486 47.4232 22.6635 47.4622 22.6932C47.5013 22.7229 47.5207 22.7887 47.5207 22.8906V25.0678H49.9514V22.8906C49.9514 22.7293 50.0467 22.6486 50.2396 22.6486H51.548C51.6693 22.6486 51.7495 22.6635 51.7842 22.6932C51.8188 22.7229 51.8362 22.7887 51.8362 22.8906V29.0785C51.8362 29.1888 51.8188 29.2588 51.7842 29.2886C51.7495 29.3183 51.6693 29.3331 51.548 29.3331H50.2396C50.0467 29.3331 49.9514 29.2482 49.9514 29.0785V26.5193H47.5207V29.0785ZM56.7885 24.151V29.0785C56.7885 29.1888 56.769 29.2588 56.73 29.2886C56.691 29.3183 56.6108 29.3331 56.4896 29.3331H55.2028C55.0034 29.3331 54.9038 29.2482 54.9038 29.0785V24.151H53.0579C52.8847 24.151 52.798 24.0577 52.798 23.871V22.9415C52.798 22.8226 52.8132 22.7441 52.8435 22.7059C52.8739 22.6678 52.9454 22.6486 53.0579 22.6486H58.6732C58.7773 22.6486 58.8465 22.6678 58.8812 22.7059C58.9158 22.7441 58.9332 22.8226 58.9332 22.9415V23.871C58.9332 24.0577 58.8465 24.151 58.6732 24.151H56.7885ZM62.4816 22.4831C63.4955 22.4831 64.2559 22.7313 64.7629 23.228C65.2698 23.7245 65.5233 24.4354 65.5233 25.3606C65.5233 25.802 65.4366 26.1034 65.2633 26.2647C65.09 26.4259 64.8517 26.5065 64.5484 26.5065H61.2208C61.2295 26.7782 61.275 27.0032 61.3574 27.1814C61.4396 27.3596 61.5501 27.504 61.6888 27.6142C61.8275 27.7246 61.9899 27.801 62.1762 27.8435C62.3625 27.8859 62.564 27.9071 62.7806 27.9071C63.0319 27.9071 63.2875 27.8774 63.5475 27.818C63.8075 27.7586 64.0501 27.6822 64.2754 27.5888C64.3794 27.5549 64.4508 27.5443 64.4899 27.557C64.5288 27.5697 64.5657 27.6101 64.6003 27.6779L65.0163 28.5946C65.051 28.671 65.0575 28.7305 65.0359 28.7729C65.0141 28.8154 64.9687 28.8578 64.8993 28.9002C64.5787 29.104 64.2061 29.2504 63.7815 29.3395C63.3569 29.4286 62.9626 29.4732 62.5987 29.4732C61.4634 29.4732 60.6229 29.1973 60.077 28.6456C59.5311 28.0938 59.2581 27.2195 59.2581 26.0228C59.2581 25.4625 59.3339 24.9639 59.4855 24.5266C59.6373 24.0895 59.8539 23.7181 60.1355 23.4126C60.4172 23.107 60.7551 22.8757 61.1493 22.7187C61.5437 22.5616 61.9878 22.4831 62.4816 22.4831ZM62.5207 24.011C62.1654 24.011 61.8751 24.1341 61.6497 24.3802C61.4245 24.6264 61.2944 24.9405 61.2599 25.3224H63.6905C63.6905 25.1357 63.6709 24.9617 63.632 24.8004C63.593 24.6391 63.5302 24.5012 63.4435 24.3866C63.3569 24.272 63.2399 24.1808 63.0925 24.1128C62.9453 24.0449 62.7546 24.011 62.5207 24.011ZM68.7858 31.714C68.7858 31.8075 68.7706 31.8669 68.7403 31.8924C68.71 31.9178 68.6341 31.9305 68.515 31.9305H67.1718C67.0766 31.9305 67.0094 31.9178 66.966 31.8924C66.9227 31.8669 66.9011 31.8075 66.9011 31.714V23.4126C66.9011 23.3193 66.9161 23.2449 66.9465 23.1898C66.9768 23.1346 67.0483 23.0773 67.161 23.0179C67.5769 22.8311 68.0428 22.6995 68.5583 22.6232C69.0739 22.5468 69.5656 22.5085 70.0336 22.5085C70.6488 22.5085 71.1666 22.5998 71.587 22.7824C72.0072 22.9649 72.3451 23.2109 72.6008 23.5208C72.8563 23.8307 73.0405 24.1977 73.1532 24.6221C73.2659 25.0466 73.3221 25.5007 73.3221 25.9845C73.3221 26.4599 73.2615 26.9076 73.1402 27.3278C73.0189 27.748 72.8304 28.115 72.5791 28.4291C72.3278 28.7431 72.0072 28.9914 71.6215 29.174C71.2338 29.3565 70.7811 29.4478 70.259 29.4478C69.9989 29.4478 69.7563 29.4372 69.5353 29.4159C69.3144 29.3946 69.0631 29.3543 68.7858 29.2949V31.714ZM71.3464 25.9463C71.3464 25.5983 71.3117 25.3054 71.2425 25.0678C71.173 24.8301 71.0691 24.6391 70.9348 24.4948C70.8004 24.3505 70.6337 24.2487 70.4387 24.1893C70.2416 24.1299 70.0228 24.1001 69.7779 24.1001C69.6567 24.1001 69.4985 24.1128 69.3013 24.1383C69.1064 24.1639 68.9331 24.1977 68.7858 24.2402V27.7161C69.0132 27.7755 69.2147 27.8138 69.3924 27.8307C69.5722 27.8476 69.7303 27.8562 69.8711 27.8562C70.3066 27.8562 70.6597 27.7119 70.9348 27.4233C71.21 27.1347 71.3464 26.6423 71.3464 25.9463ZM76.6367 29.0785C76.6367 29.1888 76.6173 29.2588 76.5782 29.2886C76.5392 29.3183 76.4591 29.3331 76.3377 29.3331H75.038C74.8473 29.3331 74.752 29.2482 74.752 29.0785V22.8906C74.752 22.7293 74.8473 22.6486 75.038 22.6486H76.3377C76.4591 22.6486 76.5392 22.6635 76.5782 22.6932C76.6173 22.7229 76.6367 22.7887 76.6367 22.8906V25.0678H79.0674V22.8906C79.0674 22.7293 79.1627 22.6486 79.3555 22.6486H80.664C80.7853 22.6486 80.8655 22.6635 80.9002 22.6932C80.9348 22.7229 80.9522 22.7887 80.9522 22.8906V29.0785C80.9522 29.1888 80.9348 29.2588 80.9002 29.2886C80.8655 29.3183 80.7853 29.3331 80.664 29.3331H79.3555C79.1627 29.3331 79.0674 29.2482 79.0674 29.0785V26.5193H76.6367V29.0785ZM85.5925 22.4831C86.6063 22.4831 87.3668 22.7313 87.8737 23.228C88.3807 23.7245 88.6341 24.4354 88.6341 25.3606C88.6341 25.802 88.5474 26.1034 88.3742 26.2647C88.2008 26.4259 87.9625 26.5065 87.6592 26.5065H84.3317C84.3404 26.7782 84.3859 27.0032 84.4682 27.1814C84.5505 27.3596 84.661 27.504 84.7997 27.6142C84.9383 27.7246 85.1008 27.801 85.2871 27.8435C85.4734 27.8859 85.6748 27.9071 85.8915 27.9071C86.1428 27.9071 86.3984 27.8774 86.6583 27.818C86.9184 27.7586 87.161 27.6822 87.3862 27.5888C87.4903 27.5549 87.5617 27.5443 87.6008 27.557C87.6397 27.5697 87.6766 27.6101 87.7112 27.6779L88.1272 28.5946C88.1619 28.671 88.1684 28.7305 88.1467 28.7729C88.125 28.8154 88.0796 28.8578 88.0102 28.9002C87.6895 29.104 87.317 29.2504 86.8924 29.3395C86.4678 29.4286 86.0734 29.4732 85.7095 29.4732C84.5743 29.4732 83.7338 29.1973 83.1879 28.6456C82.6419 28.0938 82.3689 27.2195 82.3689 26.0228C82.3689 25.4625 82.4448 24.9639 82.5964 24.5266C82.7481 24.0895 82.9648 23.7181 83.2463 23.4126C83.528 23.107 83.8659 22.8757 84.2602 22.7187C84.6545 22.5616 85.0986 22.4831 85.5925 22.4831ZM85.6316 24.011C85.2762 24.011 84.986 24.1341 84.7606 24.3802C84.5354 24.6264 84.4053 24.9405 84.3707 25.3224H86.8013C86.8013 25.1357 86.7818 24.9617 86.7429 24.8004C86.7038 24.6391 86.641 24.5012 86.5544 24.3866C86.4678 24.272 86.3507 24.1808 86.2034 24.1128C86.0561 24.0449 85.8655 24.011 85.6316 24.011ZM93.2875 24.151V29.0785C93.2875 29.1888 93.268 29.2588 93.2289 29.2886C93.19 29.3183 93.1098 29.3331 92.9885 29.3331H91.7017C91.5024 29.3331 91.4027 29.2482 91.4027 29.0785V24.151H89.5569C89.3837 24.151 89.297 24.0577 89.297 23.871V22.9415C89.297 22.8226 89.3122 22.7441 89.3425 22.7059C89.3729 22.6678 89.4444 22.6486 89.5569 22.6486H95.1722C95.2762 22.6486 95.3455 22.6678 95.3802 22.7059C95.4148 22.7441 95.4322 22.8226 95.4322 22.9415V23.871C95.4322 24.0577 95.3455 24.151 95.1722 24.151H93.2875ZM104.011 29.0912C104.011 29.1846 103.994 29.2482 103.959 29.2822C103.924 29.3162 103.846 29.3331 103.725 29.3331H102.308C102.126 29.3331 102.035 29.2525 102.035 29.0912V22.1011H98.5258V29.0912C98.5258 29.1846 98.5084 29.2482 98.4738 29.2822C98.4391 29.3162 98.3611 29.3331 98.2397 29.3331H96.81C96.628 29.3331 96.5371 29.2525 96.5371 29.0912V21.2735C96.5371 20.9765 96.5999 20.7578 96.7255 20.6179C96.8512 20.4778 97.0656 20.4077 97.3689 20.4077H103.179C103.491 20.4077 103.708 20.4778 103.829 20.6179C103.95 20.7578 104.011 20.9765 104.011 21.2735V29.0912ZM111.615 28.5055C111.615 28.6158 111.6 28.7093 111.569 28.7856C111.539 28.8621 111.463 28.9342 111.342 29.0021C111.143 29.0955 110.93 29.1719 110.701 29.2313C110.471 29.2907 110.237 29.3374 110.001 29.3714C109.763 29.4053 109.522 29.4307 109.28 29.4478C109.039 29.4647 108.809 29.4732 108.593 29.4732C108.006 29.4732 107.518 29.418 107.133 29.3077C106.749 29.1973 106.439 29.0466 106.205 28.8557C105.974 28.6647 105.809 28.4397 105.714 28.1808C105.618 27.9219 105.571 27.6439 105.571 27.3469C105.571 27.0158 105.627 26.7124 105.74 26.4366C105.852 26.1606 106.021 25.9209 106.247 25.7171C106.472 25.5134 106.756 25.3543 107.098 25.2397C107.44 25.125 107.845 25.0678 108.313 25.0678H109.743V24.8641C109.743 24.7452 109.73 24.6307 109.704 24.5203C109.678 24.4099 109.624 24.3144 109.542 24.2338C109.459 24.1531 109.345 24.0874 109.197 24.0364C109.05 23.9855 108.855 23.96 108.612 23.96C108.482 23.96 108.335 23.9665 108.17 23.9792C108.006 23.992 107.841 24.0089 107.676 24.0301C107.512 24.0513 107.352 24.0768 107.196 24.1065C107.04 24.1362 106.901 24.168 106.78 24.202C106.667 24.2274 106.589 24.2274 106.546 24.202C106.502 24.1765 106.472 24.1213 106.455 24.0364L106.247 23.1452C106.221 23.0518 106.219 22.9861 106.24 22.9478C106.262 22.9097 106.307 22.8778 106.377 22.8523C106.767 22.7166 107.176 22.6189 107.605 22.5594C108.034 22.5001 108.461 22.4704 108.885 22.4704C109.828 22.4704 110.519 22.6678 110.956 23.0624C111.396 23.4572 111.615 24.0407 111.615 24.8131V28.5055ZM109.73 26.3028H108.703C108.582 26.3028 108.452 26.3113 108.313 26.3283C108.175 26.3453 108.047 26.3856 107.93 26.4492C107.813 26.513 107.715 26.6042 107.637 26.723C107.559 26.8419 107.521 27.0032 107.521 27.2068C107.521 27.504 107.622 27.7119 107.826 27.8307C108.03 27.9496 108.305 28.0089 108.651 28.0089C108.703 28.0089 108.773 28.0068 108.859 28.0026C108.946 27.9983 109.039 27.9899 109.139 27.9771C109.238 27.9645 109.34 27.9474 109.444 27.9262C109.548 27.905 109.644 27.8774 109.73 27.8435V26.3028ZM115.202 31.714C115.202 31.8075 115.187 31.8669 115.157 31.8924C115.127 31.9178 115.051 31.9305 114.932 31.9305H113.588C113.493 31.9305 113.426 31.9178 113.383 31.8924C113.339 31.8669 113.318 31.8075 113.318 31.714V23.4126C113.318 23.3193 113.333 23.2449 113.363 23.1898C113.393 23.1346 113.465 23.0773 113.578 23.0179C113.994 22.8311 114.459 22.6995 114.975 22.6232C115.491 22.5468 115.982 22.5085 116.45 22.5085C117.065 22.5085 117.583 22.5998 118.004 22.7824C118.424 22.9649 118.762 23.2109 119.017 23.5208C119.273 23.8307 119.457 24.1977 119.57 24.6221C119.683 25.0466 119.739 25.5007 119.739 25.9845C119.739 26.4599 119.678 26.9076 119.557 27.3278C119.436 27.748 119.247 28.115 118.996 28.4291C118.744 28.7431 118.424 28.9914 118.038 29.174C117.65 29.3565 117.198 29.4478 116.676 29.4478C116.416 29.4478 116.173 29.4372 115.952 29.4159C115.731 29.3946 115.48 29.3543 115.202 29.2949V31.714ZM117.763 25.9463C117.763 25.5983 117.728 25.3054 117.659 25.0678C117.59 24.8301 117.486 24.6391 117.351 24.4948C117.217 24.3505 117.05 24.2487 116.855 24.1893C116.658 24.1299 116.439 24.1001 116.195 24.1001C116.073 24.1001 115.915 24.1128 115.718 24.1383C115.523 24.1639 115.35 24.1977 115.202 24.2402V27.7161C115.43 27.7755 115.631 27.8138 115.809 27.8307C115.989 27.8476 116.147 27.8562 116.288 27.8562C116.723 27.8562 117.076 27.7119 117.351 27.4233C117.627 27.1347 117.763 26.6423 117.763 25.9463ZM127.473 25.959C127.473 27.0795 127.2 27.9453 126.654 28.5565C126.108 29.1676 125.276 29.4732 124.158 29.4732C123.032 29.4732 122.208 29.1676 121.689 28.5565C121.169 27.9453 120.909 27.088 120.909 25.9845C120.909 25.4413 120.984 24.9511 121.136 24.5139C121.288 24.0768 121.504 23.7097 121.786 23.4126C122.068 23.1155 122.41 22.8863 122.813 22.725C123.216 22.5637 123.673 22.4831 124.184 22.4831C125.276 22.4831 126.097 22.7908 126.647 23.4062C127.198 24.0216 127.473 24.8726 127.473 25.959ZM125.51 25.9973C125.51 25.7087 125.488 25.4455 125.445 25.2079C125.402 24.9702 125.328 24.7665 125.224 24.5967C125.12 24.427 124.986 24.2932 124.821 24.1956C124.657 24.0981 124.453 24.0492 124.21 24.0492C123.751 24.0492 123.411 24.2211 123.19 24.5649C122.969 24.9087 122.858 25.3734 122.858 25.959C122.858 26.5957 122.96 27.0795 123.164 27.4105C123.367 27.7416 123.703 27.9071 124.171 27.9071C124.414 27.9071 124.62 27.8583 124.789 27.7607C124.958 27.6631 125.096 27.5272 125.205 27.3533C125.313 27.1792 125.391 26.9777 125.439 26.7484C125.486 26.5193 125.51 26.2688 125.51 25.9973ZM134.18 22.6486C134.483 22.6486 134.689 22.7101 134.797 22.8333C134.906 22.9563 134.96 23.1537 134.96 23.4253V29.0912C134.96 29.193 134.94 29.2588 134.901 29.2886C134.862 29.3183 134.782 29.3331 134.661 29.3331H133.348C133.227 29.3331 133.146 29.314 133.107 29.2759C133.068 29.2376 133.049 29.1719 133.049 29.0785V24.151H131.45L131.411 24.8131C131.368 25.5517 131.312 26.1883 131.242 26.723C131.173 27.2578 131.056 27.714 130.891 28.0918C130.727 28.4694 130.493 28.7771 130.189 29.0148C129.886 29.2525 129.483 29.4478 128.981 29.6005C128.859 29.6429 128.773 29.6493 128.721 29.6196C128.669 29.5899 128.625 29.5326 128.591 29.4478L128.24 28.582C128.196 28.4716 128.181 28.393 128.194 28.3464C128.207 28.2997 128.27 28.2466 128.383 28.1873C128.617 28.0853 128.805 27.9708 128.948 27.8435C129.091 27.7161 129.208 27.5336 129.299 27.2959C129.39 27.0582 129.461 26.7421 129.513 26.3474C129.565 25.9527 129.613 25.4327 129.656 24.7877L129.747 23.3999C129.765 23.1197 129.832 22.9245 129.949 22.8142C130.066 22.7038 130.267 22.6486 130.553 22.6486H134.18ZM137.468 29.3331C137.131 29.3331 136.91 29.2673 136.806 29.1358C136.702 29.0042 136.65 28.8238 136.65 28.5946V22.8906C136.65 22.7293 136.745 22.6486 136.936 22.6486H138.235C138.357 22.6486 138.437 22.6635 138.476 22.6932C138.515 22.7229 138.534 22.7887 138.534 22.8906V24.7368H140.146C140.779 24.7368 141.279 24.8238 141.647 24.9977C142.016 25.1718 142.295 25.3818 142.486 25.628C142.676 25.8741 142.796 26.1267 142.843 26.3856C142.891 26.6445 142.915 26.8588 142.915 27.0286C142.915 27.3596 142.85 27.6651 142.72 27.9453C142.59 28.2254 142.41 28.4673 142.18 28.671C141.951 28.8747 141.68 29.036 141.368 29.1549C141.056 29.2737 140.718 29.3331 140.354 29.3331H137.468ZM140.978 27.0032C140.978 26.7655 140.902 26.5639 140.75 26.3983C140.599 26.2328 140.371 26.1501 140.068 26.1501H138.534V27.8816H140.055C140.237 27.8816 140.389 27.8519 140.51 27.7926C140.631 27.7331 140.727 27.6588 140.796 27.5697C140.865 27.4806 140.913 27.3851 140.939 27.2832C140.965 27.1814 140.978 27.088 140.978 27.0032Z" fill="black"/>
</g>
<defs>
<clipPath id="clip0">
<rect width="143" height="32" fill="white"/>
</clipPath>
</defs>
</svg>
