<svg width="40" height="44" viewBox="0 0 40 44" fill="none" xmlns="http://www.w3.org/2000/svg">
<g clip-path="url(#clip0)">
<path fill-rule="evenodd" clip-rule="evenodd" d="M3.75933 41.8899C3.77582 42.4095 3.36017 42.7856 2.83453 42.7856H1.45193V41.0318H2.84354C3.33526 41.0318 3.74342 41.3704 3.75933 41.8899ZM38.0323 38.6663V43.888C38.0323 43.9776 37.9517 44.0393 37.8608 44.0393H36.7544C36.6665 44.0393 36.5829 43.9755 36.5829 43.888V38.6663H34.8471C34.7587 38.6663 34.694 38.5837 34.694 38.4968V37.6011C34.694 37.5111 34.7566 37.4316 34.8471 37.4316H39.7966C39.8871 37.4316 39.9491 37.5111 39.9491 37.6011V38.4968C39.9491 38.5837 39.885 38.6663 39.7966 38.6663H38.0323ZM10.3271 43.8222V42.9547C10.3271 42.8903 10.2778 42.7951 10.1656 42.7951H7.57492C7.41675 42.7951 7.10389 42.6868 7.10389 42.2896V41.0324H9.85754C9.97294 41.0324 10.0222 40.9355 10.0222 40.8786V39.9948C10.0222 39.9022 9.95703 39.8352 9.8406 39.8352H7.10389V39.1304C7.10389 38.8306 7.35582 38.6663 7.57492 38.6663H10.1583C10.2784 38.6663 10.3271 38.5742 10.3271 38.5067V37.5912C10.3271 37.5005 10.2583 37.432 10.1461 37.4316L7.45636 37.419C6.44636 37.4142 5.65451 38.2504 5.65451 39.1755V42.3048C5.65451 43.2639 6.4744 44.0393 7.41886 44.0393H10.163C10.2598 44.0393 10.325 43.9687 10.3271 43.8797C10.3277 43.8635 10.3271 43.842 10.3271 43.8222ZM21.2997 40.5232V40.4762C21.5045 40.3537 21.6766 40.193 21.8115 39.9968C21.9482 39.8006 22.0481 39.5683 22.1107 39.3009L22.549 37.6183C22.5648 37.5435 22.5145 37.4316 22.3897 37.4316H21.3478C21.3124 37.4299 21.2758 37.4362 21.2377 37.4519C21.1996 37.466 21.1726 37.5036 21.1568 37.5639L20.728 39.1502C20.6766 39.3433 20.6084 39.4977 20.5242 39.6108C20.44 39.7248 20.3464 39.8101 20.2431 39.865C20.1409 39.9194 20.0361 39.956 19.9313 39.9734C19.8249 39.989 19.7243 39.9968 19.6306 39.9953H18.8779V37.5885C18.8779 37.487 18.7904 37.432 18.7186 37.432H17.5995C17.5046 37.432 17.428 37.4995 17.428 37.5827V43.888C17.428 43.9755 17.5115 44.0393 17.5995 44.0393H18.7058C18.7974 44.0393 18.8779 43.978 18.8779 43.888V41.0889H19.6503C19.871 41.0858 20.0583 41.1061 20.2107 41.1501C20.3632 41.1924 20.4903 41.2709 20.5925 41.3855C20.6926 41.5006 20.7767 41.6654 20.8419 41.8804L21.4293 43.9257C21.4611 44.0099 21.5204 44.0393 21.5813 44.0393H22.6881C22.8274 44.0455 22.8692 43.9126 22.8539 43.8509L22.2632 41.6633C22.2266 41.5225 22.1853 41.3934 22.1424 41.2787C22.098 41.1626 22.0418 41.0585 21.9736 40.9659C21.9068 40.8738 21.818 40.7906 21.7099 40.7163C21.6019 40.6441 21.4649 40.5797 21.2997 40.5232ZM25.3138 41.4938L25.6759 40.3003L26.0386 38.9556H26.0957L26.4488 40.3003L26.8109 41.4938H25.3138ZM27.1544 42.6632L27.526 43.888C27.5577 44.0006 27.6186 44.0393 27.6907 44.0393H28.8971C29.0098 44.0386 29.0835 43.9451 29.0558 43.8337L27.0781 37.9485C26.9845 37.6618 26.8452 37.4316 26.5085 37.4316L25.6516 37.4337C25.4817 37.4227 25.3328 37.4797 25.217 37.631C25.1582 37.7078 25.1069 37.8115 25.066 37.9485L23.09 43.8259C23.046 43.9567 23.1567 44.0393 23.2445 44.0393H24.4049C24.4414 44.0393 24.5209 44.0441 24.5695 43.9415C24.5806 43.9185 24.5913 43.8866 24.5982 43.8604L24.9703 42.6633L27.1544 42.6632ZM33.0944 39.5317C33.0938 39.9927 32.7227 40.3977 32.2189 40.3971L30.9197 40.3961V38.6663H32.159C32.7211 38.6491 33.0949 39.0703 33.0944 39.5317V39.5317ZM30.9197 43.8414V41.632H32.5041C33.6004 41.632 34.6268 40.7461 34.61 39.4957C34.61 39.1958 34.5338 38.9138 34.422 38.6663C34.1594 38.0845 33.6787 37.6957 33.1123 37.5247C32.8804 37.455 32.6275 37.4336 32.3781 37.4316H29.9589C29.7017 37.4316 29.4868 37.6073 29.4751 37.8841C29.4736 37.9228 29.4693 37.9636 29.4698 38.0066V43.8797C29.4698 43.9712 29.5392 44.0387 29.6339 44.0393H30.7599C30.8181 44.0393 30.8742 44.0047 30.8996 43.954C30.9165 43.9232 30.9197 43.8865 30.9197 43.8414ZM0.473115 44.0393H2.97754C4.21563 44.0822 5.22565 43.2331 5.26647 41.9657C5.26797 41.857 5.27382 41.7277 5.24425 41.5848C5.02503 40.5478 4.19552 39.8352 3.13898 39.8352H1.45193V38.6569H4.33163C4.44058 38.6591 4.50569 38.5821 4.50313 38.4779V37.6388C4.50569 37.5237 4.46232 37.4289 4.33163 37.4316H0.507478C0.116296 37.4316 0.00195312 37.7151 0.00195312 37.8967V43.5746C0.00195312 43.8294 0.205717 44.0393 0.473115 44.0393ZM11.9088 38.0631L11.8225 39.4957C11.794 39.9848 11.7622 40.4071 11.7293 40.7687C11.6765 41.3646 11.6156 42.7951 10.8337 42.7951H10.803C10.7327 42.7944 10.6431 42.8531 10.6431 42.9495V43.8222V43.8687C10.6431 43.9702 10.712 44.0393 10.8051 44.0393H10.8745C11.4636 44.0372 11.9798 43.9749 12.425 43.3099C12.5653 43.1016 12.687 42.8667 12.7749 42.6015C12.8637 42.3362 12.9337 42.0375 12.9845 41.7094C13.0353 41.3807 13.0771 41.0198 13.11 40.6238C13.1423 40.2292 13.1741 39.8006 13.2057 39.3355L13.2434 38.6762H15.1035V43.8797C15.1035 43.9677 15.1797 44.0471 15.275 44.0393H16.3803C16.4952 44.0393 16.553 43.9608 16.553 43.8692V37.8971C16.5541 37.6497 16.3438 37.4316 16.0485 37.4316H12.39C12.1084 37.4316 11.9417 37.6744 11.93 37.8762C11.9264 37.9338 11.912 37.995 11.9088 38.0631Z" fill="black"/>
<path fill-rule="evenodd" clip-rule="evenodd" d="M23.4451 20.8181C23.2386 20.8181 23.0692 20.9855 23.0692 21.19V24.5074L25.32 27.3374L20.2672 22.3427C20.1206 22.1978 19.8814 22.1978 19.7359 22.3427L17.3245 24.725L16.8757 28.2651V21.2016C16.8757 20.9971 16.7069 20.8296 16.4998 20.8296H12.8901L10.228 22.9774L15.2812 17.9827C15.4274 17.8383 15.4274 17.6013 15.2812 17.457L12.7508 14.9564L9.32284 14.6336H16.4697C16.6761 14.6336 16.8455 14.4666 16.8455 14.2616V10.889L14.6174 8.12215L19.6712 13.1173C19.8174 13.2617 20.0572 13.2617 20.2027 13.1173L22.6875 10.6617L23.0543 7.19755V14.2611C23.0543 14.4656 23.2238 14.633 23.4302 14.633H26.9886L29.6914 12.4857L24.6382 17.4804C24.4916 17.6248 24.4916 17.8614 24.6382 18.0063L27.1162 20.4554L30.5915 20.8181H23.4451ZM37.8245 19.9982L32.3965 14.633L30.2235 12.4857L34.1805 14.633C34.3869 14.633 34.5563 14.4656 34.5563 14.2611V7.19755C34.5563 6.99347 34.3869 6.82602 34.1805 6.82602H26.5677H23.4302L27.8043 5.60435C27.9505 5.45945 27.9505 5.22348 27.8043 5.07903L22.7505 0.0837745C22.6045 -0.0611279 22.3652 -0.0611279 22.219 0.0837745L16.8455 5.39449L14.5491 7.69248L14.5469 7.69461H14.5465L14.5501 7.68793L14.5624 7.66642L16.8455 3.63715C16.8455 3.43247 16.6761 3.26561 16.4696 3.26561H9.32279C9.11572 3.26561 8.9469 3.43247 8.9469 3.63715V11.1956V11.196V14.2617L7.68015 9.94392C7.53355 9.79961 7.29482 9.79961 7.14806 9.94392L2.09481 14.9387C1.94821 15.0836 1.94821 15.32 2.09481 15.4645L9.69598 22.9774L5.75015 20.8296C5.54307 20.8296 5.37426 20.9971 5.37426 21.2016V28.2651C5.37426 28.4696 5.54307 28.6367 5.75015 28.6367H13.3671H16.4998L12.1336 29.8552C11.9875 29.9997 11.9875 30.2371 12.1336 30.3816L17.1875 35.3758C17.3341 35.5201 17.5734 35.5201 17.719 35.3758L23.0692 30.0881L25.2892 27.8936L23.0692 31.8146C23.0692 32.0193 23.2386 32.1867 23.445 32.1867H30.5914C30.7983 32.1867 30.9677 32.0193 30.9677 31.8146V24.2625V21.1901L32.2393 25.5192C32.3853 25.6631 32.6246 25.6631 32.7713 25.5192L37.8245 20.5246C37.9706 20.3797 37.9706 20.1431 37.8245 19.9982L37.8245 19.9982Z" fill="black"/>
</g>
<defs>
<clipPath id="clip0">
<rect width="40" height="44" fill="white"/>
</clipPath>
</defs>
</svg>
