<svg width="56" height="44" viewBox="0 0 56 44" fill="none" xmlns="http://www.w3.org/2000/svg">
<g clip-path="url(#clip0)">
<path d="M10.2185 43.6422V40.7411C10.2352 40.4971 10.2003 40.2523 10.116 40.0231C10.0318 39.7938 9.90012 39.5853 9.72984 39.4114C9.55955 39.2376 9.35455 39.1024 9.12849 39.0148C8.90243 38.9273 8.6605 38.8894 8.41881 38.9037C8.10246 38.8828 7.78634 38.948 7.50346 39.0926C7.22057 39.2372 6.9813 39.4558 6.81061 39.7257C6.65502 39.4639 6.43239 39.2494 6.1662 39.1047C5.90001 38.9601 5.60012 38.8906 5.29813 38.9037C5.03489 38.8903 4.77274 38.9466 4.53767 39.067C4.30259 39.1875 4.10276 39.3679 3.95796 39.5903V39.0198H2.9624V43.6422H3.96753V41.0989C3.94615 40.9408 3.9596 40.78 4.00692 40.6278C4.05425 40.4755 4.13427 40.3358 4.24127 40.2184C4.34828 40.1011 4.47962 40.0091 4.62591 39.949C4.7722 39.8889 4.92983 39.8622 5.08753 39.8708C5.74804 39.8708 6.08309 40.306 6.08309 41.0892V43.6616H7.08821V41.0989C7.06771 40.941 7.08177 40.7805 7.12942 40.6286C7.17706 40.4768 7.25712 40.3374 7.36395 40.2203C7.47077 40.1032 7.60175 40.0111 7.74763 39.9508C7.89351 39.8904 8.05074 39.8631 8.20822 39.8708C8.88787 39.8708 9.21334 40.306 9.21334 41.0892V43.6616L10.2185 43.6422ZM25.0896 39.0198H23.4527V37.6176H22.4475V39.0198H21.5381V39.9385H22.4667V42.066C22.4667 43.1394 22.8783 43.7776 24.0557 43.7776C24.4956 43.7791 24.927 43.6551 25.3002 43.4198L25.013 42.5591C24.746 42.72 24.443 42.8098 24.1323 42.8202C23.6537 42.8202 23.4718 42.5108 23.4718 42.0466V39.9385H25.0992L25.0896 39.0198ZM33.5805 38.9037C33.3378 38.8965 33.0976 38.9556 32.8854 39.0747C32.6731 39.1939 32.4965 39.3687 32.3744 39.5807V39.0198H31.3884V43.6422H32.3839V41.0506C32.3839 40.2866 32.7094 39.8611 33.3412 39.8611C33.5541 39.8582 33.7656 39.8976 33.9634 39.9772L34.2698 39.0101C34.0424 38.928 33.8029 38.8854 33.5614 38.8844L33.5805 38.9037ZM20.7436 39.3873C20.1801 39.0488 19.5322 38.881 18.8769 38.9037C17.7186 38.9037 16.9624 39.4646 16.9624 40.3833C16.9624 41.1376 17.5176 41.6018 18.5419 41.7468L19.0205 41.8145C19.5662 41.8919 19.8246 42.0369 19.8246 42.298C19.8246 42.6558 19.4609 42.8589 18.7812 42.8589C18.2345 42.8749 17.6984 42.7046 17.2592 42.3754L16.7805 43.1587C17.3604 43.5678 18.055 43.7779 18.7621 43.7583C20.0831 43.7583 20.8489 43.1297 20.8489 42.2497C20.8489 41.3697 20.2458 41.0119 19.2503 40.8668L18.7716 40.7991C18.3409 40.7411 17.9962 40.6541 17.9962 40.3446C17.9962 40.0352 18.3217 39.8031 18.8674 39.8031C19.3717 39.809 19.8661 39.9455 20.3033 40.1996L20.7436 39.3873ZM47.4082 38.9037C47.1655 38.8965 46.9253 38.9556 46.713 39.0747C46.5008 39.1939 46.3242 39.3687 46.2021 39.5807V39.0198H45.2161V43.6422H46.2116V41.0506C46.2116 40.2866 46.5371 39.8611 47.1689 39.8611C47.3818 39.8582 47.5933 39.8976 47.7911 39.9772L48.0975 39.0101C47.8701 38.928 47.6305 38.8854 47.3891 38.8844L47.4082 38.9037ZM34.5809 41.3213C34.569 41.6462 34.6244 41.9699 34.7436 42.2719C34.8627 42.5738 35.0429 42.8474 35.2727 43.0749C35.5024 43.3025 35.7767 43.4791 36.0779 43.5934C36.3791 43.7078 36.7006 43.7573 37.0219 43.7389C37.6196 43.7696 38.2071 43.573 38.6684 43.1877L38.1898 42.3754C37.8456 42.6405 37.4259 42.7864 36.9932 42.7912C36.6252 42.7612 36.2819 42.5922 36.0316 42.3181C35.7813 42.0439 35.6423 41.6846 35.6423 41.3117C35.6423 40.9387 35.7813 40.5794 36.0316 40.3053C36.2819 40.0311 36.6252 39.8622 36.9932 39.8321C37.4259 39.837 37.8456 39.9828 38.1898 40.2479L38.6684 39.4356C38.2071 39.0503 37.6196 38.8537 37.0219 38.8844C36.7006 38.866 36.3791 38.9156 36.0779 39.0299C35.7767 39.1443 35.5024 39.3209 35.2727 39.5484C35.0429 39.776 34.8627 40.0495 34.7436 40.3514C34.6244 40.6534 34.569 40.9772 34.5809 41.302V41.3213ZM43.9046 41.3213V39.0198H42.9091V39.5807C42.74 39.3609 42.5216 39.1849 42.272 39.0672C42.0223 38.9495 41.7485 38.8935 41.4732 38.9037C40.8385 38.9037 40.2298 39.1585 39.781 39.6118C39.3321 40.0652 39.08 40.6802 39.08 41.3213C39.08 41.9625 39.3321 42.5774 39.781 43.0308C40.2298 43.4842 40.8385 43.7389 41.4732 43.7389C41.7485 43.7492 42.0223 43.6932 42.272 43.5755C42.5216 43.4578 42.74 43.2818 42.9091 43.062V43.6229H43.9046V41.3213ZM40.2 41.3213C40.2159 41.0492 40.3102 40.7878 40.4713 40.5692C40.6324 40.3505 40.8533 40.1843 41.1068 40.0908C41.3602 39.9974 41.6352 39.9809 41.8978 40.0434C42.1605 40.1058 42.3993 40.2445 42.5849 40.4423C42.7705 40.6402 42.8947 40.8885 42.9424 41.1568C42.99 41.4251 42.959 41.7016 42.853 41.9522C42.7471 42.2029 42.5709 42.4168 42.3461 42.5676C42.1214 42.7184 41.8579 42.7995 41.588 42.8009C41.3985 42.8033 41.2106 42.7661 41.036 42.6916C40.8614 42.6171 40.704 42.5068 40.5736 42.3679C40.4432 42.2289 40.3428 42.0642 40.2785 41.8841C40.2142 41.704 40.1875 41.5124 40.2 41.3213ZM28.1863 38.9037C27.5516 38.9127 26.9464 39.176 26.5039 39.6358C26.0614 40.0955 25.8178 40.714 25.8267 41.3552C25.8356 41.9964 26.0962 42.6077 26.5513 43.0548C27.0064 43.5018 27.6186 43.7479 28.2533 43.7389C28.942 43.7746 29.6192 43.5506 30.1535 43.1104L29.6749 42.3657C29.2969 42.6719 28.8287 42.8421 28.3443 42.8493C28.0152 42.8778 27.6881 42.7756 27.4324 42.5643C27.1768 42.353 27.0128 42.0493 26.9754 41.7178H30.3737C30.3737 41.5921 30.3737 41.4664 30.3737 41.331C30.3737 39.8805 29.4834 38.9134 28.2007 38.9134L28.1863 38.9037ZM28.1863 39.8031C28.3353 39.7999 28.4834 39.8264 28.6223 39.881C28.7611 39.9356 28.888 40.0174 28.9955 40.1216C29.1031 40.2257 29.1893 40.3503 29.2492 40.4881C29.3091 40.626 29.3415 40.7744 29.3446 40.9249H26.9515C26.9688 40.6145 27.1057 40.3233 27.333 40.1136C27.5602 39.9039 27.8596 39.7925 28.1672 39.8031H28.1863ZM53.1279 41.331V37.1631H52.1706V39.5807C52.0015 39.3609 51.7832 39.1849 51.5335 39.0672C51.2838 38.9495 51.01 38.8935 50.7347 38.9037C50.1 38.9037 49.4913 39.1585 49.0425 39.6118C48.5937 40.0652 48.3416 40.6802 48.3416 41.3213C48.3416 41.9625 48.5937 42.5774 49.0425 43.0308C49.4913 43.4842 50.1 43.7389 50.7347 43.7389C51.01 43.7492 51.2838 43.6932 51.5335 43.5755C51.7832 43.4578 52.0015 43.2818 52.1706 43.062V43.6229H53.1279V41.331ZM54.7887 42.9701C54.851 42.9694 54.9127 42.9809 54.9706 43.004C55.0256 43.0266 55.0759 43.0594 55.119 43.1007C55.161 43.1424 55.1951 43.1915 55.2195 43.2457C55.2437 43.3022 55.2562 43.3631 55.2562 43.4246C55.2562 43.4862 55.2437 43.5471 55.2195 43.6035C55.1951 43.6577 55.161 43.7069 55.119 43.7486C55.0759 43.7898 55.0256 43.8226 54.9706 43.8453C54.9133 43.8708 54.8514 43.884 54.7887 43.884C54.698 43.8833 54.6093 43.8566 54.5331 43.8069C54.4568 43.7573 54.3961 43.6867 54.358 43.6035C54.334 43.547 54.3216 43.4861 54.3216 43.4246C54.3216 43.3631 54.334 43.3023 54.358 43.2457C54.3823 43.1915 54.4164 43.1424 54.4585 43.1007C54.5016 43.0594 54.5519 43.0266 54.6068 43.004C54.6692 42.9789 54.7361 42.9674 54.8031 42.9701H54.7887ZM54.7887 43.7873C54.8365 43.7876 54.8838 43.7777 54.9275 43.7583C54.9687 43.7397 55.0061 43.7134 55.0376 43.6809C55.0975 43.6149 55.1307 43.5287 55.1307 43.4391C55.1307 43.3496 55.0975 43.2634 55.0376 43.1974C55.0061 43.1647 54.9688 43.1385 54.9275 43.12C54.8838 43.1007 54.8365 43.0909 54.7887 43.091C54.741 43.0913 54.6938 43.1011 54.6499 43.12C54.6069 43.1378 54.5679 43.1641 54.5351 43.1974C54.4752 43.2634 54.442 43.3496 54.442 43.4391C54.442 43.5287 54.4752 43.6149 54.5351 43.6809C54.568 43.714 54.607 43.7403 54.6499 43.7583C54.6982 43.7793 54.7505 43.7892 54.8031 43.7873H54.7887ZM54.8175 43.2119C54.8621 43.2097 54.9062 43.2234 54.9419 43.2506C54.9565 43.2628 54.9681 43.2784 54.9756 43.2961C54.9831 43.3137 54.9863 43.3329 54.985 43.3521C54.9857 43.3682 54.983 43.3842 54.9773 43.3992C54.9715 43.4142 54.9627 43.4278 54.9515 43.4391C54.9237 43.4646 54.8883 43.4799 54.851 43.4827L54.9898 43.6422H54.8797L54.7504 43.4827H54.7074V43.6422H54.6164V43.2167L54.8175 43.2119ZM54.7122 43.2941V43.4101H54.8175C54.8362 43.4158 54.8561 43.4158 54.8749 43.4101C54.8783 43.4034 54.88 43.3959 54.88 43.3884C54.88 43.3808 54.8783 43.3734 54.8749 43.3666C54.8783 43.3599 54.88 43.3524 54.88 43.3449C54.88 43.3373 54.8783 43.3298 54.8749 43.3231C54.8561 43.3175 54.8362 43.3175 54.8175 43.3231L54.7122 43.2941ZM49.4472 41.331C49.4631 41.0589 49.5574 40.7975 49.7185 40.5788C49.8796 40.3602 50.1005 40.1939 50.3539 40.1005C50.6074 40.0071 50.8824 39.9906 51.145 40.053C51.4076 40.1155 51.6465 40.2542 51.832 40.452C52.0176 40.6498 52.1419 40.8982 52.1896 41.1665C52.2372 41.4347 52.2061 41.7112 52.1002 41.9619C51.9943 42.2126 51.8181 42.4265 51.5933 42.5773C51.3685 42.7281 51.105 42.8092 50.8352 42.8106C50.6457 42.813 50.4578 42.7758 50.2832 42.7012C50.1086 42.6267 49.9512 42.5165 49.8208 42.3775C49.6904 42.2386 49.5899 42.0739 49.5256 41.8938C49.4613 41.7136 49.4346 41.522 49.4472 41.331ZM15.8328 41.331V39.0198H14.8373V39.5807C14.6682 39.3609 14.4498 39.1849 14.2002 39.0672C13.9505 38.9495 13.6767 38.8935 13.4014 38.9037C12.7667 38.9037 12.158 39.1585 11.7092 39.6118C11.2604 40.0652 11.0082 40.6802 11.0082 41.3213C11.0082 41.9625 11.2604 42.5774 11.7092 43.0308C12.158 43.4842 12.7667 43.7389 13.4014 43.7389C13.6767 43.7492 13.9505 43.6932 14.2002 43.5755C14.4498 43.4578 14.6682 43.2818 14.8373 43.062V43.6229H15.8328V41.331ZM12.1282 41.331C12.1441 41.0589 12.2384 40.7975 12.3995 40.5788C12.5606 40.3602 12.7815 40.1939 13.035 40.1005C13.2884 40.0071 13.5634 39.9906 13.826 40.053C14.0887 40.1155 14.3275 40.2542 14.5131 40.452C14.6987 40.6498 14.8229 40.8982 14.8706 41.1665C14.9182 41.4347 14.8872 41.7112 14.7812 41.9619C14.6753 42.2126 14.4991 42.4265 14.2743 42.5773C14.0496 42.7281 13.7861 42.8092 13.5163 42.8106C13.3259 42.8143 13.1369 42.7781 12.9612 42.7042C12.7855 42.6303 12.6269 42.5203 12.4955 42.3812C12.3641 42.242 12.2627 42.0769 12.1978 41.8961C12.133 41.7153 12.106 41.5229 12.1186 41.331H12.1282Z" fill="black"/>
<path d="M21.3713 17.4847C21.3685 14.8482 21.9596 12.2457 23.0999 9.8741C24.2401 7.50254 25.8995 5.42416 27.9525 3.79635C25.4106 1.77826 22.3578 0.523328 19.1433 0.174984C15.9287 -0.173361 12.682 0.398937 9.77412 1.82647C6.86628 3.254 4.41467 5.47917 2.69948 8.24766C0.984282 11.0162 0.074707 14.2163 0.074707 17.4823C0.074707 20.7483 0.984282 23.9484 2.69948 26.7169C4.41467 29.4854 6.86628 31.7106 9.77412 33.1381C12.682 34.5656 15.9287 35.1379 19.1433 34.7896C22.3578 34.4412 25.4106 33.1863 27.9525 31.1682C25.9002 29.5409 24.2411 27.4633 23.1009 25.0926C21.9607 22.722 21.3693 20.1204 21.3713 17.4847Z" fill="black"/>
<path d="M55.833 17.4838C55.8329 20.75 54.9231 23.9504 53.2076 26.7189C51.4921 29.4875 49.0401 31.7127 46.1319 33.14C43.2237 34.5673 39.9767 35.1393 36.7619 34.7904C33.5472 34.4416 30.4944 33.186 27.9526 31.1673C30.0042 29.5385 31.6628 27.4604 32.8033 25.0896C33.9438 22.7188 34.5364 20.1173 34.5364 17.4814C34.5364 14.8454 33.9438 12.244 32.8033 9.87316C31.6628 7.50236 30.0042 5.42419 27.9526 3.79543C30.4944 1.77671 33.5472 0.52117 36.7619 0.172325C39.9767 -0.176519 43.2237 0.39541 46.1319 1.82274C49.0401 3.25007 51.4921 5.4752 53.2076 8.24379C54.9231 11.0124 55.8329 14.2127 55.833 17.479V17.4838Z" fill="black"/>
<path fill-rule="evenodd" clip-rule="evenodd" d="M27.9527 5.01367H27.9519L27.9535 5.01498C26.0832 6.49792 24.5715 8.39133 23.5327 10.5518C22.494 12.7123 21.9555 15.0833 21.958 17.4851C21.9561 19.8862 22.495 22.2563 23.5337 24.416C24.5721 26.5751 26.0829 28.4673 27.9519 29.9496H27.9527C29.8217 28.4658 31.3326 26.5726 32.3716 24.4128C33.4106 22.253 33.9505 19.883 33.9505 17.4817C33.9505 15.0803 33.4106 12.7103 32.3716 10.5505C31.3326 8.39073 29.8216 6.49751 27.9527 5.0137C27.9527 5.01369 27.9527 5.01368 27.9527 5.01367Z" fill="black"/>
<path d="M54.1864 28.2663V27.7054H54.4114V27.5894H53.8418V27.7054H54.0859V28.2663H54.1864ZM55.2921 28.2663V27.5894H55.1198L54.9187 28.0729L54.7177 27.5894H54.5645V28.2663H54.689V27.7586L54.8756 28.1986H55.0049L55.1915 27.7586V28.2711L55.2921 28.2663Z" fill="black"/>
</g>
<defs>
<clipPath id="clip0">
<rect width="56" height="44" fill="white"/>
</clipPath>
</defs>
</svg>
