<svg width="140" height="44" viewBox="0 0 140 44" fill="none" xmlns="http://www.w3.org/2000/svg">
<path d="M12.4795 29.7017C11.7683 29.248 11.0026 28.8864 10.2008 28.6258C9.39692 28.369 8.55791 28.24 7.71423 28.2434C7.19184 28.2383 6.67079 28.2974 6.16274 28.4194C5.73411 28.5188 5.32586 28.6918 4.95602 28.9307C4.62169 29.1538 4.3605 29.421 4.17453 29.7321C3.98707 30.0504 3.89056 30.4143 3.89557 30.7839C3.89557 31.1401 3.97706 31.4439 4.13796 31.6953C4.2999 31.9468 4.53289 32.1594 4.83587 32.3344C5.13885 32.5083 5.50871 32.6518 5.94438 32.766C6.38109 32.8791 6.87423 32.9766 7.42378 33.0572L8.6002 33.2154C9.28662 33.3129 9.95841 33.4627 10.6124 33.6659C11.2381 33.8537 11.8296 34.1409 12.3645 34.5166C12.8775 34.8812 13.2902 35.34 13.6015 35.89C13.9129 36.4411 14.0686 37.1105 14.0686 37.8962C14.0686 38.7636 13.8868 39.5294 13.5221 40.1936C13.1601 40.8562 12.655 41.4292 12.0438 41.8709C11.3887 42.3409 10.6558 42.6909 9.879 42.9049C9.029 43.1439 8.14986 43.2627 7.26706 43.2579C6.03896 43.2458 4.8194 43.0516 3.64796 42.6817C3.05271 42.4932 2.47431 42.2549 1.91886 41.9693C1.38727 41.6978 0.890506 41.3625 0.439453 40.971L1.93139 38.7835C2.25101 39.0709 2.60305 39.3199 2.98035 39.5252C3.84658 40.003 4.78391 40.3376 5.75632 40.5163C6.26094 40.6095 6.76139 40.6567 7.25348 40.6567C7.81139 40.6567 8.33065 40.6001 8.81124 40.4859C9.29288 40.3728 9.7108 40.2062 10.0671 39.9872C10.4223 39.7683 10.7033 39.5032 10.9092 39.1911C11.1154 38.88 11.2232 38.5138 11.2184 38.1403C11.2184 37.4751 10.8924 36.968 10.2426 36.6202C9.59169 36.2713 8.64408 36.0126 7.39975 35.8418L6.07811 35.6595C5.4496 35.5708 4.83057 35.4242 4.22886 35.2216C3.64618 35.0307 3.10054 34.7408 2.61572 34.3647C2.13952 33.9918 1.75076 33.5187 1.47692 32.9787C1.1896 32.4245 1.04542 31.7498 1.04542 30.9557C1.04542 30.104 1.22199 29.3487 1.57408 28.6876C1.92512 28.0276 2.40363 27.4724 3.0096 27.0219C3.61557 26.5714 4.32602 26.2289 5.13781 25.9952C5.984 25.755 6.85986 25.6361 7.7393 25.6422C8.97527 25.6422 10.0932 25.8056 11.0909 26.1346C12.0887 26.4625 13.0165 26.9098 13.8742 27.4776L12.4795 29.7017ZM21.7309 31.0029C22.5386 31.0029 23.2803 31.1516 23.9563 31.446C24.6177 31.7329 25.2091 32.1604 25.6896 32.699C26.1702 33.2385 26.5463 33.8828 26.8169 34.6318C27.0875 35.3819 27.2223 36.2106 27.2223 37.1189C27.2248 37.4356 27.2084 37.7522 27.1732 38.067H18.5903C18.6708 38.5939 18.8202 39.0433 19.0386 39.4152C19.2559 39.7892 19.5192 40.0951 19.8263 40.334C20.1345 40.5729 20.4772 40.7499 20.8575 40.862C21.2378 40.9762 21.6327 41.0328 22.0454 41.0328C22.6284 41.0328 23.2114 40.9259 23.7975 40.7111C24.3787 40.4991 24.9215 40.1934 25.4044 39.806L26.6644 41.6163C25.9539 42.2239 25.2006 42.6503 24.4045 42.8923C23.5885 43.1395 22.7401 43.2631 21.8877 43.259C21.0153 43.259 20.215 43.1123 19.4878 42.8211C18.7821 42.5432 18.1419 42.1207 17.6083 41.5807C17.0713 41.0277 16.6544 40.3693 16.3838 39.6468C16.0923 38.8925 15.9471 38.0544 15.9471 37.1304C15.9471 36.2231 16.0881 35.3913 16.3712 34.6391C16.6533 33.8849 17.0503 33.2385 17.5592 32.7C18.0727 32.1581 18.6947 31.7311 19.3844 31.4471C20.0917 31.1516 20.8742 31.0029 21.7309 31.0029ZM21.6818 33.2647C21.2294 33.2647 20.8272 33.3328 20.4751 33.47C20.1241 33.6093 19.82 33.8052 19.5662 34.0609C19.3057 34.3249 19.0944 34.6336 18.9424 34.9723C18.7755 35.3413 18.6612 35.7321 18.6029 36.1331H24.6281C24.4902 35.2258 24.1684 34.5197 23.6586 34.0179C23.1487 33.5151 22.4905 33.2636 21.6818 33.2636V33.2647ZM35.1521 31.0029C36.0256 31.0029 36.8374 31.159 37.5886 31.4711C38.3408 31.7833 38.975 32.2464 39.4932 32.8634L37.8675 34.6014C37.4899 34.2362 37.0559 33.9345 36.5824 33.7078C36.1103 33.4957 35.5974 33.3902 35.08 33.3988C34.5942 33.3988 34.1408 33.4889 33.7218 33.6711C33.3008 33.8534 32.9372 34.1091 32.63 34.437C32.3229 34.7649 32.0826 35.1598 31.9092 35.6166C31.7357 36.0754 31.648 36.5804 31.648 37.1304C31.648 37.6814 31.7357 38.1864 31.9092 38.6442C32.0826 39.102 32.3229 39.4959 32.63 39.8238C32.9372 40.1507 33.3008 40.4063 33.7218 40.5886C34.1408 40.7709 34.5942 40.862 35.08 40.862C35.6369 40.862 36.1583 40.7468 36.643 40.5163C37.1289 40.2858 37.5572 39.9946 37.9281 39.6468L39.4932 41.3973C38.9712 42.0046 38.3151 42.4814 37.5771 42.7896C36.8085 43.1067 35.9842 43.2659 35.1532 43.2579C34.2306 43.2579 33.3938 43.1008 32.6426 42.7896C31.9194 42.496 31.2634 42.0575 30.715 41.5011C30.1757 40.9451 29.7549 40.285 29.478 39.5609C29.1813 38.7854 29.0331 37.9609 29.0412 37.1304C29.0412 36.2556 29.1875 35.4437 29.478 34.6989C29.7548 33.9753 30.1757 33.3159 30.715 32.7608C31.2631 32.2035 31.919 31.7647 32.6426 31.4711C33.3948 31.159 34.2306 31.0029 35.1521 31.0029ZM52.4891 38.0177C52.4891 38.9407 52.3366 39.7358 52.0294 40.4C51.7223 41.0652 51.3169 41.609 50.8175 42.0301C50.312 42.4538 49.7258 42.7699 49.0947 42.9593C48.448 43.1584 47.7856 43.2579 47.1065 43.2579C46.4274 43.2579 45.765 43.1584 45.1183 42.9593C44.4859 42.769 43.8982 42.453 43.3902 42.0301C42.8845 41.609 42.4812 41.0652 42.1783 40.4C41.8742 39.7358 41.7227 38.9407 41.7227 38.0177V31.3067H44.2688V37.7872C44.2688 38.3456 44.342 38.8233 44.4872 39.2151C44.6335 39.608 44.832 39.9265 45.0869 40.1695C45.3418 40.4126 45.6427 40.5886 45.9906 40.6986C46.3518 40.8097 46.7277 40.8648 47.1054 40.862C47.5024 40.862 47.8733 40.8075 48.2223 40.6986C48.5691 40.5886 48.87 40.4126 49.125 40.1695C49.3799 39.9265 49.5794 39.608 49.7247 39.2151C49.8709 38.8233 49.9441 38.3456 49.9441 37.7872V31.3067H52.4891V38.0177ZM61.7406 31.0029C62.1283 31.0029 62.4772 31.0291 62.7886 31.0814C63.0999 31.1338 63.4018 31.2176 63.6923 31.3308L63.0863 33.8482C62.7912 33.7003 62.4773 33.5935 62.1533 33.5308C61.8263 33.4611 61.493 33.4246 61.1587 33.4218C60.7769 33.4175 60.398 33.4876 60.0429 33.6282C59.7098 33.7615 59.4114 33.9694 59.1705 34.2358C58.9167 34.5226 58.7227 34.8574 58.6 35.2206C58.4567 35.6477 58.387 36.0962 58.3942 36.5469V42.952H55.8596V31.3067H58.3691V32.6193C58.7279 32.0844 59.2273 31.6594 59.812 31.3915C60.3866 31.1317 61.0291 31.0029 61.7406 31.0029ZM70.2524 31.0029C71.0169 30.9941 71.7747 31.145 72.4778 31.446C73.1527 31.7435 73.7305 32.1605 74.2121 32.699C74.6917 33.2385 75.0678 33.8828 75.3394 34.6318C75.609 35.3819 75.7438 36.2106 75.7438 37.1189C75.7457 37.4356 75.7296 37.7521 75.6957 38.067H67.1118C67.1923 38.5939 67.3417 39.0433 67.5611 39.4152C67.7784 39.7892 68.0417 40.0951 68.3478 40.334C68.655 40.5729 68.9977 40.7499 69.379 40.862C69.7642 40.9766 70.1641 41.0341 70.5659 41.0328C71.1488 41.0328 71.7329 40.9259 72.319 40.7111C72.9001 40.499 73.4428 40.1933 73.9259 39.806L75.1859 41.6163C74.4754 42.2239 73.7211 42.6503 72.925 42.8923C72.1092 43.1394 71.2613 43.263 70.4091 43.259C69.5368 43.259 68.7354 43.1123 68.0083 42.8211C67.3028 42.5432 66.663 42.1207 66.1297 41.5807C65.5927 41.0278 65.1758 40.3693 64.9053 39.6468C64.6127 38.8925 64.4686 38.0544 64.4686 37.1304C64.4686 36.2231 64.6096 35.3913 64.8927 34.6391C65.1748 33.8849 65.5718 33.2385 66.0806 32.7C66.5939 32.1582 67.2155 31.7312 67.9048 31.4471C68.6132 31.1516 69.3957 31.0029 70.2524 31.0029ZM70.2033 33.2647C69.7918 33.2571 69.3826 33.3267 68.9966 33.47C68.6456 33.6093 68.3426 33.8052 68.0877 34.0609C67.8271 34.3249 67.6159 34.6336 67.4639 34.9723C67.297 35.3413 67.1827 35.7321 67.1244 36.1331H73.1506C73.0127 35.2258 72.6899 34.5197 72.18 34.0179C71.6702 33.5151 71.013 33.2636 70.2033 33.2636V33.2647ZM86.6805 25.617C87.4327 25.617 88.1609 25.6977 88.8641 25.8601C89.5672 26.0225 90.2212 26.2561 90.8282 26.5651C91.4332 26.8742 91.9838 27.2482 92.4759 27.6903C92.969 28.1324 93.3827 28.6279 93.7129 29.179L91.4217 30.7106C90.9129 29.9571 90.2282 29.3396 89.4272 28.9118C88.6133 28.475 87.6991 28.256 86.6805 28.256C85.8587 28.2475 85.0432 28.3998 84.2796 28.7044C83.5653 28.991 82.9174 29.4218 82.376 29.9699C81.831 30.531 81.4046 31.1966 81.1223 31.9269C80.8193 32.6895 80.6668 33.5276 80.6668 34.4432C80.6668 35.3599 80.8182 36.1991 81.1223 36.9607C81.4253 37.7223 81.8432 38.375 82.376 38.9176C82.9088 39.4624 83.5441 39.8814 84.2796 40.1811C85.0429 40.4868 85.8585 40.6399 86.6805 40.6315C87.6908 40.6315 88.5987 40.4178 89.4021 39.9883C90.2066 39.5588 90.8753 38.9585 91.4091 38.1885L93.6418 39.8301C93.2762 40.3644 92.852 40.8421 92.362 41.2643C91.8662 41.6903 91.3203 42.0537 90.7363 42.3465C90.1418 42.6461 89.5035 42.8755 88.8212 43.0337C88.1189 43.194 87.4007 43.2734 86.6805 43.2705C85.3797 43.2705 84.1835 43.0505 83.0927 42.6073C82.0402 42.1913 81.0833 41.5646 80.2802 40.7656C79.4878 39.967 78.8648 39.0159 78.4487 37.9695C78.013 36.8905 77.7936 35.7171 77.7936 34.4443C77.7936 33.1704 78.013 31.9971 78.4487 30.918C78.8647 29.8715 79.4877 28.9204 80.2802 28.1219C81.0835 27.3234 82.0404 26.6971 83.0927 26.2812C84.1824 25.8381 85.3797 25.617 86.6805 25.617ZM101.655 31.0029C102.552 31.0029 103.382 31.159 104.146 31.4711C104.884 31.7664 105.558 32.2042 106.128 32.7597C106.69 33.3114 107.135 33.9704 107.438 34.6978C107.758 35.4683 107.919 36.2959 107.91 37.1304C107.91 38.0062 107.754 38.8171 107.438 39.5609C107.135 40.2889 106.69 40.9486 106.128 41.5011C105.558 42.0563 104.884 42.494 104.146 42.7896C103.354 43.1072 102.508 43.2663 101.655 43.2579C100.757 43.2579 99.9262 43.1008 99.1624 42.7896C98.4259 42.4949 97.7548 42.057 97.1878 41.5011C96.6289 40.9474 96.1854 40.2879 95.8829 39.5609C95.563 38.7911 95.4024 37.9642 95.4106 37.1304C95.4106 36.2556 95.5674 35.4437 95.8829 34.6989C96.1852 33.9726 96.6284 33.3138 97.1868 32.7608C97.7538 32.2041 98.4253 31.7658 99.1624 31.4711C99.9549 31.1534 100.802 30.9943 101.655 31.0029ZM101.655 33.3988C101.136 33.3988 100.655 33.4889 100.211 33.6711C99.7759 33.8461 99.381 34.1091 99.0513 34.4438C98.7216 34.7785 98.4643 35.1777 98.2953 35.6166C98.1052 36.0982 98.0104 36.6124 98.0163 37.1304C98.0163 37.6814 98.1103 38.1864 98.2953 38.6442C98.4812 39.102 98.7362 39.4959 99.06 39.8238C99.3829 40.1507 99.7673 40.4063 100.211 40.5886C100.655 40.7709 101.136 40.862 101.655 40.862C102.171 40.862 102.652 40.7709 103.097 40.5896C103.53 40.4143 103.924 40.1539 104.255 39.8238C104.583 39.4959 104.839 39.102 105.026 38.6442C105.215 38.1625 105.31 37.6483 105.304 37.1304C105.304 36.5793 105.211 36.0754 105.026 35.6166C104.85 35.1756 104.588 34.7744 104.255 34.437C103.924 34.1071 103.53 33.847 103.097 33.6722C102.639 33.4873 102.149 33.3944 101.655 33.3988ZM115.537 31.0029C116.37 31.0029 117.086 31.159 117.683 31.4711C118.268 31.7731 118.782 32.1983 119.188 32.7178V25.4463H121.721V42.9531H119.188V41.5555C118.782 42.0741 118.281 42.4879 117.683 42.7959C117.086 43.1039 116.37 43.2569 115.537 43.2569C114.769 43.2635 114.008 43.1139 113.3 42.8172C112.591 42.5204 111.95 42.0827 111.416 41.5304C110.879 40.9727 110.459 40.314 110.179 39.5923C109.873 38.8082 109.72 37.9723 109.729 37.1304C109.729 36.2389 109.879 35.4175 110.179 34.6685C110.46 33.9467 110.88 33.2877 111.416 32.7293C111.95 32.1766 112.591 31.7385 113.3 31.4417C114.008 31.1449 114.769 30.9956 115.537 31.0029ZM115.84 33.3988C115.29 33.3988 114.8 33.4972 114.367 33.6952C113.935 33.8943 113.57 34.1625 113.27 34.4977C112.971 34.834 112.74 35.229 112.578 35.6836C112.415 36.1483 112.333 36.6377 112.336 37.1304C112.336 37.6406 112.417 38.1225 112.578 38.5772C112.74 39.0318 112.971 39.4257 113.27 39.7631C113.569 40.0983 113.935 40.3665 114.367 40.5655C114.8 40.7646 115.29 40.862 115.84 40.862C116.366 40.862 116.842 40.7677 117.272 40.5771C117.7 40.3874 118.068 40.1245 118.375 39.7924C118.682 39.4613 118.919 39.0685 119.089 38.6138C119.259 38.1602 119.344 37.6657 119.344 37.1304C119.349 36.6245 119.263 36.122 119.089 35.647C118.931 35.2109 118.688 34.8104 118.375 34.4684C118.065 34.1338 117.689 33.8668 117.272 33.6837C116.82 33.4892 116.332 33.3921 115.84 33.3988ZM130.16 31.0029C130.969 31.0029 131.709 31.1516 132.384 31.446C133.046 31.7327 133.638 32.1602 134.119 32.699C134.599 33.2385 134.974 33.8828 135.246 34.6318C135.517 35.3819 135.651 36.2106 135.651 37.1189C135.653 37.4355 135.637 37.7521 135.603 38.067H127.019C127.1 38.5939 127.249 39.0433 127.469 39.4152C127.686 39.7892 127.949 40.0951 128.256 40.334C128.563 40.5729 128.906 40.7499 129.286 40.862C129.672 40.9767 130.072 41.0342 130.474 41.0328C131.057 41.0328 131.641 40.9259 132.226 40.7111C132.807 40.4988 133.35 40.1931 133.833 39.806L135.094 41.6163C134.382 42.2239 133.629 42.6503 132.832 42.8923C132.017 43.1395 131.169 43.2631 130.318 43.259C129.444 43.259 128.644 43.1123 127.917 42.8211C127.211 42.5435 126.57 42.121 126.036 41.5807C125.5 41.0273 125.084 40.3689 124.814 39.6468C124.521 38.8925 124.376 38.0544 124.376 37.1304C124.376 36.2231 124.517 35.3913 124.8 34.6391C125.083 33.8849 125.479 33.2385 125.989 32.7C126.502 32.1582 127.124 31.7312 127.813 31.4471C128.522 31.1516 129.303 31.0029 130.16 31.0029ZM136.862 42.9531V42.3685H137.098V42.248H136.499V42.3685H136.734V42.952H136.862V42.9531ZM138.027 42.9531V42.247H137.844L137.632 42.7331L137.42 42.247H137.236V42.952H137.367V42.4198L137.565 42.8787H137.7L137.897 42.4177V42.952H138.027V42.9531ZM130.112 33.2647C129.7 33.257 129.29 33.3266 128.904 33.47C128.553 33.6093 128.25 33.8052 127.995 34.0609C127.735 34.3249 127.523 34.6336 127.371 34.9723C127.204 35.3412 127.09 35.732 127.032 36.1331H133.057C132.919 35.2258 132.597 34.5197 132.087 34.0179C131.579 33.5151 130.919 33.2636 130.112 33.2636V33.2647Z" fill="black"/>
<path d="M20.8222 18.9387H17.9804V4.41034L12.8359 17.2091H9.84369L4.69921 4.55073V18.9387H1.85742V1.28425H6.22145L11.3409 13.8944L16.4582 1.28425H20.8222V18.9387ZM35.7865 18.9387H33.1579V17.4888C32.7386 18.0267 32.2064 18.4656 31.5991 18.7743C30.9785 19.0948 30.2367 19.2541 29.3737 19.2541C28.577 19.262 27.787 19.1073 27.0518 18.7993C26.3167 18.4913 25.6517 18.0365 25.0974 17.4626C24.5417 16.8835 24.1057 16.1999 23.8144 15.4512C23.5041 14.6739 23.3495 13.8232 23.3495 12.8982C23.3495 11.9731 23.5041 11.1224 23.8144 10.3451C24.1062 9.59662 24.5421 8.91313 25.0974 8.33368C25.641 7.77101 26.291 7.32262 27.0094 7.01473C27.7567 6.69608 28.5616 6.53524 29.3737 6.54225C30.2367 6.54225 30.9785 6.70463 31.5991 7.02835C32.2197 7.35206 32.7389 7.78263 33.1579 8.32006V6.85758H35.7865V18.9387ZM29.6871 9.0272C29.1167 9.0272 28.6079 9.12987 28.1597 9.3352C27.7104 9.54263 27.3322 9.82025 27.0208 10.1681C26.7049 10.5275 26.4618 10.9453 26.3052 11.398C26.137 11.8694 26.0534 12.3691 26.0534 12.8982C26.0534 13.4282 26.137 13.928 26.3041 14.3983C26.4713 14.8698 26.7116 15.2804 27.0219 15.6283C27.3322 15.9771 27.7114 16.2547 28.1607 16.4611C28.6079 16.6664 29.1167 16.7702 29.6871 16.7702C30.2325 16.7702 30.7267 16.6706 31.1707 16.4737C31.6158 16.2757 31.9971 16.0054 32.3158 15.6597C32.6344 15.315 32.882 14.9075 33.0576 14.4371C33.2341 13.9657 33.3219 13.4523 33.3219 12.8982C33.3219 12.3429 33.2341 11.8296 33.0586 11.3592C32.8935 10.9066 32.6415 10.4909 32.3168 10.1356C31.9945 9.78899 31.6048 9.51231 31.1717 9.32263C30.7034 9.12078 30.1979 9.02011 29.6882 9.0272H29.6871ZM47.8599 9.88415C47.3631 9.59921 46.836 9.37081 46.2886 9.2032C45.9475 9.09962 45.6008 9.01567 45.2501 8.95177C44.883 8.88441 44.5106 8.85075 44.1374 8.8512C43.4165 8.8512 42.8565 8.9832 42.4585 9.24825C42.0604 9.51225 41.8608 9.86006 41.8608 10.2885C41.8608 10.4981 41.9131 10.6751 42.0176 10.8176C42.1231 10.9611 42.2631 11.0795 42.4386 11.1717C42.6162 11.2639 42.8252 11.3372 43.0676 11.3917C43.311 11.4472 43.5711 11.4943 43.848 11.5362L45.0923 11.7259C46.4088 11.9197 47.4358 12.3031 48.1744 12.8793C48.912 13.4555 49.2808 14.2611 49.2808 15.2951C49.2808 15.8744 49.1565 16.4066 48.9099 16.8896C48.6545 17.3829 48.2887 17.8103 47.8411 18.1383C47.3752 18.4872 46.8016 18.7575 46.1173 18.9523C45.435 19.1451 44.6608 19.2404 43.7979 19.2404C43.4876 19.2404 43.1271 19.2226 42.7165 19.1849C42.2756 19.1417 41.8384 19.066 41.4085 18.9586C40.9274 18.8379 40.4565 18.6796 40.0001 18.4851C39.5125 18.2776 39.0522 18.0109 38.6294 17.691L39.8486 15.711C40.067 15.8786 40.3031 16.0358 40.5591 16.1824C40.815 16.3302 41.1044 16.4611 41.4262 16.5743C41.7501 16.6874 42.1064 16.7785 42.4961 16.8456C42.9347 16.9166 43.3786 16.9502 43.8229 16.9462C44.7288 16.9462 45.411 16.8142 45.8728 16.5491C46.3335 16.2851 46.5644 15.9247 46.5644 15.4701C46.5644 15.1264 46.3973 14.8436 46.0619 14.6194C45.7255 14.3973 45.1979 14.2349 44.477 14.1343L43.2191 13.9709C41.8776 13.7855 40.861 13.3937 40.1693 12.7913C39.4777 12.191 39.1319 11.4022 39.1319 10.4268C39.1319 9.82968 39.2468 9.2912 39.4777 8.81349C39.7076 8.33368 40.0398 7.92825 40.4702 7.59615C40.9028 7.26406 41.4252 7.00739 42.0374 6.8272C42.6497 6.64596 43.3413 6.55587 44.1123 6.55587C45.0599 6.55587 45.9522 6.66692 46.7911 6.89111C47.6301 7.11215 48.3635 7.42539 48.9914 7.82977L47.8599 9.88415ZM60.3346 9.25349H55.7198V14.5125C55.7121 14.8632 55.7629 15.2127 55.8702 15.5465C55.9705 15.8315 56.1074 16.0662 56.2798 16.2463C56.4511 16.4276 56.6528 16.5606 56.8826 16.6444C57.1125 16.7282 57.3632 16.7702 57.6317 16.7702C58.0423 16.7702 58.4592 16.6905 58.8823 16.5292C59.3065 16.37 59.6973 16.1772 60.0588 15.9499L61.1014 18.0556C60.5879 18.3979 60.0377 18.6815 59.4611 18.901C58.8531 19.1367 58.1677 19.2541 57.405 19.2541C56.0385 19.2541 54.9749 18.8748 54.2164 18.1132C53.4579 17.3526 53.0786 16.1699 53.0786 14.5628V9.25349H50.6756V6.85863H53.0786V3.20139H55.7198V6.85758H60.3346V9.25349ZM68.4211 6.54225C69.259 6.54225 70.0301 6.69625 70.7301 7.0032C71.4301 7.31015 72.0287 7.74282 72.5271 8.30225C73.0265 8.86168 73.4152 9.53006 73.6973 10.3063C73.9783 11.0847 74.1193 11.9448 74.1193 12.8856C74.1183 13.2141 74.1015 13.5424 74.0692 13.8693H65.1635C65.2471 14.4162 65.4017 14.8823 65.6284 15.27C65.8541 15.6555 66.1279 15.9729 66.4455 16.2212C66.7641 16.4695 67.1204 16.6528 67.5143 16.7702C67.9092 16.8885 68.3187 16.9462 68.7471 16.9462C69.351 16.9462 69.9559 16.8351 70.565 16.612C71.168 16.3928 71.731 16.0757 72.2314 15.6733L73.5395 17.5517C72.8019 18.1823 72.0193 18.6234 71.1929 18.8759C70.3468 19.1309 69.4676 19.2584 68.5841 19.2541C67.6783 19.2541 66.8487 19.1022 66.0944 18.8004C65.3622 18.5127 64.6981 18.0744 64.1449 17.514C63.5881 16.9405 63.1555 16.2579 62.8744 15.5088C62.5725 14.7273 62.422 13.8567 62.422 12.8992C62.422 11.9563 62.5683 11.0952 62.8608 10.3137C63.133 9.56703 63.5523 8.88296 64.0937 8.30225C64.6262 7.74013 65.2714 7.29741 65.9868 7.0032C66.7202 6.69625 67.532 6.54225 68.4201 6.54225H68.4211ZM68.371 8.88892C67.9008 8.88892 67.485 8.96015 67.1193 9.10263C66.7547 9.24615 66.4402 9.44834 66.177 9.71444C65.9126 9.97949 65.6964 10.2938 65.5292 10.6604C65.361 11.0261 65.244 11.4273 65.1761 11.8652H71.427C71.2849 10.9223 70.9495 10.1911 70.4208 9.67044C69.8932 9.14873 69.2089 8.88892 68.371 8.88892ZM83.2235 6.54225C83.6268 6.54225 83.9883 6.56949 84.3101 6.62501C84.634 6.67949 84.9474 6.76539 85.2473 6.88273L84.6193 9.49339C84.313 9.34025 83.9871 9.22992 83.6508 9.16549C83.3117 9.09377 82.9662 9.05622 82.6196 9.05339C82.2007 9.05339 81.8152 9.12358 81.462 9.26711C81.1164 9.40539 80.8069 9.62111 80.5573 9.89777C80.3065 10.1754 80.108 10.5159 79.9659 10.9192C79.8175 11.3619 79.7454 11.8267 79.7528 12.2937V18.9387H77.1241V6.85863H79.7277V8.22054C80.1001 7.66604 80.6178 7.22525 81.2238 6.94663C81.8193 6.67739 82.4849 6.54225 83.2235 6.54225ZM92.2149 6.54225C93.1207 6.54225 93.9638 6.70463 94.7432 7.02835C95.5083 7.34163 96.1857 7.83713 96.7168 8.47196L95.0316 10.277C94.6405 9.89823 94.191 9.58517 93.7005 9.34987C93.2099 9.12946 92.6772 9.01933 92.1396 9.0272C91.6381 9.0272 91.168 9.12149 90.7313 9.31111C90.2956 9.49968 89.9174 9.76473 89.5987 10.1073C89.2723 10.4615 89.0185 10.8765 88.8517 11.3288C88.6658 11.8315 88.5741 12.3642 88.5811 12.9002C88.5811 13.4712 88.6699 13.994 88.8517 14.4696C89.0314 14.9431 89.2811 15.3517 89.5987 15.6922C89.9174 16.0326 90.2956 16.2977 90.7313 16.4862C91.168 16.6769 91.6371 16.7702 92.1396 16.7702C92.7184 16.7702 93.2575 16.6507 93.7611 16.4119C94.25 16.1822 94.7001 15.8775 95.0953 15.5088L96.7168 17.3254C96.1764 17.9552 95.4966 18.4496 94.7317 18.769C93.9336 19.0981 93.0778 19.2634 92.2149 19.2551C91.2599 19.2551 90.3917 19.0927 89.6134 18.769C88.8625 18.4655 88.1815 18.0109 87.6126 17.4333C87.0539 16.8567 86.6178 16.1724 86.3307 15.4219C86.0227 14.6171 85.8688 13.7612 85.8773 12.8992C85.8773 11.9909 86.0287 11.1507 86.3307 10.3765C86.6179 9.62598 87.054 8.94169 87.6126 8.36511C88.1813 7.78769 88.8618 7.33311 89.6123 7.02939C90.3917 6.70568 91.2599 6.5433 92.2149 6.5433V6.54225ZM110.728 18.9387H108.099V17.4888C107.679 18.0267 107.147 18.4655 106.54 18.7743C105.919 19.0948 105.177 19.2541 104.314 19.2541C103.466 19.2541 102.678 19.0969 101.949 18.7816C101.231 18.4737 100.581 18.0253 100.037 17.4626C99.4816 16.8835 99.046 16.1999 98.7552 15.4512C98.4384 14.6379 98.2802 13.7712 98.2892 12.8982C98.2892 11.9731 98.4459 11.1224 98.7552 10.3451C99.0465 9.59645 99.4825 8.91289 100.038 8.33368C100.582 7.77112 101.232 7.32275 101.95 7.01473C102.697 6.69619 103.502 6.53536 104.313 6.54225C105.177 6.54225 105.919 6.70463 106.54 7.02835C107.16 7.35206 107.68 7.78263 108.099 8.32006V6.85758H110.727V18.9387H110.728ZM104.627 9.0272C104.057 9.0272 103.549 9.12987 103.099 9.3352C102.651 9.54263 102.273 9.82025 101.963 10.1681C101.646 10.5276 101.402 10.9453 101.245 11.398C101.078 11.8694 100.994 12.3691 100.994 12.8982C100.994 13.4282 101.078 13.928 101.245 14.3983C101.412 14.8698 101.652 15.2804 101.963 15.6283C102.273 15.9771 102.652 16.2547 103.099 16.4611C103.549 16.6664 104.057 16.7702 104.628 16.7702C105.172 16.7702 105.667 16.6706 106.111 16.4737C106.557 16.2757 106.937 16.0054 107.256 15.6597C107.575 15.315 107.822 14.9075 107.998 14.4371C108.176 13.9657 108.263 13.4523 108.263 12.8982C108.263 12.3429 108.176 11.8296 107.998 11.3592C107.833 10.9066 107.581 10.4909 107.256 10.1356C106.935 9.78911 106.545 9.51244 106.112 9.32263C105.644 9.12081 105.138 9.02016 104.628 9.0272H104.627ZM120.7 6.54225C121.103 6.54225 121.465 6.56949 121.788 6.62501C122.111 6.67949 122.424 6.76539 122.724 6.88273L122.095 9.49339C121.79 9.34026 121.465 9.22992 121.129 9.16549C120.789 9.09376 120.443 9.05621 120.096 9.05339C119.677 9.05339 119.291 9.12358 118.94 9.26711C118.594 9.40508 118.284 9.62084 118.034 9.89777C117.784 10.1754 117.585 10.5159 117.443 10.9192C117.294 11.3618 117.222 11.8266 117.229 12.2937V18.9387H114.601V6.85863H117.205V8.22054C117.577 7.66585 118.095 7.22502 118.701 6.94663C119.296 6.67739 119.963 6.54225 120.7 6.54225ZM129.327 6.54225C130.191 6.54225 130.933 6.70463 131.554 7.02835C132.174 7.35206 132.693 7.78263 133.114 8.32006V0.779297H135.741V18.9387H133.114V17.4888C132.694 18.0267 132.161 18.4656 131.554 18.7743C130.933 19.0948 130.191 19.2541 129.328 19.2541C128.48 19.2541 127.692 19.0969 126.963 18.7816C126.245 18.4737 125.595 18.0253 125.052 17.4626C124.497 16.8833 124.061 16.1998 123.769 15.4512C123.453 14.6379 123.294 13.7712 123.303 12.8982C123.303 11.9731 123.46 11.1224 123.769 10.3451C124.061 9.59669 124.497 8.91321 125.052 8.33368C125.596 7.77107 126.246 7.3227 126.964 7.01473C127.711 6.69628 128.516 6.53545 129.327 6.54225ZM138.811 17.822C138.963 17.8225 139.112 17.867 139.239 17.9503C139.367 18.0335 139.468 18.152 139.53 18.2913C139.57 18.3856 139.59 18.4841 139.59 18.5899C139.59 18.6909 139.57 18.7908 139.53 18.8838C139.491 18.9768 139.434 19.061 139.361 19.1315C139.25 19.2401 139.109 19.3136 138.956 19.3429C138.803 19.3721 138.645 19.3558 138.502 19.296C138.316 19.2186 138.167 19.0722 138.087 18.8874C138.046 18.7936 138.025 18.6922 138.026 18.5899C138.026 18.4851 138.047 18.3845 138.087 18.2913C138.167 18.1067 138.316 17.9604 138.502 17.8827C138.6 17.8418 138.705 17.8211 138.811 17.822ZM138.811 19.1891C138.889 19.1895 138.966 19.1741 139.038 19.1438C139.109 19.1136 139.174 19.0691 139.229 19.0131C139.285 18.9578 139.329 18.8919 139.358 18.8192C139.388 18.7465 139.403 18.6685 139.402 18.5899C139.403 18.5116 139.388 18.434 139.359 18.3615C139.329 18.289 139.286 18.2231 139.231 18.1676C139.176 18.112 139.11 18.068 139.038 18.038C138.966 18.008 138.889 17.9926 138.811 17.9927C138.712 17.9912 138.614 18.0147 138.526 18.0608C138.438 18.107 138.364 18.1745 138.309 18.2571C138.254 18.3397 138.22 18.4348 138.211 18.5337C138.202 18.6326 138.218 18.7323 138.257 18.8235C138.303 18.9323 138.38 19.025 138.479 19.09C138.577 19.155 138.693 19.1895 138.811 19.1891ZM138.856 18.2305C138.931 18.2253 139.006 18.2468 139.068 18.2913C139.117 18.3332 139.141 18.3877 139.141 18.4579C139.142 18.4851 139.137 18.5122 139.127 18.5375C139.117 18.5628 139.102 18.5856 139.082 18.6045C139.036 18.6459 138.977 18.6706 138.914 18.6747L139.147 18.944H138.964L138.749 18.6758H138.679V18.944H138.527V18.2305H138.856ZM138.68 18.3636V18.5543H138.855C138.888 18.5557 138.92 18.5473 138.949 18.5302C138.974 18.5144 138.986 18.4903 138.986 18.4579C138.987 18.444 138.984 18.4302 138.978 18.4178C138.971 18.4055 138.962 18.3951 138.95 18.3877C138.921 18.3706 138.888 18.3623 138.855 18.3636H138.68ZM129.642 9.0272C129.116 9.01799 128.595 9.12307 128.114 9.3352C127.665 9.54263 127.287 9.82025 126.976 10.1681C126.66 10.5277 126.416 10.9454 126.259 11.398C126.092 11.8694 126.008 12.3691 126.008 12.8982C126.008 13.4282 126.092 13.928 126.259 14.3983C126.426 14.8698 126.666 15.2804 126.976 15.6283C127.287 15.9771 127.665 16.2547 128.114 16.4611C128.563 16.6664 129.071 16.7702 129.642 16.7702C130.186 16.7702 130.681 16.6706 131.126 16.4737C131.571 16.2757 131.952 16.0054 132.271 15.6597C132.595 15.305 132.848 14.8895 133.012 14.4371C133.19 13.9657 133.278 13.4523 133.278 12.8982C133.278 12.3429 133.19 11.8296 133.012 11.3592C132.848 10.9065 132.595 10.4907 132.271 10.1356C131.949 9.78915 131.559 9.51249 131.126 9.32263C130.658 9.12084 130.152 9.02019 129.642 9.0272Z" fill="black"/>
</svg>
