<svg width="103" height="44" viewBox="0 0 103 44" fill="none" xmlns="http://www.w3.org/2000/svg">
<g clip-path="url(#clip0)">
<path d="M41.6512 23.4761L36.473 37.2609L35.9102 34.4482C34.6157 31.0229 31.8296 27.4027 28.5933 25.9546L33.3211 43.6381H38.8933L47.1952 23.4482H41.6512V23.4761Z" fill="black"/>
<path d="M46.0688 43.6938L49.3896 23.4761H54.6522L51.3596 43.6938H46.0688Z" fill="black"/>
<path d="M70.496 23.9492C69.4548 23.5315 67.8225 23.0859 65.7682 23.0859C60.5619 23.0859 56.8753 25.8429 56.8471 29.7695C56.819 32.6657 59.4643 34.3087 61.4624 35.2556C63.5168 36.2581 64.2204 36.8708 64.1922 37.7619C64.1641 39.1264 62.5318 39.7391 61.0403 39.7391C58.9296 39.7391 57.8039 39.4328 56.0873 38.6809L55.4119 38.3467L54.6802 42.8581C55.9184 43.4151 58.1979 43.9163 60.5619 43.9442C66.1059 43.9442 69.7081 41.2429 69.7362 37.0378C69.7643 34.7264 68.3572 32.972 65.2898 31.5518C63.4605 30.6049 62.3067 29.9923 62.3348 29.0454C62.3348 28.21 63.2917 27.3189 65.346 27.3189C67.0627 27.291 68.3291 27.6809 69.2859 28.0986L69.7643 28.3214L70.496 23.9492Z" fill="black"/>
<path d="M84.0326 23.4761H79.952C78.6856 23.4761 77.7288 23.8381 77.1941 25.147L69.3706 43.6659H74.9146C74.9146 43.6659 75.8151 41.1596 76.0121 40.6305C76.6031 40.6305 82.0064 40.6305 82.7662 40.6305C82.9351 41.3267 83.4135 43.6659 83.4135 43.6659H88.3102L84.0326 23.4761ZM77.5037 36.509C77.9539 35.3394 79.6143 30.8558 79.6143 30.8558C79.5862 30.9115 80.0364 29.6862 80.3179 28.9343L80.6556 30.6887C80.6556 30.6887 81.6687 35.5065 81.8938 36.5368C81.0777 36.509 78.5449 36.509 77.5037 36.509Z" fill="black"/>
<path d="M31.688 23.4761H23.1891L23.1328 23.8103C29.7462 25.4811 34.1082 29.6027 35.9375 34.4482L34.0801 25.147C33.7705 23.8938 32.8418 23.5039 31.688 23.4761Z" fill="black"/>
<path d="M7.23282 18.5743H3.85577L-0.027832 1.28063L3.71506 0.667969L6.36042 14.2022L13.1145 0.835059H16.6886L7.23282 18.5743Z" fill="black"/>
<path d="M24.7373 12.9216H16.7168C16.4917 15.3165 17.6174 16.3747 19.5311 16.3747C21.1352 16.3747 22.5423 15.7899 24.0619 14.8431V17.238C22.5704 18.157 20.8537 18.7418 18.8275 18.7418C15.3379 18.7418 13.0302 16.7646 13.7338 12.3089C14.3529 8.29878 17.1671 5.84814 20.4316 5.84814C24.1745 5.84814 25.4409 8.63296 24.8781 12.1418C24.8218 12.4481 24.7655 12.7545 24.7373 12.9216ZM20.0095 8.0203C18.7712 8.0203 17.6174 8.99498 17.0546 11.0279H22.0357C22.1201 9.07853 21.501 8.0203 20.0095 8.0203Z" fill="black"/>
<path d="M29.9437 11.4177L28.8461 18.519H25.7505L27.6641 6.15444H30.3095V8.63292C31.3508 7.18482 32.786 5.98735 34.7559 5.90381L34.7841 8.93925C32.8141 9.05065 31.0412 10.081 29.9437 11.4177Z" fill="black"/>
<path d="M34.7275 18.5192L36.6412 6.15462H39.7368L37.8232 18.5192H34.7275ZM38.5549 4.06601C37.5136 4.06601 36.8101 3.34196 36.9508 2.31158C37.1196 1.25335 38.0483 0.529297 39.0896 0.529297C40.1027 0.529297 40.8062 1.2812 40.6374 2.31158C40.4967 3.34196 39.568 4.06601 38.5549 4.06601Z" fill="black"/>
<path d="M48.3486 2.75682C47.2792 2.75682 46.6601 3.23024 46.4631 4.31631L46.1817 6.12644H48.5738V8.63277H45.8158L44.268 18.491H41.2005L42.7484 8.63277H40.9473L41.3413 6.12644H43.1423L43.4801 4.00998C43.9022 1.28087 45.8158 0.250488 48.3768 0.250488C48.9115 0.250488 49.3336 0.306187 49.6432 0.361883L49.6713 2.86821C49.3336 2.81252 48.8833 2.75682 48.3486 2.75682Z" fill="black"/>
<path d="M48.3765 18.5192L50.2901 6.15462H53.3858L51.4721 18.5192H48.3765ZM52.2038 4.06601C51.1625 4.06601 50.459 3.34196 50.5997 2.31158C50.7685 1.25335 51.6972 0.529297 52.7385 0.529297C53.7516 0.529297 54.4552 1.2812 54.2863 2.31158C54.1737 3.34196 53.2169 4.06601 52.2038 4.06601Z" fill="black"/>
<path d="M65.459 12.9216H57.4385C57.2134 15.3165 58.3391 16.3747 60.2527 16.3747C61.8568 16.3747 63.2639 15.7899 64.7836 14.8431V17.238C63.2921 18.157 61.5754 18.7418 59.5492 18.7418C56.0596 18.7418 53.7519 16.7646 54.4555 12.3089C55.0746 8.29878 57.8888 5.84814 61.1533 5.84814C64.8962 5.84814 66.1626 8.63296 65.5997 12.1418C65.5716 12.4481 65.4872 12.7545 65.459 12.9216ZM60.7311 8.0203C59.4929 8.0203 58.3391 8.99498 57.7762 11.0279H62.7574C62.8418 9.07853 62.2508 8.0203 60.7311 8.0203Z" fill="black"/>
<path d="M74.6609 18.519V16.7924C73.6196 17.8506 72.2688 18.7696 70.524 18.7696C67.9068 18.7696 66.1057 16.8481 66.753 12.6709C67.4565 8.04807 70.3552 6.01516 73.2538 6.01516C74.4358 6.01516 75.3645 6.2101 76.068 6.48858L76.9967 0.529081L80.1768 0.0556641L77.3063 18.5468H74.6609V18.519ZM75.7022 8.99491C74.9705 8.63288 74.4076 8.46579 73.3664 8.46579C71.7341 8.46579 70.3552 9.77465 69.933 12.4759C69.5672 14.8709 70.4115 16.0126 71.7904 16.0126C72.9161 16.0126 73.9011 15.3443 74.886 14.3139L75.7022 8.99491Z" fill="black"/>
<path d="M86.8462 18.6302C85.3828 18.6302 84.1727 18.4074 83.0752 18.0176L85.1296 4.87326L87.5498 4.51123L86.6774 10.1922C87.3809 9.57959 88.3659 8.93908 89.5479 8.93908C91.5459 8.93908 92.8967 10.415 92.3902 13.5619C91.8274 17.015 89.6604 18.6302 86.8462 18.6302ZM88.5629 10.9998C87.7749 10.9998 86.9869 11.529 86.2834 12.2252L85.6361 16.4859C86.0864 16.653 86.4241 16.7365 87.0995 16.7365C88.591 16.7365 89.6323 15.8454 89.97 13.7011C90.2514 11.891 89.6323 10.9998 88.5629 10.9998Z" fill="black"/>
<path d="M97.9067 19.0204C96.6966 21.3318 95.5146 22.0559 93.6854 22.0559C93.2633 22.0559 93.0381 22.028 92.8411 21.9723L92.813 20.0508C93.1226 20.1343 93.4321 20.19 93.8824 20.19C94.5578 20.19 95.1769 19.8837 95.5709 19.1875L95.8805 18.5748L93.8824 9.32928L96.387 9.02295L97.5409 15.7065L100.665 9.16219H103L97.9067 19.0204Z" fill="black"/>
</g>
<defs>
<clipPath id="clip0">
<rect width="103" height="44" fill="white"/>
</clipPath>
</defs>
</svg>
