<svg width="99" height="32" viewBox="0 0 99 32" fill="none" xmlns="http://www.w3.org/2000/svg">
<g clip-path="url(#clip0)">
<path d="M37.5496 0.549618L24.6287 31.5114H16.1967L9.76654 6.83969C9.40257 5.31298 9.0386 4.76336 7.88603 4.0916C5.94485 3.05343 2.79044 2.07634 0 1.46565L0.181985 0.549618H13.7702C15.5294 0.549618 17.046 1.70992 17.4706 3.72519L20.8676 21.6183L29.1783 0.549618H37.5496ZM70.671 21.4351C70.7316 13.2519 59.4485 12.7634 59.5092 9.16031C59.5092 8.06107 60.6011 6.83969 62.9062 6.59542C64.0588 6.47328 67.2132 6.35115 70.7923 8L72.1875 1.34351C70.2463 0.671756 67.7592 0 64.7261 0C56.8401 0 51.2592 4.21374 51.1985 10.2595C51.1379 14.7176 55.2022 17.2214 58.1746 18.687C61.2684 20.2137 62.3603 21.1908 62.2996 22.5344C62.2996 24.6107 59.8125 25.5267 57.5074 25.5878C53.5037 25.6489 51.1379 24.4886 49.318 23.6336L47.8621 30.4122C49.7426 31.2672 53.2004 32 56.7794 32.0611C65.1507 32 70.671 27.8473 70.671 21.4351ZM91.5993 31.5114H99L92.5092 0.549618H85.7151C84.1985 0.549618 82.864 1.46565 82.318 2.80916L70.307 31.5114H78.6783L80.3162 26.8702H90.568L91.5993 31.5114ZM82.6213 20.5802L86.807 8.9771L89.2335 20.5802H82.6213ZM49.0147 0.549618L42.4026 31.5114H34.3952L41.0074 0.549618H49.0147Z" fill="black"/>
</g>
<defs>
<clipPath id="clip0">
<rect width="99" height="32" fill="white"/>
</clipPath>
</defs>
</svg>
