<svg width="153" height="32" viewBox="0 0 153 32" fill="none" xmlns="http://www.w3.org/2000/svg">
<path d="M45.9 18.2857H50.6656C53.6754 18.2857 56.4344 16.3609 57.4377 13.4737H52.6721C49.6623 13.4737 46.9033 15.3985 45.9 18.2857ZM32.6066 0.721805C28.8443 0.721805 25.082 2.40601 22.5738 5.05263C21.0689 6.49624 18.059 10.5865 16.0525 12.7519L0 31.2782H5.26721C7.52459 31.2782 9.78197 30.3158 11.2869 28.391L11.5377 27.9098L15.5508 23.0977H25.5836C28.3426 23.0977 31.1016 21.4135 32.1049 18.7669V18.5263C32.1049 18.5263 32.1049 18.2857 32.1049 18.0451H20.0656L28.5934 8.42105C28.8443 8.18045 29.0951 7.69925 29.3459 7.45865L29.5967 7.21805H29.8475L30.0984 6.97744V6.73684L30.3492 6.49624H30.6C31.1016 6.25564 31.6033 6.01504 32.3557 6.01504V31.2782H39.3787V0.721805C39.6295 0.721805 32.6066 0.721805 32.6066 0.721805ZM144.974 0.962406C142.716 0.481203 139.456 0 135.693 0C132.182 0 129.172 0.240601 127.166 0.962406C122.149 2.16541 118.387 6.49624 118.387 11.5489V20.6917C118.387 26.2256 122.651 30.797 128.42 31.2782C130.426 31.7594 133.185 32 135.944 32C138.954 32 141.462 31.7594 143.469 31.2782C148.987 30.5564 153 26.2256 153 20.6917V11.5489C153 6.49624 149.739 2.40602 144.974 0.962406ZM146.228 19.0075C146.228 21.4135 144.974 23.5789 142.967 24.782C141.462 25.7444 138.954 26.7068 135.693 26.7068C132.684 26.7068 129.925 25.985 128.42 24.782C126.413 23.5789 125.159 21.4135 125.159 19.0075V12.9925C125.159 10.3459 126.664 8.18045 128.921 6.73684C130.426 5.77444 132.684 5.29323 135.693 5.29323C138.703 5.29323 140.71 5.77444 142.466 6.73684C144.723 7.93985 146.228 10.3459 146.228 12.9925V19.0075ZM63.7082 10.5865V31.0376H70.7311V0.721805C66.4672 2.40602 63.7082 6.25564 63.7082 10.5865ZM103.839 0.962406C101.582 0.481203 98.3213 0 94.559 0C91.0475 0 88.0377 0.240601 86.0312 0.962406C81.0148 2.16541 77.2525 6.49624 77.2525 11.5489V20.6917C77.2525 26.2256 81.5164 30.797 87.2852 31.2782C89.2918 31.7594 92.0508 32 94.8098 32C97.8197 32 100.328 31.7594 102.334 31.2782C107.852 30.5564 111.866 26.2256 111.866 20.6917V11.5489C111.866 6.73684 108.605 2.40602 103.839 0.962406ZM104.843 19.0075C104.843 21.4135 103.589 23.5789 101.582 24.782C100.077 25.7444 97.5688 26.7068 94.3082 26.7068C91.2984 26.7068 88.5393 25.985 87.0344 24.782C85.0279 23.5789 83.7738 21.4135 83.7738 19.0075V12.9925C83.7738 10.3459 85.2787 8.18045 87.5361 6.73684C89.041 5.77444 91.2984 5.29323 94.3082 5.29323C97.318 5.29323 99.3246 5.77444 101.08 6.73684C103.338 7.93985 104.843 10.3459 104.843 12.9925V19.0075Z" fill="black"/>
</svg>
