<svg width="161" height="32" viewBox="0 0 161 32" fill="none" xmlns="http://www.w3.org/2000/svg">
<path d="M137.334 22.8491V23.7511C137.334 24.3347 137.171 24.6 136.084 24.6V25.6081H143.53V24.6H143.204C142.226 24.547 142.226 24.1756 142.171 23.4327V22.5307V19.4533C142.171 16.9065 139.345 16.2698 137.878 16.2698C136.519 16.2698 134.889 16.6412 134.182 17.9146V16.482H127.769V17.4901H128.367C129.345 17.4901 129.4 18.3921 129.4 19.0288V23.0083C129.4 23.7511 129.454 24.6531 128.367 24.6531H127.769V25.6612H135.432V24.6531C134.563 24.6531 134.182 24.6531 134.182 23.8041V22.9021V19.6655C134.563 18.6574 135.432 17.7554 136.247 17.7024C137.008 17.7024 137.28 18.1268 137.28 18.8166V19.6125C137.334 19.5594 137.334 22.8491 137.334 22.8491ZM124.943 22.743V19.5064C124.943 18.3921 124.237 17.2779 123.313 16.8534C122.063 16.3228 120.596 16.2698 119.617 16.2698C117.878 16.2167 116.683 16.482 115.541 16.9595C114.4 17.4371 113.802 18.1268 113.802 18.8166C113.857 19.7717 115.106 20.1431 115.922 20.1431C116.737 20.1431 118.476 19.8778 118.476 18.8697C118.476 18.2329 117.824 18.286 117.824 17.9677C117.824 17.4901 118.53 17.2248 119.074 17.2248C120.106 17.2779 120.161 17.9146 120.161 18.2329V19.0288C120.161 19.4533 119.617 19.7186 118.856 19.9308C117.661 20.3022 116.356 20.4084 115.161 20.8328C113.965 21.2573 113.204 22.2124 113.204 23.0613C113.204 23.8572 113.53 24.4939 114.183 24.9184C114.835 25.3429 115.704 25.6081 116.737 25.6081C118.15 25.6081 119.835 25.2367 120.487 24.0694C120.867 25.2898 122.335 25.6081 123.367 25.6081C124.563 25.6081 125.541 25.449 126.248 24.9184C126.845 24.4408 127.171 23.7511 127.171 22.6368H126.139C126.193 23.4858 125.813 23.645 125.541 23.645C125.269 23.8041 124.943 23.5919 124.943 22.743ZM119.074 24.0694C118.476 24.0694 117.987 23.645 117.987 22.8491C117.987 22.2124 118.422 21.6818 118.911 21.3634C119.346 21.0981 119.835 20.939 120.269 20.6737V20.6206V23.0083C120.052 23.4858 119.672 24.0694 119.074 24.0694ZM101.248 17.4371V12.5556H102.281C103.639 12.6087 105.161 13.2985 105.107 14.8902C105.052 16.2167 104.346 17.4371 103.15 17.4371H101.248ZM92.1721 12.5556H93.5852C94.9438 12.5556 95.1612 13.9882 95.1612 14.8372V22.3185C95.1612 23.7511 94.6721 24.6 93.096 24.6H92.1721V25.6081H104.237C105.052 25.6081 105.976 25.5551 107.009 25.5551C108.096 25.502 108.965 25.3429 109.726 25.0776C111.302 24.4939 112.28 23.3797 112.28 21.7348C112.28 19.3472 110.378 18.3921 108.204 18.1268C107.607 18.0738 106.683 18.0207 105.487 18.0207V17.8615C106.465 17.8615 107.824 17.8085 108.965 17.4901C110.215 17.1187 111.194 16.1637 111.194 14.678C111.194 12.6618 108.911 11.8659 107.172 11.7067C106.302 11.6006 105.107 11.5475 103.531 11.5475H92.1178L92.1721 12.5556ZM102.987 24.6H101.52H101.248V18.4452H103.422C104.726 18.4452 105.976 19.6125 105.976 21.4165C105.976 23.3797 104.998 24.6 102.987 24.6ZM48.423 17.4371V12.5556H49.4556C50.8142 12.6087 52.3359 13.2985 52.2816 14.8902C52.2273 16.2167 51.5207 17.4371 50.3251 17.4371H48.423ZM39.4014 12.5556H40.8144C42.1731 12.5556 42.3905 13.9882 42.3905 14.8372V22.3185C42.3905 23.7511 41.9014 24.6 40.3253 24.6H39.4014V25.6081H51.4664C52.2816 25.6081 53.2055 25.5551 54.2381 25.5551C55.325 25.502 56.1946 25.3429 56.9554 25.0776C58.5315 24.4939 59.5097 23.3797 59.5097 21.7348C59.5097 19.3472 57.6076 18.3921 55.4337 18.1268C54.8359 18.0738 53.912 18.0207 52.7164 18.0207V17.8615C53.6946 17.8615 55.0533 17.8085 56.1946 17.4901C57.4445 17.1187 58.4228 16.1637 58.4228 14.678C58.4228 12.6618 56.1402 11.8659 54.4011 11.7067C53.5316 11.6006 52.336 11.5475 50.7599 11.5475H39.3471L39.4014 12.5556ZM50.2164 24.6H48.7491H48.423V18.4452H50.5969C51.9012 18.4452 53.1511 19.6125 53.1511 21.4165C53.1511 23.3797 52.1729 24.6 50.2164 24.6ZM37.4449 18.6574C36.7384 17.9146 35.7602 17.2248 34.7276 16.8004C33.6407 16.4289 32.6081 16.0575 31.6298 15.7922C30.6516 15.4739 29.8364 15.2616 29.2929 15.0494C28.5864 14.7841 27.4995 14.6249 27.8256 13.6699C27.9886 13.1923 28.8038 12.5556 30.0538 12.5556C31.6298 12.5556 32.8798 12.9801 33.9124 13.6168C34.8363 14.2535 35.5428 15.1025 35.9232 16.1106H36.9015L36.9558 11.3883H35.9776C35.4884 12.7679 34.3472 12.2903 33.7494 12.0781C33.4233 11.972 33.1515 11.8659 32.6624 11.7067C31.7385 11.4414 30.869 11.2822 29.9451 11.2822C28.2603 11.2822 26.7386 11.6536 25.4343 12.5556C24.13 13.4046 23.4778 14.5188 23.4778 15.7922C23.4778 17.384 24.4561 18.6574 25.3256 19.0819C26.5756 19.6655 27.7169 20.1431 28.8038 20.5145C29.8907 20.8859 30.9777 21.2043 31.9559 21.4695C32.9342 21.7879 34.0211 22.0532 33.9124 23.0083C33.7494 23.9633 32.282 24.2817 31.3037 24.2817C30.1625 24.2817 28.8581 23.9103 27.6625 23.3266C26.0321 22.4777 24.6191 21.0981 24.2387 19.2941H23.2061V25.8204H24.2387C24.2387 24.9184 24.6734 24.3347 25.543 24.2817C26.4669 24.2286 27.0104 24.6531 27.7169 24.9714C29.0755 25.6612 30.4342 25.8204 31.7929 25.8204C34.945 25.8204 38.4775 24.4408 38.4232 21.2573C38.3145 20.1961 38.1514 19.4533 37.4449 18.6574ZM9.13026 17.4371V12.5556H10.1628C11.5215 12.6087 13.0432 13.2985 12.9889 14.8902C12.9345 16.2167 12.228 17.4371 11.0324 17.4371H9.13026ZM0.0543468 12.5556H1.46736C2.82603 12.5556 3.04342 13.9882 3.04342 14.8372V22.3185C3.04342 23.7511 2.5543 24.6 0.978242 24.6H0.0543468V25.6081H12.1193C12.9345 25.6081 13.8584 25.5551 14.891 25.5551C15.978 25.502 16.8475 25.3429 17.6084 25.0776C19.1844 24.4939 20.1627 23.3797 20.1627 21.7348C20.1627 19.3472 18.2605 18.3921 16.0866 18.1268C15.4888 18.0738 14.5649 18.0207 13.3693 18.0207V17.8615C14.3476 17.8615 15.7062 17.8085 16.8475 17.4901C18.0975 17.1187 19.0757 16.1637 19.0757 14.678C19.0757 12.6618 16.7932 11.8659 15.0541 11.7067C14.1845 11.6006 12.9889 11.5475 11.4128 11.5475H0C0.0543468 11.5475 0.0543468 12.5556 0.0543468 12.5556ZM10.8694 24.6H9.40199H9.13026V18.4452H11.3041C12.6085 18.4452 13.8584 19.6125 13.8584 21.4165C13.8041 23.3797 12.8802 24.6 10.8694 24.6ZM160.649 25.6081V24.6H159.943C159.127 24.6 158.693 24.2817 158.04 23.4327L154.399 18.8697L154.834 18.4452C155.323 17.9146 156.084 17.4901 157.769 17.4901H158.584V16.482H152.334V17.4901H152.878C153.856 17.4901 153.584 18.3391 153.041 18.7105L150.432 20.7267V19.5594V11.5475H143.693V12.5556H144.399C145.052 12.5556 145.758 12.6618 145.758 14.0413V22.8491C145.758 23.9103 145.921 24.6 144.725 24.6H144.399V25.6081H151.899V24.6H151.519C150.758 24.6 150.541 24.3347 150.541 23.2205V21.9471L151.084 21.5226L152.334 23.0613C152.878 23.645 153.421 24.6531 152.823 24.6531H152.66V25.6612L160.649 25.6081Z" fill="black"/>
<path d="M86.9004 23.5918L86.846 24.0162L86.7373 24.4407L86.683 24.8652L86.5743 25.2897L86.4112 25.7141L86.2482 26.0855L86.0852 26.51L85.8678 26.8814L85.6504 27.2528L85.433 27.6242L85.1613 27.9426L84.8895 28.314L84.5635 28.6324L84.2917 28.9507L83.9656 29.2691L83.5852 29.5344L83.2591 29.7997L82.8787 30.065L82.4983 30.3303L82.1178 30.5425L81.6831 30.7547L81.3026 30.967L80.8679 31.1792L80.4331 31.3384L79.944 31.4445L79.5092 31.6037L79.0201 31.7098L78.531 31.8159L78.0962 31.869L77.6071 31.922L77.0636 31.9751H76.5745H76.0854L75.5962 31.922L75.1071 31.869L74.618 31.8159L74.1289 31.7098L73.6941 31.6037L73.205 31.4445L72.7702 31.2853L72.3354 31.1261L71.9007 30.967L71.4659 30.7547L71.0855 30.5425L70.6507 30.3303L70.2703 30.065L69.8898 29.7997L69.5637 29.5344L69.2377 29.216L68.9116 28.9507L68.5855 28.6324L68.3138 28.314L67.9877 27.9426L67.7703 27.6242L67.4986 27.2528L67.2812 26.8814L67.0638 26.51L66.9008 26.0855L66.7377 25.7141L66.629 25.2897L66.466 24.8652L66.4116 24.4407L66.3029 24.0162L66.2486 23.5918L65.8682 9.21279V7.83326L70.3789 4.8089L72.4441 6.18843L76.5201 3.48242L80.6505 6.18843L82.7157 4.86195L87.2264 7.88632L86.9004 23.5918Z" fill="black"/>
<path d="M86.5196 23.5914L86.8456 9.2124H66.1938L66.5743 23.5914C67.1177 28.5789 71.6285 31.5502 76.5741 31.6563C81.5196 31.5502 86.0304 28.5789 86.5196 23.5914Z" fill="black"/>
<path d="M72.6072 0.51113L72.9333 1.25396L73.7485 1.36007C73.8572 1.36007 73.8572 1.36007 73.8029 1.41313L73.2051 1.94372L73.3681 2.68655C73.3681 2.79267 73.4225 2.79267 73.3138 2.73961L72.6072 2.36819L71.9007 2.73961C71.792 2.79267 71.792 2.79267 71.792 2.68655L71.9551 1.89066L71.3573 1.36007C71.3029 1.30701 71.2486 1.30701 71.3573 1.30701L72.1725 1.2009L72.4986 0.51113C72.5529 0.458071 72.5529 0.458071 72.6072 0.51113ZM68.966 1.73149L69.2921 2.47431L70.1073 2.58043C70.216 2.58043 70.216 2.58043 70.1616 2.63349L69.5638 3.16408L69.7269 3.9069C69.7269 4.01302 69.7812 4.01302 69.6725 3.95996L68.966 3.58855L68.2595 3.95996C68.1508 4.01302 68.1508 4.01302 68.2052 3.9069L68.3682 3.11102L67.7704 2.58043C67.716 2.52737 67.6617 2.52737 67.7704 2.52737L68.5856 2.42125L68.9117 1.73149C68.9117 1.62537 68.9117 1.62537 68.966 1.73149ZM65.8682 3.48243L66.1943 4.22526L67.0095 4.33138C67.1182 4.33138 67.1182 4.33138 67.0639 4.38443L66.4661 4.91502L66.6291 5.65785C66.6291 5.76397 66.6834 5.76397 66.5748 5.71091L65.8682 5.3395L65.1617 5.71091C65.053 5.76397 65.053 5.76397 65.1074 5.65785L65.2704 4.86197L64.6726 4.33138C64.6183 4.27832 64.5639 4.27832 64.6726 4.27832L65.4878 4.1722L65.8139 3.48243C65.8682 3.37631 65.8682 3.37631 65.8682 3.48243ZM80.5419 0.51113L80.868 1.25396L81.6832 1.36007C81.7918 1.36007 81.7919 1.36007 81.7375 1.41313L81.1397 1.94372L81.3027 2.68655C81.3027 2.79267 81.3571 2.79267 81.2484 2.73961L80.4875 2.36819L79.781 2.73961C79.6723 2.79267 79.6723 2.79267 79.7267 2.68655L79.8897 1.89066L79.2919 1.36007C79.2376 1.30701 79.1832 1.30701 79.2919 1.30701L80.1071 1.2009L80.4875 0.564188C80.4875 0.458071 80.4875 0.458071 80.5419 0.51113ZM84.1831 1.73149L84.5092 2.47431L85.3244 2.58043C85.4331 2.58043 85.4331 2.58043 85.3787 2.63349L84.7809 3.16408L84.944 3.9069C84.944 4.01302 84.9983 4.01302 84.8896 3.95996L84.1831 3.58855L83.4766 3.95996C83.3679 4.01302 83.3679 4.01302 83.4223 3.9069L83.5853 3.11102L82.9875 2.58043C82.9331 2.52737 82.8788 2.52737 82.9875 2.52737L83.8027 2.42125L84.1288 1.73149C84.1288 1.62537 84.1288 1.62537 84.1831 1.73149ZM87.2809 3.48243L87.607 4.22526L88.4222 4.33138C88.5309 4.33138 88.5308 4.33138 88.4765 4.38443L87.8787 4.91502L88.0417 5.65785C88.0417 5.76397 88.0961 5.76397 87.9874 5.71091L87.2809 5.3395L86.5744 5.71091C86.4657 5.76397 86.4657 5.76397 86.52 5.65785L86.6831 4.86197L86.0852 4.33138C86.0309 4.27832 85.9766 4.27832 86.0852 4.27832L86.9004 4.1722L87.2265 3.48243C87.2265 3.42937 87.2265 3.37631 87.2809 3.48243ZM76.5746 0.0866578L76.9006 0.829483L77.7158 0.935601C77.8245 0.935601 77.8245 0.935601 77.7702 0.98866L77.1724 1.51925L77.3354 2.26208C77.3354 2.36819 77.3898 2.36819 77.2811 2.31513L76.5746 1.94372L75.8681 2.31513C75.7594 2.36819 75.7594 2.36819 75.8137 2.26208L75.9767 1.46619L75.3789 0.935601C75.3246 0.882542 75.2702 0.882542 75.3789 0.882542L76.1941 0.776424L76.5202 0.0866578C76.5746 0.0335989 76.5202 -0.0194601 76.5746 0.0866578Z" fill="black"/>
<path d="M82.7153 5.23354L86.9 8.04566V8.89461L66.1938 8.84155V7.9926L70.3785 5.23354L72.4437 6.61307L76.5197 3.854L80.6501 6.61307L82.7153 5.23354Z" fill="#FEFEFE"/>
<path d="M76.5205 9.2124H86.9551L86.5747 23.5914C86.0855 28.632 81.5204 31.6033 76.5749 31.6563L76.5205 9.2124Z" fill="#FEFEFE"/>
<path d="M76.521 28.3142V26.5633C76.4666 26.5633 76.3579 26.6163 76.3579 26.7225V26.7755C76.3579 26.6694 76.1406 26.6694 76.1406 26.7755V28.0489C76.1406 28.1551 76.3579 28.2081 76.3579 28.0489V28.1551C76.3579 28.2612 76.4666 28.3142 76.521 28.3142ZM75.8688 28.0489C75.8145 28.0489 75.7601 28.0489 75.7058 28.0489C75.7058 28.102 75.7601 28.1551 75.7601 28.2081C75.8145 28.3142 75.8688 28.4203 75.9232 28.5265C75.9775 28.6326 76.0319 28.7918 76.0319 28.9509C76.0319 29.2162 75.9232 29.5346 75.7058 29.7468C75.5427 29.9591 75.271 30.0652 74.8906 30.0652C74.5645 30.0652 74.2928 29.9591 74.0754 29.7468C73.858 29.5346 73.7493 29.2693 73.6949 28.9509C73.6949 28.6326 73.8036 28.4203 73.9667 28.2081C74.021 28.102 74.1297 28.102 74.0754 28.102C74.0754 28.102 74.021 28.1551 73.9123 28.2081C73.8036 28.2612 73.6406 28.3142 73.4232 28.3673C73.3689 28.3673 73.3145 28.3673 73.3145 28.3673C73.0428 28.3673 72.8254 28.2612 72.6624 28.102C72.4993 27.9428 72.445 27.7836 72.3906 27.5714C72.3906 27.5183 72.3906 27.4653 72.3906 27.4122C72.3906 27.3592 72.3906 27.3061 72.3906 27.253C72.445 27.0408 72.4993 26.8816 72.6624 26.7225C72.8254 26.5633 72.9884 26.4572 73.2602 26.4572C73.3145 26.4572 73.3689 26.4572 73.4232 26.4572C73.5863 26.4572 73.7493 26.5633 73.9123 26.6163C74.021 26.6694 74.0754 26.7225 74.0754 26.7225C74.0754 26.6694 74.021 26.6694 73.9667 26.6163C73.858 26.4041 73.6949 26.1919 73.6949 25.8735C73.6949 25.5552 73.858 25.2899 74.0754 25.0776C74.2928 24.8654 74.5645 24.7593 74.8906 24.7593C75.2167 24.7593 75.4884 24.8654 75.7058 25.0776C75.9232 25.2899 76.0319 25.6082 76.0319 25.8735C76.0319 26.0327 75.9775 26.1388 75.9232 26.298C75.8688 26.4041 75.8145 26.5102 75.7601 26.6163C75.7058 26.6694 75.7058 26.7755 75.7058 26.7755C75.7601 26.7755 75.8145 26.7755 75.8688 26.7755V27.253C75.7058 27.253 75.5427 27.2 75.434 27.1469C75.3797 27.0939 75.3253 27.0408 75.271 26.9878C75.2167 26.9347 75.2167 26.8286 75.2167 26.7755C75.2167 26.6694 75.271 26.5102 75.3797 26.351C75.434 26.2449 75.4884 26.1388 75.5427 26.0858C75.5971 26.0327 75.5971 25.9266 75.5971 25.8735C75.5971 25.7143 75.5427 25.5021 75.3797 25.396C75.271 25.2899 75.108 25.2368 74.9449 25.2368C74.7819 25.2368 74.6188 25.2899 74.4558 25.449C74.3471 25.5552 74.2384 25.7674 74.2384 25.9266C74.2384 26.0858 74.3471 26.2449 74.4015 26.4041C74.5645 26.6694 74.6732 26.8816 74.4558 27.0939C74.2384 27.3592 74.021 27.2531 73.7493 27.0939C73.6406 27.0408 73.5319 26.9878 73.4232 26.9878C73.3689 26.9878 73.3689 26.9878 73.3145 26.9878C73.2058 26.9878 73.0971 27.0408 73.0428 27.0939C72.9884 27.1469 72.9341 27.2531 72.9341 27.3592C72.9341 27.4122 72.9341 27.4122 72.9341 27.4653C72.9341 27.4653 72.9341 27.5183 72.9341 27.5714C72.9341 27.6775 72.9884 27.7836 73.0428 27.8367C73.0971 27.8898 73.2058 27.9428 73.3145 27.9428H73.3689C73.4776 27.9428 73.5863 27.8898 73.6949 27.8367C73.9667 27.7306 74.1841 27.6245 74.4015 27.8367C74.6188 28.0489 74.5101 28.2612 74.3471 28.5265C74.2384 28.6856 74.1841 28.8448 74.1841 29.004C74.1841 29.2162 74.2928 29.3754 74.4015 29.4815C74.5101 29.5876 74.6732 29.6407 74.8906 29.6938C75.108 29.6938 75.2167 29.6407 75.3254 29.5346C75.4884 29.3754 75.5427 29.2162 75.5427 29.0571C75.5427 29.004 75.5427 28.8979 75.4884 28.8448C75.434 28.7387 75.3797 28.6856 75.3254 28.5795C75.2167 28.4203 75.1623 28.2612 75.1623 28.1551C75.1623 28.0489 75.1623 27.9959 75.2167 27.9428C75.271 27.8898 75.3254 27.8367 75.3797 27.7836C75.4884 27.7306 75.6514 27.6775 75.8145 27.6775V28.0489H75.8688Z" fill="#FECC00"/>
<path d="M76.0313 27.4127C75.5966 27.4127 75.1074 27.3066 75.1074 26.776C75.1074 26.6168 75.1618 26.4046 75.2705 26.2985C75.3248 26.1924 75.4335 25.9801 75.4335 25.874C75.4335 25.5556 75.2161 25.3434 74.89 25.3434C74.564 25.3434 74.3466 25.6087 74.3466 25.874C74.3466 26.0332 74.4553 26.1924 74.5096 26.2985C74.6727 26.6168 74.8357 26.8291 74.564 27.1474C74.2922 27.4127 74.0205 27.3597 73.6944 27.2005C73.5314 27.1474 73.314 27.0413 73.1509 27.1474C73.0423 27.3066 73.0423 27.5719 73.1509 27.7311C73.314 27.8902 73.5314 27.7311 73.6944 27.678C74.0205 27.5188 74.2922 27.4127 74.564 27.7311C74.8357 27.9964 74.727 28.2617 74.5096 28.58C74.4553 28.6861 74.3466 28.8453 74.3466 29.0045C74.4009 29.8534 75.8683 29.6412 75.2161 28.58C74.9987 28.2617 74.9444 27.8372 75.3248 27.5719C75.5966 27.4658 75.8139 27.4658 76.0313 27.4127C76.0313 27.4658 76.0313 27.4127 76.0313 27.4127ZM76.0313 26.7229C76.0857 26.6168 76.1944 26.5638 76.3031 26.5638C76.4118 26.4046 76.6835 26.4046 76.7922 26.5638C76.9009 26.5638 76.9552 26.6168 77.0096 26.6699H80.5965H80.7052V27.4127H77.0096V27.4658H80.7052V28.2086H80.1073V28.2617H80.4878V28.8984H80.1073V29.0045H80.4878V29.9595H79.8356V29.5881H79.7269V29.9595H79.0747V29.0045H79.4552V28.8984H79.0747V28.527H78.9661V28.8984H78.5856V29.0045H78.9661V29.9595H78.3139V29.5881V29.9595H77.6617V29.0045H78.0422V28.8984H77.6617V28.2617H78.0422V28.2086H77.0096C76.9552 28.2617 76.8465 28.3147 76.7922 28.3147C76.6835 28.4739 76.4118 28.4739 76.3031 28.3147C76.1944 28.3147 76.0857 28.2617 76.0313 28.1555V28.2086H75.9226C76.2487 28.7392 76.3574 29.3759 75.8683 29.8534C75.6509 30.0657 75.3248 30.2248 74.9987 30.2248C74.1835 30.2779 73.6401 29.8004 73.5857 29.0045C73.5857 28.7922 73.6401 28.6331 73.6944 28.4208C73.314 28.527 72.8792 28.527 72.5531 28.2086C72.1184 27.7841 72.1184 27.0413 72.5531 26.6168C72.8792 26.2985 73.2596 26.2454 73.6944 26.4046C73.5857 26.2454 73.5314 26.0332 73.5857 25.8209C73.6401 25.1312 74.1835 24.6006 74.89 24.6006C75.5966 24.6006 76.14 25.1312 76.1944 25.874C76.1944 26.1924 76.0857 26.4577 75.9226 26.6699L76.0313 26.7229Z" fill="black"/>
<path d="M76.3572 26.7755C76.3572 26.6694 76.1398 26.6694 76.1398 26.7755V28.0489C76.1398 28.1551 76.3572 28.2081 76.3572 28.0489V28.1551C76.3572 28.3673 76.6833 28.3673 76.6833 28.1551V28.102C76.6833 28.2081 76.9007 28.2081 76.9007 28.102V26.8286C76.9007 26.7225 76.6833 26.6694 76.6833 26.8286V26.7755C76.6833 26.5633 76.3572 26.5633 76.3572 26.7755ZM80.5963 27.253H77.0637V26.7755H80.5963V27.253ZM80.3789 29.7999H79.9985V29.4285H79.618V29.7999H79.2376V29.1101H79.618V28.7387H79.2376V28.3673H78.8572V28.7387H78.4768V29.1101H78.8572V29.7999H78.4768V29.4285H78.0963V29.7999H77.7159V29.1101H78.0963V28.7387H77.7159V28.3673H78.0963V28.0489H76.955V27.5714H80.4876V28.0489H79.8898V28.3673H80.2702V28.7387H79.8898V29.1101H80.2702V29.7999H80.3789ZM75.9768 28.0489C75.7594 28.0489 75.7051 28.102 75.8138 28.2612C77.0094 30.2243 73.8573 30.8611 73.7486 29.004C73.7486 28.6856 73.8573 28.4734 74.0203 28.2612C74.0747 28.1551 74.1834 28.1551 74.129 28.1551C74.129 28.1551 74.0747 28.2081 73.966 28.2612C73.5312 28.4734 73.0964 28.5265 72.716 28.1551C72.3356 27.7836 72.3356 27.0939 72.716 26.7225C73.0964 26.351 73.5312 26.4572 73.966 26.6163C74.0747 26.6694 74.129 26.7225 74.129 26.7225C74.129 26.7225 74.0747 26.6694 74.0203 26.6163C73.9116 26.4041 73.7486 26.1919 73.7486 25.8735C73.8029 25.2368 74.292 24.7593 74.8899 24.7593C75.542 24.7593 76.0311 25.2368 76.0311 25.8735C76.0311 26.1388 75.9225 26.4041 75.7594 26.6163C75.6507 26.7755 75.7594 26.8286 75.9225 26.8286V27.3061C75.5964 27.3061 75.1616 27.2 75.1616 26.8286C75.1616 26.7225 75.2159 26.5633 75.3246 26.4041C75.4333 26.2449 75.542 26.0858 75.542 25.9266C75.542 25.5552 75.2703 25.2899 74.8899 25.2899C74.5094 25.2899 74.2377 25.6082 74.1833 25.9796C74.1833 26.1388 74.292 26.298 74.3464 26.4572C74.5094 26.7225 74.6181 26.9347 74.4007 27.1469C74.1834 27.4122 73.966 27.3061 73.6942 27.1469C73.4768 27.0408 73.2051 26.9347 72.9877 27.1469C72.8247 27.3592 72.8247 27.7306 72.9877 27.8898C73.2051 28.102 73.4768 27.9428 73.6942 27.8898C73.966 27.7836 74.1834 27.6775 74.4007 27.8898C74.6181 28.102 74.5094 28.3142 74.3464 28.5795C74.2377 28.7387 74.1833 28.8979 74.1833 29.0571C74.2377 30.1182 76.0855 29.8529 75.3246 28.5795C75.1616 28.3142 75.0529 27.9428 75.4333 27.7306C75.542 27.6775 75.7594 27.6245 75.9768 27.6245V28.0489Z" fill="white"/>
<path d="M73.042 17.2779H73.3137V16.7473C73.3137 16.6942 73.3681 16.6942 73.3681 16.6942H74.1833C74.2376 16.6942 74.2376 16.7473 74.2376 16.7473V17.2779H74.9985V16.7473C74.9985 16.6942 75.0528 16.6942 75.0528 16.6942H75.868C75.9224 16.6942 75.9224 16.7473 75.9224 16.7473V17.2779H76.4658C76.5202 17.2779 76.5202 17.3309 76.5202 17.3309V19.9839C76.5202 20.0369 76.5202 20.09 76.4658 20.09C75.9767 20.09 75.5963 20.4614 75.5963 20.9389C75.5963 21.7348 75.5963 22.5307 75.5963 23.3797C75.5963 23.4327 75.5419 23.4327 75.5419 23.4327H74.618C74.5637 23.4327 74.5637 23.3797 74.5637 23.3797V23.2205H73.8028V23.3797C73.8028 23.4327 73.8028 23.4858 73.7485 23.4858C72.879 23.5388 71.9551 23.645 71.0855 23.645C70.216 23.645 69.2921 23.5388 68.4225 23.4858C68.3682 23.4858 68.3682 23.4327 68.3682 23.3797L68.6399 21.6287C68.6399 21.5757 68.6942 21.5757 68.7486 21.5757H68.8573L69.3464 15.2616L68.9116 14.9433L68.8573 14.8902V13.829C68.8573 13.776 68.9116 13.776 68.9116 13.776H69.4551L71.0312 11.7597V11.4945V10.6986C71.0312 10.6455 71.0855 10.6455 71.0855 10.6455H71.792H72.4985C72.5529 10.6455 72.5529 10.6986 72.5529 10.6986V10.7516L72.2268 11.123L72.5529 11.4945C72.6072 11.5475 72.6072 11.5475 72.5529 11.6006H72.4985H71.1399V11.8128L72.7703 13.829H73.2594C73.3137 13.829 73.3137 13.8821 73.3137 13.8821V14.9433C73.3137 14.9963 73.3137 14.9963 73.2594 14.9963L72.8246 15.3147L73.042 17.2779Z" fill="#FEFEFE"/>
<path d="M71.4662 17.8086L71.5749 16.323C71.5749 15.6332 70.5967 15.6332 70.5967 16.323L70.7054 17.8086H71.4662Z" fill="black"/>
<path d="M82.0094 10.5391H82.7159H83.4224C83.4767 10.5391 83.4767 10.5921 83.4767 10.5921V10.6452L83.1507 11.0166L83.4767 11.388C83.5311 11.4411 83.5311 11.4411 83.4767 11.4941H83.4224H82.0637V11.7064L83.6398 13.7226H84.1833C84.2376 13.7226 84.2376 13.7757 84.2376 13.7757V14.8368C84.2376 14.8899 84.2376 14.8899 84.1833 14.8899L83.7485 15.2083L84.2376 21.5223H84.3463C84.4006 21.5223 84.4006 21.5753 84.455 21.5753L84.7267 23.3263C84.7267 23.3793 84.7267 23.4324 84.6724 23.4324C83.8028 23.4854 82.8789 23.5916 82.0094 23.5916C81.1398 23.5916 80.2159 23.4854 79.3464 23.4324C79.292 23.4324 79.292 23.3793 79.292 23.3263V23.1671H78.5312V23.3793C78.5312 23.4324 78.4768 23.4324 78.4768 23.4324H77.553C77.4986 23.4324 77.4986 23.3793 77.4986 23.3793C77.4986 22.5834 77.4986 21.7876 77.4986 20.9386C77.4986 20.4611 77.1182 20.0897 76.629 20.0897C76.5747 20.0897 76.5747 20.0366 76.5747 19.9836V17.3306C76.5747 17.2776 76.629 17.2776 76.629 17.2776H77.1725V16.747C77.1725 16.6939 77.2269 16.6939 77.2269 16.6939H78.0421C78.0964 16.6939 78.0964 16.747 78.0964 16.747V17.2776H78.8573V16.747C78.8573 16.6939 78.9116 16.6939 78.9116 16.6939H79.7268C79.7812 16.6939 79.7812 16.747 79.7812 16.747V17.2776H80.0529L80.2159 15.2613L79.7812 14.943L79.7268 14.8899C79.7268 14.5185 79.7268 14.2001 79.7268 13.8287C79.7268 13.7757 79.7812 13.7757 79.7812 13.7757H80.2703L81.9007 11.7594V11.4411V10.6452C81.9007 10.5921 81.955 10.5391 82.0094 10.5391Z" fill="black"/>
<path d="M81.52 16.3757L81.6287 17.7553H82.2809L82.3896 16.3757C82.4439 15.686 81.52 15.686 81.52 16.3757Z" fill="#FEFEFE"/>
<path d="M76.5202 17.2777H75.9767V16.7471C75.9767 16.6941 75.9224 16.6941 75.9224 16.6941H75.1072C75.0528 16.6941 75.0528 16.7471 75.0528 16.7471V17.2777H74.292V16.7471C74.292 16.6941 74.2376 16.6941 74.2376 16.6941H73.4224C73.3681 16.6941 73.3681 16.7471 73.3681 16.7471V17.2777H73.0963L72.9333 15.2615L73.3681 14.9431L73.4224 14.8901V13.8289C73.4224 13.7758 73.3681 13.7758 73.3681 13.7758H72.879L71.2485 11.7596V11.5473H72.6072H72.6616C72.7159 11.4943 72.7159 11.4943 72.6616 11.4412L72.3355 11.0698L72.6616 10.6984V10.6453C72.6616 10.5923 72.6072 10.5923 72.6072 10.5923H71.792H71.0855C71.0312 10.5923 71.0312 10.6453 71.0312 10.6453V11.4412V11.7065L69.4551 13.7228H68.9116C68.8573 13.7228 68.8573 13.7758 68.8573 13.7758V14.837C68.8573 14.8901 68.8573 14.8901 68.9116 14.8901L69.3464 15.2084L68.8573 21.5224H68.7486C68.6942 21.5224 68.6942 21.5755 68.6399 21.5755L68.3682 23.3264C68.3682 23.3795 68.3682 23.4326 68.4225 23.4326C69.2921 23.4856 70.216 23.5917 71.0855 23.5917C71.9551 23.5917 72.879 23.4856 73.7485 23.4326C73.8029 23.4326 73.8028 23.3795 73.8028 23.3264V23.1673H74.5637V23.3795C74.5637 23.4326 74.618 23.4326 74.618 23.4326H75.5419C75.5963 23.4326 75.5963 23.3795 75.5963 23.3795C75.5963 22.5836 75.5963 21.7877 75.5963 20.9388C75.5963 20.4613 75.9767 20.0898 76.4658 20.0898C76.5202 20.0898 76.5202 20.0368 76.5202 19.9837V17.3308C76.6289 17.3308 76.5745 17.2777 76.5202 17.2777ZM71.1399 10.6984H71.792H72.3355L72.0637 10.9637C72.0094 11.0168 72.0094 11.0168 72.0637 11.0698L72.3355 11.3351H71.1942V10.6984H71.1399ZM69.5095 13.8289L71.0312 11.8657L72.6072 13.7758V14.2003H72.1724V13.8289C72.1724 13.7758 72.1181 13.7758 72.1181 13.7758H71.3572C71.3029 13.7758 71.3029 13.8289 71.3029 13.8289V14.2534H70.8681V13.8289C70.8681 13.7758 70.8138 13.7758 70.8138 13.7758H70.0529C69.9986 13.7758 69.9986 13.8289 69.9986 13.8289V14.2534H69.5638V13.8289H69.5095ZM68.966 13.8819H69.4008V14.3595C69.4008 14.4125 69.4551 14.4125 69.4551 14.4125H70.0529C70.1073 14.4125 70.1073 14.3595 70.1073 14.3595V13.935H70.7051V14.3595C70.7051 14.4125 70.7594 14.4125 70.7594 14.4125H71.3572C71.4116 14.4125 71.4116 14.3595 71.4116 14.3595V13.935H72.0094V14.3595C72.0094 14.4125 72.0637 14.4125 72.0637 14.4125H72.6616C72.7159 14.4125 72.7159 14.3595 72.7159 14.3595V13.935H73.1507V14.837H68.9116V13.8819H68.966ZM69.129 14.9431H73.042L72.7703 15.1023H69.3464L69.129 14.9431ZM69.4008 15.2615H72.7159L73.1507 21.5755C72.4442 21.6285 71.7377 21.6816 71.0312 21.7347C70.3247 21.7347 69.6181 21.6816 68.9116 21.5755L69.4008 15.2615ZM73.4224 21.7347L73.5311 22.5306C73.042 22.5836 72.4985 22.6367 72.0094 22.6897C72.0094 22.5306 72.0094 22.053 72.0094 21.8938C72.4442 21.7877 72.9333 21.7347 73.4224 21.7347ZM71.8464 22.6367C71.3572 22.6897 70.8681 22.6897 70.379 22.6367C70.379 22.4775 70.379 22 70.379 21.8408C70.8681 21.8938 71.3572 21.8938 71.8464 21.8408C71.8464 22 71.8464 22.4775 71.8464 22.6367ZM68.7486 21.7347C69.2377 21.7877 69.7268 21.8408 70.216 21.8408C70.216 22 70.216 22.4775 70.216 22.6367C69.6725 22.5836 69.1834 22.5306 68.6942 22.4775L68.7486 21.7347ZM71.0855 23.4856C70.216 23.4856 69.4008 23.3795 68.5312 23.3264L68.6399 22.6367C69.4551 22.6897 70.2703 22.8489 71.0855 22.8489C71.9007 22.8489 72.7159 22.7428 73.5311 22.6367L73.6398 23.3264C72.7703 23.3795 71.9551 23.4856 71.0855 23.4856ZM75.4876 23.3264H74.7267V22.6367H75.4876V23.3264ZM74.8354 22.4775V22H75.4876V22.4775H74.8354ZM75.4876 21.8408H74.8898V21.6816H75.4876V21.8408ZM75.4876 21.5224H74.7811V21.0449H75.4876V21.5224ZM75.4876 20.8857H74.7811C74.7811 20.6204 74.8898 20.3551 74.9985 20.1429L75.5963 20.5143C75.5419 20.6204 75.5419 20.7796 75.4876 20.8857ZM75.705 20.4082C75.1615 20.0898 75.1072 20.0368 74.8354 19.8776C74.9441 19.6654 75.1072 19.5062 75.3246 19.4001C75.4876 19.6654 75.4876 19.6123 75.868 20.196C75.8137 20.249 75.7593 20.3021 75.705 20.4082ZM76.0311 20.0898L75.6506 19.5062C75.7593 19.4531 75.9224 19.347 76.0311 19.347C76.0854 19.5593 76.1398 19.7715 76.1941 20.0368C76.1398 20.0368 76.0854 20.0898 76.0311 20.0898ZM76.4658 19.9837C76.4115 19.9837 76.4115 19.9837 76.3571 19.9837C76.1941 19.347 76.1398 19.1878 75.9767 18.6042C76.1398 18.5511 76.3028 18.5511 76.4658 18.5511V19.9837ZM76.4658 18.392C76.2485 18.392 76.0854 18.445 75.868 18.4981C75.8137 18.4981 75.8137 18.5511 75.8137 18.6042C75.868 18.8164 75.9224 19.0287 75.9767 19.2409C75.8137 19.294 75.6506 19.347 75.5419 19.4531L75.4333 19.294C75.4333 19.2409 75.3789 19.2409 75.3246 19.294C75.0528 19.4531 74.8354 19.7184 74.6724 19.9307C74.6724 19.9837 74.6724 20.0368 74.6724 20.0368L74.8898 20.1429C74.7267 20.4082 74.6724 20.6735 74.6724 20.9918V21.0449V21.6816C74.6724 21.7347 74.7267 21.7347 74.7811 21.7347V21.8938C74.7267 21.8938 74.7267 21.9469 74.7267 21.9469V22.4775C74.6724 22.4775 74.6724 22.5306 74.6724 22.5306V23.0611H73.8572L73.6398 21.5755C73.6398 21.5224 73.5311 21.5224 73.5311 21.5224H73.4224L73.1507 18.1267H76.4658V18.392ZM76.4658 18.0205H73.0963V17.8614H76.4658V18.0205ZM76.4658 17.7022H73.0963V17.3838H73.4224C73.4768 17.3838 73.4768 17.3308 73.4768 17.3308V16.8002H74.1289V17.3308C74.1289 17.3838 74.1833 17.3838 74.1833 17.3838H75.1072C75.1615 17.3838 75.1615 17.3308 75.1615 17.3308V16.8002H75.8137V17.3308C75.8137 17.3838 75.868 17.3838 75.868 17.3838H76.4115V17.7022H76.4658Z" fill="black"/>
<path d="M84.4551 21.6285C84.4551 21.5755 84.4008 21.5755 84.3464 21.5755H84.2377L83.7486 15.2615L84.1834 14.9431L84.2377 14.8901V13.8289C84.2377 13.7758 84.1834 13.7758 84.1834 13.7758H83.6399L82.0639 11.7596V11.5473H83.4225H83.4769C83.5312 11.4943 83.5312 11.4943 83.4769 11.4412L83.1508 11.0698L83.4769 10.6984V10.6453C83.4769 10.5923 83.4225 10.5923 83.4225 10.5923H82.716H82.0095C81.9552 10.5923 81.9552 10.6453 81.9552 10.6453V11.4412V11.7596L80.3248 13.7758H79.8357C79.7813 13.7758 79.7813 13.8289 79.7813 13.8289C79.7813 14.2003 79.7813 14.5186 79.7813 14.8901C79.7813 14.9431 79.7813 14.9431 79.8357 14.9431L80.2704 15.2615L80.1074 17.2777H79.8357V16.7471C79.8357 16.6941 79.7813 16.6941 79.7813 16.6941H78.8574C78.8031 16.6941 78.8031 16.7471 78.8031 16.7471V17.2777H78.0422V16.7471C78.0422 16.6941 77.9879 16.6941 77.9879 16.6941H77.1727C77.1183 16.6941 77.1183 16.7471 77.1183 16.7471V17.2777H76.5749C76.5205 17.2777 76.5205 17.3308 76.5205 17.3308V19.9837C76.5205 20.0368 76.5205 20.0898 76.5749 20.0898C77.064 20.0898 77.4444 20.4613 77.4444 20.9388C77.4444 21.7347 77.4444 22.5306 77.4444 23.3795C77.4444 23.4326 77.4988 23.4326 77.4988 23.4326H78.4226C78.477 23.4326 78.477 23.3795 78.477 23.3795V23.2203H79.2378V23.3795C79.2378 23.4326 79.2378 23.4856 79.2922 23.4856C80.1617 23.5387 81.0856 23.6448 81.9552 23.6448C82.8247 23.6448 83.7486 23.5387 84.6182 23.4856C84.6725 23.4856 84.6725 23.4326 84.6725 23.3795L84.4551 21.6285ZM82.0639 10.6984H82.716H83.2595L82.9878 10.9637C82.9334 11.0168 82.9334 11.0168 82.9878 11.0698L83.2595 11.3351H82.1182V10.6984H82.0639ZM84.3464 21.7347L84.4551 22.5306C83.966 22.5836 83.4225 22.6367 82.9334 22.6897C82.9334 22.5306 82.9334 22.053 82.9334 21.8938C83.3682 21.7877 83.8573 21.7347 84.3464 21.7347ZM82.0095 11.8657L83.5312 13.8289V14.2534H83.0965V13.8289C83.0965 13.7758 83.0421 13.7758 83.0421 13.7758H82.2813C82.2269 13.7758 82.2269 13.8289 82.2269 13.8289V14.2534H81.7921V13.8289C81.7921 13.7758 81.7378 13.7758 81.7378 13.7758H80.9769C80.9226 13.7758 80.9226 13.8289 80.9226 13.8289V14.2534H80.4878V13.8289L82.0095 11.8657ZM79.8357 13.8819H80.2704V14.3595C80.2704 14.4125 80.3248 14.4125 80.3248 14.4125H80.9226C80.9769 14.4125 80.9769 14.3595 80.9769 14.3595V13.935H81.5748V14.3595C81.5748 14.4125 81.6291 14.4125 81.6291 14.4125H82.2269C82.2813 14.4125 82.2813 14.3595 82.2813 14.3595V13.935H82.8791V14.3595C82.8791 14.4125 82.9334 14.4125 82.9334 14.4125H83.5312C83.5856 14.4125 83.5856 14.3595 83.5856 14.3595V13.935H84.0204V14.837H79.7813V13.8819H79.8357ZM79.9987 14.9431H83.9117L83.6399 15.1023H80.2161L79.9987 14.9431ZM80.3248 15.2615H83.6399L84.1291 21.5755C83.4225 21.6285 82.716 21.6816 82.0095 21.7347C81.303 21.7347 80.5965 21.6816 79.89 21.5755L80.3248 15.2615ZM82.716 22.6367C82.2269 22.6897 81.7378 22.6897 81.2487 22.6367C81.2487 22.4775 81.2487 22 81.2487 21.8408C81.7378 21.8938 82.2269 21.8938 82.716 21.8408C82.716 22 82.716 22.4775 82.716 22.6367ZM81.0856 21.8408C81.0856 22 81.0856 22.4775 81.0856 22.6367C80.5422 22.5836 80.0531 22.5306 79.5639 22.4775L79.6726 21.6816C80.1074 21.7347 80.5965 21.7877 81.0856 21.8408ZM76.6292 17.4369H77.1727C77.227 17.4369 77.227 17.3838 77.227 17.3838V16.8532H77.8792V17.3838C77.8792 17.4369 77.9335 17.4369 77.9335 17.4369H78.8574C78.9118 17.4369 78.9118 17.3838 78.9118 17.3838V16.8532H79.5639V17.3838C79.5639 17.4369 79.6183 17.4369 79.6183 17.4369H79.9444V17.7552H76.5749V17.4369H76.6292ZM76.6292 17.8614H79.9987V18.0205H76.6292V17.8614ZM76.6292 19.9837V18.5511C76.7922 18.5511 76.9553 18.5511 77.1183 18.6042C76.9553 19.2409 76.9009 19.347 76.7379 19.9837C76.6836 19.9837 76.6292 19.9837 76.6292 19.9837ZM77.064 20.0898C77.0096 20.0368 76.9553 20.0368 76.9009 19.9837C76.9553 19.7715 77.0096 19.5592 77.064 19.294C77.227 19.347 77.3357 19.4001 77.4444 19.4531L77.064 20.0898ZM77.3357 20.4082C77.2814 20.3551 77.227 20.249 77.1183 20.196C77.5531 19.6123 77.4988 19.6123 77.6618 19.4001C77.8792 19.5592 78.0422 19.7184 78.1509 19.8776C77.9335 20.0368 77.8792 20.0898 77.3357 20.4082ZM77.4444 20.5143L78.0422 20.1429C78.1509 20.3551 78.2596 20.6204 78.2596 20.8857H77.5531C77.5531 20.7796 77.4987 20.6204 77.4444 20.5143ZM78.2053 22V22.4775H77.5531V22H78.2053ZM77.5531 21.8408V21.6816H78.1509V21.8408H77.5531ZM77.5531 21.5224V21.0449H78.2596V21.5224H77.5531ZM78.314 23.3264H77.5531V22.6367H78.314V23.3264ZM79.2922 23.1142H78.477V22.5836C78.477 22.5306 78.4226 22.5306 78.4226 22.5306V22C78.4226 21.9469 78.4226 21.9469 78.3683 21.9469V21.7877C78.4226 21.7877 78.477 21.7877 78.477 21.7347V21.098V21.0449C78.477 20.7265 78.3683 20.4613 78.2596 20.196L78.477 20.0898C78.5313 20.0898 78.5313 20.0368 78.477 19.9837C78.314 19.7184 78.0966 19.5062 77.8248 19.347C77.7705 19.347 77.7161 19.347 77.7161 19.347L77.6074 19.5062C77.4444 19.4001 77.3357 19.347 77.1727 19.294C77.227 19.0817 77.2814 18.8695 77.3357 18.6572C77.3357 18.6042 77.3357 18.5511 77.2814 18.5511C77.1183 18.4981 76.9009 18.4981 76.6835 18.445V18.2328H79.9987L79.727 21.6285H79.6183C79.6183 21.6285 79.5639 21.6816 79.5096 21.6816L79.2922 23.1142ZM81.9552 23.4856C81.0856 23.4856 80.2704 23.3795 79.4009 23.3264L79.5096 22.6367C80.3248 22.6897 81.14 22.8489 81.9552 22.8489C82.7704 22.8489 83.5856 22.7428 84.4008 22.6367L84.5095 23.3264C83.6943 23.3795 82.8247 23.4856 81.9552 23.4856Z" fill="white"/>
<path d="M71.6832 16.3752L71.5745 17.8078C71.5745 17.8609 71.5202 17.9139 71.4658 17.9139C71.2485 17.9139 70.868 17.9139 70.5963 17.9139C70.542 17.9139 70.4876 17.8609 70.4876 17.8078L70.3789 16.3752C70.4876 15.4732 71.6832 15.4732 71.6832 16.3752ZM70.6506 16.3752L70.7593 17.7548H71.4115L71.5202 16.3752C71.5202 15.6855 70.6506 15.6855 70.6506 16.3752Z" fill="black"/>
<path d="M82.608 16.3752L82.4993 17.8078C82.4993 17.8609 82.445 17.9139 82.3906 17.9139C82.1733 17.9139 81.7928 17.9139 81.5211 17.9139C81.4667 17.9139 81.4124 17.8609 81.4124 17.8078L81.3037 16.3752C81.3581 15.4732 82.608 15.4732 82.608 16.3752ZM81.5211 16.3752L81.6298 17.7548H82.2819L82.3906 16.3752C82.445 15.6855 81.5211 15.6855 81.5211 16.3752Z" fill="black"/>
</svg>
