<svg width="64" height="48" viewBox="0 0 64 48" fill="none" xmlns="http://www.w3.org/2000/svg">
<path d="M27.59 37.4222C27.59 37.4222 27.7575 37.2564 27.59 37.2564C20.0524 21.0559 9.71509 8.57394 9.71509 8.57394C9.71509 8.57394 4.16357 13.7609 4.47465 19.1137C4.64215 23.1638 7.75292 25.4376 7.75292 25.4376C12.6584 30.1509 24.4553 36.1432 27.255 37.4458L27.59 37.4222ZM25.6039 41.496C25.6039 41.3302 25.2689 41.3302 25.2689 41.3302L5.59931 41.9697C7.72899 45.6882 11.3423 48.6251 15.0991 47.7962C17.7313 47.1567 23.6178 43.0829 25.4125 41.8039C25.7714 41.496 25.6039 41.496 25.6039 41.496ZM25.9389 39.6959C26.1064 39.5301 25.9389 39.3643 25.9389 39.3643C17.2527 33.5378 0.550298 24.7744 0.550298 24.7744C-0.933298 29.4877 1.05281 33.2062 1.05281 33.2062C3.18249 37.7537 7.27434 39.0327 7.27434 39.0327C9.06901 39.838 11.0312 39.838 11.0312 39.838H25.7714C25.9389 39.8617 25.9389 39.6959 25.9389 39.6959ZM27.255 0.142109C26.4414 0.142109 24.1443 0.781602 24.1443 0.781602C18.9038 2.08427 17.7552 6.79757 17.7552 6.79757C16.7741 9.71081 17.7552 12.9556 17.7552 12.9556C19.5499 20.5822 28.0686 33.2299 29.8872 35.8116L30.0547 35.9774C30.2222 35.9774 30.2222 35.8116 30.2222 35.8116C33.1416 7.43706 27.255 0.142109 27.255 0.142109ZM33.8116 35.8116C33.9791 35.8116 34.1466 35.6458 34.1466 35.6458C36.1087 32.8983 44.46 20.3927 46.2786 12.7899C46.2786 12.7899 47.2596 9.07132 46.2786 6.63178C46.2786 6.63178 44.9625 1.91848 39.722 0.639493C39.722 0.639493 38.2384 0.307904 36.6113 0C36.6113 0 30.7247 7.46075 33.668 35.5037C33.6441 35.8116 33.8116 35.8116 33.8116 35.8116ZM38.382 41.3302C38.382 41.3302 38.2145 41.3302 38.2145 41.496V41.8276C40.1767 43.1302 45.7521 47.1803 48.5279 47.8198C48.5279 47.8198 53.6008 49.5962 58.0277 41.9933L38.382 41.3302ZM63.4596 24.6323C63.4596 24.6323 46.7571 33.5615 38.0709 39.388C38.0709 39.388 37.9034 39.5538 37.9034 39.7196C37.9034 39.7196 37.9034 39.8854 38.0709 39.8854H53.1462C53.1462 39.8854 54.6298 39.8854 56.5919 39.0801C56.5919 39.0801 60.6838 37.7774 62.981 33.0878C62.9571 32.8983 64.9192 29.1561 63.4596 24.6323ZM36.4198 37.4222C36.4198 37.4222 36.5873 37.588 36.7548 37.4222C39.5306 35.9537 51.3276 30.1272 56.2569 25.4139C56.2569 25.4139 59.3677 22.9744 59.5352 19.09C59.8702 13.5715 54.2948 8.55025 54.2948 8.55025C54.2948 8.55025 43.9814 20.7006 36.4438 37.0906C36.4198 37.1143 36.2523 37.2801 36.4198 37.4222Z" fill="black"/>
</svg>
