<svg width="72" height="58" viewBox="0 0 72 58" fill="none" xmlns="http://www.w3.org/2000/svg">
<path fill-rule="evenodd" clip-rule="evenodd" d="M35.8371 0L26.3788 15.3076C26.3252 16.2407 26.1744 21.3893 28.9953 25.7044C31.0183 28.799 34.7469 31.1271 38.4326 33.4285C43.6527 36.688 48.7869 39.8938 48.8686 45.1476C48.9826 52.4834 38.1174 57.9998 38.1174 57.9998H34.2079C34.2079 57.9998 41.7015 54.474 41.7015 49.7612C41.7015 45.2743 36.8412 42.9958 31.8829 40.6714C28.1012 38.8985 24.2625 37.099 22.4798 34.2726C20.0133 30.3619 20.6032 25.5348 20.8004 24.3359L0 58H72L65.0888 46.9155C64.649 47.6605 62.225 51.6799 59.9466 53.7157C57.5099 55.8929 52.7792 57.9997 52.7792 57.9997H43.0054C43.0054 57.9997 55.5096 52.4842 57.3403 45.1475C58.2437 41.5266 58.3902 39.0561 57.0145 35.5907C54.1004 28.2501 38.4443 28.0111 38.4443 28.0111C38.4443 28.0111 46.6411 24.647 51.8237 25.6402L35.8371 0Z" fill="#028FEC"/>
<path fill-rule="evenodd" clip-rule="evenodd" d="M20.8004 24.3359C20.6032 25.5348 20.0133 30.362 22.4798 34.2726C24.2625 37.099 28.1012 38.8986 31.8829 40.6714C36.8412 42.9958 41.7015 45.2743 41.7015 49.7612C41.7015 54.474 34.2079 57.9999 34.2079 57.9999L34.2085 58H0L20.8004 24.3359Z" fill="#FF2F19"/>
</svg>
