<svg width="56" height="49" viewBox="0 0 56 49" fill="none" xmlns="http://www.w3.org/2000/svg">
<path d="M46.9201 39.0685C45.2375 39.5243 43.3906 39.69 41.749 40.27C44.5398 37.8256 44.4167 34.0969 46.2635 31.1968C46.8791 30.3682 47.3716 29.5396 48.0282 28.7524C46.8791 31.0725 47.3716 34.0555 46.0583 36.2927C45.5658 37.1627 44.8271 38.0328 44.0473 38.7371C44.2935 38.7371 44.5398 38.4885 44.745 38.3642C46.8791 36.2099 49.6699 35.6298 51.9681 33.8898C52.871 33.144 53.7329 32.1911 54.1433 31.114C53.7329 34.6769 50.2034 37.9913 46.9201 39.0685Z" fill="black"/>
<path d="M54.593 24.6921C53.567 26.1836 52.2947 27.5922 51.3508 29.0837C51.4739 27.8822 51.597 26.3907 51.1456 25.2721C50.3248 22.8277 49.6271 20.3419 49.4219 17.649L49.4629 16.6132C50.0785 19.3476 52.7462 21.2534 52.582 24.3192C52.623 25.0649 52.4178 25.6864 52.2947 26.3493L52.3358 26.3907L52.4589 26.2664C52.8693 24.7749 53.0334 23.1592 53.649 21.7505C54.5109 19.7205 55.619 17.649 55.1675 15.2046C56.4398 18.1047 56.0294 21.9577 54.593 24.6921Z" fill="black"/>
<path d="M52.9515 9.11456C54.7162 11.5175 55.0856 15.3291 53.8134 18.1049C53.3209 19.2649 52.9925 20.5078 52.8284 21.7922C52.7463 21.585 52.7053 21.2536 52.6232 21.005C51.9255 18.312 49.381 16.4062 48.355 13.8376C48.0266 13.009 47.7394 12.139 47.5752 11.2275C48.6833 13.299 51.433 14.3762 52.1717 16.6548C52.459 17.2348 52.459 17.9392 52.6642 18.5606C52.7053 18.5606 52.7463 18.5192 52.7463 18.4778C52.418 16.1162 52.5001 13.6719 52.8284 11.3518C52.8284 10.1089 52.7053 8.86598 52.0076 7.91309C52.418 8.2031 52.6232 8.70026 52.9515 9.11456Z" fill="black"/>
<path d="M51.6808 8.61781C52.1322 10.7307 51.4756 12.7608 51.886 14.8737C50.7368 12.6365 48.3565 11.5593 46.6738 9.77785C45.7299 8.70067 45.2784 7.41634 45.0732 6.00771C46.0172 8.3278 48.5617 8.82496 50.0391 10.7722C50.5316 11.2279 50.6958 11.8494 51.0241 12.3465L51.0652 12.3051C50.2033 10.4822 49.916 8.45209 49.3415 6.50488C49.0542 5.67627 48.4386 4.84767 47.6588 4.30908C49.6287 4.76481 51.3114 6.79489 51.6808 8.61781Z" fill="black"/>
<path d="M46.5504 3.81166C47.9868 5.13743 48.6435 6.83606 49.0949 8.57612L49.3412 9.15614C47.2481 7.62323 45.3192 5.55173 43.9649 3.39736L42.3232 1.69873C43.7597 2.32018 45.3192 2.69305 46.5504 3.81166Z" fill="black"/>
<path d="M13.2249 1.98828C11.7474 3.27261 10.7624 4.92982 9.69538 6.4213C8.7104 7.62277 7.47919 8.45137 6.37109 9.48712C6.94566 8.24422 6.9867 6.75274 7.80751 5.63413C9.03873 3.52119 11.2549 2.77545 13.2249 1.98828Z" fill="black"/>
<path d="M5.26353 6.46362C5.96122 5.59359 6.86411 4.97214 7.89012 4.68213C5.92017 6.04932 6.0433 8.49369 5.42769 10.5238C5.22249 11.2695 4.89416 11.9738 4.73 12.7196L4.77104 12.761C5.09936 11.891 5.67393 11.0624 6.37162 10.358C7.767 9.07372 9.81903 8.24511 10.5167 6.33933C10.4757 8.99086 8.25949 11.1038 6.16642 12.5953C5.30457 13.3824 4.44271 14.2525 3.99127 15.2468C3.95023 14.5839 4.07335 13.8796 4.03231 13.1753C3.82711 10.8552 3.6219 8.20368 5.26353 6.46362Z" fill="black"/>
<path d="M1.2818 14.4594C1.24076 12.0978 2.18469 10.1506 3.58007 8.41057C3.62111 8.41057 3.66215 8.36914 3.70319 8.36914C2.18469 10.6892 3.45695 13.5893 3.37487 16.2409L3.16967 18.9338C3.21071 18.9338 3.21071 19.0167 3.25175 19.0167C3.33383 18.7267 3.37487 18.3952 3.41591 18.1052C3.78527 15.9508 5.6321 14.3765 7.27372 12.885C7.60205 12.5121 7.93037 12.0978 8.09453 11.6421C7.97141 12.7193 7.64309 13.7965 7.19164 14.8322C5.91938 17.318 3.58007 19.3895 3.12863 22.2482C2.96446 19.431 1.11764 17.3595 1.2818 14.4594Z" fill="black"/>
<path d="M0.173984 17.8154C0.338146 17.0697 0.461268 16.3239 0.789592 15.6196C0.173984 18.7269 2.26705 21.0055 2.96474 23.6985C3.25202 24.6928 3.33411 25.8114 3.74451 26.7643C3.78555 26.7643 3.82659 26.7643 3.82659 26.7229C2.80058 23.8228 4.27804 21.1713 5.7555 18.934C6.12486 18.3126 6.33007 17.6497 6.49423 16.9454C6.65839 18.2297 6.33007 19.7626 6.12486 21.0884C5.7555 22.8285 5.22197 24.4442 4.77053 26.1014C4.48324 27.1372 4.52428 28.3387 4.68844 29.4158L4.52428 29.2915C3.45723 27.2615 1.28208 25.7286 0.666471 23.4913C0.132944 21.7513 -0.195381 19.7212 0.173984 17.8154Z" fill="black"/>
<path d="M0.0508319 23.9044C0.297075 27.2188 3.82656 28.9589 5.46818 31.6932C5.83755 32.2733 6.20691 32.8533 6.6994 33.3504C6.61732 33.019 6.289 32.6876 6.16587 32.3561C5.59131 31.1961 5.3861 29.8289 5.50923 28.4617C5.67339 26.7631 6.37108 25.1887 6.08379 23.4072C7.52021 26.5559 7.06877 30.4503 7.88958 33.8476C8.09478 34.5933 8.50519 35.2562 8.79247 35.9605C5.83755 33.9305 1.81558 31.9833 0.502278 28.296C0.00979134 26.9702 -0.0722898 25.3959 0.0508319 23.9044Z" fill="black"/>
<path d="M1.81543 31.5284C3.45705 35.2985 7.60215 35.5885 10.3519 37.9086C10.8443 38.3643 11.3779 38.7372 11.9524 39.0272L11.9935 38.9858C11.3779 38.4057 10.6391 37.7429 10.1877 36.9971C8.58712 34.7185 9.12065 31.5284 7.93047 29.084C9.03856 30.4097 10.0235 31.7769 10.6802 33.3099C11.6652 35.7542 12.0345 38.5715 14.3328 40.3944C11.8704 39.5658 8.95648 39.8144 6.78134 38.2815C4.40098 36.79 2.26688 34.2627 1.81543 31.5284Z" fill="black"/>
<path d="M6.04199 38.5299C8.66859 41.5543 12.9778 40.56 16.5073 41.3472C16.9998 41.43 17.4513 41.6372 17.9848 41.5543C17.5744 41.2643 16.9998 41.3057 16.5484 41.0572C13.7987 40.0628 13.3883 37.0799 11.8698 35.0498C13.7987 36.3341 15.3992 38.0742 17.164 39.7314C18.4362 40.85 19.9547 41.3886 21.5553 41.72C21.186 41.8443 20.6524 41.8029 20.242 41.9272C17.3692 42.6315 14.127 43.833 11.09 42.7558C9.12003 42.0929 7.06801 40.5186 6.04199 38.5299Z" fill="black"/>
<path d="M41.8705 45.6145C38.9156 46.7331 35.7965 45.573 33.4572 43.7915C32.5133 43.1701 31.6924 42.3001 30.4612 42.3829C30.0098 42.3829 29.5994 42.3829 29.23 42.5072C31.4872 43.5844 33.5803 45.0344 35.5092 46.8988C35.1809 47.2717 34.7705 47.6031 34.3601 47.9345C32.5133 45.9045 30.4612 43.9987 28.163 42.8801C27.7115 42.9215 27.3011 43.2115 26.8907 43.4187C25.0439 44.6201 23.1971 46.153 21.8017 48.0174L20.6115 47.0231C22.4994 45.0759 24.6335 43.5844 26.9317 42.5072C24.6745 41.8029 23.1971 43.7087 21.4734 44.6616C19.4624 46.0702 16.5895 46.7331 14.1681 45.7802C12.8548 45.283 11.6236 44.5373 10.6797 43.3772C12.5676 44.703 15.3994 44.8273 17.5745 43.9573C20.4884 42.6729 23.4843 41.0572 26.9728 41.8443C27.5063 41.8443 28.0398 42.4243 28.5734 41.9272C31.1589 41.2643 34.1138 41.72 36.3711 42.9215L38.6693 43.833C40.8034 44.6201 43.5942 44.413 45.4 43.0872C44.4971 44.2473 43.2248 45.1173 41.8705 45.6145Z" fill="black"/>
<path d="M45.0728 42.5073C41.7485 43.7916 38.3832 42.2172 35.182 41.6787L34.5664 41.5958C36.0849 41.2644 37.5624 40.7672 38.7936 39.69C40.5994 37.95 42.1999 36.1685 44.1699 34.8013C42.6924 36.7071 42.5283 39.4414 40.1069 40.6843C39.4913 41.0986 38.7525 41.1401 38.0959 41.4715C38.9988 41.4715 39.8196 41.1815 40.6814 41.0986C43.9647 40.56 47.6994 41.0986 49.9977 38.2814C49.1358 40.1457 47.0017 41.8029 45.0728 42.5073Z" fill="black"/>
<path d="M51.1469 33.0198C49.8336 33.8898 48.4793 34.7184 47.207 35.6713V35.547C49.1359 32.2741 48.192 27.7996 49.3822 24.2366L49.8336 23.0352C49.5874 25.2724 50.5313 27.1782 50.4903 29.4154C50.4082 30.7826 49.9978 31.9841 49.3001 33.0612H49.4232C50.3672 31.8183 51.1059 30.4511 52.214 29.2497C53.9377 27.551 55.7024 25.8524 55.9076 23.5323C56.4822 27.3853 54.3481 30.824 51.1469 33.0198Z" fill="black"/>
<path d="M46.8365 20.8808C46.6313 25.5623 44.9076 29.6225 41.8706 33.1026L41.7886 33.2683C41.173 32.564 40.3521 31.694 39.5724 31.0725C40.0238 30.7825 40.3932 30.2025 40.7215 29.7882C42.6094 27.1781 43.7175 24.2366 43.8816 20.9222L43.7995 20.6322L43.9637 20.7565H46.7955L46.9597 20.6736L46.8365 20.8808ZM28.6556 39.1928L28.4504 39.3171C28.5325 38.2814 28.5325 37.2042 28.4504 36.1684C28.9429 36.3342 29.4764 36.1684 30.0099 36.1684L31.5284 35.8784C32.2672 36.0442 32.8007 37.2456 33.6625 36.4999C33.9498 36.1684 34.4423 36.1684 34.6475 35.7127C35.14 35.547 35.2631 35.0498 35.5914 34.7184C35.9198 33.7655 36.9868 33.6412 37.6024 32.9783C38.0539 32.564 38.6695 32.1912 38.9568 31.6526L38.9978 31.9011L41.0909 33.9312C37.5614 37.1628 33.4163 38.9857 28.6556 39.1928ZM28.6145 32.8126C28.9839 32.9783 29.5995 32.6469 29.8047 33.0612C29.6816 33.3098 29.5174 33.5169 29.5995 33.7655C29.7637 34.1384 29.9689 34.6355 30.4203 34.677C30.5434 34.8427 30.7076 34.8841 30.8718 34.9255C30.092 35.0498 29.2302 35.0084 28.4914 35.257C28.5735 34.4284 28.4914 33.5998 28.4914 32.7712L28.3273 32.564C28.4504 32.6055 28.5325 32.7297 28.6145 32.8126ZM27.8758 27.7167C27.6706 27.7581 27.4654 27.7167 27.3012 27.6338C27.2192 27.6338 27.2602 27.5096 27.2192 27.4681C27.5065 27.4681 27.6296 27.1367 27.9579 27.1781C28.1221 27.0124 28.1631 26.7638 28.4093 26.6395C28.3273 26.3909 28.6556 26.5567 28.6966 26.3909C28.7787 26.3081 28.9018 26.2252 29.0249 26.3081C29.2302 26.5981 29.6406 26.4738 29.8458 26.8052C29.9278 26.8467 29.9689 26.7224 29.9689 26.681V26.5567C30.2972 26.5152 30.4614 26.971 30.7897 26.681C30.8718 26.5981 30.8307 26.4738 30.7897 26.3909C30.7487 26.3909 30.7076 26.3495 30.7076 26.3081C30.9539 26.1838 31.077 26.6395 31.3643 26.5152C31.6105 26.3081 31.7336 26.1009 32.0619 26.1009L32.144 26.1838C32.1851 26.7638 31.6926 27.1367 31.2411 27.4267C30.9539 27.551 30.4203 27.5096 30.4614 27.9653C30.133 28.2553 29.8458 27.7996 29.4354 27.9239C29.2302 27.841 29.4354 27.551 29.1481 27.5096C28.6966 27.6339 28.2041 27.261 27.8758 27.7167ZM25.4955 39.0685C21.5145 38.53 18.0261 36.7899 14.948 34.0969L17.0001 32.0254L17.0411 31.9011C19.8729 34.6355 23.2793 36.0442 27.1371 36.2927L27.4244 36.2099L27.3423 36.3756V39.0685L27.5064 39.3171C26.8498 39.11 26.1111 39.1928 25.4955 39.0685ZM11.5417 29.5811C10.1053 26.8881 9.28445 23.988 9.12028 20.7979H11.87L12.1573 20.715C12.1162 20.8808 12.1162 21.0465 12.1162 21.2951V21.2536C12.0342 21.295 12.1573 21.3365 12.1573 21.4193C12.1983 22.4965 12.4035 23.4908 12.6498 24.4437L12.7729 24.6509C12.5677 24.4437 12.4856 24.2366 12.3214 24.0294C12.0752 24.0709 11.829 24.1123 11.6648 24.278C11.7879 24.568 11.5006 24.4852 11.3775 24.568C11.3365 24.4852 11.2544 24.4023 11.1723 24.3609C10.9671 24.3609 10.7619 24.4023 10.6388 24.6095C10.6798 24.7752 10.5157 24.8166 10.4336 24.9409C10.3925 25.3966 10.2284 25.9766 10.5567 26.3495C10.5567 26.681 10.7209 26.971 10.9671 27.1781C11.0492 27.1781 11.1313 27.1367 11.1723 27.0953C11.4596 27.3024 11.5827 27.7996 11.9931 27.6753C12.1162 27.6339 12.0752 27.5096 12.1162 27.3853C12.3214 27.5924 12.4035 28.0067 12.8139 27.9653C12.896 28.0481 12.9781 28.2553 13.1423 28.2553C13.5527 28.131 13.4295 28.7525 13.7168 28.9182C13.9631 29.0839 14.0862 29.4153 14.4145 29.2496L14.5376 29.0839C14.6608 29.1668 14.5376 29.3739 14.6608 29.4568C14.8249 29.7882 15.1532 29.9954 15.4816 30.0782C15.7689 30.4097 16.0561 30.7825 16.3845 31.0311L16.1382 31.114L14.1683 33.1855C13.2654 32.1083 12.2394 30.9068 11.5417 29.5811ZM9.2434 17.8978C9.73589 13.7548 11.5006 10.1504 14.3324 6.96025L14.4145 7.25026C15.0712 7.91314 15.7689 8.61745 16.4255 9.2389C15.8509 9.61177 15.5636 10.2747 15.1122 10.7718C13.3475 13.299 12.3214 16.1577 12.1573 19.3478L12.2394 19.7207C11.2544 19.6378 10.1873 19.6378 9.16132 19.7207C9.20236 19.0993 9.12028 18.4778 9.2434 17.8978ZM16.6307 4.93018C19.7908 2.65152 23.3203 1.28433 27.3012 1.11861L27.1781 1.36719L27.2192 3.77014L27.3012 4.01872C23.4434 4.18444 20.0781 5.67592 17.1642 8.32744L17.1232 8.45173C16.4665 7.74742 15.7278 6.91882 14.948 6.3388H14.866C15.4816 5.96593 16.0151 5.34448 16.6307 4.93018ZM27.3423 12.0147C26.8088 11.8904 26.3573 12.139 25.8648 12.1804C24.7567 12.4704 23.7718 13.0919 22.8278 13.7548C22.7868 13.8376 22.7457 13.9205 22.6637 13.9619C21.966 13.3405 21.3093 12.5119 20.5706 11.9733C22.4995 10.3989 24.6747 9.32176 27.1781 9.15604L27.3423 9.07318C27.2192 10.0261 27.2192 11.0618 27.3423 12.0147ZM26.5625 15.2463C26.5215 15.122 26.6856 14.9563 26.5215 14.8734C26.07 15.0805 26.2342 15.5777 25.9469 15.9091C25.9059 16.1577 25.5775 16.0334 25.4134 16.1992C25.2903 15.992 25.044 16.0334 24.8799 16.1163C24.6336 16.1163 24.5926 15.6191 24.3463 15.8677C24.2642 15.9506 24.3053 16.1163 24.1411 16.0749C24.1001 15.992 24.018 15.992 23.977 15.9506C23.977 15.7849 24.2232 15.8263 24.1411 15.6606C23.977 15.3291 23.5666 15.3706 23.3203 15.1634H23.0741C24.2232 13.9205 25.7007 13.3819 27.3012 13.1333C27.3012 13.8376 27.2192 14.6662 27.4654 15.3291C27.2192 14.9977 26.8498 15.3706 26.5625 15.2463ZM23.8128 23.3666C23.977 23.2008 24.1411 22.9523 24.2232 22.7037L24.5515 22.8694C24.2232 22.9108 24.059 23.2423 23.8128 23.3666ZM26.9729 26.3909C26.8498 26.6395 26.9319 26.971 26.8908 27.2195C25.5775 26.971 24.3874 26.4324 23.3203 25.5623C23.9359 24.8995 24.7157 24.278 25.1671 23.5737C25.2082 23.9051 25.6186 24.0294 25.8648 24.1952C26.3984 24.4437 27.014 24.8166 27.6296 24.568C27.5885 24.6095 27.5475 24.6509 27.5064 24.6923C27.6706 24.858 27.3833 25.0238 27.5885 25.1895C27.6296 25.3138 27.4654 25.3138 27.4654 25.3966C27.5475 25.5623 27.4244 25.8938 27.7117 25.9766C27.7937 26.0595 27.7117 26.2252 27.5885 26.2252C27.3423 26.1838 27.096 26.1838 26.9729 26.3909ZM20.8579 15.6191C20.5706 15.7849 20.3654 16.0749 20.2012 16.3234C19.955 16.4892 19.6677 16.4477 19.4625 16.7377C19.4625 16.862 19.5856 16.9863 19.4625 17.0692C19.2163 17.2763 18.7648 17.0278 18.6417 17.4421C18.6007 17.8149 18.1492 18.0221 18.1902 18.4364C17.944 18.6021 17.985 18.8921 18.0261 19.1407C18.1492 19.3064 17.985 19.5964 18.1902 19.7207C17.8209 19.6793 17.2874 19.5964 16.959 19.7621C17.1642 19.3064 17.0822 18.7678 17.2053 18.2707C17.5746 16.1992 18.5186 14.3762 19.8729 12.719C20.5706 13.3819 21.3093 14.2105 22.0481 14.7905C21.4735 14.7905 21.4735 15.6191 20.8579 15.6191ZM19.5035 27.4267L19.4215 26.8052C18.8469 26.3081 19.0521 25.3966 18.929 24.7752C18.5186 24.4437 18.8469 23.9466 18.5596 23.5737C18.5596 22.9937 17.6567 22.7865 17.944 22.1651C17.8209 21.9994 17.6978 21.7922 17.8209 21.5851C17.985 21.3779 18.3954 21.5851 18.5186 21.2951L18.6006 20.7565C18.8059 20.6322 19.0931 20.9222 19.2163 20.6322C19.4215 20.135 18.4775 19.5136 19.2983 19.265C19.5856 19.2235 19.9139 19.1821 20.0371 19.5136C20.0781 19.8864 20.2012 20.3007 20.0371 20.6736C20.2833 20.7565 20.0781 21.005 20.0781 21.1708C19.9139 21.2536 19.7908 21.4193 19.5856 21.3365C19.5035 21.2122 19.3804 20.9636 19.1752 21.005C19.0111 21.2122 19.2163 21.4193 19.2163 21.6679C19.1752 21.7922 19.2163 21.9579 19.1342 22.0822C19.0521 22.0408 19.0111 21.9994 18.8879 21.9994C18.7238 22.0822 18.8469 22.2894 18.8879 22.3722C19.0521 22.4965 19.1752 22.6622 19.4215 22.6622L19.5035 22.538C19.4625 22.2065 19.6267 21.9579 19.6267 21.6679L19.9139 21.8336C20.1602 23.0765 20.7348 24.1952 21.4324 25.2723L21.8018 25.6452C20.8989 26.4324 20.0371 27.3853 19.2573 28.2553C19.2573 28.2139 19.2163 28.0482 19.0931 28.131C19.0111 27.7581 19.6267 27.8824 19.5035 27.4267ZM25.8238 30.9897L26.3163 31.1968C24.5926 30.7825 22.7457 30.1611 21.2683 28.9182C21.022 28.7525 20.8579 28.421 20.5296 28.421C21.2272 27.841 21.9249 27.0953 22.4995 26.3909C22.7457 26.8881 23.3203 27.1367 23.7307 27.4681C24.4694 27.7996 25.2492 28.4625 26.1521 28.2967C25.8648 28.3796 25.6186 28.5453 25.4134 28.7939C25.2903 29.0839 25.3313 29.4568 24.9619 29.5811C24.9619 30.0782 25.4544 30.5754 25.8238 30.9897ZM22.8689 23.1594C22.8689 23.2423 22.992 23.3666 23.1151 23.2837C23.2382 23.118 22.8689 22.8694 23.1151 22.7865C23.2793 22.9523 23.1972 23.2837 23.2793 23.4908C23.3614 23.6151 23.4024 23.7394 23.3614 23.8637C23.0741 24.1952 22.7047 24.4852 22.5405 24.858C22.3764 24.4023 21.966 24.0294 21.8018 23.5737C21.5145 23.0351 21.3504 22.4551 21.1041 21.9579C21.3504 22.2479 21.966 21.9165 21.966 22.4965C22.007 22.538 22.0481 22.4965 22.1301 22.4965C22.2122 22.4137 22.2122 22.4137 22.3353 22.4551C22.3764 22.538 22.6226 22.6208 22.4174 22.7037C22.4585 22.9108 22.6637 23.118 22.8689 23.1594ZM27.3012 8.07886C26.7677 7.95457 26.2752 8.16172 25.7417 8.20315C23.5255 8.65888 21.4735 9.61177 19.7908 11.2275L19.7087 11.0204C19.0521 10.3989 18.4365 9.61177 17.6978 9.15604C18.3134 8.78317 18.8879 8.20315 19.5035 7.78885C21.8018 6.21451 24.3874 5.34448 27.2602 5.17876C27.1781 6.13165 27.2602 7.12597 27.3012 8.07886ZM16.0561 19.7207L15.8099 19.6378L13.1012 19.6793C13.3475 16.6135 14.1683 13.7962 15.933 11.3933L17.0001 10.0261V9.81892C17.6157 10.5647 18.3544 11.269 19.0931 11.9319C17.1232 14.0448 16.1382 16.6135 15.933 19.4307C15.9741 19.555 15.9741 19.6793 16.0561 19.7207ZM14.0451 24.3609C13.7579 24.4023 13.8399 24.6923 13.7579 24.858C13.7989 24.1537 13.4706 23.4908 13.3885 22.7865L13.1833 20.9636L13.0602 20.7979C13.922 20.9222 14.907 20.8393 15.8099 20.8808L16.0151 20.7979C15.933 21.2536 15.933 21.8751 16.2203 22.2479C16.0972 22.1237 15.933 21.7922 15.6868 21.7922C15.1943 21.8336 15.1532 22.4965 14.6197 22.4965C14.2093 22.828 14.1272 23.3251 14.0451 23.8223C14.2504 23.9466 13.922 24.1537 14.0451 24.3609ZM17.0411 20.9222L16.918 20.6736C17.2053 20.8808 17.5336 20.8393 17.8619 20.7565C17.3694 20.9222 17.5746 21.5022 17.3694 21.8751C17.3284 22.0408 17.6157 22.1237 17.5746 22.2894C17.3284 22.4137 17.2874 22.6622 17.2053 22.8694C17.3284 22.2065 17.0821 21.5851 17.0411 20.9222ZM27.4244 35.3398L27.1371 35.1327C23.4434 34.9255 20.2833 33.3926 17.5336 30.9897C17.985 30.9483 18.1492 31.5283 18.6417 31.404C19.1752 31.3626 19.5856 30.9068 20.1602 30.9897C20.4475 30.9897 20.7758 30.9897 20.94 30.6997C21.022 30.4097 20.6937 30.2439 20.6527 29.9954C22.5405 31.404 24.6336 32.3154 27.055 32.3983L27.3012 32.3154V34.967L27.4244 35.3398ZM27.8758 16.7792L28.04 16.862C27.8348 16.862 27.5885 16.7377 27.4244 16.9035C27.3012 16.9863 27.3833 17.152 27.4244 17.2763C27.7937 17.4006 27.8758 18.0221 28.3273 17.7735C28.5325 17.8149 28.7787 17.8564 28.8608 18.0635C29.1481 18.1878 29.1891 18.685 29.5585 18.5607C29.5585 18.7678 29.4764 19.0993 29.7226 19.2235C29.6816 19.3893 29.4354 19.4721 29.4354 19.6793C29.3943 19.7207 29.3533 19.845 29.3943 19.9279C29.7637 19.9693 29.7226 20.3836 29.9278 20.6322C29.8458 20.9222 29.9278 21.2122 30.2151 21.3779C30.1741 21.7094 30.0099 21.9994 29.8868 22.2894C29.5174 22.4965 28.8608 21.9994 28.7377 22.7037C28.5325 22.9523 28.6966 23.4908 28.2862 23.4908C27.4654 23.5323 26.7267 23.3666 26.1111 22.9108C26.5215 22.7037 27.2192 22.9937 27.3423 22.3722C27.4654 22.2894 27.5065 22.1237 27.4244 21.9994C27.6296 21.7922 27.6706 21.5436 27.7937 21.3365C27.6296 21.1708 27.7117 21.0879 27.7527 20.9222C27.3423 20.5079 26.8088 20.715 26.2752 20.715C25.9469 20.8808 26.2752 21.2536 26.07 21.4608C25.6596 21.5022 25.6596 21.9165 25.3723 22.1237C25.2082 22.0408 25.0851 21.8336 25.0851 21.6679H25.1261C25.0851 21.7508 25.1671 21.8336 25.2082 21.8336C25.5775 21.8751 25.4544 21.4608 25.5775 21.2536C25.6186 21.005 26.1932 20.6736 25.7417 20.5079C25.7007 20.425 25.7827 20.2593 25.6596 20.2179C25.5365 20.2593 25.2903 20.2593 25.2903 20.5079C25.3723 20.6736 25.2903 20.8808 25.1261 21.005H25.044C25.0851 20.8808 25.003 20.7979 24.9209 20.7565C24.6747 20.7565 24.5105 20.9222 24.2642 20.8808C23.9359 20.9636 23.6076 21.005 23.2793 21.005C23.2382 20.7979 23.5255 20.8808 23.6076 20.715C23.5666 20.425 23.7718 20.2179 23.8949 20.0107C23.977 19.9279 24.1411 19.9693 24.2232 20.0107C24.3053 20.0936 24.3874 20.1764 24.5105 20.135L24.5926 19.9693C24.8799 20.135 24.7157 21.005 25.2903 20.6322C25.3723 20.2593 25.2903 19.8036 25.4544 19.4721C25.3313 19.1407 25.6596 19.0164 25.7417 18.8092C26.029 18.8507 26.029 18.4778 26.1521 18.3121C26.6036 18.1878 27.096 18.0635 27.4244 17.5663C27.3012 17.3178 27.3833 16.9449 27.1781 16.7377C27.3833 16.6963 27.7117 16.6135 27.8758 16.7792ZM29.5585 5.26162C31.2822 5.46877 32.8417 5.96593 34.3602 6.67024C34.6065 7.00168 35.0169 7.20883 35.099 7.62313C34.8527 8.24458 35.9198 8.20315 35.4273 8.8246C35.3862 9.03175 35.5504 9.11461 35.6325 9.28033C35.6735 9.44605 35.5914 9.69463 35.7966 9.81892C36.166 9.90178 36.2891 9.40462 36.6585 9.52891C37.1099 9.86035 37.2331 10.4404 37.2331 10.9375C37.2741 11.269 37.5614 11.4761 37.8487 11.6004C38.4232 11.4347 38.177 12.0976 38.5464 12.2633C38.9978 12.3047 39.244 12.9262 39.7365 12.8433C40.188 13.1748 40.4342 13.6719 40.8446 14.0448C40.8446 14.1277 40.8857 14.2105 40.9678 14.2519C41.214 14.2934 41.3371 14.1276 41.5423 14.1276C42.3221 15.702 42.6915 17.4421 42.8146 19.3064L42.8967 19.5136C41.9527 19.5136 40.9678 19.5136 39.9828 19.5964C39.9417 19.0164 39.9828 18.4364 39.6955 17.9806C39.8597 17.6906 39.9007 17.2763 39.8597 16.9449C39.8186 16.7792 39.6545 16.9449 39.6134 16.9449C39.2851 17.2349 39.244 17.6906 39.0799 18.0635C38.7926 18.4364 38.7516 19.0578 38.9157 19.4721L39.0388 19.5964H37.9307C38.218 19.4307 37.6845 19.0993 37.9718 18.8092L38.4643 18.7264C38.6284 18.3535 39.0388 18.1049 38.9978 17.6492C39.203 17.3592 39.4082 17.0278 39.244 16.6549C38.9978 16.1163 39.6545 15.5363 39.162 15.0391C39.203 14.8734 39.1209 14.6662 38.9157 14.6662C38.7516 14.6248 38.5874 14.6662 38.5874 14.4591C38.6695 14.3348 38.9157 14.1691 38.8336 13.9619C38.7105 13.7962 38.5464 13.9619 38.3822 13.9205C38.3412 13.6719 38.7926 13.4233 38.3822 13.2162C38.0949 13.1748 37.9718 13.5062 37.6845 13.3819C37.5614 13.299 37.4793 13.0919 37.6024 12.9676L37.0279 12.2219C36.9868 12.139 36.7816 12.2633 36.7816 12.139C36.8227 11.559 36.125 11.2275 36.0839 10.6475C35.8787 10.4404 36.0429 10.0675 35.7556 9.90178C35.5914 9.77749 35.4273 9.6532 35.181 9.73606C34.9348 9.36319 34.6475 9.03175 34.3192 8.70031C34.2371 8.65888 34.155 8.74174 34.114 8.78317C34.155 9.07318 34.4833 9.2389 34.4833 9.52891C34.4423 9.52891 34.4013 9.52891 34.3602 9.57034C34.4013 9.86035 34.6475 10.1089 34.8117 10.2747C33.2521 9.07318 31.4053 8.45173 29.4764 8.12029C29.107 8.12029 28.6966 7.95457 28.3273 8.07886C28.4093 7.20883 28.3683 6.21451 28.3683 5.30305L28.2862 5.0959C28.7377 5.30305 29.1481 5.17876 29.5585 5.26162ZM30.3382 1.2429C34.3192 1.78149 37.8487 3.39726 40.8446 6.25594L40.5163 6.38023C39.9828 6.96025 39.3261 7.45741 39.0388 8.12029C38.9978 7.91314 38.7105 7.78885 38.6284 7.62313C38.5874 7.08454 38.0539 6.54595 37.5614 6.25594C37.192 6.17308 37.0689 5.59306 36.6175 5.75878C36.207 5.42734 35.7146 5.67592 35.3452 5.84164V5.88307C33.4573 4.80589 31.3643 4.14301 29.107 3.97729C28.9839 3.97729 28.9429 4.06015 28.8197 4.06015C28.9429 3.97729 28.8608 3.72871 28.8608 3.60442C28.8197 3.52155 28.6966 3.39726 28.5325 3.48012C28.4914 3.56298 28.4504 3.64585 28.4504 3.72871C28.4914 2.85867 28.5325 1.74006 28.4093 0.952891C28.9839 1.20147 29.6816 1.11861 30.3382 1.2429ZM32.1851 27.0538C33.0469 27.1367 33.8677 27.3438 34.6475 27.6338C34.8527 27.6338 35.0579 27.6339 35.181 27.4681C35.14 27.1367 35.5094 26.971 35.4683 26.6395C35.6325 26.3495 35.5094 25.9766 35.7556 25.7281C35.7966 25.3966 35.7556 24.9823 35.5094 24.7337C35.3042 24.6095 35.099 24.7752 34.8937 24.8166C34.6475 24.9823 34.7296 25.5209 34.3192 25.3966C34.2371 25.5209 34.0319 25.5209 33.9088 25.4795C33.8677 25.4381 33.8267 25.4381 33.8267 25.3552C34.114 25.1895 34.6475 25.3138 34.6885 24.8166C34.8937 24.6095 35.2631 24.6923 35.4683 24.4852C35.6325 24.2366 35.6735 24.0294 35.8787 23.8223C35.8787 23.7394 35.9198 23.6151 35.9198 23.5323C35.9608 23.6566 35.9608 23.8637 36.166 23.9466C36.4122 24.0294 36.4943 23.8223 36.5764 23.6566C36.5764 23.5737 36.6175 23.4494 36.6995 23.5323C36.9458 23.7394 37.2741 23.5737 37.5614 23.5737C37.8076 23.4908 38.0949 23.4494 38.3412 23.4494C38.0949 24.568 37.5614 25.5623 36.9047 26.5567C36.6585 26.8467 36.4533 27.1781 36.166 27.5096C36.0839 27.261 36.0839 26.971 35.8787 26.7638L35.7556 26.8052C35.5914 27.1367 35.2631 27.3853 35.3042 27.7581C35.0579 28.131 34.4833 27.7996 34.114 28.0067C33.7036 28.131 33.4573 27.7167 33.129 27.6338C32.7596 27.4681 32.3082 27.4681 31.9799 27.261C32.062 27.1367 32.103 27.0538 32.1851 27.0538ZM34.8937 12.2219C34.3602 12.8019 33.7036 13.3819 33.2521 14.0034L33.17 13.7962C31.8567 12.719 30.3793 12.1804 28.7377 11.9733L28.4914 12.0147V9.32176L28.4093 9.11461C29.5174 9.28033 30.5845 9.44605 31.6105 9.77749C32.8828 10.2332 34.0729 10.9375 35.181 11.849L35.4273 11.9319L34.8937 12.2219ZM39.0388 20.715C38.8747 21.2536 38.8747 21.8751 38.7516 22.4137C38.7105 22.4965 38.7105 22.6208 38.6695 22.7037C38.5053 22.3722 38.3412 21.9165 37.9718 21.7094C37.6435 21.5436 37.8487 21.0879 37.5614 20.8808L37.2741 20.5907C37.7255 20.7979 38.4232 20.7565 39.0388 20.715ZM37.2741 15.412C37.6024 15.4948 37.8076 15.8677 38.136 15.9506C38.4232 16.4063 38.5464 16.9449 38.7105 17.4421C38.4232 17.7321 38.4232 18.3949 37.8487 18.3121C37.7255 17.9806 38.0949 17.8149 38.0128 17.4835C38.0949 17.4006 38.2591 17.3592 38.3001 17.1935C38.2591 16.9035 37.8897 16.9449 37.8487 16.6549C37.7255 16.4892 37.5203 16.4892 37.3562 16.4477C36.9868 16.282 36.6175 17.2349 36.5354 16.4477C36.6585 16.3649 36.7406 16.1992 36.6175 16.0749C36.2891 15.9091 36.2481 15.4534 35.9198 15.2463C35.4273 15.2463 34.9758 15.0391 34.5244 15.1634C34.2371 15.0805 33.8677 14.8734 33.6215 15.2048C33.6215 15.4534 33.4573 15.6606 33.4163 15.9091C33.2932 15.8677 33.2111 15.7434 33.129 15.6191C33.9909 14.6248 35.0169 13.6305 35.9198 12.6776L35.9608 12.5533C36.4122 13.1333 36.9458 13.7133 37.2741 14.3348C37.3972 14.7491 36.6585 15.1634 37.2741 15.412ZM31.6926 24.9823C31.6926 25.3552 31.1591 25.3138 30.9128 25.5623C30.7897 25.5209 30.8718 25.3552 30.9128 25.2723C31.1591 25.148 31.3232 24.9409 31.6926 24.9823ZM30.8307 16.6963C30.6666 16.7377 30.5024 16.862 30.3382 16.7792C30.1741 16.6135 29.9689 16.3649 29.6816 16.3234C29.4764 16.3649 29.3533 16.6135 29.1481 16.4892C29.5174 16.1163 30.133 16.0334 30.4203 15.4948C30.5024 15.2463 30.5845 14.9563 30.5434 14.7077C30.4614 14.5834 30.2972 14.4591 30.1741 14.5834C29.9689 14.9148 29.5174 14.9977 29.3122 15.3291L28.6145 15.0805C28.4914 14.4177 28.6556 13.5891 28.4914 13.009C28.8608 13.1333 29.2712 13.1748 29.6816 13.2576C30.7076 13.5062 31.6105 14.0034 32.5134 14.542C32.3082 14.6248 32.103 14.8734 31.9388 15.0391C31.9388 15.2048 32.144 15.1634 32.1851 15.2877L32.3903 15.2048C31.9799 15.992 30.9539 15.8677 30.8307 16.6963ZM36.3712 32.2326C35.8377 31.7354 36.6995 31.3626 36.8637 30.9068C36.7816 30.4511 36.2481 30.1611 35.8787 30.0368C35.6735 29.9125 35.7556 29.7054 35.7556 29.5396C35.9198 29.3739 36.125 29.2082 36.207 28.9596L36.2891 29.1668L37.5203 30.4511C37.5203 30.7411 37.5614 30.9897 37.8487 31.114C37.9718 31.1554 38.136 31.0725 38.2591 31.114H38.177C37.6435 31.694 37.0279 32.1497 36.4122 32.6055L36.2891 32.8126C36.166 32.564 36.5354 32.4397 36.3712 32.2326ZM38.7105 29.3325C38.4643 29.0839 38.4643 28.6282 38.0128 28.6282C37.8487 28.6282 37.8076 28.7525 37.8076 28.8767C37.8076 28.9596 37.8487 29.0425 37.7666 29.0839L36.8637 28.2967C37.2741 28.0896 37.6024 27.5096 37.9307 27.0953C38.7516 25.9352 39.244 24.6095 39.6545 23.2837C39.7776 23.408 39.9828 23.408 40.1059 23.3251C40.229 23.2008 40.2701 22.9937 40.188 22.8694L39.9007 22.4551C39.9417 21.8336 40.1059 21.2536 40.0238 20.6736L40.229 20.7565C41.1319 20.7565 42.0758 20.7979 42.9787 20.715L42.8556 20.8808C42.6094 24.4852 41.3782 27.7581 38.8747 30.4097C38.9978 30.0368 38.6695 29.7054 38.7105 29.3325ZM46.7955 18.5192C46.8365 18.8507 46.7545 19.265 46.9597 19.555L44.0868 19.5964C44.0048 19.6378 43.9227 19.6793 43.8406 19.6793L43.9227 19.555C43.8816 17.2763 43.266 15.2463 42.4042 13.3405C42.3631 12.4704 41.5423 11.8904 41.214 11.1447C40.5984 10.689 40.3932 9.94321 39.6545 9.52891C39.5313 9.36319 39.4492 9.11461 39.244 9.07318L39.5724 8.99032C40.2701 8.28601 41.0088 7.5817 41.5423 6.83596C44.5383 10.2332 46.4261 14.0448 46.7955 18.5192ZM45.8516 11.4347C42.6094 4.43302 35.4683 0 27.9989 0C24.7157 0.0414301 21.7197 0.787171 18.97 2.15436C14.0862 4.51588 10.1053 9.61177 8.75092 14.6662C6.57577 23.2008 9.53069 31.8183 16.7538 36.8313C21.966 40.6015 30.2562 41.3058 36.125 38.4471C41.3371 36.2513 45.7695 30.824 47.1238 25.4795C48.4782 21.005 47.9036 15.4534 45.8516 11.4347Z" fill="black"/>
<path d="M36.7812 5.13755C36.7812 5.26184 36.7813 5.3447 36.8633 5.42756C37.2737 5.59328 37.3148 6.1733 37.8483 6.04901C38.0125 5.88329 37.7662 5.67614 37.8073 5.42756C37.7252 5.22041 37.561 5.13755 37.3558 5.05469C37.1096 5.30327 36.9454 4.9304 36.7812 5.13755Z" fill="black"/>
<path d="M28.8618 3.43798C29.3953 4.10086 30.2982 3.72799 30.9548 3.6037C31.4473 3.81085 31.8988 3.56227 32.2271 3.27226V3.1894C31.8988 2.69223 31.2421 2.65081 30.6675 2.60938L29.2311 3.23083C29.108 3.1894 28.9028 3.10654 28.8207 3.27226C28.7797 3.35512 28.8207 3.39655 28.8618 3.43798Z" fill="black"/>
</svg>
