<svg width="46" height="48" viewBox="0 0 46 48" fill="none" xmlns="http://www.w3.org/2000/svg">
<path d="M22.2369 0.012891C27.1614 -0.157986 32.1367 1.37415 36.1619 4.35777C41.0204 7.8905 44.4687 13.4546 45.5622 19.5389C46.4521 23.9414 45.9449 28.5781 44.4084 32.7579C42.3948 38.2279 38.3904 42.8511 33.3943 45.4968C30.1647 47.1903 26.5467 48.1963 22.9156 47.9678C19.8896 48.1502 16.8693 47.4379 14.0866 46.2188C8.46264 43.767 3.86809 38.8653 1.64528 32.9326C-0.100535 28.3765 -0.492684 23.2541 0.6404 18.4868C1.92997 12.6789 5.41029 7.45659 10.1349 4.12929C13.6869 1.5911 17.9402 0.170328 22.2369 0.012891ZM17.8591 5.66527C13.0365 7.12636 8.86044 10.7609 6.62444 15.4648C4.88617 19.0186 4.33942 23.1561 4.9201 27.0901C5.01625 27.5644 4.97289 28.1058 5.267 28.5128C7.09766 24.2352 9.29407 19.9383 12.8178 16.9163C16.1944 14.1304 20.2742 11.9992 24.6539 11.9167C23.7659 10.8146 22.8741 9.71639 21.9635 8.63161C25.1045 9.55703 28.2379 10.5209 31.3468 11.5557C29.2107 13.7944 27.0822 16.0408 24.8575 18.1815C24.9291 16.803 25.029 15.4225 25.063 14.0421C23.5302 14.3224 22.103 15.0923 20.9171 16.1329C18.3305 18.4157 16.8071 21.7392 15.8607 25.078C14.886 28.509 14.4787 32.1243 14.6484 35.6993C17.0729 35.4094 19.4221 34.5396 21.5412 33.284C24.126 31.748 26.313 29.3135 27.1934 26.2972C26.0792 26.4854 24.9744 26.7407 23.879 27.0229C25.6474 24.671 27.4574 22.3536 29.222 19.9978C30.7397 22.6243 32.2913 25.2335 33.6205 27.9714C32.4403 27.4933 31.3279 26.8463 30.1232 26.4374C31.36 31.5944 31.0866 37.168 29.1183 42.087C34.4067 40.1632 38.7128 35.538 40.4039 29.9528C41.9103 25.0684 41.4842 19.5274 39.1257 15.0136C37.131 11.0738 33.7581 7.93466 29.8065 6.27773C26.0377 4.688 21.758 4.50369 17.8591 5.66527Z" fill="black"/>
</svg>
