<svg width="20" height="21" viewBox="0 0 20 21" fill="none" xmlns="http://www.w3.org/2000/svg">
<path fill-rule="evenodd" clip-rule="evenodd" d="M10 9.0625V12.5125H15.6714C15.4429 13.9917 13.9571 16.8538 10 16.8538C6.58571 16.8538 3.8 14.0089 3.8 10.5C3.8 6.9925 6.58571 4.14625 10 4.14625C11.9429 4.14625 13.2429 4.98 13.9857 5.69875L16.7 3.06812C14.9571 1.42937 12.7 0.4375 10 0.4375C4.47143 0.4375 0 4.93688 0 10.5C0 16.0631 4.47143 20.5625 10 20.5625C15.7714 20.5625 19.6014 16.48 19.6014 10.73C19.6014 10.0687 19.5286 9.56563 19.4429 9.0625H10Z" fill="#EA4335"/>
</svg>
