<svg width="19" height="19" viewBox="0 0 19 19" fill="none" xmlns="http://www.w3.org/2000/svg">
<path d="M9.53325 18.721C3.34796 18.721 0 14.8608 0 9.87728C0 4.55174 3.76992 0.27832 10.5102 0.27832C15.4296 0.27832 19 3.47507 19 7.87911C19 14.7761 10.8221 16.5969 11.2322 12.6624C10.6701 13.5395 9.76442 14.5259 8.02354 14.5259C6.03171 14.5259 4.79354 13.0677 4.79354 10.7204C4.79354 7.20224 7.106 4.22953 9.84358 4.22953C11.157 4.22953 12.0603 4.92303 12.4379 5.98782L12.8052 4.69582H14.6561C14.463 5.35449 12.8187 11.4464 12.8187 11.4464C12.3057 13.5569 13.8874 13.5942 15.2902 12.4732C17.9257 10.4307 18.0619 5.08928 14.5002 2.86153C10.6835 0.57282 1.99579 1.98911 1.99579 9.74349C1.99579 14.1855 5.12288 17.1701 9.77708 17.1701C12.4973 17.1701 14.1645 16.4339 15.5523 15.6279L16.4841 16.9722C15.1295 17.7369 12.9525 18.721 9.53325 18.721ZM7.67758 7.39619C7.11154 8.45703 6.74579 9.83136 6.74579 10.8985C6.74579 13.7564 9.53404 13.7747 10.9036 11.0877C11.4673 9.98415 11.8307 8.57736 11.8307 7.50228C11.8307 5.19299 9.06379 4.7837 7.67758 7.39619Z" fill="#005FF9"/>
</svg>
