<svg width="20" height="20" viewBox="0 0 20 20" fill="none" xmlns="http://www.w3.org/2000/svg">
<g clip-path="url(#clip0)">
<path d="M10.9683 15.8283C11.4758 15.8283 11.6833 15.49 11.6775 15.0658C11.6517 13.4683 12.2725 12.6083 13.3933 13.7291C14.6333 14.9691 14.89 15.8283 16.3958 15.8283H19.0625C19.7358 15.8283 20.0008 15.6116 20.0008 15.2716C20.0008 14.5525 18.8167 13.2833 17.8133 12.3516C16.4083 11.0475 16.3425 11.0166 17.5525 9.44663C19.0533 7.49746 21.0167 4.99996 19.28 4.99996H15.9625C15.3192 4.99996 15.2725 5.36246 15.0433 5.90246C14.2142 7.85829 12.6383 10.3916 12.04 10.0041C11.4142 9.59996 11.7008 7.99913 11.7483 5.61996C11.7608 4.99163 11.7575 4.56079 10.7975 4.33746C10.2733 4.21663 9.76333 4.16663 9.29 4.16663C7.39583 4.16663 6.08917 4.96079 6.83167 5.09913C8.14083 5.34329 8.015 8.17579 7.71 9.39913C7.17833 11.5291 5.18 7.71246 4.3475 5.81163C4.14667 5.35496 4.085 4.99996 3.36833 4.99996H0.655833C0.245833 4.99996 0 5.13329 0 5.42996C0 5.93163 2.46667 11.03 4.82167 13.5716C7.11833 16.0508 9.38833 15.8283 10.9683 15.8283Z" fill="#4F7DB3"/>
</g>
<defs>
<clipPath id="clip0">
<rect width="20" height="20" fill="white"/>
</clipPath>
</defs>
</svg>
