<svg width="120" height="120" viewBox="0 0 120 120" fill="none" xmlns="http://www.w3.org/2000/svg">
<g>
<path d="M93.3335 30.8335L26.6668 30.8335L26.6668 22.0001C26.6668 15.3727 32.0394 10.0001 38.6668 10.0001L81.3335 10.0001C87.9609 10.0001 93.3335 15.3727 93.3335 22.0001L93.3335 30.8335Z" fill="url(#paint0_linear)"/>
<path d="M108 57.0001C108 68.0458 99.0457 77.0001 88 77.0001L32 77.0001C20.9543 77.0001 12 68.0458 12 57.0001L12 44.0001C12 31.2976 22.2975 21.0001 35 21.0001L85 21.0001C97.7026 21.0001 108 31.2976 108 44.0001L108 57.0001Z" fill="#2AA7EE"/>
<path d="M109 53.0001C109 63.4935 100.493 72.0001 90 72.0001L30 72.0001C19.5066 72.0001 11 63.4935 11 53.0001L11 45.0001C11 32.8499 20.8497 23.0001 33 23.0001L87 23.0001C99.1503 23.0001 109 32.8499 109 45.0001L109 53.0001Z" stroke="url(#paint1_linear)" stroke-width="2"/>
<rect x="110" y="68.0001" width="100" height="47" rx="20" transform="rotate(-180 110 68.0001)" fill="#2AA7EE"/>
<mask id="mask0" mask-type="alpha" maskUnits="userSpaceOnUse" x="10" y="21" width="101" height="48">
<rect x="110.001" y="68.3334" width="100" height="47.2222" rx="20" transform="rotate(-180 110.001 68.3334)" fill="white"/>
</mask>
<g mask="url(#mask0)">
<g filter="url(#filter0_f)">
<rect x="110" y="62.0001" width="100" height="47" rx="20" transform="rotate(-180 110 62.0001)" fill="#75DDDD"/>
</g>
</g>
<rect x="90" y="58.0001" width="46" height="4" rx="2" transform="rotate(-180 90 58.0001)" fill="url(#paint2_linear)"/>
<ellipse cx="33" cy="56.0001" rx="3" ry="3" transform="rotate(-180 33 56.0001)" fill="#008CDB"/>
<path d="M95.4444 97.3675C95.8069 104.234 90.3371 110 83.4611 110L36.5393 110C29.6634 110 24.1935 104.234 24.556 97.3675L25.8953 72.0001C25.8953 72.0001 28.5004 72.5001 60.0002 72.5001C91.5 72.5001 94.1052 72.0001 94.1052 72.0001L95.4444 97.3675Z" fill="url(#paint3_linear)"/>
<path d="M95.4444 97.3675C95.8069 104.234 90.3371 110 83.4611 110L36.5393 110C29.6634 110 24.1935 104.234 24.556 97.3675L25.8953 72.0001C25.8953 72.0001 28.5004 72.5001 60.0002 72.5001C91.5 72.5001 94.1052 72.0001 94.1052 72.0001L95.4444 97.3675Z" fill="url(#paint4_linear)"/>
</g>
<defs>
<filter id="filter0_f" x="-40" y="-34.9999" width="200" height="147" filterUnits="userSpaceOnUse" color-interpolation-filters="sRGB">
<feFlood flood-opacity="0" result="BackgroundImageFix"/>
<feBlend mode="normal" in="SourceGraphic" in2="BackgroundImageFix" result="shape"/>
<feGaussianBlur stdDeviation="25" result="effect1_foregroundBlur"/>
</filter>
<linearGradient id="paint0_linear" x1="60.0002" y1="33.6744" x2="60.0002" y2="15.682" gradientUnits="userSpaceOnUse">
<stop stop-color="#75DDDD"/>
<stop offset="1" stop-color="#C1EFEF"/>
</linearGradient>
<linearGradient id="paint1_linear" x1="10" y1="51.0001" x2="110" y2="51.0001" gradientUnits="userSpaceOnUse">
<stop stop-color="#2AA7EE"/>
<stop offset="0.0675773" stop-color="#008CDB"/>
<stop offset="0.934256" stop-color="#0891DF"/>
<stop offset="1" stop-color="#2AA7EE"/>
</linearGradient>
<linearGradient id="paint2_linear" x1="113" y1="58.0001" x2="113" y2="62.0001" gradientUnits="userSpaceOnUse">
<stop stop-color="#75DDDD"/>
<stop offset="0.776042" stop-color="#7AE582"/>
</linearGradient>
<linearGradient id="paint3_linear" x1="60.0002" y1="110" x2="60.0002" y2="71.1112" gradientUnits="userSpaceOnUse">
<stop stop-color="#C1EFEF"/>
<stop offset="1" stop-color="#75DDDD"/>
</linearGradient>
<linearGradient id="paint4_linear" x1="60.0002" y1="110" x2="60" y2="72.0001" gradientUnits="userSpaceOnUse">
<stop offset="0.276042" stop-color="#C1EFEF"/>
<stop offset="0.619792" stop-color="#A5E4E4"/>
<stop offset="0.786458" stop-color="#C1EFEF"/>
<stop offset="0.932292" stop-color="#75DDDD"/>
</linearGradient>
</defs>
</svg>
