<svg width="120" height="120" viewBox="0 0 120 120" fill="none" xmlns="http://www.w3.org/2000/svg">
<g>
<path d="M59.9998 86.2222C79.9434 86.2222 96.1109 70.0547 96.1109 50.1111C96.1109 30.1675 79.9434 14 59.9998 14C40.0562 14 23.8887 30.1675 23.8887 50.1111C23.8887 70.0547 40.0562 86.2222 59.9998 86.2222Z" fill="#68E271"/>
<path d="M82.2222 114H37.7778C22.5 114 10 101.5 10 86.2223V49.3334C10 48.2289 10.8954 47.3334 12 47.3334H108C109.105 47.3334 110 48.2289 110 49.3334V86.2223C110 101.5 97.5 114 82.2222 114Z" fill="#C1EFEF"/>
<mask id="mask0" mask-type="alpha" maskUnits="userSpaceOnUse" x="10" y="51" width="100" height="63">
<path d="M82.2222 114H37.7778C22.5 114 10 102.281 10 87.9583V53.5C10 52.3954 10.8954 51.5 12 51.5H108C109.105 51.5 110 52.3954 110 53.5V87.9583C110 102.281 97.5 114 82.2222 114Z" fill="#00A5CF"/>
</mask>
<g mask="url(#mask0)">
<g filter="url(#filter0_f)">
<path d="M60 91.7777C80.7107 91.7777 97.5 74.9884 97.5 54.2777C97.5 33.567 80.7107 16.7777 60 16.7777C39.2893 16.7777 22.5 33.567 22.5 54.2777C22.5 74.9884 39.2893 91.7777 60 91.7777Z" fill="#75DDDD"/>
</g>
<g filter="url(#filter1_f)">
<path d="M59.9995 82.0556C75.3407 82.0556 87.7772 69.619 87.7772 54.2778C87.7772 38.9365 75.3407 26.5 59.9995 26.5C44.6582 26.5 32.2217 38.9365 32.2217 54.2778C32.2217 69.619 44.6582 82.0556 59.9995 82.0556Z" fill="#2AA7EE"/>
</g>
</g>
<g opacity="0.5">
<mask id="mask1" mask-type="alpha" maskUnits="userSpaceOnUse" x="12" y="47" width="96" height="5">
<path d="M12.5 49.75V51.5H107.5V49.75C107.5 48.6454 106.605 47.75 105.5 47.75H14.5C13.3954 47.75 12.5 48.6454 12.5 49.75Z" fill="#C4C4C4"/>
</mask>
<g mask="url(#mask1)">
<g filter="url(#filter2_f)">
<path d="M60 87.6111C80.7107 87.6111 97.5 70.8218 97.5 50.1111C97.5 29.4005 80.7107 12.6111 60 12.6111C39.2893 12.6111 22.5 29.4005 22.5 50.1111C22.5 70.8218 39.2893 87.6111 60 87.6111Z" fill="#75DDDD"/>
</g>
</g>
</g>
</g>
<defs>
<filter id="filter0_f" x="14.5" y="8.77771" width="91" height="91" filterUnits="userSpaceOnUse" color-interpolation-filters="sRGB">
<feFlood flood-opacity="0" result="BackgroundImageFix"/>
<feBlend mode="normal" in="SourceGraphic" in2="BackgroundImageFix" result="shape"/>
<feGaussianBlur stdDeviation="4" result="effect1_foregroundBlur"/>
</filter>
<filter id="filter1_f" x="12.2217" y="6.5" width="95.5556" height="95.5556" filterUnits="userSpaceOnUse" color-interpolation-filters="sRGB">
<feFlood flood-opacity="0" result="BackgroundImageFix"/>
<feBlend mode="normal" in="SourceGraphic" in2="BackgroundImageFix" result="shape"/>
<feGaussianBlur stdDeviation="10" result="effect1_foregroundBlur"/>
</filter>
<filter id="filter2_f" x="18.5" y="8.61115" width="83" height="83" filterUnits="userSpaceOnUse" color-interpolation-filters="sRGB">
<feFlood flood-opacity="0" result="BackgroundImageFix"/>
<feBlend mode="normal" in="SourceGraphic" in2="BackgroundImageFix" result="shape"/>
<feGaussianBlur stdDeviation="2" result="effect1_foregroundBlur"/>
</filter>
</defs>
</svg>
