<svg width="120" height="120" viewBox="0 0 120 120" fill="none" xmlns="http://www.w3.org/2000/svg">
<g>
<rect x="10" y="10" width="100" height="100" rx="16" fill="#C1EFEF"/>
<g filter="url(#filter0_f)">
<path d="M51.6423 56.9102C53.4122 55.3264 53.5808 52.9029 52.0637 51.1512C50.041 48.7995 49.6476 45.7041 51.0523 43.0405C52.7099 39.8491 53.6932 36.4416 53.946 32.9622L54.3674 27.0592C54.536 24.4917 57.0082 22.5 60.0143 22.5C63.0203 22.5 65.4926 24.4917 65.6892 27.0592L66.1106 32.9622C66.3354 36.4416 67.3187 39.8491 69.0043 43.0165C70.409 45.6801 70.0157 48.7756 67.9929 51.1272C66.4758 52.8789 66.6725 55.3024 68.4143 56.8862C70.128 58.4699 71.1113 60.5336 71.1113 62.6932V91.2897C71.1113 95.4167 69.7224 97.4989 64.2038 97.4989H55.7967C51.6669 97.4989 48.8891 94.7222 48.8891 91.2897V62.6932C48.9172 60.5336 49.9005 58.4699 51.6423 56.9102Z" fill="#75DDDD"/>
</g>
<g filter="url(#filter1_f)">
<path d="M23.864 56.9102C25.6339 55.3264 25.8025 52.9029 24.2854 51.1512C22.2626 48.7995 21.8693 45.7041 23.274 43.0405C24.9315 39.8491 25.9148 36.4416 26.1677 32.9622L26.5891 27.0592C26.7576 24.4917 29.2299 22.5 32.2359 22.5C35.242 22.5 37.7142 24.4917 37.9109 27.0592L38.3323 32.9622C38.5571 36.4416 39.5403 39.8491 41.226 43.0165C42.6307 45.6801 42.2373 48.7756 40.2146 51.1272C38.6975 52.8789 38.8942 55.3024 40.636 56.8862C42.3497 58.4699 43.333 60.5336 43.333 62.6932V91.2897C43.333 95.4167 41.2497 97.4989 36.4254 97.4989H28.0184C23.1941 97.4989 21.1108 94.0278 21.1108 91.2897V62.6932C21.1389 60.5336 22.1222 58.4699 23.864 56.9102Z" fill="#75DDDD"/>
</g>
<g filter="url(#filter2_f)">
<path d="M79.4196 56.9102C81.1896 55.3264 81.3581 52.9029 79.8411 51.1512C77.8183 48.7995 77.425 45.7041 78.8297 43.0405C80.4872 39.8491 81.4705 36.4416 81.7233 32.9622L82.1447 27.0592C82.3133 24.4917 84.7856 22.5 87.7916 22.5C90.7976 22.5 93.2699 24.4917 93.4666 27.0592L93.888 32.9622C94.1127 36.4416 95.096 39.8491 96.7816 43.0165C98.1863 45.6801 97.793 48.7756 95.7703 51.1272C94.2532 52.8789 94.4498 55.3024 96.1917 56.8862C97.9054 58.4699 98.8887 60.5336 98.8887 62.6932V91.2897C98.8887 94.7222 97.4998 97.4989 91.9811 97.4989H83.574C78.7498 97.4989 76.6665 94.7222 76.6665 91.2897V62.6932C76.6945 60.5336 77.6778 58.4699 79.4196 56.9102Z" fill="#75DDDD"/>
</g>
<mask id="mask0" mask-type="alpha" maskUnits="userSpaceOnUse" x="51" y="24" width="18" height="73">
<path d="M53.7312 57.4136C55.0587 55.8885 55.1851 53.5547 54.0473 51.8678C52.5302 49.6033 52.2352 46.6225 53.2888 44.0576C54.5319 40.9843 55.2694 37.7031 55.459 34.3526L55.7751 28.6682C55.9015 26.1957 57.7557 24.2778 60.0102 24.2778C62.2647 24.2778 64.1189 26.1957 64.2664 28.6682L64.5825 34.3526C64.751 37.7031 65.4885 40.9843 66.7527 44.0345C67.8062 46.5994 67.5113 49.5802 65.9942 51.8447C64.8564 53.5315 65.0039 55.8654 66.3103 57.3904C67.5955 58.9155 68.333 60.9027 68.333 62.9824V90.4169C68.333 93.7223 66.2497 96.499 62.4579 96.499H54.7637C53.0781 96.5452 51.6663 95.0433 51.6663 93.1947V62.9824C51.6874 60.9027 52.4249 58.9155 53.7312 57.4136Z" fill="#2AA7EE"/>
</mask>
<g mask="url(#mask0)">
<g filter="url(#filter3_f)">
<path d="M59.0775 60.5918C59.8242 58.982 59.8953 56.5185 59.2553 54.7379C58.402 52.3476 58.236 49.2012 58.8286 46.4938C59.5279 43.2498 59.9427 39.7863 60.0494 36.2496L60.2272 30.2495C60.2983 27.6396 61.3413 25.6152 62.6094 25.6152C63.8776 25.6152 64.9206 27.6396 65.0036 30.2495L65.1813 36.2496C65.2762 39.7863 65.691 43.2498 66.4021 46.4694C66.9947 49.1768 66.8288 52.3232 65.9754 54.7136C65.3354 56.4941 65.4184 58.9576 66.1532 60.5674C66.8762 62.1772 67.291 64.2748 67.291 66.47V98.3607C67.291 100.312 66.5088 101.897 65.5488 101.849H59.6583C58.7101 101.897 57.916 100.312 57.916 98.3607V66.47C57.9279 64.2748 58.3427 62.1772 59.0775 60.5918Z" fill="#2AA7EE"/>
</g>
</g>
<mask id="mask1" mask-type="alpha" maskUnits="userSpaceOnUse" x="23" y="24" width="18" height="73">
<path d="M25.9539 57.4136C27.2813 55.8885 27.4078 53.5547 26.27 51.8678C24.7529 49.6033 24.4579 46.6225 25.5114 44.0576C26.7546 40.9843 27.492 37.7031 27.6817 34.3526L27.9977 28.6682C28.1241 26.1957 29.9783 24.2778 32.2329 24.2778C34.4874 24.2778 36.3416 26.1957 36.4891 28.6682L36.8051 34.3526C36.9737 37.7031 37.7112 40.9843 38.9754 44.0345C40.0289 46.5994 39.7339 49.5802 38.2169 51.8447C37.0791 53.5315 37.2265 55.8654 38.5329 57.3904C39.8182 58.9155 40.5557 60.9027 40.5557 62.9824V90.4169C40.5557 92.3334 39.1668 96.499 34.6805 96.499H26.9863C25.3007 96.5452 23.889 95.0433 23.889 93.1947V62.9824C23.9101 60.9027 24.6475 58.9155 25.9539 57.4136Z" fill="#2AA7EE"/>
</mask>
<g mask="url(#mask1)">
<g filter="url(#filter4_f)">
<path d="M31.3002 60.5918C32.0469 58.982 32.118 56.5185 31.478 54.7379C30.6246 52.3476 30.4587 49.2012 31.0513 46.4938C31.7506 43.2498 32.1654 39.7863 32.272 36.2496L32.4498 30.2495C32.5209 27.6396 33.5639 25.6152 34.8321 25.6152C36.1003 25.6152 37.1433 27.6396 37.2262 30.2495L37.404 36.2496C37.4988 39.7863 37.9136 43.2498 38.6248 46.4694C39.2174 49.1768 39.0514 52.3232 38.1981 54.7136C37.5581 56.4941 37.641 58.9576 38.3759 60.5674C39.0988 62.1772 39.5137 64.2748 39.5137 66.47V98.3607C39.5137 100.312 38.7314 101.897 37.7714 101.849H31.8809C30.9328 101.897 30.1387 100.312 30.1387 98.3607V66.47C30.1505 64.2748 30.5653 62.1772 31.3002 60.5918Z" fill="#2AA7EE"/>
</g>
</g>
<mask id="mask2" mask-type="alpha" maskUnits="userSpaceOnUse" x="79" y="24" width="18" height="73">
<path d="M81.5096 57.4136C82.837 55.8885 82.9634 53.5547 81.8256 51.8678C80.3085 49.6033 80.0136 46.6225 81.0671 44.0576C82.3102 40.9843 83.0477 37.7031 83.2373 34.3526L83.5534 28.6682C83.6798 26.1957 85.534 24.2778 87.7885 24.2778C90.0431 24.2778 91.8973 26.1957 92.0447 28.6682L92.3608 34.3526C92.5294 37.7031 93.2668 40.9843 94.531 44.0345C95.5846 46.5994 95.2896 49.5802 93.7725 51.8447C92.6347 53.5315 92.7822 55.8654 94.0886 57.3904C95.3739 58.9155 96.1113 60.9027 96.1113 62.9824V90.4169C96.1113 94.4167 94.028 96.499 90.2362 96.499H82.542C80.8564 96.5452 79.4447 95.0433 79.4447 93.1947V62.9824C79.4657 60.9027 80.2032 58.9155 81.5096 57.4136Z" fill="#2AA7EE"/>
</mask>
<g mask="url(#mask2)">
<g filter="url(#filter5_f)">
<path d="M86.8558 60.5918C87.6025 58.982 87.6736 56.5185 87.0336 54.7379C86.1803 52.3476 86.0143 49.2012 86.6069 46.4938C87.3062 43.2498 87.721 39.7863 87.8277 36.2496L88.0055 30.2495C88.0766 27.6396 89.1196 25.6152 90.3878 25.6152C91.6559 25.6152 92.6989 27.6396 92.7819 30.2495L92.9597 36.2496C93.0545 39.7863 93.4693 43.2498 94.1804 46.4694C94.773 49.1768 94.6071 52.3232 93.7538 54.7136C93.1137 56.4941 93.1967 58.9576 93.9315 60.5674C94.6545 62.1772 95.0693 64.2748 95.0693 66.47V98.3607C95.0693 100.312 94.2871 101.897 93.3271 101.849H87.4366C86.4884 101.897 85.6943 100.312 85.6943 98.3607V66.47C85.7062 64.2748 86.121 62.1772 86.8558 60.5918Z" fill="#2AA7EE"/>
</g>
</g>
</g>
<defs>
<filter id="filter0_f" x="47.8887" y="21.5" width="24.2222" height="76.9989" filterUnits="userSpaceOnUse" color-interpolation-filters="sRGB">
<feFlood flood-opacity="0" result="BackgroundImageFix"/>
<feBlend mode="normal" in="SourceGraphic" in2="BackgroundImageFix" result="shape"/>
<feGaussianBlur stdDeviation="0.5" result="effect1_foregroundBlur"/>
</filter>
<filter id="filter1_f" x="20.1104" y="21.5" width="24.2222" height="76.9989" filterUnits="userSpaceOnUse" color-interpolation-filters="sRGB">
<feFlood flood-opacity="0" result="BackgroundImageFix"/>
<feBlend mode="normal" in="SourceGraphic" in2="BackgroundImageFix" result="shape"/>
<feGaussianBlur stdDeviation="0.5" result="effect1_foregroundBlur"/>
</filter>
<filter id="filter2_f" x="75.666" y="21.5" width="24.2222" height="76.9989" filterUnits="userSpaceOnUse" color-interpolation-filters="sRGB">
<feFlood flood-opacity="0" result="BackgroundImageFix"/>
<feBlend mode="normal" in="SourceGraphic" in2="BackgroundImageFix" result="shape"/>
<feGaussianBlur stdDeviation="0.5" result="effect1_foregroundBlur"/>
</filter>
<filter id="filter3_f" x="52.916" y="20.6152" width="19.375" height="86.2346" filterUnits="userSpaceOnUse" color-interpolation-filters="sRGB">
<feFlood flood-opacity="0" result="BackgroundImageFix"/>
<feBlend mode="normal" in="SourceGraphic" in2="BackgroundImageFix" result="shape"/>
<feGaussianBlur stdDeviation="2.5" result="effect1_foregroundBlur"/>
</filter>
<filter id="filter4_f" x="25.1387" y="20.6152" width="19.375" height="86.2346" filterUnits="userSpaceOnUse" color-interpolation-filters="sRGB">
<feFlood flood-opacity="0" result="BackgroundImageFix"/>
<feBlend mode="normal" in="SourceGraphic" in2="BackgroundImageFix" result="shape"/>
<feGaussianBlur stdDeviation="2.5" result="effect1_foregroundBlur"/>
</filter>
<filter id="filter5_f" x="80.6943" y="20.6152" width="19.375" height="86.2346" filterUnits="userSpaceOnUse" color-interpolation-filters="sRGB">
<feFlood flood-opacity="0" result="BackgroundImageFix"/>
<feBlend mode="normal" in="SourceGraphic" in2="BackgroundImageFix" result="shape"/>
<feGaussianBlur stdDeviation="2.5" result="effect1_foregroundBlur"/>
</filter>
</defs>
</svg>
