<svg width="120" height="120" viewBox="0 0 120 120" fill="none" xmlns="http://www.w3.org/2000/svg">
<g>
<path d="M51.824 56.774L90.9773 76.7027C101.827 82.2771 105.444 94.4015 99.1539 104.017C92.8642 113.633 79.1842 116.839 68.3345 111.264L29.3384 91.3356C18.4887 85.7612 14.8721 73.6367 21.1618 64.0208C27.2943 54.5443 41.1316 51.1996 51.824 56.774Z" fill="url(#paint0_linear)"/>
<path d="M99.1538 43.9526C92.8641 34.3366 79.1841 31.1313 68.3344 36.7058L29.3383 56.6344C21.7907 60.5365 17.7024 67.644 18.0169 74.7514C20.8472 70.7099 26.8224 69.3163 31.697 71.6854L56.384 84.3673C57.7991 85.0641 59.5288 85.4822 61.1012 85.4822C64.2461 85.4822 67.2337 84.0886 69.1206 81.5801H70.8502L90.9772 71.2674C101.67 65.6929 105.286 53.5685 99.1538 43.9526Z" fill="url(#paint1_linear)"/>
<path d="M90.9772 71.2674L70.8502 81.5801L65.9757 84.3675C69.9067 78.7931 67.7055 70.989 61.7303 67.923L54.1827 64.0209L29.3384 51.339C18.4887 45.7646 14.8721 33.5008 21.1618 24.0243C27.2943 14.4083 41.1316 11.203 51.824 16.6381L90.8201 36.5668C94.1632 38.2593 97.0658 40.7603 99.1538 43.9526C105.286 53.5685 101.67 65.6929 90.9772 71.2674Z" fill="#E8EFEF"/>
<mask id="mask0" mask-type="alpha" maskUnits="userSpaceOnUse" x="18" y="14" width="85" height="71">
<path d="M90.9772 71.2674L70.8502 81.5801L65.9757 84.3675C69.9067 78.7931 67.7055 70.989 61.7303 67.923L54.1827 64.0209L29.3384 51.339C18.4887 45.7646 14.8721 33.5008 21.1618 24.0243C27.2943 14.4083 41.1316 11.203 51.824 16.6381L90.8201 36.5668C94.1632 38.2593 97.0658 40.7603 99.1538 43.9526C105.286 53.5685 101.67 65.6929 90.9772 71.2674Z" fill="#E8EFEF"/>
</mask>
<g mask="url(#mask0)">
<g filter="url(#filter0_f)">
<path fill-rule="evenodd" clip-rule="evenodd" d="M102.875 76.1057C105.915 74.4073 109.812 72.2586 110.791 71.8249C112.049 71.2675 107.122 61.8374 104.501 57.192C104.402 57.2799 104.257 57.3833 104.075 57.5122C103.298 58.0645 101.86 59.0861 100.57 61.3728C99.0028 64.151 96.7411 63.8523 94.7079 62.9303C73.0667 50.1028 52.4901 44.3843 33.4656 53.707L-39.4143 89.2296C-53.52 96.1851 -61.1607 108.854 -60.5729 121.523C-55.2833 114.319 -44.1162 111.835 -35.0062 116.058L11.1314 138.663C13.7763 139.905 17.0089 140.651 19.9476 140.651C21.0174 140.651 22.0776 140.692 23.1173 140.732C27.7896 140.914 32.0504 141.079 34.935 137.422L38.1675 133.695L75.7829 115.313C91.8594 107.319 104.511 91.0759 102.875 76.1057Z" fill="#D0D8D8"/>
</g>
</g>
</g>
<defs>
<filter id="filter0_f" x="-65.6045" y="44.1024" width="181.597" height="101.707" filterUnits="userSpaceOnUse" color-interpolation-filters="sRGB">
<feFlood flood-opacity="0" result="BackgroundImageFix"/>
<feBlend mode="normal" in="SourceGraphic" in2="BackgroundImageFix" result="shape"/>
<feGaussianBlur stdDeviation="2.5" result="effect1_foregroundBlur"/>
</filter>
<linearGradient id="paint0_linear" x1="22.7341" y1="54.4048" x2="79.705" y2="89.467" gradientUnits="userSpaceOnUse">
<stop stop-color="#C7D5D5"/>
<stop offset="1" stop-color="#E8EFEF"/>
</linearGradient>
<linearGradient id="paint1_linear" x1="54.8579" y1="64.17" x2="40.9218" y2="91.3454" gradientUnits="userSpaceOnUse">
<stop stop-color="#AAB8C0"/>
<stop offset="1" stop-color="#CFD8D8"/>
</linearGradient>
</defs>
</svg>
