<svg width="24" height="20" viewBox="0 0 24 20" fill="none" xmlns="http://www.w3.org/2000/svg">
<path opacity="0.15" d="M0 5.49019L5.5 0L11 5.49019V5.49019C11 8.75908 9.72403 11.8989 7.44375 14.2411L3.69306 18.0936C3.15031 18.6511 2.2156 18.1559 2.37204 17.3937L2.49417 16.7987C3.30544 12.846 2.39869 8.73486 0 5.49019H0Z" fill="black"/>
<path opacity="0.15" d="M13 5.49019L18.5 0L24 5.49019V5.49019C24 8.75908 22.724 11.8989 20.4437 14.2411L16.6931 18.0936C16.1503 18.6511 15.2156 18.1559 15.372 17.3937L15.4942 16.7987C16.3054 12.846 15.3987 8.73486 13 5.49019H13Z" fill="black"/>
</svg>
