<svg width="768" height="1122" viewBox="0 0 768 1122" fill="none" xmlns="http://www.w3.org/2000/svg">
<path d="M978.001 15.5948L894.501 54.0947L815.429 108.226C809.437 112.295 801.491 112.335 795.462 108.255L779.702 97.7034C774.905 94.4679 768.692 94.1149 763.547 96.7442L718.008 119.795C712.446 122.627 708.309 127.547 706.577 133.463L705.28 137.797C704.486 140.549 706.594 143.268 709.498 143.097C715.928 142.762 720.264 149.652 717.155 155.275L695.104 195.326C693.053 199.098 692.723 203.513 694.262 207.537L695.064 209.687C696.938 214.613 692.248 219.526 687.295 217.808L679.933 215.3C674.842 213.58 672.358 207.75 674.698 202.876L678.527 194.914C679.59 192.787 679.828 190.304 679.096 188.016C677.834 183.927 673.859 181.323 669.57 181.753L659.057 182.728C652.486 183.337 648.803 190.611 652.049 196.313L677.213 239.778C679.783 244.229 675.365 249.491 670.551 247.706L659.203 243.561C653.494 241.488 647.434 245.486 647.151 251.559L646.975 254.664C646.874 257.218 645.601 259.618 643.577 261.251L637.506 266.078C634.018 268.866 633.127 273.826 635.428 277.721L642.67 289.894C644.092 292.259 641.157 294.916 638.967 293.232C638.351 292.81 637.662 292.594 636.902 292.654L614.679 296.315C609.417 297.147 607.059 303.47 610.463 307.586L611.825 309.191C615.842 314.005 611.883 321.275 605.675 320.439L592.431 318.756C585.878 317.916 580.762 312.536 580.361 305.902L579.272 287.798C578.986 282.961 576.139 278.576 571.813 276.382L555.543 267.964C552.11 266.196 553.764 260.969 557.627 261.5L601.562 267.567C610.045 268.707 618.576 266.12 624.933 260.399L625.353 259.99C630.243 255.631 632.809 249.241 632.407 242.677L631.535 229.409C631.076 221.808 626.531 214.985 619.663 211.655L582.171 193.032C576.677 190.34 570.47 189.435 564.446 190.534L544.779 194.158C540.971 194.87 538.12 190.761 540.027 187.402C541.438 185.002 540.44 181.952 537.896 180.885L533.292 178.895C531.849 178.255 530.189 178.442 528.934 179.324L520.083 185.567C519.037 186.314 517.79 186.574 516.55 186.283L508.212 184.523C504.284 183.714 503.311 178.593 506.586 176.355L509.443 174.388C511.742 172.828 512.127 169.657 510.218 167.562L505.037 161.905C504.492 161.277 503.738 160.853 502.912 160.567L483.704 155.082C482.327 154.65 480.801 155.184 479.889 156.277L472.308 165.919C469.992 168.86 465.32 166.73 465.987 163.079C466.359 160.943 464.933 158.923 462.724 158.758L458.375 158.497C455.268 158.32 452.479 160.357 451.751 163.386L450.368 169.1C449.783 171.648 447.687 173.555 445.126 173.938L430.173 176.308C427.266 176.755 424.888 179.142 424.714 182.04C424.537 185.145 422.088 187.67 418.975 187.976L409.636 188.966C407.906 189.151 406.375 190.03 405.253 191.397L368.193 238.374C366.158 240.904 362.827 242.106 359.728 241.239C356.216 240.298 352.537 241.702 350.566 244.716L328.307 279.172C327.04 281.089 326.666 283.432 327.26 285.649L327.721 287.45C328.512 290.567 327.435 293.868 324.922 295.908L288.841 325.222C285.7 327.806 285.434 332.498 288.231 335.433L290.823 338.089C291.505 338.788 292.33 339.143 293.297 339.155L293.505 339.158C296.751 339.198 298.358 343.361 295.846 345.401C294.729 346.285 293.208 346.404 291.972 345.767L280.373 339.548C279.755 339.195 278.997 339.047 278.305 339.177L258.308 341.622C255.47 342.002 252.963 343.628 251.55 346.165L244.414 358.92C242.435 362.486 238.405 364.369 234.406 363.698L230.683 363.1C226.27 362.355 221.887 364.786 220.178 368.908L217.33 375.778C215.407 380.38 217.277 385.651 221.669 388.053L228.395 391.657C229.218 392.151 230.182 392.37 231.15 392.313L234.329 392.283C239.235 392.205 242.134 398.041 238.841 401.729C237.37 403.368 235.082 404.03 233.017 403.383L220.489 399.638C215.671 398.197 210.592 401.035 209.22 405.851L207.774 411.012C207.195 413.145 208.895 415.376 211.109 415.127C216.505 414.572 219.604 420.963 215.894 424.852L210.994 429.97C209.244 431.813 210.174 434.863 212.655 435.377C214.86 435.818 215.934 438.386 214.736 440.305L209.946 447.703C207.199 451.95 207.476 457.477 210.674 461.452L216.663 468.845C221.495 474.774 229.975 476.191 236.382 472.127L247.453 465.152C248.289 464.61 249.193 464.138 250.164 463.805L268.698 456.784C270.503 456.116 271.698 454.404 271.722 452.471C271.779 447.915 277.743 446.055 280.252 449.884C282.762 453.643 283.396 458.277 282.168 462.543L279.861 470.317C279.356 472.037 279.886 473.908 281.183 475.167L287.126 480.626C287.741 481.186 288.008 481.949 287.999 482.708L287.023 511.351C286.928 513.421 287.593 515.5 288.886 517.104L293.986 523.727C295.959 526.237 296.4 529.626 295.189 532.58L291.912 540.618C291.128 542.541 291.032 544.75 291.699 546.691L294.227 554.525C295.359 557.991 298.368 560.445 302.026 560.767L306.996 561.173C311.412 561.573 315.456 558.654 316.477 554.317L317.716 549.085C318.88 544.335 323.615 541.355 328.369 542.381L330.229 542.818C333.881 543.622 337.631 542.081 339.673 538.999L354.25 516.67C355.377 514.958 355.885 512.961 355.703 510.957L353.209 483.583C353.09 481.994 354.007 480.486 355.465 479.883L369.492 474.187C370.533 473.786 371.637 473.937 372.666 474.502C374.45 475.491 376.737 474.898 377.727 473.115L378.857 471.127C380.129 468.795 378.575 465.945 375.953 465.705L360.353 464.545C359.387 464.465 358.494 464.039 357.881 463.341L355.563 460.758C353.859 458.872 354.588 455.843 357.018 454.907L362.778 452.768C363.889 452.368 365.13 452.521 366.09 453.155L376.848 460.33C377.739 460.894 378.773 461.114 379.813 460.85L387.23 458.871C389.171 458.342 390.3 456.423 389.84 454.484L385.114 434.402C384.589 432.186 382.255 430.983 380.171 431.855L369.685 436.213C366.074 437.688 362.95 433.299 365.542 430.431L367.924 427.768C368.555 427.016 368.912 426.054 368.855 425.087L367.399 403.181C367.279 401.66 368.539 400.364 370.059 400.382L370.128 400.383C371.855 400.405 373.117 398.901 372.861 397.241C372.023 392.397 370.545 383.403 369.833 379.527C369.639 378.42 370.206 377.253 371.18 376.713L404.44 357.722C404.788 357.519 405.137 357.247 405.348 356.905L425.264 327.53C426.25 326.023 426.686 324.233 426.501 322.435L425.261 310.958C425.078 309.023 425.586 307.096 426.78 305.522L433.028 297.452C434.573 295.469 437.005 294.325 439.49 294.494L460.271 295.717C462.894 295.888 465.225 297.367 466.441 299.591L470.227 306.336C471.646 308.908 471.468 312.082 469.781 314.409L436.528 360.812C435.755 361.907 434.639 362.791 433.388 363.328L426.164 366.483C423.316 367.76 421.484 370.637 421.583 373.746L423.978 431.568C424.037 432.328 424.374 433.023 424.921 433.513L446.254 451.522C446.869 452.082 447.695 452.299 448.527 452.102L477.612 446.662C478.166 446.531 478.653 446.261 479.072 445.921L495.793 429.004C496.353 428.458 497.117 428.122 497.945 428.202L520.105 429.649C521.347 429.734 522.372 430.644 522.633 431.89L523.278 435.627C523.472 436.665 524.222 437.503 525.255 437.792L531.591 439.458C534.965 440.328 535.809 444.758 532.951 446.794L519.705 456.366C518.939 456.909 517.898 457.241 516.932 457.16L488.15 454.871C487.666 454.865 487.182 454.928 486.765 455.13L453.263 471.356C452.082 471.894 451.513 473.199 451.774 474.445L455.451 489.957C455.713 491.134 456.322 492.177 457.141 493.016L466.357 501.968C467.928 503.437 468.591 505.655 468.082 507.72L464.714 523.076C463.835 527.139 459.318 529.223 455.613 527.175L454.104 526.328C453.142 525.833 452.323 525.063 451.782 524.09L443.115 509.828C441.084 506.42 436.394 505.809 433.527 508.536L418.988 522.234C418.429 522.711 418.212 523.468 418.273 524.159L420.312 549.248C420.49 551.598 421.43 553.819 422.856 555.77C428.43 563.227 423.945 573.874 414.741 575.141L407.958 576.093C404.775 576.537 401.922 578.159 400.025 580.69L398.902 582.126C394.97 587.187 387.702 588.34 382.427 584.684L378.248 581.802C375.165 579.692 371.304 579.092 367.766 580.222L337.875 589.381C337.112 589.648 336.483 590.262 336.266 591.018L334.745 596.661C334.528 597.487 333.899 598.101 333.066 598.367L304.367 606.16C303.327 606.423 302.227 605.995 301.685 605.091L294.171 592.569C293.968 592.222 293.836 591.737 293.841 591.323L293.96 581.726C293.985 579.724 291.719 578.592 290.115 579.815L280.976 586.952C280.417 587.428 279.655 587.557 278.966 587.41L269.805 585.156C268.841 584.937 267.872 585.063 267.037 585.536L261.888 588.442C258.549 590.334 254.864 586.629 256.771 583.269C258.042 581.006 256.558 578.088 254.007 577.711L245.386 576.5C243.937 576.275 242.707 575.224 242.24 573.837L237.472 557.207C237.141 556.029 237.363 554.789 238.134 553.901L250.984 537.212C251.475 536.597 252.172 536.122 252.935 535.855L263.196 532.944C266.178 532.083 266.917 528.226 264.453 526.331L257.54 521.067C255.966 519.874 255.578 517.659 256.635 516.015L262.41 507.111C262.903 506.357 263.122 505.462 262.995 504.563L261.858 495.918C261.542 493.567 259.211 492.088 256.922 492.819L229.658 501.872C228.201 502.338 227.218 503.637 227.061 505.154L224.131 540.954C224.048 542.057 224.45 543.098 225.2 543.867L227.452 546.173C228.271 547.012 228.67 548.26 228.448 549.431L223.073 581.817C222.922 582.85 222.358 583.741 221.523 584.283L209.536 592.628C208.7 593.17 207.663 593.226 206.842 592.594L197.527 586.058C196.293 585.214 194.56 585.676 193.991 587.05L192.498 590.415C191.787 592.063 189.573 592.312 188.485 590.917L186.24 588.059C185.764 587.432 185.009 587.077 184.248 587.137L165.928 588.084C164.822 588.139 163.913 588.957 163.693 589.99L160.003 609.07C159.562 611.205 156.792 611.723 155.641 609.845L151.441 603.026C150.493 601.495 148.282 601.537 147.365 603.045L136.779 621.073C136.002 622.376 136.673 624.041 138.117 624.542C140.732 625.403 140.064 629.192 137.369 629.159L128.113 629.045C127.767 629.04 127.421 629.105 127.143 629.24L83.3836 648.101C82.7585 648.37 82.1351 648.5 81.5125 648.561L60.9773 649.826C57.5199 650.06 54.8548 653.272 55.711 656.666C56.7625 661.029 52.5708 664.775 48.3059 663.272L35.7191 658.697C33.7934 657.983 32.4323 656.309 32.1108 654.372L31.3416 649.529C30.9544 647.315 29.3187 645.499 27.1142 644.989L24.9097 644.478C21.5342 643.677 18.1876 646.121 18.0059 649.64L17.0011 669.445C16.8152 673.309 12.777 675.814 9.20283 674.32L0.405114 670.62C-1.10694 669.98 -2.33416 668.653 -2.79809 667.059L-4.78849 660.406C-5.51934 658.049 -7.71023 656.434 -10.1971 656.404L-35.4859 656.574C-38.3881 656.607 -40.7641 658.788 -41.0063 661.615L-42.5876 677.753C-42.8222 679.96 -41.6743 682.114 -39.7529 683.174L-6.47669 701.952C-3.32039 703.717 -2.68166 707.937 -5.06363 710.6L-12.4228 719.071C-14.1037 720.914 -14.3442 723.604 -13.0582 725.761L0.0776754 747.397C1.09337 749.067 1.13767 751.069 0.286529 752.854L-18.2714 789.772C-23.3714 799.928 -35.45 804.543 -46.0386 800.407L-68.8661 791.494C-69.0725 791.423 -69.3471 791.281 -69.5535 791.21L-140.783 751.939C-144.146 750.102 -148.151 749.983 -151.557 751.667L-173.729 762.372C-178.039 764.459 -180.651 768.984 -180.295 773.752L-179.305 788.61C-178.832 795.106 -183.807 800.706 -190.306 801.109L-232.274 803.56C-235.039 803.732 -237.61 804.875 -239.636 806.714L-276.546 841.54C-279.482 844.335 -280.777 848.462 -279.997 852.407L-275.24 875.597C-274.912 877.051 -275.07 878.637 -275.709 880.01L-277.701 884.681C-278.981 887.634 -281.905 889.393 -285.081 889.216L-286.392 889.13C-292.743 888.638 -296.701 895.839 -292.964 900.994L-288.48 907.057C-286.781 909.357 -283.826 910.636 -281.054 909.98C-275.096 908.672 -270.195 914.602 -272.544 920.166L-282.363 943.175C-286.774 953.478 -281.878 965.415 -271.428 969.618L-242.486 981.299C-239.461 982.51 -235.996 981.655 -233.961 979.126L-224.422 967.575C-223.3 966.277 -222.727 964.627 -222.706 962.901L-222.665 959.587C-222.588 953.374 -215.36 949.942 -210.504 953.868L-203.321 959.688C-200.859 961.721 -197.407 961.902 -194.692 960.278L-182.787 952.899C-179.166 950.665 -174.484 951.897 -172.387 955.514L-165.556 967.474C-163.865 970.395 -160.429 971.888 -157.171 970.961L-134.225 964.754C-132.076 964.16 -129.802 964.602 -127.952 965.868L-102.267 983.999C-100.83 985.053 -98.967 985.283 -97.3023 984.751L-45.6933 968.058C-43.6815 967.393 -42.2095 965.685 -41.9076 963.617L-36.0602 926.542C-35.835 925.095 -35.0589 923.793 -33.8735 922.91L10.9582 889.976C11.8648 889.297 12.9743 888.965 14.0804 888.91L35.923 888.075C38.4806 887.969 40.8464 886.617 42.2545 884.494L47.2546 876.822C48.099 875.59 48.5313 874.145 48.5501 872.627L48.9112 843.424C48.9615 839.351 52.1128 835.937 56.1927 835.643L78.9435 833.991C80.6031 833.873 82.2559 834.308 83.6273 835.153L118.253 856.503C120.928 858.124 124.314 858.028 126.893 856.264L143.408 844.869C145.289 843.58 147.574 843.194 149.778 843.704L167.412 847.996C170.788 848.797 174.33 847.253 175.889 844.096L176.03 843.891C178.65 838.745 185.705 838.072 189.311 842.605C190.943 844.697 192.507 846.718 193.665 848.114C194.753 849.508 195.353 851.242 195.331 853.037L195.113 870.641C195.094 872.229 195.559 873.754 196.44 875.076L208.301 888.135C231.271 913.414 257.04 935.897 285.128 955.232L297.801 963.951C298.969 964.517 299.924 965.496 300.392 966.745L307.133 985.954C307.534 987.064 307.519 988.237 307.091 989.337L300.027 1007.48C298.099 1012.49 304.544 1016.51 308.186 1012.55L330.105 988.724C331.645 987.086 331.814 984.602 330.594 982.723L318.52 964.621C317.502 963.089 317.321 961.016 318.239 959.439C319.651 956.971 322.7 956.249 325.031 957.659L350.126 973.159C352.869 974.851 356.479 973.445 357.346 970.349L357.565 969.454C358.072 967.527 357.407 965.447 355.833 964.254L310.517 930.137C308.601 928.663 308.012 926.032 309.143 923.905L309.71 922.808C311.407 919.652 309.244 915.759 305.584 915.645L288.526 915.02C286.8 914.929 285.292 914.013 284.481 912.553L248.048 847.336C245.547 842.817 245.893 837.229 249.053 833.056L259.52 819.099C263.735 813.49 271.627 812.206 277.451 816.145L283.548 820.363C287.316 822.965 289.472 827.341 289.208 831.964L287.464 861.288C287.195 866.256 289.693 870.982 294.084 873.453L376.272 920.454C378.262 921.584 379.201 923.874 378.552 926.075L367.525 962.948C367.02 964.668 367.481 966.538 368.778 967.797L394.369 993.454C395.87 994.992 396.812 997.006 396.992 999.217L398.574 1022.16C398.861 1026.86 402.755 1030.5 407.452 1030.56L446.551 1031.04C447.587 1031.05 448.619 1031.41 449.509 1032.04L459.979 1040.18C462.579 1042.22 466.462 1041.09 467.607 1037.93L470.83 1028.72C471.474 1026.93 470.946 1024.92 469.58 1023.59L444.042 999.247C443.086 998.337 442.55 997.019 442.567 995.638L442.794 977.274C442.831 974.237 445.553 971.992 448.518 972.512L462.719 975.035C465.407 975.551 467.987 973.65 468.366 970.962L470.103 958.969C470.407 956.763 472.224 955.06 474.438 954.811L494.155 952.707C500.934 951.962 507.237 956.321 508.952 962.902L514.299 983.061C515.289 986.801 517.806 989.94 521.17 991.707L524.327 993.404C531.809 997.363 533.969 1007.06 528.98 1013.83L520.549 1025.19C515.56 1031.89 517.653 1041.45 524.996 1045.47L570.08 1070.4C574.06 1072.59 578.825 1072.72 582.857 1070.7L625.745 1049.69C630.056 1047.53 635.233 1047.87 639.277 1050.48L669.233 1069.56C674.443 1072.87 681.218 1072.54 686.102 1068.66L712.619 1047.45C717.364 1043.64 724.001 1043.24 729.214 1046.34L740.597 1053.25C748.346 1057.97 758.477 1054.44 761.691 1045.91L768.048 1029.08C769.621 1024.81 773.115 1021.61 777.484 1020.29L880.001 992.596L978.001 976.596L1018.5 494.095L978.001 15.5948ZM808.475 894.174L799.806 902.422C794.913 907.057 787.512 907.725 781.892 904.065L778.26 901.672C773.736 898.716 768.004 898.507 763.274 901.142L757.639 904.248C753.743 906.41 749.042 906.697 744.918 904.919L696.739 884.507C693.028 882.942 688.882 882.96 685.2 884.572L647.132 901.363C644.908 902.371 642.886 903.865 641.343 905.71L625.563 924.71C623.67 926.966 621.231 928.662 618.525 929.595L608.395 933.06C605.134 934.193 601.541 934.218 598.238 933.142L565.141 922.237C563.145 921.591 561.224 920.463 559.653 919.062L552.681 912.969C547.008 907.996 545.66 899.694 549.402 893.181L553.145 886.599C553.358 886.187 553.776 885.847 554.193 885.645L563.021 881.335C563.994 880.864 564.559 879.835 564.365 878.797L560.862 854.794C560.797 854.448 560.87 854.104 560.944 853.759L562.963 846.88C563.685 844.403 567.275 844.585 567.727 847.146C568.05 848.945 570.113 849.73 571.578 848.643L578.55 843.551C579.177 843.075 579.601 842.321 579.542 841.492L578.657 818.143C578.604 816.83 579.584 815.738 580.83 815.615L588.371 814.742C589.201 814.683 589.899 814.139 590.252 813.453L597.685 799.045C599.739 794.997 603.641 792.283 608.139 791.717L629.246 788.871C631.253 788.619 632.677 790.778 631.689 792.492L627.664 799.485C626.606 801.267 628.167 803.496 630.176 803.106L649.907 799.829C651.153 799.637 652.319 800.342 652.65 801.52L654.043 806.163C654.442 807.411 653.734 808.783 652.486 809.182L641.247 812.91C639.929 813.377 639.22 814.818 639.756 816.136L641.699 821.063C641.968 821.688 642.445 822.177 643.133 822.461L654.688 826.678C655.444 826.964 655.989 827.592 656.187 828.354L660.018 842.625C660.281 843.664 661.239 844.435 662.344 844.449L667.939 844.518C668.837 844.529 669.742 843.988 670.167 843.165L675.83 832.187C676.256 831.295 677.229 830.823 678.196 830.835L686.894 831.426C688.136 831.511 689.183 830.695 689.474 829.456L690.872 822.568C691.094 821.397 692.14 820.582 693.384 820.597L707.401 821.254C709.472 821.348 710.746 818.947 709.453 817.343L708.092 815.669C707.548 814.972 706.723 814.617 705.892 814.745L682.92 817.568C682.158 817.696 681.333 817.41 680.857 816.783L672.947 808.33C670.015 805.187 670.629 800.223 674.182 797.85L688.392 788.497C688.74 788.225 689.226 788.093 689.709 788.099L705.743 787.676C706.918 787.622 707.963 786.944 708.391 785.845L713.665 772.791C713.949 772.173 714.371 771.626 714.997 771.288L743.443 756.035C745.112 755.158 747.173 756.081 747.634 757.882L748.82 762.592C749.15 763.839 748.581 765.144 747.536 765.822L735.144 773.471C732.846 774.892 733.563 778.423 736.183 778.869C737.01 779.018 737.695 779.44 738.17 780.137L740.272 783.408C741.018 784.522 740.861 786.039 739.951 786.994L733.51 793.819C733.231 794.092 733.088 794.436 732.946 794.779L727.192 813.144C726.902 814.176 725.927 814.854 724.822 814.84L719.848 814.779C718.328 814.76 717.137 816.126 717.395 817.58L718.036 821.592C718.163 822.492 718.777 823.189 719.601 823.545L745.667 833.189C747.936 834.045 750.491 834.215 752.847 833.623L754.302 833.295C758.044 832.375 762.04 833.322 765.049 835.776L775.993 844.749C776.95 845.521 777.768 846.428 778.447 847.403L779.871 849.561C782.178 852.973 785.953 855.022 790.028 855.073L797.282 855.162C803.015 855.233 807.941 859.161 809.254 864.701L812.999 880.352C813.835 885.334 812.25 890.631 808.475 894.174Z" fill="black" fill-opacity="0.05"/>
<path d="M-32.7588 546.218L-12.105 540.949C-9.67959 540.358 -8.1982 537.891 -8.72095 535.467L-12.6549 518.364C-12.8527 517.602 -12.3589 516.78 -11.5956 516.513L6.65235 510.248C15.2566 507.247 18.7012 496.864 13.5434 489.343L5.19524 477.226C1.73367 472.211 1.95377 465.586 5.74378 460.799L10.3755 454.987C13.8849 450.543 14.3754 444.403 11.5347 439.466L6.73166 431.19C3.55238 425.696 4.53577 418.803 9.0123 414.371L42.5099 381.711C44.7478 379.529 47.9357 378.74 50.8967 379.536L55.4414 380.766C62.8089 382.791 64.2066 392.682 57.6637 396.606C51.3288 400.463 52.3854 410.005 59.4723 412.371L72.2016 416.602C79.0821 418.896 80.3502 428.095 74.3591 432.095L46.2813 451.081C41.5438 454.268 41.113 461.167 45.4888 464.881L55.4003 473.496C57.5195 475.318 58.5924 477.955 58.4201 480.715L57.092 498.719C57.0886 498.996 57.0852 499.272 57.2208 499.481L73.0898 534.753C73.9631 536.766 73.7277 539.042 72.393 540.82L68.4597 546.019C65.369 550.124 68.4758 555.893 73.5919 555.611C76.0813 555.435 78.4129 556.845 79.49 559.137L82.4467 565.871C83.6568 568.579 82.6505 571.742 80.144 573.299L63.2246 583.862C60.1613 585.757 59.4875 589.961 61.8021 592.751L63.0275 594.216C65.9553 597.705 64.0227 603.136 59.5223 603.909L42.835 606.878C41.381 607.137 39.8646 606.842 38.5615 606.066L17.7203 592.966C17.3775 592.754 16.8948 592.679 16.4795 592.743L1.85344 596.636C0.605753 596.966 -0.773261 596.742 -1.86999 596.038L-15.9193 586.819C-16.8105 586.255 -17.8433 585.966 -18.8812 586.092L-43.2977 588.345C-48.2082 588.767 -50.2703 582.32 -46.094 579.817L-27.7888 568.927C-26.675 568.25 -25.4299 568.127 -24.1907 568.488L-10.2146 572.458C-8.90641 572.82 -7.52227 572.63 -6.40762 571.884C-2.99373 569.579 -4.03413 564.318 -8.1004 563.508L-32.5014 558.926C-34.7068 558.484 -36.2726 556.601 -36.2444 554.322L-36.1992 550.663C-36.2418 548.522 -34.7689 546.745 -32.7588 546.218Z" fill="black" fill-opacity="0.05"/>
<path d="M266.733 548.66L264.785 560.927C264.635 561.891 265.176 562.865 266.139 563.222L281.548 568.591C283.062 569.093 284.599 567.731 284.273 566.139L281.319 553.605C281.253 553.328 281.257 553.052 281.33 552.707L282.511 546.577C282.952 544.442 280.135 543.164 278.801 544.943L275.22 549.594C274.377 550.688 272.788 550.669 271.972 549.623L270.407 547.67C269.319 546.276 267.032 546.869 266.733 548.66Z" fill="black" fill-opacity="0.05"/>
<path d="M171.072 876.074L166.555 878.227C164.261 879.304 162.782 881.633 162.75 884.187L162.686 889.365C162.671 890.539 162.382 891.64 161.817 892.6C160.263 895.342 160.774 898.732 163.096 900.901L167.399 904.89C169.995 907.27 174.072 907.251 176.659 904.728L182.464 899.069C184.282 897.296 184.936 894.681 184.206 892.255L180.419 880.056C179.223 876.174 174.756 874.255 171.072 876.074Z" fill="black" fill-opacity="0.05"/>
<path d="M152.015 919.821L168.984 916.441C172.031 915.857 175.053 917.344 176.399 920.192L183.198 934.707C184.276 936.93 183.967 939.55 182.492 941.534L169.985 958.434C169.141 959.597 168.711 960.904 168.693 962.354L168.67 964.218C168.626 967.739 165.826 970.673 162.301 970.836L152.346 971.335C148.958 971.5 146.016 969.185 145.435 965.864L143.815 957.213C143.493 955.344 143.931 953.417 145.055 951.911L149.059 946.575C150.323 944.934 150.695 942.798 150.166 940.858L146.802 927.974C145.879 924.372 148.206 920.603 152.015 919.821Z" fill="black" fill-opacity="0.05"/>
<path d="M230.722 1008.14L231.488 1007.6C234.136 1005.76 237.59 1005.81 240.193 1007.63L246.7 1012.2C248.139 1013.19 249.791 1013.69 251.519 1013.57L275.373 1012.14C280.835 1011.8 284.845 1017.16 282.985 1022.32L281.268 1027.13C280.766 1028.57 280.677 1030.16 281.073 1031.69L283.648 1041.38C284.968 1046.37 281.039 1051.23 275.86 1050.95L273.858 1050.86C272.132 1050.77 270.483 1050.06 269.184 1048.94L254.561 1035.78C254.219 1035.5 253.877 1035.22 253.466 1034.93L230.977 1020.98C226.455 1017.96 226.261 1011.26 230.722 1008.14Z" fill="black" fill-opacity="0.05"/>
<path d="M31.92 926.829L39.2612 925.401C40.9233 925.076 42.5019 925.924 43.1739 927.451L44.6518 930.853C45.1226 931.894 45.0398 932.998 44.5435 934.028L42.0694 938.554C40.9376 940.681 38.1003 941.06 36.3947 939.313L30.0497 932.813C28.0712 930.786 29.15 927.347 31.92 926.829Z" fill="black" fill-opacity="0.05"/>
<path d="M57.2117 932.045C58.0773 934.679 61.5227 935.412 63.3452 933.294C64.8172 931.586 64.297 928.956 62.3764 927.828C59.4939 926.273 56.213 928.994 57.2117 932.045Z" fill="black" fill-opacity="0.05"/>
<path d="M416.64 1036.19L440.7 1034.83C441.668 1034.78 442.563 1034.99 443.385 1035.56L454.831 1043.02C456.339 1044 457.077 1045.74 456.78 1047.46L454.18 1062.13C453.585 1065.58 449.422 1066.98 446.826 1064.6L444.23 1062.22C441.839 1060.05 438.027 1061.04 437.021 1064.13C435.872 1067.71 431.028 1068.34 429.064 1065.07L424.459 1057.56C423.375 1055.82 421.243 1055.03 419.231 1055.7L418.607 1055.89C415.762 1056.9 412.817 1054.79 412.785 1051.82L412.577 1040.7C412.4 1038.28 414.22 1036.3 416.64 1036.19Z" fill="black" fill-opacity="0.05"/>
<path d="M462.445 1008.38L468.527 1013.84C470.987 1016.01 474.814 1013.85 474.231 1010.67L473.324 1005.82C473.065 1004.37 471.836 1003.25 470.318 1003.02L465.144 1002.41C461.834 1001.95 459.917 1006.14 462.445 1008.38Z" fill="black" fill-opacity="0.05"/>
<path d="M607.619 1090.82L615.731 1088.51C616.841 1088.17 617.682 1087.15 617.697 1085.98L617.735 1082.87C617.756 1081.21 619.292 1079.92 620.945 1080.28L627.975 1081.68C628.527 1081.76 629.081 1081.7 629.636 1081.5L642.212 1075.78C644.782 1074.64 647.162 1077.71 645.408 1079.9L641.689 1084.55C640.706 1085.78 641.029 1087.64 642.331 1088.49C644.456 1089.83 643.724 1093.13 641.234 1093.38L635.768 1094C634.177 1094.19 633.122 1095.69 633.449 1097.22L634.56 1102.34C634.952 1104.14 633.411 1105.85 631.618 1105.55L613.753 1103.19C613.063 1103.11 612.446 1102.76 612.038 1102.2L606.324 1095.02C605.029 1093.55 605.747 1091.35 607.619 1090.82Z" fill="black" fill-opacity="0.05"/>
<path d="M470.782 1099.63L487.033 1104.04C487.79 1104.25 488.619 1104.26 489.382 1104L508.311 1098.5C509.975 1098.04 511.765 1098.54 512.923 1099.87L514.558 1101.75C515.375 1102.73 516.612 1103.3 517.855 1103.31L521.724 1103.36C525.178 1103.41 527.272 1107.23 525.37 1110.17L523.891 1112.5C523.115 1113.74 521.724 1114.48 520.273 1114.53L505.344 1114.97L489.448 1115.46C488.964 1115.46 488.55 1115.45 488.137 1115.31L467.895 1109.6C465.417 1108.88 464.068 1106.24 464.926 1103.83L465.427 1102.46C466.284 1100.19 468.579 1098.98 470.782 1099.63Z" fill="black" fill-opacity="0.05"/>
<path d="M977.501 15.5955L895.022 53.8896C894.01 54.3593 893.039 54.9129 892.12 55.5446L815.429 108.226C809.437 112.294 801.491 112.334 795.462 108.255L779.702 97.703C774.906 94.4675 768.692 94.1145 763.547 96.7438L718.008 119.795C712.446 122.626 708.309 127.546 706.578 133.463L705.28 137.797C704.486 140.549 706.595 143.268 709.498 143.097C715.928 142.762 720.264 149.651 717.155 155.275L695.104 195.326C693.054 199.098 692.723 203.513 694.262 207.537L695.065 209.687C696.938 214.613 692.248 219.526 687.295 217.808L679.934 215.3C674.842 213.58 672.358 207.749 674.698 202.876L678.527 194.914C679.59 192.786 679.828 190.303 679.096 188.016C677.834 183.926 673.859 181.323 669.57 181.753L659.057 182.728C652.486 183.337 648.803 190.61 652.049 196.312L677.213 239.778C679.783 244.229 675.365 249.491 670.551 247.705L659.203 243.56C653.494 241.487 647.434 245.486 647.151 251.559L646.975 254.664C646.874 257.217 645.601 259.618 643.577 261.25L637.507 266.077C634.018 268.865 633.127 273.826 635.428 277.721L642.67 289.894C644.092 292.259 641.157 294.915 638.967 293.231C638.351 292.809 637.662 292.594 636.902 292.653L614.679 296.314C609.418 297.147 607.059 303.47 610.463 307.586L611.825 309.191C615.842 314.005 611.883 321.275 605.675 320.438L592.431 318.756C585.878 317.915 580.762 312.535 580.361 305.902L579.272 287.798C578.986 282.961 576.139 278.576 571.813 276.382L555.543 267.964C552.111 266.195 553.764 260.968 557.627 261.499L601.562 267.566C610.046 268.707 618.576 266.12 624.933 260.398L625.353 259.989C630.243 255.631 632.809 249.241 632.407 242.676L631.535 229.409C631.076 221.808 626.531 214.985 619.664 211.655L582.171 193.032C576.677 190.34 570.47 189.435 564.446 190.534L544.78 194.158C540.971 194.87 538.12 190.761 540.027 187.401C541.438 185.002 540.44 181.952 537.897 180.884L533.292 178.894C531.849 178.255 530.189 178.442 528.934 179.324L520.083 185.567C519.037 186.313 517.79 186.574 516.55 186.282L508.212 184.522C504.284 183.714 503.311 178.593 506.586 176.354L509.443 174.387C511.742 172.828 512.127 169.656 510.218 167.561L505.037 161.904C504.492 161.276 503.738 160.853 502.912 160.566L483.704 155.081C482.328 154.65 480.801 155.183 479.889 156.277L472.308 165.919C469.992 168.859 465.32 166.73 465.987 163.079C466.359 160.943 464.933 158.923 462.724 158.757L458.375 158.497C455.268 158.32 452.479 160.357 451.751 163.386L450.368 169.1C449.783 171.647 447.687 173.555 445.126 173.937L430.174 176.307C427.266 176.755 424.888 179.142 424.714 182.04C424.537 185.145 422.088 187.669 418.975 187.976L409.636 188.965C407.906 189.151 406.375 190.03 405.253 191.397L368.193 238.374C366.158 240.904 362.827 242.105 359.729 241.238C356.217 240.297 352.538 241.702 350.566 244.716L328.307 279.171C327.04 281.089 326.666 283.432 327.26 285.649L327.721 287.45C328.512 290.566 327.435 293.867 324.922 295.908L288.841 325.221C285.7 327.806 285.434 332.498 288.231 335.433L290.823 338.088C291.506 338.787 292.33 339.143 293.297 339.155L293.505 339.157C296.751 339.197 298.358 343.36 295.846 345.4C294.729 346.284 293.208 346.404 291.972 345.767L280.373 339.547C279.755 339.194 278.997 339.047 278.305 339.176L258.308 341.622C255.47 342.001 252.963 343.627 251.55 346.165L244.414 358.919C242.435 362.485 238.405 364.369 234.406 363.698L230.683 363.099C226.27 362.354 221.887 364.786 220.178 368.908L217.33 375.777C215.408 380.38 217.277 385.65 221.669 388.052L228.395 391.657C229.218 392.15 230.183 392.369 231.151 392.312L234.329 392.282C239.235 392.205 242.134 398.041 238.841 401.729C237.37 403.368 235.082 404.03 233.017 403.383L220.489 399.638C215.671 398.197 210.592 401.034 209.22 405.851L207.774 411.011C207.195 413.145 208.895 415.375 211.109 415.126C216.505 414.572 219.604 420.962 215.894 424.852L210.994 429.97C209.244 431.813 210.174 434.862 212.655 435.376C214.86 435.818 215.934 438.386 214.736 440.304L209.946 447.702C207.199 451.949 207.476 457.476 210.674 461.452L216.663 468.845C221.495 474.773 229.975 476.19 236.382 472.127L247.453 465.152C248.289 464.61 249.193 464.137 250.164 463.804L268.698 456.783C270.503 456.115 271.698 454.404 271.722 452.471C271.779 447.914 277.743 446.055 280.252 449.883C282.762 453.643 283.396 458.277 282.168 462.543L279.861 470.317C279.357 472.036 279.886 473.907 281.183 475.166L287.127 480.625C287.741 481.185 288.008 481.948 287.999 482.708L287.023 511.35C286.928 513.42 287.594 515.5 288.886 517.104L293.986 523.727C295.959 526.237 296.401 529.626 295.19 532.58L291.912 540.618C291.128 542.541 291.032 544.75 291.699 546.691L294.227 554.525C295.359 557.991 298.368 560.445 302.026 560.766L306.996 561.173C311.413 561.573 315.456 558.654 316.477 554.317L317.716 549.084C318.88 544.334 323.615 541.355 328.369 542.38L330.229 542.818C333.881 543.622 337.631 542.081 339.673 538.999L354.25 516.669C355.377 514.957 355.885 512.961 355.703 510.956L353.209 483.583C353.09 481.993 354.007 480.486 355.465 479.882L369.492 474.187C370.533 473.785 371.637 473.937 372.666 474.502C374.45 475.491 376.737 474.898 377.727 473.115L378.857 471.126C380.129 468.794 378.575 465.944 375.953 465.705L360.353 464.545C359.387 464.464 358.494 464.039 357.881 463.341L355.564 460.757C353.86 458.872 354.588 455.843 357.018 454.906L362.778 452.768C363.889 452.367 365.131 452.521 366.09 453.154L376.848 460.33C377.74 460.893 378.773 461.113 379.813 460.85L387.23 458.87C389.171 458.342 390.3 456.423 389.84 454.483L385.114 434.401C384.589 432.185 382.255 430.983 380.171 431.855L369.685 436.213C366.074 437.687 362.95 433.299 365.542 430.431L367.924 427.767C368.555 427.016 368.912 426.053 368.855 425.086L367.399 403.18C367.279 401.66 368.539 400.363 370.059 400.382L370.128 400.383C371.855 400.404 373.117 398.901 372.861 397.241C372.023 392.397 370.545 383.402 369.833 379.527C369.639 378.42 370.207 377.253 371.181 376.713L404.44 357.722C404.788 357.519 405.137 357.247 405.348 356.904L425.264 327.529C426.25 326.022 426.686 324.233 426.501 322.435L425.261 310.958C425.078 309.022 425.586 307.095 426.78 305.522L433.028 297.452C434.573 295.468 437.005 294.325 439.49 294.493L460.271 295.717C462.894 295.887 465.225 297.366 466.441 299.591L470.227 306.335C471.646 308.908 471.468 312.082 469.782 314.408L436.529 360.811C435.755 361.906 434.639 362.79 433.388 363.327L426.164 366.483C423.316 367.76 421.484 370.637 421.583 373.745L423.978 431.568C424.037 432.328 424.374 433.022 424.921 433.513L446.254 451.521C446.869 452.081 447.695 452.299 448.527 452.102L477.612 446.662C478.166 446.53 478.653 446.26 479.072 445.92L495.793 429.003C496.353 428.458 497.117 428.122 497.945 428.201L520.105 429.649C521.347 429.733 522.372 430.644 522.633 431.89L523.278 435.626C523.473 436.664 524.222 437.502 525.255 437.791L531.591 439.458C534.965 440.328 535.809 444.757 532.951 446.793L519.705 456.365C518.939 456.908 517.898 457.241 516.932 457.16L488.15 454.87C487.666 454.864 487.182 454.927 486.765 455.129L453.263 471.356C452.082 471.893 451.513 473.198 451.774 474.444L455.451 489.956C455.713 491.133 456.322 492.177 457.141 493.015L466.357 501.967C467.928 503.437 468.592 505.655 468.082 507.72L464.714 523.076C463.835 527.138 459.319 529.223 455.613 527.175L454.104 526.328C453.142 525.833 452.323 525.063 451.782 524.089L443.115 509.828C441.084 506.419 436.394 505.809 433.528 508.535L418.988 522.234C418.429 522.71 418.212 523.467 418.273 524.159L420.312 549.248C420.49 551.598 421.43 553.819 422.857 555.77C428.43 563.227 423.945 573.874 414.741 575.141L407.958 576.093C404.775 576.537 401.922 578.158 400.025 580.69L398.902 582.126C394.97 587.187 387.702 588.34 382.427 584.684L378.248 581.801C375.165 579.692 371.304 579.092 367.766 580.222L337.875 589.381C337.112 589.648 336.483 590.261 336.266 591.018L334.745 596.661C334.528 597.487 333.899 598.101 333.066 598.367L304.367 606.159C303.327 606.423 302.227 605.995 301.686 605.09L294.171 592.569C293.968 592.221 293.836 591.736 293.841 591.322L293.96 581.726C293.985 579.724 291.719 578.591 290.115 579.814L280.976 586.951C280.417 587.428 279.656 587.556 278.966 587.41L269.805 585.156C268.841 584.937 267.872 585.063 267.037 585.536L261.889 588.441C258.549 590.333 254.864 586.628 256.771 583.269C258.042 581.006 256.558 578.087 254.007 577.711L245.386 576.499C243.938 576.274 242.707 575.223 242.24 573.837L237.472 557.206C237.141 556.028 237.363 554.788 238.134 553.9L250.984 537.212C251.475 536.596 252.172 536.122 252.935 535.855L263.197 532.944C266.178 532.083 266.917 528.225 264.453 526.331L257.54 521.066C255.966 519.873 255.578 517.659 256.635 516.015L262.411 507.11C262.903 506.357 263.122 505.462 262.995 504.563L261.858 495.918C261.542 493.566 259.211 492.087 256.922 492.819L229.658 501.872C228.201 502.337 227.218 503.637 227.061 505.154L224.131 540.953C224.048 542.057 224.45 543.098 225.2 543.867L227.452 546.173C228.271 547.012 228.67 548.259 228.448 549.431L223.073 581.816C222.922 582.85 222.358 583.741 221.523 584.283L209.536 592.627C208.7 593.169 207.663 593.226 206.842 592.594L197.527 586.058C196.293 585.214 194.561 585.676 193.991 587.05L192.498 590.414C191.787 592.063 189.573 592.312 188.485 590.917L186.24 588.058C185.764 587.431 185.009 587.077 184.248 587.136L165.928 588.083C164.822 588.139 163.913 588.956 163.693 589.989L160.003 609.07C159.562 611.205 156.792 611.723 155.641 609.844L151.441 603.026C150.493 601.495 148.282 601.537 147.365 603.044L136.779 621.073C136.003 622.375 136.673 624.041 138.118 624.542C140.732 625.403 140.064 629.192 137.37 629.159L128.113 629.044C127.768 629.04 127.421 629.105 127.143 629.24L83.3837 648.101C82.7586 648.369 82.1352 648.5 81.5126 648.561L60.9774 649.826C57.52 650.06 54.8549 653.272 55.7111 656.666C56.7626 661.029 52.5709 664.774 48.306 663.272L35.7192 658.697C33.7935 657.983 32.4324 656.309 32.1109 654.372L31.3417 649.529C30.9545 647.314 29.3188 645.499 27.1143 644.988L24.9097 644.478C21.5343 643.677 18.1877 646.121 18.006 649.64L17.0012 669.444C16.8153 673.308 12.7771 675.813 9.20292 674.319L0.405203 670.62C-1.10685 669.98 -2.33408 668.653 -2.798 667.059L-4.78841 660.406C-5.51925 658.049 -7.71014 656.434 -10.197 656.403L-35.4859 656.574C-38.388 656.607 -40.764 658.787 -41.0062 661.615L-42.5876 677.753C-42.8221 679.959 -41.6742 682.114 -39.7528 683.173L-6.4766 701.951C-3.3203 703.717 -2.68157 707.936 -5.06354 710.6L-12.4227 719.071C-14.1036 720.914 -14.3441 723.604 -13.0581 725.76L0.0777645 747.396C1.09346 749.066 1.13776 751.069 0.286618 752.854L-18.2713 789.772C-23.3713 799.928 -35.4499 804.543 -46.0386 800.407L-68.866 791.494C-69.0724 791.422 -69.347 791.281 -69.5534 791.209L-140.783 751.938C-144.145 750.101 -148.151 749.983 -151.557 751.667L-173.729 762.371C-178.039 764.458 -180.651 768.983 -180.295 773.752L-179.304 788.609C-178.832 795.106 -183.807 800.706 -190.306 801.109L-232.274 803.559C-235.039 803.732 -237.61 804.874 -239.636 806.713L-276.546 841.54C-279.482 844.335 -280.777 848.462 -279.997 852.407L-275.24 875.597C-274.912 877.051 -275.07 878.637 -275.709 880.01L-277.701 884.68C-278.981 887.634 -281.905 889.393 -285.081 889.215L-286.392 889.13C-292.743 888.637 -296.701 895.838 -292.964 900.994L-288.479 907.057C-286.781 909.356 -283.826 910.636 -281.054 909.979C-275.096 908.672 -270.195 914.602 -272.544 920.166L-282.363 943.175C-286.773 953.478 -281.877 965.414 -271.428 969.617L-242.486 981.299C-239.461 982.51 -235.996 981.655 -233.961 979.126L-224.422 967.574C-223.3 966.276 -222.727 964.626 -222.706 962.901L-222.665 959.587C-222.588 953.373 -215.36 949.941 -210.503 953.868L-203.321 959.688C-200.859 961.721 -197.407 961.901 -194.692 960.278L-182.787 952.899C-179.166 950.665 -174.483 951.897 -172.386 955.513L-165.556 967.474C-163.865 970.395 -160.429 971.887 -157.17 970.961L-134.225 964.754C-132.076 964.159 -129.801 964.602 -127.952 965.867L-102.267 983.999C-100.829 985.053 -98.9669 985.283 -97.3022 984.751L-45.6932 968.058C-43.6814 967.392 -42.2094 965.684 -41.9075 963.617L-36.0601 926.542C-35.8349 925.094 -35.0589 923.792 -33.8734 922.909L10.9583 889.976C11.8649 889.296 12.9744 888.965 14.0805 888.909L35.9231 888.075C38.4807 887.968 40.8465 886.617 42.2545 884.493L47.2547 876.822C48.099 875.59 48.5314 874.145 48.5502 872.626L48.9113 843.424C48.9616 839.35 52.1128 835.937 56.1928 835.642L78.9436 833.99C80.6032 833.873 82.256 834.307 83.6273 835.153L118.254 856.502C120.928 858.123 124.315 858.027 126.893 856.264L143.408 844.868C145.289 843.58 147.574 843.193 149.778 843.704L167.412 847.996C170.788 848.797 174.33 847.253 175.889 844.096L176.03 843.891C178.65 838.744 185.706 838.072 189.311 842.605C190.944 844.696 192.508 846.718 193.665 848.113C194.753 849.508 195.353 851.241 195.331 853.036L195.114 870.641C195.094 872.228 195.559 873.753 196.44 875.076L208.301 888.135C231.271 913.414 257.04 935.896 285.128 955.232L297.801 963.95C298.969 964.517 299.924 965.496 300.392 966.744L307.133 985.954C307.534 987.063 307.519 988.237 307.091 989.336L300.027 1007.48C298.099 1012.49 304.544 1016.51 308.186 1012.55L330.105 988.723C331.646 987.085 331.814 984.602 330.594 982.722L318.52 964.621C317.503 963.089 317.321 961.015 318.239 959.439C319.651 956.97 322.7 956.249 325.031 957.658L350.126 973.159C352.869 974.85 356.479 973.445 357.347 970.348L357.565 969.453C358.072 967.526 357.407 965.447 355.833 964.254L310.517 930.136C308.601 928.663 308.012 926.032 309.144 923.905L309.71 922.807C311.407 919.652 309.244 915.759 305.584 915.644L288.527 915.019C286.8 914.929 285.292 914.013 284.481 912.553L248.048 847.336C245.547 842.817 245.893 837.228 249.054 833.055L259.52 819.099C263.735 813.489 271.627 812.206 277.451 816.145L283.548 820.363C287.316 822.964 289.472 827.341 289.208 831.964L287.464 861.287C287.195 866.255 289.693 870.981 294.084 873.452L376.272 920.454C378.262 921.583 379.201 923.874 378.552 926.075L367.525 962.948C367.02 964.668 367.481 966.538 368.778 967.797L394.369 993.454C395.87 994.991 396.812 997.005 396.992 999.217L398.574 1022.16C398.861 1026.86 402.755 1030.5 407.452 1030.56L446.551 1031.04C447.587 1031.05 448.619 1031.41 449.509 1032.04L459.979 1040.18C462.579 1042.22 466.462 1041.09 467.607 1037.93L470.83 1028.72C471.474 1026.93 470.946 1024.92 469.58 1023.59L444.042 999.246C443.086 998.337 442.55 997.018 442.567 995.638L442.794 977.274C442.831 974.236 445.553 971.991 448.518 972.511L462.719 975.034C465.407 975.551 467.987 973.65 468.366 970.961L470.103 958.969C470.407 956.763 472.224 955.059 474.438 954.81L494.155 952.707C500.935 951.962 507.237 956.321 508.952 962.901L514.299 983.06C515.289 986.801 517.806 989.939 521.17 991.707L524.327 993.403C531.809 997.362 533.969 1007.06 528.98 1013.83L520.549 1025.19C515.561 1031.89 517.653 1041.45 524.996 1045.47L570.08 1070.4C574.06 1072.59 578.825 1072.72 582.858 1070.7L625.745 1049.69C630.056 1047.53 635.233 1047.87 639.277 1050.48L669.233 1069.56C674.443 1072.87 681.218 1072.54 686.102 1068.66L712.619 1047.45C717.364 1043.64 724.001 1043.24 729.214 1046.34L740.597 1053.25C748.346 1057.97 758.477 1054.44 761.691 1045.91L768.048 1029.08C769.621 1024.81 773.115 1021.61 777.484 1020.29L880.001 992.595L977.001 977.095" stroke="black" stroke-opacity="0.15" stroke-miterlimit="10" stroke-linecap="round" stroke-dasharray="2 2"/>
<path d="M283.583 471.053L290.585 463.544C291.979 462.526 292.713 459.083 292.665 457.356L292.357 443.128C292.315 440.918 293.653 438.863 295.736 438.061L302.192 435.586C304.483 434.716 305.893 432.386 305.579 429.897L303.431 413.644C303.113 411.362 304.315 409.167 306.4 408.157L307.998 407.417C310.64 406.138 311.714 403.044 310.503 400.405C307.946 394.919 307.193 388.764 308.165 382.769L312.411 357.896C313.452 351.902 316.629 346.417 321.306 342.539L326.471 338.253C327.449 337.437 328.697 337.038 329.941 337.053L335.674 337.124C338.921 337.164 341.443 334.364 340.999 331.114L340.054 323.714C339.93 322.608 340.152 321.437 340.716 320.477L352.657 299.082C353.08 298.397 353.297 297.571 353.307 296.811L353.923 286.117C354.016 284.115 355.282 282.336 357.088 281.529L358.617 280.858C360.562 279.984 361.759 278.135 361.785 276.064L361.812 273.855C361.833 272.198 362.612 270.619 364.007 269.601L374.116 262.2C375.232 261.385 375.937 260.22 376.229 258.911L379.915 240.245C380.504 237.283 383.498 235.387 386.46 236.114L389.628 236.913C391.557 237.42 393.569 236.755 394.899 235.321L416.685 211.148C417.526 210.191 418.708 209.585 419.953 209.462L429.988 208.067C431.165 207.874 432.405 208.166 433.434 208.731L445.369 215.783C447.769 217.194 450.886 216.542 452.504 214.214L453.911 212.16C455.46 209.832 458.577 209.18 460.978 210.59C464.202 212.495 468.302 210.543 468.901 206.822L472.19 186.632C472.637 184.013 474.872 182.108 477.497 182.14L483.645 182.216C484.75 182.23 485.782 182.588 486.672 183.22L497.013 190.667C498.245 191.58 499.057 192.971 499.176 194.491L500.089 204.446C500.153 204.93 500.077 205.481 500.002 205.963L496.755 222.702C496.166 225.595 498.066 228.38 500.961 228.968L511.92 231.037C513.781 231.405 515.354 232.736 515.953 234.608L519.751 245.91C520.083 247.019 520.137 248.193 519.779 249.224L513.963 267.036C513.459 268.618 513.714 270.347 514.665 271.671L524.505 286.085C525.455 287.478 525.709 289.276 525.136 290.926L520.271 304.468C519.483 306.737 520.281 309.233 522.198 310.637L529.732 315.978C531.102 316.893 531.912 318.422 531.961 320.079L533.36 346.611C533.478 348.27 534.356 349.868 535.727 350.783L548.406 359.087C549.776 360.002 550.656 361.463 550.774 363.121L551.663 375.009C551.721 375.907 551.572 376.803 551.147 377.626L538.727 404.263C538.443 404.881 538.022 405.428 537.532 405.905L513.142 428.389" stroke="black" stroke-opacity="0.15" stroke-miterlimit="10" stroke-linecap="round" stroke-dasharray="2 2"/>
<path d="M425.675 210.43L424.101 214.83C422.526 219.298 423.982 224.426 427.956 227.099C429.738 228.295 431.801 229.08 434.009 229.314L445.739 230.495C447.257 230.652 448.559 231.565 449.163 232.954L452.325 239.898C452.729 240.731 452.787 241.63 452.569 242.525L447.953 263.803C447.44 266.144 448.933 268.372 451.276 268.816C453.206 269.185 454.636 270.859 454.681 272.862L455.002 291.578" stroke="black" stroke-opacity="0.15" stroke-miterlimit="10" stroke-linecap="round" stroke-dasharray="2 2"/>
<path d="M-33.0865 546.335L-12.4327 541.067C-10.0072 540.475 -8.52583 538.008 -9.04859 535.585L-12.9825 518.481C-13.1803 517.719 -12.6865 516.897 -11.9233 516.63L6.32472 510.365C14.9289 507.365 18.3736 496.981 13.2158 489.46L4.8676 477.343C1.40603 472.328 1.62613 465.703 5.41614 460.916L10.0479 455.104C13.5573 450.66 14.0478 444.521 11.2071 439.583L6.40402 431.307C3.22475 425.813 4.20813 418.921 8.68466 414.488L42.1823 381.828C44.4202 379.646 47.608 378.857 50.569 379.653L55.1137 380.883C62.4813 382.908 63.879 392.799 57.336 396.723C51.0012 400.58 52.0577 410.122 59.1447 412.488L71.8739 416.719C78.7545 419.014 80.0226 428.213 74.0314 432.212L45.9536 451.198C41.2162 454.385 40.7854 461.285 45.1612 464.998L55.0727 473.613C57.1919 475.435 58.2647 478.072 58.0924 480.832L56.7644 498.837C56.761 499.113 56.7576 499.389 56.8932 499.598L72.7622 534.87C73.6355 536.883 73.4 539.159 72.0653 540.938L68.1321 546.136C65.0414 550.241 68.1482 556.01 73.2643 555.728C75.7537 555.552 78.0853 556.962 79.1624 559.254L82.119 565.988C83.3292 568.696 82.3228 571.859 79.8164 573.417L62.897 583.979C59.8336 585.874 59.1599 590.078 61.4744 592.868L62.6999 594.333C65.6276 597.822 63.6951 603.253 59.1947 604.026L42.5074 606.996C41.0533 607.254 39.537 606.959 38.2339 606.183L17.3927 593.083C17.0498 592.871 16.5671 592.796 16.1518 592.86L1.52581 596.753C0.278117 597.083 -1.1009 596.859 -2.19762 596.155L-16.247 586.936C-17.1382 586.373 -18.171 586.084 -19.2089 586.209L-43.6253 588.462C-48.5359 588.884 -50.5979 582.437 -46.4216 579.934L-28.1164 569.044C-27.0026 568.367 -25.7575 568.245 -24.5184 568.605L-10.5423 572.576C-9.23405 572.937 -7.84991 572.747 -6.73526 572.001C-3.32137 569.696 -4.36176 564.435 -8.42803 563.626L-32.829 559.043C-35.0344 558.601 -36.6002 556.718 -36.5721 554.44L-36.5268 550.781C-36.5694 548.64 -35.0966 546.863 -33.0865 546.335Z" stroke="black" stroke-opacity="0.15" stroke-miterlimit="10" stroke-linecap="round" stroke-dasharray="2 2"/>
<path d="M266.733 548.661L264.785 560.928C264.635 561.892 265.176 562.866 266.139 563.223L281.548 568.592C283.062 569.094 284.599 567.732 284.273 566.14L281.319 553.606C281.253 553.329 281.257 553.053 281.33 552.708L282.511 546.578C282.952 544.443 280.135 543.165 278.801 544.944L275.22 549.595C274.377 550.689 272.788 550.67 271.972 549.624L270.407 547.671C269.319 546.277 267.032 546.87 266.733 548.661Z" stroke="black" stroke-opacity="0.15" stroke-miterlimit="10" stroke-linecap="round" stroke-dasharray="2 2"/>
<path d="M-30.1069 808.269L-6.84298 837.763C-3.714 841.738 1.72873 842.979 6.24702 840.756C10.6954 838.601 16.0008 839.772 19.1323 843.539L27.9829 854.144C29.2766 855.679 31.3421 856.257 33.2158 855.589L39.8073 853.323" stroke="black" stroke-opacity="0.15" stroke-miterlimit="10" stroke-linecap="round" stroke-dasharray="2 2"/>
<path d="M144.347 835.973L136.373 810.327C135.975 809.01 136.131 807.562 136.905 806.398L149.875 785.568C151.073 783.649 150.76 781.091 149.051 779.551L143.04 774.021C136.755 768.213 137.64 758.143 144.745 753.466L155.403 746.417C156.1 745.943 156.932 745.677 157.831 745.619L165.988 745.236C167.785 745.189 169.457 744.036 170.169 742.388L178.132 724.189C181.83 715.673 178.774 705.761 170.889 700.899L158.273 693.079C156.216 691.811 154.372 690.062 152.946 688.111L141.876 672.577C139.567 669.372 135.789 667.53 131.849 667.688C127.288 667.839 123.035 665.37 120.944 661.27L111.567 642.926" stroke="black" stroke-opacity="0.15" stroke-miterlimit="10" stroke-linecap="round" stroke-dasharray="2 2"/>
<path d="M156.031 785.022L160.839 787.291C163.106 788.354 165.88 787.491 167.083 785.227L169.063 781.523C170.759 778.437 175.116 778.146 177.153 781.002L181.025 786.366C183.47 789.78 188.873 788.604 189.616 784.401C190.137 781.37 193.406 779.615 196.224 780.823L208.112 786.011C210.312 786.936 212.878 786.139 214.078 784.082L217.322 778.737C218.31 777.092 218.197 775.019 217.111 773.417L210.996 765.125C208.21 761.362 211.934 756.299 216.337 757.803L232.85 763.324C233.813 763.681 234.85 763.625 235.821 763.361L254.413 757.238C255.731 756.771 257.248 756.997 258.414 757.702L259.648 758.477C262.802 760.449 266.906 758.152 266.952 754.493L267.005 750.213C267.019 749.039 267.447 747.94 268.217 747.121L279.496 734.556C280.827 733.053 281.13 730.916 280.185 729.109L264.384 699.5C261.414 693.87 263.987 686.928 269.888 684.654L295.367 674.681C299.949 672.873 305.18 674.457 307.962 678.565C310.066 681.629 313.569 683.33 317.302 683.169L330.23 682.5C331.405 682.445 332.644 682.806 333.533 683.576L369.025 713.084C370.667 714.416 371.192 716.632 370.408 718.556L369.98 719.655C368.769 722.609 370.732 725.948 373.976 726.195L392.609 727.876C393.368 727.954 394.061 727.825 394.755 727.557L411.069 721.268C415.373 719.595 420.2 720.345 423.827 723.152L427.044 725.608C433.887 730.941 443.868 728.302 447.214 720.334L449.207 715.594C450.489 712.503 453.007 709.98 456.064 708.636L462.177 705.95C467.317 703.735 469.738 697.896 467.73 692.693L458.622 669.38" stroke="black" stroke-opacity="0.15" stroke-miterlimit="10" stroke-linecap="round" stroke-dasharray="2 2"/>
<path d="M145.483 632.297L154.194 643.038C155.147 644.154 155.474 645.677 155.042 647.122L153.741 651.732C153.164 653.727 154.104 655.88 155.888 656.937L159.044 658.703C160.622 659.62 161.567 661.358 161.337 663.219L158.555 687.075" stroke="black" stroke-opacity="0.15" stroke-miterlimit="10" stroke-linecap="round" stroke-dasharray="2 2"/>
<path d="M159.691 656.639L161.446 648.859C161.736 647.688 162.441 646.592 163.485 645.984L165.294 644.901C166.617 644.089 167.464 642.65 167.484 641.062L167.562 634.71C167.598 631.811 170.319 629.704 173.074 630.36L174.245 630.65C176.036 631.087 177.91 630.35 178.966 628.775L180.234 626.858C181.007 625.762 181.231 624.384 180.901 623.137L178.919 615.794C178.193 613.092 180.092 610.354 182.859 610.112L187.009 609.749C189.153 609.568 190.831 607.932 191.065 605.794L192.133 597.66" stroke="black" stroke-opacity="0.15" stroke-miterlimit="10" stroke-linecap="round" stroke-dasharray="2 2"/>
<path d="M222.483 774.796L244.09 770.645C245.337 770.384 246.577 770.675 247.604 771.448L273.831 790.415C275.2 791.398 275.939 793.133 275.641 794.856L273.105 810.015" stroke="black" stroke-opacity="0.15" stroke-miterlimit="10" stroke-linecap="round" stroke-dasharray="2 2"/>
<path d="M172.449 742.416L191.086 754.937C191.839 755.499 192.804 755.718 193.771 755.73L208.907 755.295" stroke="black" stroke-opacity="0.15" stroke-miterlimit="10" stroke-linecap="round" stroke-dasharray="2 2"/>
<path d="M280.978 793.471L320.264 790.021C321.647 789.9 322.9 789.156 323.674 787.992L340.439 761.961C341.074 760.934 341.297 759.693 341.035 758.516L338.224 745.57C337.833 743.632 338.686 741.709 340.357 740.694L366.108 725.477" stroke="black" stroke-opacity="0.15" stroke-miterlimit="10" stroke-linecap="round" stroke-dasharray="2 2"/>
<path d="M283.751 736.887L298.657 738.314C299.761 738.397 300.801 738.134 301.707 737.523L312.789 729.651C314.462 728.429 316.81 728.527 318.382 729.927L326.723 737.073C327.543 737.774 328.575 738.132 329.611 738.145L336.933 738.235" stroke="black" stroke-opacity="0.15" stroke-miterlimit="10" stroke-linecap="round" stroke-dasharray="2 2"/>
<path d="M345.649 759.748L352.403 766.667C353.29 767.576 354.597 768.075 355.91 768.022L371.812 767.114C372.711 767.056 373.613 766.722 374.311 766.178L387.074 756.462C388.399 755.443 390.198 755.258 391.709 755.967L398.785 759.231C400.503 760.012 402.51 759.691 403.84 758.327L411.183 751.168C412.232 750.145 413.688 749.68 415.067 749.904L434.097 753.039C435.063 753.189 435.955 753.683 436.637 754.382L445.847 763.818C446.734 764.726 447.903 765.224 449.147 765.17L481.898 764.954C483.141 764.969 484.31 765.467 485.198 766.306L491.406 772.666C493.248 774.554 496.289 774.453 498.04 772.541L514.571 754.31C515.411 753.423 516.523 752.884 517.767 752.831L542.998 751.762C549.358 751.495 555.541 754.264 559.556 759.285L571.258 773.93C571.462 774.209 571.666 774.487 571.799 774.834L580.148 792.545C582.639 797.823 581.387 804.091 576.986 807.972L555.958 826.7C553.933 828.47 553.963 831.647 555.944 833.466L556.354 833.817C557.584 834.937 559.376 835.304 560.972 834.702L580.612 827.626" stroke="black" stroke-opacity="0.15" stroke-miterlimit="10" stroke-linecap="round" stroke-dasharray="2 2"/>
<path d="M521.135 759.846L530.716 767.214C531.606 767.916 532.216 768.821 532.41 769.928L534.424 780.241C534.553 781.002 534.89 781.697 535.366 782.255L545.919 794.883C546.532 795.65 546.935 796.553 546.991 797.589L548.612 828.542" stroke="black" stroke-opacity="0.15" stroke-miterlimit="10" stroke-linecap="round" stroke-dasharray="2 2"/>
<path d="M442.273 767.847L431.1 771.921C429.087 772.655 427.888 774.643 428.139 776.717L429.772 789.926C430.398 795.112 427.436 800.047 422.576 801.92L414.176 805.199C407.65 807.742 404.928 815.58 408.445 821.631L422.182 845.001C424.144 848.339 427.71 850.455 431.577 850.641L441.798 851.043C448.22 851.261 453.195 856.846 452.77 863.262C452.345 869.678 457.251 875.194 463.604 875.479L491.293 876.788C492.191 876.799 493.091 876.603 493.857 876.13L518.987 860.836C519.962 860.226 521.139 860.034 522.242 860.254L545.124 864.749C546.158 864.969 547.049 865.532 547.73 866.3L554.81 874.881C556.579 877.043 559.895 877.084 561.786 874.967" stroke="black" stroke-opacity="0.15" stroke-miterlimit="10" stroke-linecap="round" stroke-dasharray="2 2"/>
<path d="M560.875 853.758L562.895 846.878C563.616 844.401 567.207 844.584 567.659 847.144C567.982 848.943 570.045 849.728 571.509 848.642L578.481 843.549C579.109 843.074 579.533 842.319 579.474 841.49L578.588 818.141C578.535 816.829 579.516 815.736 580.761 815.613L588.303 814.74C589.132 814.681 589.83 814.137 590.184 813.451L597.616 799.043C599.67 794.995 603.573 792.281 608.07 791.715L629.178 788.869C631.185 788.618 632.609 790.776 631.62 792.49L627.596 799.483C626.537 801.265 628.099 803.494 630.107 803.104L649.838 799.827C651.084 799.635 652.25 800.34 652.581 801.518L653.975 806.161C654.374 807.409 653.666 808.781 652.417 809.18L641.179 812.908C639.86 813.375 639.151 814.816 639.688 816.135L641.631 821.061C641.899 821.686 642.377 822.175 643.064 822.46L654.619 826.676C655.376 826.962 655.92 827.59 656.118 828.352L659.949 842.623C660.213 843.662 661.17 844.433 662.276 844.447L667.871 844.516C668.769 844.527 669.674 843.986 670.098 843.163L675.761 832.185C676.187 831.293 677.16 830.822 678.127 830.834L686.825 831.424C688.068 831.509 689.114 830.693 689.406 829.454L690.804 822.567C691.025 821.396 692.072 820.58 693.315 820.595L707.332 821.252C709.404 821.347 710.677 818.946 709.384 817.342L708.023 815.668C707.479 814.97 706.654 814.615 705.824 814.743L682.851 817.566C682.089 817.695 681.264 817.408 680.788 816.781L672.878 808.328C669.946 805.185 670.56 800.221 674.113 797.848L688.323 788.496C688.672 788.224 689.157 788.092 689.641 788.098L705.675 787.674C706.85 787.62 707.895 786.942 708.323 785.843L713.597 772.789C713.881 772.171 714.302 771.624 714.928 771.287L743.374 756.034C745.043 755.157 747.104 756.08 747.566 757.881L748.751 762.591C749.081 763.837 748.512 765.142 747.468 765.82L735.075 773.469C732.778 774.891 733.494 778.421 736.114 778.868C736.941 779.016 737.627 779.439 738.102 780.135L740.203 783.406C740.949 784.52 740.792 786.037 739.882 786.993L733.442 793.818C733.162 794.09 733.02 794.434 732.877 794.777L727.123 813.142C726.834 814.174 725.858 814.852 724.753 814.839L719.779 814.777C718.26 814.759 717.068 816.125 717.327 817.578L717.968 821.591C718.095 822.49 718.708 823.188 719.533 823.543L745.598 833.187C747.868 834.043 750.422 834.213 752.778 833.621L754.233 833.294C757.975 832.373 761.971 833.32 764.981 835.774L775.924 844.748C776.882 845.519 777.7 846.427 778.378 847.402L779.803 849.56C782.109 852.972 785.884 855.021 789.96 855.071L797.213 855.161C802.947 855.232 807.872 859.159 809.186 864.699L812.93 880.35C814.111 885.405 812.526 890.702 808.751 894.246L800.082 902.494C795.189 907.128 787.788 907.796 782.168 904.136L778.536 901.744C774.012 898.788 768.28 898.579 763.55 901.213L757.915 904.32C754.019 906.481 749.318 906.768 745.194 904.991L697.015 884.579C693.304 883.014 689.158 883.032 685.476 884.643L647.408 901.434C645.184 902.443 643.162 903.937 641.619 905.782L625.839 924.782C623.946 927.037 621.507 928.733 618.801 929.666L608.671 933.132C605.41 934.265 601.817 934.29 598.514 933.213L565.417 922.309C563.421 921.663 561.501 920.534 559.929 919.134L552.957 913.04C547.284 908.068 545.936 899.766 549.678 893.252L553.421 886.67C553.634 886.258 554.052 885.918 554.469 885.716L563.297 881.407C564.27 880.935 564.836 879.906 564.641 878.868L561.138 854.866C560.798 854.447 560.803 854.033 560.875 853.758Z" stroke="black" stroke-opacity="0.15" stroke-miterlimit="10" stroke-linecap="round" stroke-dasharray="2 2"/>
<path d="M309.823 611.889L305.81 634.763C305.067 638.966 306.534 643.265 309.745 646.135L311.522 647.746C314.528 650.476 315.999 654.429 315.535 658.428L313.994 671.321" stroke="black" stroke-opacity="0.15" stroke-miterlimit="10" stroke-linecap="round" stroke-dasharray="2 2"/>
<path d="M395.098 588.086L409.845 596.692C410.532 597.046 411.22 597.261 411.979 597.34L433.317 598.225C434.353 598.238 435.462 597.975 436.299 597.295L442.575 592.609C444.807 590.91 448.046 591.572 449.398 594.005L455.553 604.714" stroke="black" stroke-opacity="0.15" stroke-miterlimit="10" stroke-linecap="round" stroke-dasharray="2 2"/>
<path d="M424.614 547.713L434.075 542.513C435.119 541.905 436.364 541.782 437.534 542.142L464.869 549.661C466.384 550.094 468.047 549.7 469.235 548.61L473.707 544.522C476.083 542.342 479.804 543.148 481.15 546.064C481.956 547.938 483.946 548.999 485.952 548.816L490.726 548.254C492.525 548.069 494.242 548.919 495.19 550.45L499.729 557.687" stroke="black" stroke-opacity="0.15" stroke-miterlimit="10" stroke-linecap="round" stroke-dasharray="2 2"/>
<path d="M470.096 501.323L485.023 495.431C487.176 494.56 489.651 495.488 490.801 497.505L494.925 504.806C495.736 506.266 497.245 507.182 498.972 507.204L513.547 507.384C514.86 507.4 516.096 507.968 516.983 508.945L522.297 514.949C522.774 515.507 523.18 516.203 523.378 516.965L528.377 537.327" stroke="black" stroke-opacity="0.15" stroke-miterlimit="10" stroke-linecap="round" stroke-dasharray="2 2"/>
<path d="M521.044 459.834L514.193 471.902C513.558 472.999 513.405 474.24 513.735 475.418L518.23 491.907C518.428 492.6 518.419 493.359 518.272 494.048L515.62 507.41" stroke="black" stroke-opacity="0.15" stroke-miterlimit="10" stroke-linecap="round" stroke-dasharray="2 2"/>
<path d="M423.676 567.726L433.273 573.851C434.164 574.415 434.844 575.252 435.177 576.292L438.243 585.375C438.51 586.137 438.985 586.834 439.6 587.394L443.427 590.755" stroke="black" stroke-opacity="0.15" stroke-miterlimit="10" stroke-linecap="round" stroke-dasharray="2 2"/>
<path d="M601.003 642.418L627.195 636.251C629.898 635.594 632.792 636.251 634.982 637.935L641.894 643.268C643.946 644.882 645.299 647.246 645.474 649.872L646.133 658.028C646.551 663.35 651.408 667.207 656.738 666.445C661.098 665.808 665.35 668.346 666.82 672.438L668.29 676.461C669.427 679.513 672.723 681.142 675.844 680.145L697.902 673.099C700.122 672.367 702.463 673.017 704.101 674.626L710.924 681.615C713.516 684.27 717.803 683.978 720.05 681.106C721.314 679.465 723.397 678.593 725.468 678.756L741.959 680.479C743.822 680.64 745.467 681.696 746.484 683.297L761.122 706.402C762.003 707.794 762.258 709.523 761.892 711.176L758.341 724.527C758.267 724.94 758.125 725.284 757.912 725.695L750.19 741.205C749.41 742.783 748.015 743.871 746.351 744.333L736.577 746.974C732.903 747.965 731.056 752.016 732.742 755.42L734.291 758.615" stroke="black" stroke-opacity="0.15" stroke-miterlimit="10" stroke-linecap="round" stroke-dasharray="2 2"/>
<path d="M434.547 750.145L438.051 740.591C438.552 739.216 438.362 737.763 437.618 736.511L432.74 728.718" stroke="black" stroke-opacity="0.15" stroke-miterlimit="10" stroke-linecap="round" stroke-dasharray="2 2"/>
<path d="M281.047 815.913L290.925 816.035C291.685 816.045 292.442 816.33 292.989 816.751L301.336 823.345C303.594 825.168 307 823.484 306.899 820.514L306.743 816.3C306.698 814.366 308.238 812.728 310.242 812.753C312.729 812.783 314.419 810.18 313.411 807.889L313.142 807.265C312.134 804.974 313.825 802.371 316.311 802.402L318.66 802.431C320.18 802.449 321.574 801.431 322.007 799.986L324.893 790.079" stroke="black" stroke-opacity="0.15" stroke-miterlimit="10" stroke-linecap="round" stroke-dasharray="2 2"/>
<path d="M327.603 794.394L330.108 798.498C330.65 799.403 331.609 800.036 332.713 800.119L336.026 800.436C337.544 800.593 338.774 801.713 339.031 803.235L340.782 812.509C341.043 813.755 341.928 814.802 343.167 815.162L363.269 821.003C364.784 821.436 366.45 820.767 367.227 819.395L370.125 814.114C370.55 813.291 371.317 812.748 372.218 812.483L386.222 808.582C387.054 808.386 387.882 808.465 388.637 808.82L404.637 816.751" stroke="black" stroke-opacity="0.15" stroke-miterlimit="10" stroke-linecap="round" stroke-dasharray="2 2"/>
<path d="M353.186 904.495L335.833 888.676C335.15 888.046 334.746 887.213 334.689 886.245L334.266 875.745C334.206 874.985 333.939 874.222 333.394 873.594L322.561 861.307C321.743 860.4 321.482 859.154 321.842 857.984L323.851 851.933C324.425 850.214 323.55 848.339 321.831 847.696L312.343 843.919C311.175 843.422 310.359 842.376 310.167 841.13L308.983 830.69C308.734 828.546 310.483 826.773 312.623 826.868L319.043 827.293C320.217 827.376 321.314 828.08 321.853 829.123L323.879 832.945C324.824 834.752 327.235 835.334 328.907 834.181L331.556 832.281C332.671 831.535 334.054 831.414 335.22 832.119L345.511 837.977C346.471 838.541 347.576 838.555 348.618 838.154L354.801 835.399C355.634 835.064 356.533 835.006 357.427 835.293L372.764 841.007C374.277 841.578 376.011 840.978 376.857 839.607L379.676 835.154C380.451 833.921 380.334 832.262 379.38 831.146L374.07 824.797C373.321 823.89 373.06 822.644 373.489 821.475L376.426 813.019" stroke="black" stroke-opacity="0.15" stroke-miterlimit="10" stroke-linecap="round" stroke-dasharray="2 2"/>
<path d="M379.578 837.5L382.882 844.101C383.354 845.004 383.341 846.04 382.985 846.933L377.787 859.435C377.004 861.29 377.668 863.439 379.381 864.565L383.63 867.379C386.439 869.278 386.042 873.485 382.916 874.827L379.374 876.302C376.388 877.577 375.855 881.576 378.387 883.54L391.73 893.993C392.688 894.765 393.295 895.946 393.349 897.189L393.656 905.824C393.702 907.689 392.507 909.4 390.772 910L371.693 916.462" stroke="black" stroke-opacity="0.15" stroke-miterlimit="10" stroke-linecap="round" stroke-dasharray="2 2"/>
<path d="M393.892 909.141L400.396 913.916C401.697 914.899 402.368 916.495 402.071 918.149L400.002 929.033C399.856 929.652 399.917 930.275 400.048 930.898L403.87 945.859C404.198 947.244 405.222 948.292 406.528 948.792L415.263 952.007C415.813 952.221 416.434 952.298 417.056 952.236L427.569 951.331C429.368 951.146 430.904 949.853 431.34 948.132L432.067 945.172C432.504 943.382 434.04 942.089 435.907 941.974L445.794 941.337C448.422 941.162 450.249 938.699 449.658 936.137L446.579 922.566C446.315 921.527 445.706 920.553 444.815 919.989L436.935 914.713C435.495 913.798 433.699 913.776 432.237 914.655L425.342 919.127C423.461 920.347 420.98 919.902 419.689 918.16L416.765 914.326C415.541 912.723 413.268 912.211 411.46 913.155L404.159 916.932" stroke="black" stroke-opacity="0.15" stroke-miterlimit="10" stroke-linecap="round" stroke-dasharray="2 2"/>
<path d="M449.113 857.347L443.835 865.084C442.78 866.59 442.824 868.662 443.98 870.127L447.177 874.24C448.741 876.262 448.15 879.292 445.924 880.577C443.767 881.793 443.109 884.685 444.535 886.705L452.072 897.431C453.225 899.103 453.059 901.379 451.66 902.812L439.415 915.227" stroke="black" stroke-opacity="0.15" stroke-miterlimit="10" stroke-linecap="round" stroke-dasharray="2 2"/>
<path d="M388.1 986.402L392.251 980.377C392.321 980.309 392.392 980.172 392.53 980.174L400.453 976.336C400.661 976.269 400.733 976.063 400.804 975.926L407.938 952.124" stroke="black" stroke-opacity="0.15" stroke-miterlimit="10" stroke-linecap="round" stroke-dasharray="2 2"/>
<path d="M453.657 936.808L461.654 938.219C464.48 938.737 467.458 938.153 469.964 936.665L473.375 934.567C478.04 931.655 484.18 932.421 488 936.335L490.525 938.921C492.571 941.018 495.319 942.295 498.219 942.469L501.464 942.647C505.261 942.901 508.942 941.29 511.328 938.281L516.17 932.265C517.363 930.76 518.966 929.606 520.704 928.799L537.302 921.824C539.247 921.019 541.323 920.7 543.392 921.001L563.672 923.669" stroke="black" stroke-opacity="0.15" stroke-miterlimit="10" stroke-linecap="round" stroke-dasharray="2 2"/>
<path d="M522.113 932.131L522.247 932.478C523.445 936.152 522.705 940.148 520.387 943.226C518.703 945.346 517.841 948.028 517.946 950.722L518.228 961.428C518.278 962.948 517.982 964.532 517.481 965.976L513.339 976.834" stroke="black" stroke-opacity="0.15" stroke-miterlimit="10" stroke-linecap="round" stroke-dasharray="2 2"/>
<path d="M171.072 876.075L166.555 878.228C164.261 879.305 162.782 881.634 162.75 884.188L162.686 889.366C162.671 890.54 162.382 891.641 161.817 892.601C160.263 895.343 160.774 898.733 163.096 900.902L167.399 904.891C169.995 907.271 174.072 907.252 176.659 904.729L182.464 899.07C184.282 897.297 184.936 894.682 184.206 892.256L180.419 880.057C179.223 876.175 174.756 874.256 171.072 876.075Z" stroke="black" stroke-opacity="0.15" stroke-miterlimit="10" stroke-linecap="round" stroke-dasharray="2 2"/>
<path d="M152.015 919.821L168.984 916.441C172.031 915.857 175.053 917.344 176.399 920.192L183.198 934.707C184.276 936.93 183.967 939.55 182.492 941.534L169.985 958.434C169.141 959.597 168.711 960.904 168.693 962.354L168.67 964.218C168.626 967.739 165.826 970.673 162.301 970.836L152.346 971.335C148.958 971.5 146.016 969.185 145.435 965.864L143.815 957.213C143.493 955.344 143.931 953.417 145.055 951.911L149.059 946.575C150.323 944.934 150.695 942.798 150.166 940.858L146.802 927.974C145.879 924.372 148.206 920.603 152.015 919.821Z" stroke="black" stroke-opacity="0.15" stroke-miterlimit="10" stroke-linecap="round" stroke-dasharray="2 2"/>
<path d="M230.722 1008.14L231.488 1007.6C234.136 1005.77 237.59 1005.81 240.193 1007.64L246.7 1012.2C248.139 1013.19 249.791 1013.69 251.519 1013.58L275.373 1012.14C280.835 1011.8 284.845 1017.16 282.985 1022.32L281.268 1027.13C280.766 1028.58 280.677 1030.16 281.073 1031.69L283.648 1041.38C284.968 1046.37 281.039 1051.23 275.86 1050.95L273.858 1050.86C272.132 1050.77 270.483 1050.06 269.184 1048.94L254.561 1035.78C254.219 1035.5 253.877 1035.22 253.466 1034.94L230.977 1020.99C226.455 1017.96 226.261 1011.26 230.722 1008.14Z" stroke="black" stroke-opacity="0.15" stroke-miterlimit="10" stroke-linecap="round" stroke-dasharray="2 2"/>
<path d="M31.92 926.83L39.2612 925.402C40.9233 925.077 42.5019 925.925 43.1739 927.452L44.6518 930.854C45.1226 931.895 45.0398 932.999 44.5435 934.029L42.0694 938.555C40.9376 940.682 38.1003 941.061 36.3947 939.314L30.0497 932.814C28.0712 930.787 29.15 927.348 31.92 926.83Z" stroke="black" stroke-opacity="0.15" stroke-miterlimit="10" stroke-linecap="round" stroke-dasharray="2 2"/>
<path d="M57.2117 932.045C58.0773 934.679 61.5227 935.412 63.3452 933.294C64.8172 931.586 64.297 928.956 62.3764 927.828C59.4939 926.273 56.213 928.994 57.2117 932.045Z" stroke="black" stroke-opacity="0.15" stroke-miterlimit="10" stroke-linecap="round" stroke-dasharray="2 2"/>
<path d="M416.64 1036.19L440.7 1034.83C441.668 1034.78 442.564 1034.99 443.386 1035.56L454.832 1043.02C456.339 1044 457.078 1045.74 456.78 1047.46L454.181 1062.14C453.585 1065.58 449.423 1066.98 446.827 1064.6L444.231 1062.22C441.839 1060.05 438.027 1061.04 437.022 1064.13C435.872 1067.71 431.028 1068.34 429.065 1065.07L424.46 1057.56C423.376 1055.82 421.244 1055.03 419.232 1055.7L418.608 1055.9C415.763 1056.9 412.818 1054.79 412.785 1051.82L412.577 1040.7C412.4 1038.28 414.221 1036.3 416.64 1036.19Z" stroke="black" stroke-opacity="0.15" stroke-miterlimit="10" stroke-linecap="round" stroke-dasharray="2 2"/>
<path d="M462.445 1008.38L468.527 1013.84C470.987 1016.01 474.814 1013.85 474.231 1010.67L473.324 1005.82C473.065 1004.37 471.836 1003.25 470.318 1003.02L465.144 1002.41C461.834 1001.95 459.917 1006.14 462.445 1008.38Z" stroke="black" stroke-opacity="0.15" stroke-miterlimit="10" stroke-linecap="round" stroke-dasharray="2 2"/>
<path d="M607.619 1090.82L615.731 1088.51C616.841 1088.18 617.682 1087.15 617.697 1085.98L617.735 1082.87C617.756 1081.21 619.292 1079.92 620.945 1080.29L627.975 1081.68C628.527 1081.76 629.081 1081.7 629.636 1081.5L642.212 1075.78C644.782 1074.64 647.162 1077.71 645.408 1079.9L641.689 1084.55C640.706 1085.78 641.029 1087.65 642.331 1088.49C644.456 1089.83 643.724 1093.13 641.234 1093.38L635.768 1094C634.177 1094.19 633.122 1095.7 633.449 1097.22L634.56 1102.34C634.952 1104.14 633.411 1105.85 631.618 1105.55L613.753 1103.19C613.063 1103.11 612.446 1102.76 612.038 1102.2L606.324 1095.02C605.029 1093.55 605.747 1091.35 607.619 1090.82Z" stroke="black" stroke-opacity="0.15" stroke-miterlimit="10" stroke-linecap="round" stroke-dasharray="2 2"/>
<path d="M470.782 1099.63L487.033 1104.04C487.79 1104.26 488.619 1104.27 489.382 1104L508.311 1098.5C509.975 1098.04 511.765 1098.54 512.923 1099.87L514.558 1101.76C515.375 1102.73 516.612 1103.3 517.855 1103.32L521.724 1103.36C525.178 1103.41 527.272 1107.23 525.37 1110.18L523.891 1112.5C523.115 1113.74 521.724 1114.48 520.273 1114.53L505.344 1114.97L489.448 1115.46C488.964 1115.46 488.55 1115.45 488.137 1115.31L467.895 1109.6C465.417 1108.88 464.068 1106.24 464.926 1103.83L465.427 1102.46C466.284 1100.19 468.579 1098.98 470.782 1099.63Z" stroke="black" stroke-opacity="0.15" stroke-miterlimit="10" stroke-linecap="round" stroke-dasharray="2 2"/>
<path d="M459.468 662.417L460.627 658.081C460.843 657.325 460.507 656.561 459.89 656.208L455.024 653.041C454.133 652.477 453.941 651.232 454.641 650.481L458.497 645.972C461.932 641.94 463.793 636.716 463.651 631.397L463.395 624.144C463.398 623.937 463.332 623.729 463.265 623.521L457.014 609.427C456.544 608.317 457.25 607.083 458.495 606.96L463.681 606.61C464.442 606.55 465.14 606.006 465.287 605.249C465.508 604.147 466.69 603.54 467.72 604.036L469.781 605.028C472.94 606.517 476.532 606.631 479.726 605.358L492.57 600.269C493.681 599.8 494.044 598.423 493.226 597.516L490.707 594.515C490.298 594.027 490.168 593.404 490.383 592.785L491.958 588.317C492.102 587.835 492.522 587.426 493.007 587.294L494.95 586.558C497.38 585.622 498.587 583.013 497.858 580.518L497.724 580.171C497.06 578.023 497.918 575.686 499.797 574.535C501.259 573.656 502.107 572.147 502.128 570.421L502.191 565.312C502.206 564.139 502.635 562.97 503.475 562.083L510.69 554.094C511.95 552.728 513.822 552.199 515.612 552.705L518.641 553.571C519.674 553.86 520.715 553.527 521.347 552.706L527.877 544.225C528.438 543.542 529.272 543.138 530.1 543.217L536.795 543.783C537.761 543.864 538.582 544.496 538.986 545.398C539.455 546.578 540.621 547.214 541.799 546.952L545.885 546.174C546.369 546.111 546.922 546.118 547.403 546.331L550.633 547.752C551.183 547.966 551.66 548.455 551.862 548.941L552.401 550.052C553.209 551.719 555.485 552.024 556.678 550.519L558.222 548.605C558.783 547.922 559.547 547.586 560.444 547.666L567.899 548.242C568.865 548.323 569.687 548.954 570.022 549.787L579.414 572.412C579.482 572.551 579.548 572.759 579.546 572.966L580.565 585.546C580.685 586.997 581.637 588.252 583.013 588.683L585.765 589.615C586.522 589.9 587.206 590.392 587.612 591.087L593.105 599.51C593.511 600.137 594.058 600.627 594.745 600.911L602.376 604.044C603.407 604.471 604.651 604.417 605.626 603.808C606.809 603.132 608.259 603.15 609.425 603.855L610.796 604.769C612.098 605.614 612.769 607.21 612.336 608.724L610.234 616.638C610.161 616.983 609.949 617.325 609.671 617.529L602.901 623.038C602.272 623.583 601.305 623.571 600.621 623.01L595.701 618.599C593.719 616.849 590.6 617.708 589.808 620.253C589.52 621.216 589.645 622.253 590.118 623.156L597.492 635.814C599.657 639.5 598.285 644.317 594.529 646.342L581.732 653.226C581.523 653.362 581.381 653.636 581.378 653.912L581.898 662.135C581.895 662.343 581.824 662.48 581.754 662.617L574.888 670.265C573.207 672.109 570.573 672.836 568.235 671.978L561.974 669.83C561.905 669.829 561.768 669.758 561.699 669.688L553.171 660.952C553.035 660.812 552.828 660.74 552.621 660.738L541.631 661.154C539.696 661.199 537.952 662.49 537.24 664.276L536.382 666.613C535.523 669.019 532.882 670.298 530.472 669.578L526.48 668.355C525.654 668.138 524.9 667.645 524.286 667.016L515.355 657.308C514.674 656.54 513.714 655.976 512.679 655.825L493.997 652.487C485.863 651.005 477.544 653.25 471.26 658.627L465.465 663.527C465.255 663.731 464.977 663.866 464.7 663.932L461.652 664.584C460.267 664.844 459.175 663.725 459.468 662.417Z" stroke="black" stroke-opacity="0.5" stroke-width="2" stroke-miterlimit="10" stroke-dasharray="2 1"/>
<path d="M607.424 629V617.64H615.04V618.632H608.544V622.584H612.288C613.536 622.584 614.458 622.877 615.056 623.464C615.653 624.04 615.952 624.792 615.952 625.72C615.952 626.328 615.818 626.883 615.552 627.384C615.296 627.875 614.901 628.269 614.368 628.568C613.834 628.856 613.173 629 612.384 629H607.424ZM608.544 628.008H612.256C612.864 628.008 613.354 627.896 613.728 627.672C614.112 627.448 614.389 627.16 614.56 626.808C614.73 626.445 614.816 626.072 614.816 625.688C614.816 625.304 614.741 624.947 614.592 624.616C614.442 624.275 614.176 624.003 613.792 623.8C613.418 623.587 612.89 623.48 612.208 623.48H608.544V628.008ZM621.557 629.16C620.757 629.16 620.042 628.963 619.413 628.568C618.784 628.173 618.288 627.645 617.925 626.984C617.562 626.323 617.381 625.597 617.381 624.808C617.381 624.029 617.557 623.315 617.909 622.664C618.272 622.013 618.768 621.496 619.397 621.112C620.026 620.717 620.741 620.52 621.541 620.52C622.362 620.52 623.082 620.717 623.701 621.112C624.32 621.507 624.8 622.029 625.141 622.68C625.493 623.32 625.669 624.024 625.669 624.792C625.669 624.963 625.664 625.107 625.653 625.224H618.517C618.57 625.821 618.741 626.355 619.029 626.824C619.317 627.283 619.685 627.651 620.133 627.928C620.581 628.195 621.072 628.328 621.605 628.328C622.149 628.328 622.661 628.189 623.141 627.912C623.621 627.635 623.962 627.272 624.165 626.824L625.109 627.08C624.938 627.485 624.672 627.848 624.309 628.168C623.957 628.477 623.546 628.723 623.077 628.904C622.608 629.075 622.101 629.16 621.557 629.16ZM618.485 624.44H624.645C624.602 623.843 624.437 623.315 624.149 622.856C623.861 622.387 623.493 622.024 623.045 621.768C622.597 621.501 622.101 621.368 621.557 621.368C621.013 621.368 620.517 621.501 620.069 621.768C619.621 622.024 619.253 622.387 618.965 622.856C618.688 623.315 618.528 623.843 618.485 624.44ZM626.868 629.048V628.056C627.145 628.056 627.396 627.981 627.62 627.832C627.854 627.683 628.057 627.421 628.228 627.048C628.409 626.675 628.553 626.157 628.66 625.496C628.766 624.835 628.836 623.997 628.868 622.984L628.964 620.664H634.372V629H633.284V621.64H629.924L629.892 623.08C629.838 624.627 629.694 625.832 629.46 626.696C629.225 627.56 628.889 628.168 628.452 628.52C628.025 628.861 627.497 629.037 626.868 629.048ZM636.425 626.6C636.425 626.088 636.574 625.645 636.873 625.272C637.172 624.888 637.582 624.589 638.105 624.376C638.638 624.163 639.252 624.056 639.945 624.056C640.35 624.056 640.772 624.093 641.209 624.168C641.646 624.232 642.036 624.323 642.377 624.44V623.736C642.377 623.032 642.169 622.472 641.753 622.056C641.337 621.64 640.761 621.432 640.025 621.432C639.588 621.432 639.15 621.517 638.713 621.688C638.276 621.848 637.822 622.088 637.353 622.408L636.937 621.64C637.481 621.267 638.014 620.989 638.537 620.808C639.06 620.616 639.593 620.52 640.137 620.52C641.161 620.52 641.972 620.813 642.569 621.4C643.166 621.987 643.465 622.797 643.465 623.832V627.688C643.465 627.976 643.598 628.125 643.865 628.136V629C643.63 629.032 643.465 629.043 643.369 629.032C643.102 629.021 642.9 628.936 642.761 628.776C642.622 628.616 642.548 628.445 642.537 628.264L642.521 627.656C642.148 628.136 641.662 628.509 641.065 628.776C640.468 629.032 639.86 629.16 639.241 629.16C638.697 629.16 638.212 629.048 637.785 628.824C637.358 628.589 637.022 628.28 636.777 627.896C636.542 627.501 636.425 627.069 636.425 626.6ZM642.009 627.24C642.254 626.952 642.377 626.685 642.377 626.44V625.224C641.641 624.936 640.873 624.792 640.073 624.792C639.294 624.792 638.665 624.947 638.185 625.256C637.705 625.565 637.465 625.987 637.465 626.52C637.465 626.979 637.641 627.395 637.993 627.768C638.356 628.141 638.857 628.328 639.497 628.328C640.02 628.328 640.505 628.227 640.953 628.024C641.412 627.821 641.764 627.56 642.009 627.24ZM650.392 629.16C649.698 629.16 649.074 628.979 648.52 628.616C647.976 628.253 647.544 627.805 647.224 627.272V632.408H646.136V620.664H647.112V622.28C647.442 621.757 647.88 621.336 648.424 621.016C648.978 620.685 649.576 620.52 650.216 620.52C650.792 620.52 651.32 620.643 651.8 620.888C652.28 621.123 652.696 621.443 653.048 621.848C653.41 622.253 653.688 622.717 653.88 623.24C654.072 623.752 654.168 624.285 654.168 624.84C654.168 625.619 654.008 626.339 653.688 627C653.378 627.651 652.936 628.173 652.36 628.568C651.794 628.963 651.138 629.16 650.392 629.16ZM650.088 628.2C650.696 628.2 651.218 628.04 651.656 627.72C652.104 627.389 652.45 626.968 652.696 626.456C652.941 625.944 653.064 625.405 653.064 624.84C653.064 624.243 652.925 623.688 652.648 623.176C652.37 622.664 651.997 622.253 651.528 621.944C651.069 621.635 650.546 621.48 649.96 621.48C649.597 621.48 649.213 621.576 648.808 621.768C648.413 621.949 648.061 622.2 647.752 622.52C647.453 622.829 647.277 623.171 647.224 623.544V626.104C647.469 626.691 647.853 627.187 648.376 627.592C648.898 627.997 649.469 628.2 650.088 628.2ZM656.962 632.488C656.61 632.488 656.236 632.376 655.842 632.152L656.242 631.384C656.466 631.533 656.684 631.608 656.898 631.608C657.431 631.608 657.927 631.064 658.386 629.976L658.802 628.936L655.09 620.664H656.242L659.298 627.88L662.114 620.664H663.202L659.234 630.312C658.914 631.069 658.567 631.619 658.194 631.96C657.82 632.312 657.41 632.488 656.962 632.488ZM668.361 629.16C667.55 629.16 666.83 628.963 666.201 628.568C665.571 628.163 665.075 627.635 664.713 626.984C664.35 626.323 664.169 625.597 664.169 624.808C664.169 624.019 664.345 623.304 664.697 622.664C665.049 622.013 665.539 621.496 666.169 621.112C666.798 620.717 667.523 620.52 668.345 620.52C669.123 620.52 669.806 620.701 670.393 621.064C670.99 621.416 671.438 621.896 671.737 622.504L670.681 622.84C670.446 622.413 670.115 622.083 669.689 621.848C669.273 621.603 668.809 621.48 668.297 621.48C667.731 621.48 667.219 621.624 666.761 621.912C666.313 622.2 665.95 622.6 665.673 623.112C665.406 623.613 665.273 624.179 665.273 624.808C665.273 625.437 665.411 626.008 665.689 626.52C665.966 627.032 666.334 627.443 666.793 627.752C667.251 628.051 667.758 628.2 668.313 628.2C668.675 628.2 669.027 628.136 669.369 628.008C669.71 627.88 670.003 627.709 670.249 627.496C670.494 627.272 670.659 627.032 670.745 626.776L671.817 627.096C671.667 627.491 671.422 627.848 671.081 628.168C670.739 628.477 670.334 628.723 669.865 628.904C669.395 629.075 668.894 629.16 668.361 629.16ZM673.83 629V620.664H674.918V623.608H677.078C678.027 623.608 678.742 623.853 679.222 624.344C679.712 624.824 679.958 625.459 679.958 626.248C679.958 626.76 679.851 627.224 679.638 627.64C679.424 628.056 679.11 628.387 678.694 628.632C678.278 628.877 677.766 629 677.158 629H673.83ZM674.918 628.136H677.014C677.664 628.136 678.134 627.949 678.422 627.576C678.71 627.192 678.854 626.755 678.854 626.264C678.854 625.944 678.795 625.651 678.678 625.384C678.571 625.107 678.379 624.888 678.102 624.728C677.835 624.557 677.462 624.472 676.982 624.472H674.918V628.136Z" fill="white"/>
<path d="M618.078 643.22V656H615.612V650.546H609.816V656H607.332V643.22H609.816V648.386H615.612V643.22H618.078ZM620.116 653.21C620.116 652.598 620.284 652.064 620.62 651.608C620.968 651.14 621.448 650.78 622.06 650.528C622.672 650.276 623.374 650.15 624.166 650.15C624.562 650.15 624.964 650.186 625.372 650.258C625.78 650.318 626.134 650.408 626.434 650.528V650.024C626.434 649.424 626.254 648.962 625.894 648.638C625.546 648.314 625.024 648.152 624.328 648.152C623.812 648.152 623.32 648.242 622.852 648.422C622.384 648.602 621.892 648.866 621.376 649.214L620.602 647.63C621.226 647.222 621.862 646.916 622.51 646.712C623.17 646.508 623.86 646.406 624.58 646.406C625.924 646.406 626.968 646.742 627.712 647.414C628.468 648.086 628.846 649.046 628.846 650.294V653.3C628.846 653.564 628.888 653.75 628.972 653.858C629.056 653.954 629.206 654.014 629.422 654.038V656C629.206 656.048 629.008 656.078 628.828 656.09C628.66 656.114 628.516 656.126 628.396 656.126C627.916 656.126 627.55 656.018 627.298 655.802C627.046 655.586 626.896 655.322 626.848 655.01L626.794 654.524C626.374 655.064 625.858 655.478 625.246 655.766C624.646 656.042 624.028 656.18 623.392 656.18C622.756 656.18 622.192 656.054 621.7 655.802C621.208 655.538 620.818 655.184 620.53 654.74C620.254 654.284 620.116 653.774 620.116 653.21ZM625.984 653.696C626.284 653.408 626.434 653.132 626.434 652.868V651.914C625.81 651.662 625.18 651.536 624.544 651.536C623.908 651.536 623.392 651.674 622.996 651.95C622.6 652.214 622.402 652.568 622.402 653.012C622.402 653.372 622.546 653.696 622.834 653.984C623.122 654.272 623.536 654.416 624.076 654.416C624.436 654.416 624.784 654.35 625.12 654.218C625.468 654.086 625.756 653.912 625.984 653.696ZM637.112 656.18C636.368 656.18 635.72 656.012 635.168 655.676C634.616 655.34 634.184 654.896 633.872 654.344V659.834H631.46V646.568H633.566V648.188C633.914 647.636 634.364 647.204 634.916 646.892C635.48 646.568 636.116 646.406 636.824 646.406C637.676 646.406 638.432 646.628 639.092 647.072C639.752 647.504 640.274 648.092 640.658 648.836C641.042 649.568 641.234 650.378 641.234 651.266C641.234 652.19 641.054 653.024 640.694 653.768C640.346 654.5 639.86 655.088 639.236 655.532C638.624 655.964 637.916 656.18 637.112 656.18ZM636.302 654.128C636.794 654.128 637.22 653.996 637.58 653.732C637.952 653.456 638.24 653.102 638.444 652.67C638.66 652.226 638.768 651.758 638.768 651.266C638.768 650.738 638.654 650.264 638.426 649.844C638.198 649.412 637.886 649.076 637.49 648.836C637.106 648.584 636.662 648.458 636.158 648.458C635.702 648.458 635.246 648.608 634.79 648.908C634.334 649.208 634.028 649.586 633.872 650.042V652.256C634.088 652.784 634.418 653.228 634.862 653.588C635.306 653.948 635.786 654.128 636.302 654.128ZM647.584 656.18C646.552 656.18 645.664 655.958 644.92 655.514C644.188 655.058 643.624 654.458 643.228 653.714C642.832 652.97 642.634 652.166 642.634 651.302C642.634 650.426 642.832 649.616 643.228 648.872C643.636 648.128 644.206 647.534 644.938 647.09C645.682 646.634 646.564 646.406 647.584 646.406C648.604 646.406 649.48 646.634 650.212 647.09C650.956 647.534 651.526 648.128 651.922 648.872C652.318 649.616 652.516 650.426 652.516 651.302C652.516 652.166 652.318 652.97 651.922 653.714C651.526 654.458 650.956 655.058 650.212 655.514C649.48 655.958 648.604 656.18 647.584 656.18ZM645.118 651.302C645.118 651.854 645.226 652.346 645.442 652.778C645.658 653.198 645.952 653.528 646.324 653.768C646.696 654.008 647.116 654.128 647.584 654.128C648.04 654.128 648.454 654.008 648.826 653.768C649.198 653.516 649.492 653.18 649.708 652.76C649.936 652.328 650.05 651.836 650.05 651.284C650.05 650.744 649.936 650.264 649.708 649.844C649.492 649.412 649.198 649.076 648.826 648.836C648.454 648.584 648.04 648.458 647.584 648.458C647.116 648.458 646.696 648.584 646.324 648.836C645.952 649.076 645.658 649.412 645.442 649.844C645.226 650.264 645.118 650.75 645.118 651.302ZM655.557 660.068C655.305 660.068 655.047 660.038 654.783 659.978C654.531 659.918 654.237 659.828 653.901 659.708L654.369 657.8C654.729 657.956 655.047 658.034 655.323 658.034C655.959 658.034 656.415 657.596 656.691 656.72L656.979 655.946L653.163 646.568H655.665L658.203 653.534L660.435 646.568H662.739L658.887 657.35C658.575 658.214 658.119 658.88 657.519 659.348C656.931 659.828 656.277 660.068 655.557 660.068ZM657.987 645.686C657.063 645.686 656.337 645.452 655.809 644.984C655.281 644.504 655.017 643.892 655.017 643.148H656.511C656.511 643.508 656.625 643.808 656.853 644.048C657.093 644.288 657.471 644.408 657.987 644.408C658.491 644.408 658.851 644.294 659.067 644.066C659.295 643.838 659.433 643.532 659.481 643.148H660.975C660.975 643.892 660.711 644.504 660.183 644.984C659.655 645.452 658.923 645.686 657.987 645.686ZM663.725 656.126V653.984C664.109 653.972 664.439 653.846 664.715 653.606C665.003 653.366 665.231 652.928 665.399 652.292C665.567 651.656 665.675 650.738 665.723 649.538L665.849 646.568H672.923V656H670.511V648.674H667.973L667.937 649.772C667.865 651.416 667.667 652.7 667.343 653.624C667.031 654.536 666.575 655.178 665.975 655.55C665.375 655.922 664.625 656.114 663.725 656.126ZM674.97 656L677.364 652.328C676.788 652.172 676.338 651.866 676.014 651.41C675.69 650.954 675.528 650.354 675.528 649.61C675.528 648.686 675.84 647.942 676.464 647.378C677.088 646.814 677.898 646.532 678.894 646.532H683.376V656H680.964V652.742H679.686L677.616 656H674.97ZM679.182 651.014H680.964V648.386H679.272C678.84 648.386 678.498 648.506 678.246 648.746C677.994 648.974 677.868 649.286 677.868 649.682C677.868 650.066 677.976 650.384 678.192 650.636C678.42 650.888 678.75 651.014 679.182 651.014Z" fill="black"/>
<rect x="563.949" y="649.045" width="5.02082" height="5.02082" transform="rotate(-45 563.949 649.045)" fill="#F0C235"/>
<path d="M596.748 597.924C595.178 584.447 584.318 573.849 570.841 572.279C553.046 570.316 538 584.316 538 601.718C538 613.363 544.672 623.438 554.486 628.148C558.018 629.849 565.607 633.644 567.177 638.747C567.308 639.008 567.701 639.008 567.701 638.747C569.271 633.513 576.86 629.849 580.392 628.148C591.383 622.915 598.449 611.139 596.748 597.924ZM567.57 607.999C564.168 607.999 561.289 605.251 561.289 601.718C561.289 598.316 564.037 595.438 567.57 595.438C571.103 595.438 573.85 598.186 573.85 601.718C573.719 605.251 570.972 607.999 567.57 607.999Z" fill="#F0C235"/>
</svg>
