<svg width="1274" height="1122" viewBox="0 0 1274 1122" fill="none" xmlns="http://www.w3.org/2000/svg">
<path d="M1275 15.5948L1191.5 54.0947L1112.43 108.226C1106.44 112.295 1098.49 112.335 1092.46 108.255L1076.7 97.7034C1071.9 94.4679 1065.69 94.1149 1060.55 96.7442L1015.01 119.795C1009.44 122.627 1005.31 127.547 1003.58 133.463L1002.28 137.797C1001.48 140.549 1003.59 143.268 1006.5 143.097C1012.93 142.762 1017.26 149.652 1014.15 155.275L992.102 195.326C990.052 199.098 989.721 203.513 991.26 207.537L992.063 209.687C993.937 214.613 989.247 219.526 984.294 217.808L976.932 215.3C971.841 213.58 969.356 207.75 971.697 202.876L975.526 194.914C976.589 192.787 976.827 190.304 976.095 188.016C974.833 183.927 970.858 181.323 966.569 181.753L956.055 182.728C949.484 183.337 945.802 190.611 949.047 196.313L974.211 239.778C976.782 244.229 972.364 249.491 967.55 247.706L956.201 243.561C950.492 241.488 944.432 245.486 944.15 251.559L943.973 254.664C943.873 257.218 942.599 259.618 940.576 261.251L934.505 266.078C931.016 268.866 930.126 273.826 932.427 277.721L939.669 289.894C941.09 292.259 938.156 294.916 935.966 293.232C935.349 292.81 934.661 292.594 933.9 292.654L911.677 296.315C906.416 297.147 904.058 303.47 907.461 307.586L908.823 309.191C912.84 314.005 908.881 321.275 902.674 320.439L889.429 318.756C882.876 317.916 877.761 312.536 877.359 305.902L876.27 287.798C875.985 282.961 873.137 278.576 868.812 276.382L852.542 267.964C849.109 266.196 850.763 260.969 854.625 261.5L898.56 267.567C907.044 268.707 915.574 266.12 921.932 260.399L922.352 259.99C927.242 255.631 929.808 249.241 929.405 242.677L928.533 229.409C928.074 221.808 923.53 214.985 916.662 211.655L879.169 193.032C873.675 190.34 867.469 189.435 861.444 190.534L841.778 194.158C837.969 194.87 835.118 190.761 837.025 187.402C838.437 185.002 837.438 181.952 834.895 180.885L830.291 178.895C828.848 178.255 827.187 178.442 825.933 179.324L817.081 185.567C816.035 186.314 814.789 186.574 813.549 186.283L805.211 184.523C801.282 183.714 800.309 178.593 803.584 176.355L806.441 174.388C808.741 172.828 809.125 169.657 807.217 167.562L802.036 161.905C801.491 161.277 800.736 160.853 799.911 160.567L780.702 155.082C779.326 154.65 777.799 155.184 776.888 156.277L769.307 165.919C766.991 168.86 762.319 166.73 762.986 163.079C763.358 160.943 761.932 158.923 759.723 158.758L755.373 158.497C752.267 158.32 749.478 160.357 748.75 163.386L747.366 169.1C746.782 171.648 744.686 173.555 742.125 173.938L727.172 176.308C724.265 176.755 721.886 179.142 721.712 182.04C721.536 185.145 719.086 187.67 715.973 187.976L706.634 188.966C704.905 189.151 703.374 190.03 702.251 191.397L665.191 238.374C663.156 240.904 659.825 242.106 656.727 241.239C653.215 240.298 649.536 241.702 647.564 244.716L625.306 279.172C624.039 281.089 623.664 283.432 624.259 285.649L624.72 287.45C625.51 290.567 624.433 293.868 621.921 295.908L585.839 325.222C582.698 327.806 582.433 332.498 585.229 335.433L587.822 338.089C588.504 338.788 589.329 339.143 590.296 339.155L590.503 339.158C593.75 339.198 595.357 343.361 592.844 345.401C591.728 346.285 590.206 346.404 588.971 345.767L577.371 339.548C576.754 339.195 575.996 339.047 575.303 339.177L555.306 341.622C552.469 342.002 549.961 343.628 548.548 346.165L541.413 358.92C539.434 362.486 535.403 364.369 531.405 363.698L527.681 363.1C523.269 362.355 518.886 364.786 517.177 368.908L514.328 375.778C512.406 380.38 514.275 385.651 518.667 388.053L525.394 391.657C526.216 392.151 527.181 392.37 528.149 392.313L531.327 392.283C536.234 392.205 539.132 398.041 535.84 401.729C534.369 403.368 532.08 404.03 530.016 403.383L517.488 399.638C512.669 398.197 507.591 401.035 506.218 405.851L504.773 411.012C504.194 413.145 505.893 415.376 508.107 415.127C513.503 414.572 516.602 420.963 512.892 424.852L507.993 429.97C506.243 431.813 507.172 434.863 509.653 435.377C511.859 435.818 512.932 438.386 511.734 440.305L506.945 447.703C504.198 451.95 504.475 457.477 507.673 461.452L513.661 468.845C518.493 474.774 526.974 476.191 533.38 472.127L544.452 465.152C545.287 464.61 546.191 464.138 547.163 463.805L565.697 456.784C567.501 456.116 568.697 454.404 568.721 452.471C568.777 447.915 574.742 446.055 577.251 449.884C579.761 453.643 580.394 458.277 579.167 462.543L576.86 470.317C576.355 472.037 576.885 473.908 578.182 475.167L584.125 480.626C584.74 481.186 585.007 481.949 584.997 482.708L584.022 511.351C583.927 513.421 584.592 515.5 585.885 517.104L590.985 523.727C592.957 526.237 593.399 529.626 592.188 532.58L588.91 540.618C588.127 542.541 588.03 544.75 588.697 546.691L591.226 554.525C592.357 557.991 595.367 560.445 599.025 560.767L603.994 561.173C608.411 561.573 612.454 558.654 613.475 554.317L614.714 549.085C615.878 544.335 620.613 541.355 625.368 542.381L627.228 542.818C630.88 543.622 634.63 542.081 636.671 538.999L651.249 516.67C652.375 514.958 652.884 512.961 652.701 510.957L650.207 483.583C650.089 481.994 651.005 480.486 652.464 479.883L666.49 474.187C667.531 473.786 668.635 473.937 669.664 474.502C671.448 475.491 673.736 474.898 674.725 473.115L675.855 471.127C677.128 468.795 675.574 465.945 672.951 465.705L657.351 464.545C656.385 464.465 655.492 464.039 654.879 463.341L652.562 460.758C650.858 458.872 651.586 455.843 654.016 454.907L659.777 452.768C660.887 452.368 662.129 452.521 663.088 453.155L673.847 460.33C674.738 460.894 675.772 461.114 676.811 460.85L684.228 458.871C686.169 458.342 687.299 456.423 686.839 454.484L682.113 434.402C681.587 432.186 679.253 430.983 677.17 431.855L666.683 436.213C663.072 437.688 659.949 433.299 662.54 430.431L664.922 427.768C665.553 427.016 665.911 426.054 665.854 425.087L664.397 403.181C664.278 401.66 665.538 400.364 667.057 400.382L667.126 400.383C668.853 400.405 670.116 398.901 669.86 397.241C669.021 392.397 667.544 383.403 666.832 379.527C666.638 378.42 667.205 377.253 668.179 376.713L701.439 357.722C701.787 357.519 702.135 357.247 702.347 356.905L722.262 327.53C723.248 326.023 723.685 324.233 723.5 322.435L722.26 310.958C722.077 309.023 722.584 307.096 723.778 305.522L730.027 297.452C731.571 295.469 734.004 294.325 736.489 294.494L757.27 295.717C759.893 295.888 762.224 297.367 763.44 299.591L767.225 306.336C768.644 308.908 768.467 312.082 766.78 314.409L733.527 360.812C732.754 361.907 731.637 362.791 730.387 363.328L723.163 366.483C720.314 367.76 718.482 370.637 718.582 373.746L720.976 431.568C721.036 432.328 721.373 433.023 721.919 433.513L743.253 451.522C743.867 452.082 744.694 452.299 745.525 452.102L774.61 446.662C775.165 446.531 775.651 446.261 776.07 445.921L792.792 429.004C793.351 428.458 794.115 428.122 794.943 428.202L817.103 429.649C818.346 429.734 819.371 430.644 819.632 431.89L820.277 435.627C820.471 436.665 821.221 437.503 822.253 437.792L828.589 439.458C831.964 440.328 832.807 444.758 829.949 446.794L816.704 456.366C815.937 456.909 814.897 457.241 813.93 457.16L785.148 454.871C784.665 454.865 784.181 454.928 783.764 455.13L750.262 471.356C749.081 471.894 748.512 473.199 748.773 474.445L752.45 489.957C752.712 491.134 753.321 492.177 754.139 493.016L763.356 501.968C764.927 503.437 765.59 505.655 765.081 507.72L761.713 523.076C760.834 527.139 756.317 529.223 752.611 527.175L751.102 526.328C750.141 525.833 749.321 525.063 748.781 524.09L740.113 509.828C738.083 506.42 733.392 505.809 730.526 508.536L715.986 522.234C715.427 522.711 715.211 523.468 715.271 524.159L717.31 549.248C717.488 551.598 718.428 553.819 719.855 555.77C725.428 563.227 720.944 573.874 711.739 575.141L704.957 576.093C701.773 576.537 698.92 578.159 697.024 580.69L695.9 582.126C691.969 587.187 684.7 588.34 679.426 584.684L675.247 581.802C672.164 579.692 668.302 579.092 664.765 580.222L634.874 589.381C634.111 589.648 633.481 590.262 633.265 591.018L631.744 596.661C631.526 597.487 630.897 598.101 630.065 598.367L601.365 606.16C600.326 606.423 599.226 605.995 598.684 605.091L591.17 592.569C590.967 592.222 590.835 591.737 590.84 591.323L590.959 581.726C590.983 579.724 588.717 578.592 587.113 579.815L577.974 586.952C577.416 587.428 576.654 587.557 575.965 587.41L566.804 585.156C565.839 584.937 564.87 585.063 564.036 585.536L558.887 588.442C555.547 590.334 551.862 586.629 553.769 583.269C555.041 581.006 553.557 578.088 551.005 577.711L542.384 576.5C540.936 576.275 539.705 575.224 539.239 573.837L534.47 557.207C534.139 556.029 534.362 554.789 535.133 553.901L547.982 537.212C548.474 536.597 549.17 536.122 549.934 535.855L560.195 532.944C563.176 532.083 563.915 528.226 561.451 526.331L554.538 521.067C552.964 519.874 552.577 517.659 553.634 516.015L559.409 507.111C559.902 506.357 560.12 505.462 559.993 504.563L558.856 495.918C558.54 493.567 556.209 492.088 553.92 492.819L526.656 501.872C525.2 502.338 524.216 503.637 524.059 505.154L521.129 540.954C521.047 542.057 521.448 543.098 522.199 543.867L524.45 546.173C525.269 547.012 525.668 548.26 525.446 549.431L520.072 581.817C519.921 582.85 519.357 583.741 518.521 584.283L506.535 592.628C505.699 593.17 504.662 593.226 503.84 592.594L494.525 586.058C493.292 585.214 491.559 585.676 490.989 587.05L489.497 590.415C488.786 592.063 486.572 592.312 485.483 590.917L483.239 588.059C482.763 587.432 482.007 587.077 481.247 587.137L462.926 588.084C461.82 588.139 460.912 588.957 460.692 589.99L457.001 609.07C456.56 611.205 453.79 611.723 452.639 609.845L448.44 603.026C447.492 601.495 445.28 601.537 444.363 603.045L433.777 621.073C433.001 622.376 433.671 624.041 435.116 624.542C437.731 625.403 437.062 629.192 434.368 629.159L425.111 629.045C424.766 629.04 424.42 629.105 424.142 629.24L380.382 648.101C379.757 648.37 379.134 648.5 378.511 648.561L357.976 649.826C354.518 650.06 351.853 653.272 352.71 656.666C353.761 661.029 349.569 664.775 345.304 663.272L332.718 658.697C330.792 657.983 329.431 656.309 329.109 654.372L328.34 649.529C327.953 647.315 326.317 645.499 324.113 644.989L321.908 644.478C318.533 643.677 315.186 646.121 315.004 649.64L314 669.445C313.814 673.309 309.776 675.814 306.201 674.32L297.404 670.62C295.892 669.98 294.664 668.653 294.2 667.059L292.21 660.406C291.479 658.049 289.288 656.434 286.801 656.404L261.513 656.574C258.61 656.607 256.234 658.788 255.992 661.615L254.411 677.753C254.176 679.96 255.324 682.114 257.246 683.174L290.522 701.952C293.678 703.717 294.317 707.937 291.935 710.6L284.576 719.071C282.895 720.914 282.654 723.604 283.94 725.761L297.076 747.397C298.092 749.067 298.136 751.069 297.285 752.854L278.727 789.772C273.627 799.928 261.549 804.543 250.96 800.407L228.132 791.494C227.926 791.423 227.651 791.281 227.445 791.21L156.216 751.939C152.853 750.102 148.847 749.983 145.441 751.667L123.269 762.372C118.96 764.459 116.348 768.984 116.703 773.752L117.694 788.61C118.166 795.106 113.192 800.706 106.692 801.109L64.7248 803.56C61.959 803.732 59.3886 804.875 57.3623 806.714L20.4524 841.54C17.5161 844.335 16.2215 848.462 17.0018 852.407L21.7586 875.597C22.0861 877.051 21.9283 878.637 21.2895 880.01L19.2973 884.681C18.0171 887.634 15.0936 889.393 11.9177 889.216L10.6061 889.13C4.25592 888.638 0.297877 895.839 4.03405 900.994L8.519 907.057C10.2178 909.357 13.1728 910.636 15.9445 909.98C21.9024 908.672 26.8035 914.602 24.4548 920.166L14.6359 943.175C10.225 953.478 15.121 965.415 25.5706 969.618L54.5128 981.299C57.5378 982.51 61.0029 981.655 63.0377 979.126L72.5767 967.575C73.6982 966.277 74.2713 964.627 74.2926 962.901L74.3336 959.587C74.4104 953.374 81.6382 949.942 86.495 953.868L93.6774 959.688C96.1395 961.721 99.5917 961.902 102.306 960.278L114.212 952.899C117.832 950.665 122.515 951.897 124.612 955.514L131.442 967.474C133.133 970.395 136.569 971.888 139.828 970.961L162.773 964.754C164.922 964.16 167.197 964.602 169.047 965.868L194.731 983.999C196.169 985.053 198.032 985.283 199.696 984.751L251.305 968.058C253.317 967.393 254.789 965.685 255.091 963.617L260.938 926.542C261.164 925.095 261.94 923.793 263.125 922.91L307.957 889.976C308.863 889.297 309.973 888.965 311.079 888.91L332.922 888.075C335.479 887.969 337.845 886.617 339.253 884.494L344.253 876.822C345.097 875.59 345.53 874.145 345.549 872.627L345.91 843.424C345.96 839.351 349.111 835.937 353.191 835.643L375.942 833.991C377.602 833.873 379.254 834.308 380.626 835.153L415.252 856.503C417.926 858.124 421.313 858.028 423.891 856.264L440.406 844.869C442.288 843.58 444.572 843.194 446.777 843.704L464.411 847.996C467.786 848.797 471.329 847.253 472.888 844.096L473.029 843.891C475.649 838.745 482.704 838.072 486.31 842.605C487.942 844.697 489.506 846.718 490.663 848.114C491.751 849.508 492.352 851.242 492.33 853.037L492.112 870.641C492.092 872.229 492.557 873.754 493.439 875.076L505.299 888.135C528.27 913.414 554.038 935.897 582.126 955.232L594.8 963.951C595.967 964.517 596.923 965.496 597.391 966.745L604.131 985.954C604.532 987.064 604.518 988.237 604.089 989.337L597.025 1007.48C595.098 1012.49 601.543 1016.51 605.184 1012.55L627.104 988.724C628.644 987.086 628.813 984.602 627.593 982.723L615.518 964.621C614.501 963.089 614.319 961.016 615.237 959.439C616.649 956.971 619.698 956.249 622.03 957.659L647.125 973.159C649.868 974.851 653.478 973.445 654.345 970.349L654.563 969.454C655.071 967.527 654.406 965.447 652.831 964.254L607.516 930.137C605.6 928.663 605.01 926.032 606.142 923.905L606.708 922.808C608.405 919.652 606.243 915.759 602.582 915.645L585.525 915.02C583.799 914.929 582.29 914.013 581.479 912.553L545.046 847.336C542.546 842.817 542.891 837.229 546.052 833.056L556.519 819.099C560.734 813.49 568.626 812.206 574.45 816.145L580.546 820.363C584.314 822.965 586.471 827.341 586.206 831.964L584.462 861.288C584.193 866.256 586.691 870.982 591.082 873.453L673.271 920.454C675.26 921.584 676.199 923.874 675.55 926.075L664.524 962.948C664.019 964.668 664.479 966.538 665.776 967.797L691.368 993.454C692.869 994.992 693.811 997.006 693.991 999.217L695.573 1022.16C695.86 1026.86 699.753 1030.5 704.45 1030.56L743.549 1031.04C744.585 1031.05 745.617 1031.41 746.508 1032.04L756.978 1040.18C759.578 1042.22 763.461 1041.09 764.605 1037.93L767.828 1028.72C768.472 1026.93 767.944 1024.92 766.579 1023.59L741.04 999.247C740.084 998.337 739.548 997.019 739.565 995.638L739.792 977.274C739.83 974.237 742.552 971.992 745.516 972.512L759.718 975.035C762.406 975.551 764.986 973.65 765.364 970.962L767.102 958.969C767.405 956.763 769.223 955.06 771.437 954.811L791.153 952.707C797.933 951.962 804.235 956.321 805.95 962.902L811.297 983.061C812.287 986.801 814.805 989.94 818.168 991.707L821.326 993.404C828.807 997.363 830.968 1007.06 825.978 1013.83L817.547 1025.19C812.559 1031.89 814.652 1041.45 821.994 1045.47L867.078 1070.4C871.058 1072.59 875.824 1072.72 879.856 1070.7L922.744 1049.69C927.054 1047.53 932.232 1047.87 936.276 1050.48L966.232 1069.56C971.442 1072.87 978.217 1072.54 983.101 1068.66L1009.62 1047.45C1014.36 1043.64 1021 1043.24 1026.21 1046.34L1037.6 1053.25C1045.34 1057.97 1055.48 1054.44 1058.69 1045.91L1065.05 1029.08C1066.62 1024.81 1070.11 1021.61 1074.48 1020.29L1177 992.596L1275 976.596L1315.5 494.095L1275 15.5948ZM1105.47 894.174L1096.8 902.422C1091.91 907.057 1084.51 907.725 1078.89 904.065L1075.26 901.672C1070.73 898.716 1065 898.507 1060.27 901.142L1054.64 904.248C1050.74 906.41 1046.04 906.697 1041.92 904.919L993.738 884.507C990.026 882.942 985.88 882.96 982.199 884.572L944.13 901.363C941.907 902.371 939.885 903.865 938.342 905.71L922.562 924.71C920.669 926.966 918.23 928.662 915.523 929.595L905.394 933.06C902.132 934.193 898.539 934.218 895.236 933.142L862.139 922.237C860.144 921.591 858.223 920.463 856.651 919.062L849.68 912.969C844.007 907.996 842.658 899.694 846.401 893.181L850.144 886.599C850.356 886.187 850.775 885.847 851.192 885.645L860.02 881.335C860.993 880.864 861.558 879.835 861.364 878.797L857.86 854.794C857.796 854.448 857.869 854.104 857.942 853.759L859.962 846.88C860.683 844.403 864.274 844.585 864.726 847.146C865.049 848.945 867.112 849.73 868.576 848.643L875.548 843.551C876.176 843.075 876.6 842.321 876.541 841.492L875.655 818.143C875.602 816.83 876.583 815.738 877.828 815.615L885.37 814.742C886.199 814.683 886.897 814.139 887.251 813.453L894.684 799.045C896.737 794.997 900.64 792.283 905.138 791.717L926.245 788.871C928.252 788.619 929.676 790.778 928.687 792.492L924.663 799.485C923.605 801.267 925.166 803.496 927.174 803.106L946.905 799.829C948.151 799.637 949.317 800.342 949.648 801.52L951.042 806.163C951.441 807.411 950.733 808.783 949.484 809.182L938.246 812.91C936.927 813.377 936.219 814.818 936.755 816.136L938.698 821.063C938.966 821.688 939.444 822.177 940.131 822.461L951.686 826.678C952.443 826.964 952.987 827.592 953.185 828.354L957.016 842.625C957.28 843.664 958.237 844.435 959.343 844.449L964.938 844.518C965.836 844.529 966.741 843.988 967.166 843.165L972.828 832.187C973.254 831.295 974.227 830.823 975.194 830.835L983.892 831.426C985.135 831.511 986.181 830.695 986.473 829.456L987.871 822.568C988.093 821.397 989.139 820.582 990.382 820.597L1004.4 821.254C1006.47 821.348 1007.74 818.947 1006.45 817.343L1005.09 815.669C1004.55 814.972 1003.72 814.617 1002.89 814.745L979.918 817.568C979.157 817.696 978.331 817.41 977.855 816.783L969.945 808.33C967.013 805.187 967.627 800.223 971.18 797.85L985.39 788.497C985.739 788.225 986.224 788.093 986.708 788.099L1002.74 787.676C1003.92 787.622 1004.96 786.944 1005.39 785.845L1010.66 772.791C1010.95 772.173 1011.37 771.626 1012 771.288L1040.44 756.035C1042.11 755.158 1044.17 756.081 1044.63 757.882L1045.82 762.592C1046.15 763.839 1045.58 765.144 1044.53 765.822L1032.14 773.471C1029.84 774.892 1030.56 778.423 1033.18 778.869C1034.01 779.018 1034.69 779.44 1035.17 780.137L1037.27 783.408C1038.02 784.522 1037.86 786.039 1036.95 786.994L1030.51 793.819C1030.23 794.092 1030.09 794.436 1029.94 794.779L1024.19 813.144C1023.9 814.176 1022.93 814.854 1021.82 814.84L1016.85 814.779C1015.33 814.76 1014.14 816.126 1014.39 817.58L1015.03 821.592C1015.16 822.492 1015.78 823.189 1016.6 823.545L1042.67 833.189C1044.93 834.045 1047.49 834.215 1049.85 833.623L1051.3 833.295C1055.04 832.375 1059.04 833.322 1062.05 835.776L1072.99 844.749C1073.95 845.521 1074.77 846.428 1075.45 847.403L1076.87 849.561C1079.18 852.973 1082.95 855.022 1087.03 855.073L1094.28 855.162C1100.01 855.233 1104.94 859.161 1106.25 864.701L1110 880.352C1110.83 885.334 1109.25 890.631 1105.47 894.174Z" fill="black" fill-opacity="0.05"/>
<path d="M246.895 529.777C247.512 530.13 248.273 530.07 248.763 529.593L258.546 520.6C266.792 513.037 271.143 502.043 270.314 490.848L270.019 486.77C269.961 485.872 270.662 485.052 271.629 485.064L283.511 485.211C284.34 485.221 285.108 484.54 285.118 483.712L285.982 464.113C285.989 463.561 285.72 463.005 285.239 462.723L253.776 442.586C251.583 441.178 248.603 441.901 247.331 444.233L244.715 449.034C243.866 450.611 243.982 452.477 245.07 453.871C247.447 457.146 244.697 461.669 240.697 461.067L233.18 459.939C232.077 459.787 231.047 459.291 230.157 458.589L223.796 453.401C220.718 450.877 216.077 451.856 214.375 455.425L205.376 473.611C203.675 477.043 205.49 481.139 209.069 482.219C213.887 483.728 214.983 490.094 210.869 493.082L186.466 511.008C183.538 513.182 183.071 517.388 185.525 520.111L194.521 530.096C196.225 531.981 198.911 532.636 201.272 531.698L229.941 520.798C230.358 520.596 230.91 520.672 231.322 520.884L246.895 529.777Z" fill="black" fill-opacity="0.05"/>
<path d="M264.24 546.217L284.893 540.949C287.319 540.358 288.8 537.89 288.278 535.467L284.344 518.364C284.146 517.602 284.64 516.779 285.403 516.512L303.651 510.248C312.255 507.247 315.7 496.863 310.542 489.342L302.194 477.225C298.732 472.211 298.952 465.585 302.742 460.799L307.374 454.987C310.883 450.542 311.374 444.403 308.533 439.466L303.73 431.189C300.551 425.695 301.534 418.803 306.011 414.37L339.508 381.711C341.746 379.529 344.934 378.74 347.895 379.536L352.44 380.766C359.807 382.79 361.205 392.681 354.662 396.605C348.327 400.462 349.384 410.004 356.471 412.37L369.2 416.601C376.081 418.896 377.349 428.095 371.358 432.095L343.28 451.081C338.542 454.267 338.112 461.167 342.487 464.88L352.399 473.496C354.518 475.317 355.591 477.954 355.419 480.714L354.091 498.719C354.087 498.995 354.084 499.271 354.219 499.48L370.088 534.752C370.962 536.765 370.726 539.041 369.392 540.82L365.458 546.019C362.368 550.123 365.474 555.893 370.59 555.611C373.08 555.434 375.411 556.844 376.489 559.136L379.445 565.87C380.655 568.578 379.649 571.742 377.143 573.299L360.223 583.861C357.16 585.757 356.486 589.96 358.801 592.751L360.026 594.216C362.954 597.704 361.021 603.135 356.521 603.908L339.834 606.878C338.38 607.136 336.863 606.841 335.56 606.066L314.719 592.965C314.376 592.754 313.893 592.679 313.478 592.743L298.852 596.636C297.604 596.965 296.225 596.741 295.129 596.037L281.079 586.818C280.188 586.255 279.155 585.966 278.117 586.091L253.701 588.344C248.79 588.767 246.728 582.32 250.905 579.817L269.21 568.926C270.324 568.25 271.569 568.127 272.808 568.487L286.784 572.458C288.092 572.819 289.476 572.629 290.591 571.884C294.005 569.578 292.964 564.318 288.898 563.508L264.497 558.925C262.292 558.484 260.726 556.6 260.754 554.322L260.799 550.663C260.757 548.522 262.23 546.745 264.24 546.217Z" fill="black" fill-opacity="0.05"/>
<path d="M563.731 548.66L561.783 560.927C561.633 561.891 562.174 562.865 563.137 563.222L578.546 568.591C580.06 569.093 581.597 567.731 581.271 566.139L578.317 553.605C578.251 553.328 578.255 553.052 578.328 552.707L579.509 546.577C579.95 544.442 577.133 543.164 575.799 544.943L572.218 549.594C571.375 550.688 569.786 550.668 568.97 549.623L567.405 547.67C566.317 546.276 564.03 546.869 563.731 548.66Z" fill="black" fill-opacity="0.05"/>
<path d="M468.071 876.074L463.554 878.227C461.26 879.304 459.781 881.633 459.749 884.187L459.685 889.365C459.671 890.539 459.381 891.64 458.816 892.6C457.262 895.342 457.773 898.732 460.095 900.901L464.398 904.89C466.994 907.27 471.071 907.251 473.658 904.728L479.463 899.069C481.281 897.296 481.935 894.681 481.205 892.255L477.418 880.056C476.222 876.174 471.755 874.255 468.071 876.074Z" fill="black" fill-opacity="0.05"/>
<path d="M449.014 919.821L465.983 916.441C469.03 915.857 472.052 917.344 473.398 920.192L480.197 934.707C481.275 936.93 480.966 939.549 479.491 941.534L466.984 958.434C466.14 959.597 465.71 960.904 465.692 962.353L465.669 964.217C465.625 967.738 462.825 970.673 459.3 970.836L449.345 971.335C445.957 971.5 443.015 969.185 442.434 965.863L440.814 957.212C440.492 955.344 440.93 953.416 442.054 951.911L446.058 946.575C447.322 944.933 447.694 942.798 447.165 940.858L443.801 927.973C442.878 924.371 445.205 920.603 449.014 919.821Z" fill="black" fill-opacity="0.05"/>
<path d="M527.72 1008.14L528.487 1007.6C531.135 1005.76 534.589 1005.81 537.192 1007.63L543.699 1012.2C545.137 1013.19 546.789 1013.69 548.518 1013.57L572.372 1012.14C577.834 1011.8 581.844 1017.16 579.984 1022.32L578.266 1027.13C577.765 1028.57 577.676 1030.16 578.072 1031.69L580.646 1041.38C581.966 1046.37 578.037 1051.23 572.859 1050.95L570.857 1050.86C569.13 1050.77 567.481 1050.06 566.182 1048.94L551.56 1035.78C551.218 1035.5 550.876 1035.22 550.465 1034.93L527.976 1020.99C523.453 1017.96 523.26 1011.26 527.72 1008.14Z" fill="black" fill-opacity="0.05"/>
<path d="M328.919 926.829L336.26 925.401C337.922 925.076 339.501 925.924 340.173 927.452L341.651 930.853C342.122 931.895 342.039 932.998 341.542 934.028L339.068 938.555C337.937 940.681 335.099 941.06 333.394 939.313L327.049 932.813C325.07 930.786 326.149 927.347 328.919 926.829Z" fill="black" fill-opacity="0.05"/>
<path d="M354.21 932.044C355.076 934.679 358.521 935.412 360.344 933.294C361.816 931.586 361.296 928.956 359.375 927.827C356.492 926.272 353.212 928.994 354.21 932.044Z" fill="black" fill-opacity="0.05"/>
<path d="M713.639 1036.19L737.699 1034.83C738.667 1034.78 739.562 1034.99 740.384 1035.56L751.83 1043.02C753.338 1044 754.076 1045.74 753.779 1047.46L751.179 1062.13C750.584 1065.58 746.421 1066.98 743.825 1064.6L741.229 1062.22C738.838 1060.05 735.026 1061.04 734.02 1064.13C732.871 1067.71 728.027 1068.34 726.063 1065.07L721.458 1057.56C720.374 1055.82 718.242 1055.03 716.23 1055.7L715.606 1055.9C712.761 1056.9 709.816 1054.79 709.784 1051.82L709.576 1040.7C709.399 1038.28 711.219 1036.3 713.639 1036.19Z" fill="black" fill-opacity="0.05"/>
<path d="M759.444 1008.38L765.525 1013.84C767.985 1016.01 771.812 1013.85 771.23 1010.67L770.322 1005.82C770.064 1004.37 768.834 1003.25 767.317 1003.02L762.143 1002.41C758.832 1001.95 756.915 1006.14 759.444 1008.38Z" fill="black" fill-opacity="0.05"/>
<path d="M904.617 1090.82L912.729 1088.51C913.839 1088.17 914.681 1087.15 914.695 1085.98L914.733 1082.87C914.754 1081.21 916.29 1079.92 917.944 1080.28L924.973 1081.68C925.525 1081.76 926.079 1081.7 926.634 1081.5L939.21 1075.78C941.78 1074.64 944.16 1077.71 942.406 1079.9L938.687 1084.55C937.704 1085.78 938.027 1087.64 939.329 1088.49C941.454 1089.83 940.723 1093.13 938.232 1093.38L932.766 1094C931.175 1094.19 930.12 1095.69 930.447 1097.22L931.558 1102.34C931.95 1104.14 930.409 1105.85 928.616 1105.55L910.751 1103.19C910.061 1103.11 909.444 1102.76 909.036 1102.2L903.322 1095.02C902.027 1093.55 902.745 1091.35 904.617 1090.82Z" fill="black" fill-opacity="0.05"/>
<path d="M767.78 1099.63L784.031 1104.04C784.788 1104.25 785.617 1104.27 786.381 1104L805.31 1098.5C806.974 1098.04 808.764 1098.54 809.922 1099.87L811.557 1101.75C812.374 1102.73 813.61 1103.3 814.854 1103.31L818.722 1103.36C822.176 1103.41 824.271 1107.23 822.369 1110.17L820.889 1112.5C820.114 1113.74 818.723 1114.48 817.271 1114.53L802.343 1114.97L786.446 1115.46C785.963 1115.46 785.548 1115.45 785.135 1115.31L764.894 1109.6C762.415 1108.88 761.066 1106.24 761.925 1103.83L762.426 1102.46C763.283 1100.19 765.578 1098.98 767.78 1099.63Z" fill="black" fill-opacity="0.05"/>
<path d="M1274.5 15.5959L1192.02 53.8899C1191.01 54.3597 1190.04 54.9133 1189.12 55.5449L1112.43 108.226C1106.44 112.295 1098.49 112.335 1092.46 108.255L1076.7 97.7034C1071.9 94.4679 1065.69 94.1149 1060.55 96.7441L1015.01 119.795C1009.44 122.626 1005.31 127.547 1003.58 133.463L1002.28 137.797C1001.48 140.549 1003.59 143.268 1006.5 143.097C1012.93 142.762 1017.26 149.652 1014.15 155.275L992.102 195.326C990.052 199.098 989.721 203.513 991.26 207.537L992.063 209.687C993.937 214.613 989.247 219.526 984.294 217.808L976.932 215.3C971.841 213.58 969.357 207.75 971.697 202.876L975.526 194.914C976.589 192.787 976.827 190.304 976.095 188.016C974.833 183.927 970.858 181.323 966.569 181.753L956.055 182.728C949.484 183.337 945.802 190.611 949.047 196.313L974.211 239.778C976.782 244.229 972.364 249.491 967.55 247.706L956.201 243.561C950.492 241.488 944.432 245.486 944.15 251.559L943.973 254.664C943.873 257.218 942.599 259.618 940.576 261.251L934.505 266.078C931.016 268.866 930.126 273.826 932.427 277.721L939.669 289.894C941.09 292.259 938.156 294.916 935.966 293.231C935.349 292.81 934.661 292.594 933.9 292.654L911.677 296.315C906.416 297.147 904.058 303.47 907.462 307.586L908.823 309.191C912.84 314.005 908.881 321.275 902.674 320.439L889.429 318.756C882.876 317.915 877.761 312.536 877.359 305.902L876.271 287.798C875.985 282.961 873.137 278.576 868.812 276.382L852.542 267.964C849.109 266.196 850.763 260.969 854.625 261.5L898.56 267.567C907.044 268.707 915.574 266.12 921.932 260.399L922.352 259.99C927.242 255.631 929.808 249.241 929.406 242.677L928.533 229.409C928.074 221.808 923.53 214.985 916.662 211.655L879.169 193.032C873.675 190.34 867.469 189.435 861.444 190.534L841.778 194.158C837.969 194.87 835.118 190.761 837.025 187.402C838.437 185.002 837.438 181.952 834.895 180.885L830.291 178.895C828.848 178.255 827.187 178.442 825.933 179.324L817.081 185.567C816.036 186.313 814.789 186.574 813.549 186.283L805.211 184.523C801.283 183.714 800.31 178.593 803.584 176.355L806.441 174.388C808.741 172.828 809.125 169.657 807.217 167.562L802.036 161.905C801.491 161.277 800.736 160.853 799.911 160.567L780.702 155.082C779.326 154.65 777.799 155.184 776.888 156.277L769.307 165.919C766.991 168.86 762.319 166.73 762.986 163.079C763.358 160.943 761.932 158.923 759.723 158.758L755.374 158.497C752.267 158.32 749.478 160.357 748.75 163.386L747.366 169.1C746.782 171.648 744.686 173.555 742.125 173.938L727.172 176.308C724.265 176.755 721.886 179.142 721.712 182.04C721.536 185.145 719.086 187.67 715.973 187.976L706.634 188.966C704.905 189.151 703.374 190.03 702.251 191.397L665.191 238.374C663.156 240.904 659.825 242.106 656.727 241.239C653.215 240.298 649.536 241.702 647.564 244.716L625.306 279.171C624.039 281.089 623.664 283.432 624.259 285.649L624.72 287.45C625.51 290.567 624.433 293.868 621.921 295.908L585.839 325.221C582.698 327.806 582.433 332.498 585.229 335.433L587.822 338.089C588.504 338.788 589.329 339.143 590.296 339.155L590.503 339.158C593.75 339.198 595.357 343.36 592.844 345.401C591.728 346.285 590.206 346.404 588.971 345.767L577.371 339.548C576.754 339.195 575.996 339.047 575.303 339.177L555.306 341.622C552.469 342.002 549.962 343.628 548.548 346.165L541.413 358.92C539.434 362.486 535.404 364.369 531.405 363.698L527.681 363.1C523.269 362.355 518.886 364.786 517.177 368.908L514.328 375.778C512.406 380.38 514.275 385.651 518.667 388.053L525.394 391.657C526.217 392.151 527.181 392.37 528.149 392.313L531.328 392.283C536.234 392.205 539.133 398.041 535.84 401.729C534.369 403.368 532.08 404.03 530.016 403.383L517.488 399.638C512.669 398.197 507.591 401.035 506.219 405.851L504.773 411.012C504.194 413.145 505.893 415.375 508.107 415.127C513.503 414.572 516.602 420.963 512.893 424.852L507.993 429.97C506.243 431.813 507.173 434.863 509.653 435.377C511.859 435.818 512.932 438.386 511.734 440.305L506.945 447.703C504.198 451.95 504.475 457.477 507.673 461.452L513.661 468.845C518.493 474.774 526.974 476.191 533.38 472.127L544.452 465.152C545.288 464.61 546.192 464.138 547.163 463.805L565.697 456.784C567.501 456.116 568.697 454.404 568.721 452.471C568.777 447.915 574.742 446.055 577.251 449.884C579.761 453.643 580.394 458.277 579.167 462.543L576.86 470.317C576.355 472.037 576.885 473.908 578.182 475.167L584.125 480.626C584.74 481.186 585.007 481.949 584.997 482.708L584.022 511.35C583.927 513.421 584.592 515.5 585.885 517.104L590.985 523.727C592.957 526.237 593.399 529.626 592.188 532.58L588.911 540.618C588.127 542.542 588.03 544.75 588.697 546.692L591.226 554.525C592.357 557.991 595.367 560.445 599.025 560.767L603.994 561.173C608.411 561.573 612.454 558.654 613.475 554.317L614.714 549.085C615.879 544.335 620.613 541.355 625.368 542.381L627.228 542.818C630.88 543.623 634.63 542.081 636.671 538.999L651.249 516.67C652.376 514.957 652.884 512.961 652.701 510.957L650.207 483.583C650.089 481.994 651.005 480.486 652.464 479.883L666.49 474.187C667.532 473.786 668.635 473.937 669.664 474.502C671.449 475.491 673.736 474.898 674.725 473.115L675.855 471.127C677.128 468.795 675.574 465.945 672.951 465.705L657.352 464.545C656.385 464.464 655.492 464.039 654.879 463.341L652.562 460.758C650.858 458.872 651.586 455.843 654.016 454.907L659.777 452.768C660.887 452.368 662.129 452.521 663.089 453.154L673.847 460.33C674.738 460.894 675.772 461.114 676.811 460.85L684.228 458.871C686.169 458.342 687.299 456.423 686.839 454.484L682.113 434.402C681.587 432.186 679.253 430.983 677.17 431.855L666.683 436.213C663.073 437.688 659.949 433.299 662.54 430.431L664.922 427.768C665.554 427.016 665.911 426.054 665.854 425.086L664.397 403.18C664.278 401.66 665.538 400.364 667.057 400.382L667.126 400.383C668.853 400.405 670.116 398.901 669.86 397.241C669.022 392.397 667.544 383.403 666.832 379.527C666.638 378.42 667.205 377.253 668.179 376.713L701.439 357.722C701.787 357.519 702.135 357.247 702.347 356.905L722.262 327.53C723.248 326.023 723.685 324.233 723.5 322.435L722.26 310.958C722.077 309.023 722.584 307.096 723.778 305.522L730.027 297.452C731.571 295.469 734.004 294.325 736.489 294.494L757.27 295.717C759.893 295.888 762.224 297.367 763.44 299.591L767.225 306.336C768.644 308.908 768.467 312.082 766.78 314.409L733.527 360.812C732.754 361.907 731.637 362.791 730.387 363.327L723.163 366.483C720.314 367.76 718.482 370.637 718.582 373.746L720.976 431.568C721.036 432.328 721.373 433.023 721.919 433.513L743.253 451.522C743.867 452.082 744.694 452.299 745.525 452.102L774.61 446.662C775.165 446.531 775.652 446.261 776.07 445.92L792.792 429.003C793.351 428.458 794.115 428.122 794.943 428.202L817.103 429.649C818.346 429.734 819.371 430.644 819.632 431.89L820.277 435.627C820.471 436.665 821.221 437.503 822.253 437.792L828.589 439.458C831.964 440.328 832.807 444.758 829.949 446.794L816.704 456.366C815.937 456.909 814.897 457.241 813.931 457.16L785.149 454.871C784.665 454.865 784.181 454.928 783.764 455.13L750.262 471.356C749.081 471.894 748.512 473.199 748.773 474.445L752.45 489.957C752.712 491.134 753.321 492.177 754.139 493.016L763.356 501.968C764.927 503.437 765.59 505.655 765.081 507.72L761.713 523.076C760.834 527.139 756.317 529.224 752.612 527.175L751.102 526.328C750.141 525.833 749.321 525.063 748.781 524.09L740.114 509.828C738.083 506.42 733.392 505.809 730.526 508.536L715.986 522.234C715.428 522.711 715.211 523.468 715.271 524.159L717.31 549.248C717.489 551.598 718.428 553.819 719.855 555.77C725.428 563.227 720.944 573.874 711.739 575.141L704.957 576.093C701.773 576.537 698.92 578.159 697.024 580.69L695.901 582.126C691.969 587.187 684.7 588.34 679.426 584.684L675.247 581.802C672.164 579.692 668.302 579.092 664.765 580.222L634.874 589.381C634.111 589.648 633.481 590.262 633.265 591.018L631.744 596.661C631.527 597.487 630.897 598.101 630.065 598.367L601.365 606.16C600.326 606.423 599.226 605.995 598.684 605.091L591.17 592.569C590.967 592.222 590.835 591.737 590.84 591.323L590.959 581.726C590.983 579.724 588.717 578.592 587.113 579.815L577.974 586.952C577.416 587.428 576.654 587.557 575.965 587.41L566.804 585.156C565.839 584.937 564.871 585.063 564.036 585.536L558.887 588.442C555.547 590.334 551.862 586.629 553.769 583.269C555.041 581.006 553.557 578.088 551.005 577.711L542.384 576.5C540.936 576.275 539.705 575.224 539.239 573.837L534.47 557.207C534.139 556.029 534.362 554.789 535.133 553.901L547.983 537.212C548.474 536.597 549.171 536.122 549.934 535.855L560.195 532.944C563.177 532.083 563.915 528.226 561.451 526.331L554.538 521.067C552.964 519.874 552.577 517.659 553.634 516.015L559.409 507.11C559.902 506.357 560.12 505.462 559.993 504.563L558.857 495.918C558.54 493.566 556.209 492.088 553.92 492.819L526.656 501.872C525.2 502.338 524.216 503.637 524.059 505.154L521.13 540.954C521.047 542.057 521.449 543.098 522.199 543.867L524.45 546.173C525.269 547.012 525.668 548.26 525.446 549.431L520.072 581.817C519.921 582.85 519.357 583.741 518.521 584.283L506.535 592.628C505.699 593.17 504.662 593.226 503.841 592.594L494.525 586.058C493.292 585.214 491.559 585.676 490.989 587.05L489.497 590.415C488.786 592.063 486.572 592.312 485.483 590.917L483.239 588.059C482.763 587.432 482.007 587.077 481.247 587.137L462.926 588.084C461.82 588.139 460.912 588.957 460.692 589.99L457.001 609.07C456.56 611.205 453.791 611.723 452.639 609.845L448.44 603.026C447.492 601.495 445.28 601.537 444.363 603.045L433.777 621.073C433.001 622.376 433.671 624.041 435.116 624.542C437.731 625.403 437.062 629.192 434.368 629.159L425.111 629.045C424.766 629.04 424.42 629.105 424.142 629.24L380.382 648.101C379.757 648.37 379.134 648.5 378.511 648.561L357.976 649.826C354.519 650.06 351.853 653.272 352.71 656.666C353.761 661.029 349.569 664.775 345.304 663.272L332.718 658.697C330.792 657.983 329.431 656.309 329.109 654.372L328.34 649.529C327.953 647.315 326.317 645.499 324.113 644.989L321.908 644.478C318.533 643.677 315.186 646.121 315.005 649.64L314 669.445C313.814 673.309 309.776 675.814 306.201 674.32L297.404 670.62C295.892 669.98 294.664 668.653 294.201 667.059L292.21 660.406C291.479 658.049 289.288 656.434 286.802 656.404L261.513 656.574C258.611 656.607 256.235 658.788 255.992 661.615L254.411 677.753C254.176 679.96 255.324 682.114 257.246 683.174L290.522 701.952C293.678 703.717 294.317 707.937 291.935 710.6L284.576 719.071C282.895 720.914 282.654 723.604 283.94 725.761L297.076 747.397C298.092 749.067 298.136 751.069 297.285 752.854L278.727 789.772C273.627 799.928 261.549 804.543 250.96 800.407L228.132 791.494C227.926 791.423 227.651 791.281 227.445 791.21L156.216 751.939C152.853 750.102 148.847 749.983 145.441 751.667L123.269 762.372C118.96 764.459 116.348 768.984 116.703 773.752L117.694 788.61C118.166 795.106 113.192 800.706 106.692 801.109L64.7249 803.56C61.9591 803.732 59.3887 804.875 57.3624 806.714L20.4525 841.54C17.5162 844.335 16.2216 848.462 17.0019 852.407L21.7587 875.597C22.0862 877.051 21.9284 878.637 21.2896 880.01L19.2973 884.681C18.0172 887.634 15.0937 889.393 11.9178 889.216L10.6061 889.13C4.25601 888.638 0.297966 895.839 4.03414 900.994L8.51909 907.057C10.2179 909.357 13.1729 910.636 15.9446 909.98C21.9025 908.672 26.8036 914.602 24.4549 920.166L14.636 943.175C10.2251 953.478 15.1211 965.415 25.5707 969.618L54.5129 981.299C57.5379 982.51 61.0029 981.655 63.0378 979.126L72.5768 967.575C73.6983 966.277 74.2714 964.627 74.2927 962.901L74.3337 959.587C74.4105 953.374 81.6383 949.942 86.4951 953.868L93.6775 959.688C96.1396 961.721 99.5918 961.902 102.306 960.278L114.212 952.899C117.832 950.665 122.515 951.897 124.612 955.514L131.442 967.474C133.133 970.395 136.569 971.888 139.828 970.961L162.773 964.754C164.923 964.16 167.197 964.602 169.047 965.868L194.731 983.999C196.169 985.053 198.032 985.283 199.696 984.751L251.305 968.058C253.317 967.393 254.789 965.685 255.091 963.617L260.938 926.542C261.164 925.095 261.94 923.793 263.125 922.91L307.957 889.976C308.863 889.297 309.973 888.965 311.079 888.91L332.922 888.075C335.479 887.969 337.845 886.617 339.253 884.494L344.253 876.822C345.098 875.59 345.53 874.145 345.549 872.627L345.91 843.424C345.96 839.351 349.111 835.937 353.191 835.643L375.942 833.991C377.602 833.873 379.255 834.308 380.626 835.153L415.252 856.503C417.927 858.124 421.313 858.028 423.891 856.264L440.406 844.869C442.288 843.58 444.572 843.194 446.777 843.704L464.411 847.996C467.786 848.797 471.329 847.253 472.888 844.096L473.029 843.891C475.649 838.745 482.704 838.072 486.31 842.605C487.942 844.697 489.506 846.718 490.663 848.114C491.752 849.508 492.352 851.242 492.33 853.037L492.112 870.641C492.092 872.229 492.557 873.754 493.439 875.076L505.299 888.135C528.27 913.414 554.039 935.897 582.126 955.232L594.8 963.951C595.967 964.517 596.923 965.496 597.391 966.745L604.131 985.954C604.532 987.064 604.518 988.237 604.089 989.337L597.025 1007.48C595.098 1012.49 601.543 1016.51 605.184 1012.55L627.104 988.724C628.644 987.086 628.813 984.602 627.593 982.723L615.518 964.621C614.501 963.089 614.319 961.016 615.237 959.439C616.649 956.971 619.698 956.249 622.03 957.659L647.125 973.159C649.868 974.851 653.478 973.445 654.345 970.349L654.563 969.454C655.071 967.527 654.406 965.447 652.831 964.254L607.516 930.137C605.6 928.663 605.01 926.032 606.142 923.905L606.708 922.808C608.406 919.652 606.243 915.759 602.582 915.645L585.525 915.02C583.799 914.929 582.29 914.013 581.479 912.553L545.046 847.336C542.546 842.817 542.891 837.229 546.052 833.056L556.519 819.099C560.734 813.49 568.626 812.206 574.45 816.145L580.546 820.363C584.314 822.965 586.471 827.341 586.206 831.964L584.462 861.288C584.193 866.256 586.691 870.982 591.083 873.453L673.271 920.454C675.26 921.584 676.199 923.874 675.55 926.075L664.524 962.948C664.019 964.668 664.479 966.538 665.776 967.797L691.368 993.454C692.869 994.992 693.811 997.006 693.991 999.217L695.573 1022.16C695.86 1026.86 699.753 1030.5 704.45 1030.56L743.549 1031.04C744.585 1031.05 745.617 1031.41 746.508 1032.04L756.978 1040.18C759.578 1042.22 763.461 1041.09 764.605 1037.93L767.828 1028.72C768.472 1026.93 767.944 1024.92 766.579 1023.59L741.04 999.247C740.084 998.337 739.548 997.019 739.565 995.638L739.792 977.274C739.83 974.237 742.552 971.992 745.516 972.512L759.718 975.035C762.406 975.551 764.986 973.65 765.364 970.962L767.102 958.969C767.405 956.763 769.223 955.06 771.437 954.811L791.153 952.707C797.933 951.962 804.235 956.321 805.95 962.902L811.297 983.061C812.287 986.801 814.805 989.94 818.169 991.707L821.326 993.404C828.808 997.363 830.968 1007.06 825.979 1013.83L817.547 1025.19C812.559 1031.89 814.652 1041.45 821.995 1045.47L867.078 1070.4C871.058 1072.59 875.824 1072.72 879.856 1070.7L922.744 1049.69C927.054 1047.53 932.232 1047.87 936.276 1050.48L966.232 1069.56C971.442 1072.87 978.217 1072.54 983.101 1068.66L1009.62 1047.45C1014.36 1043.64 1021 1043.24 1026.21 1046.34L1037.6 1053.25C1045.34 1057.97 1055.48 1054.44 1058.69 1045.91L1065.05 1029.08C1066.62 1024.81 1070.11 1021.61 1074.48 1020.29L1177 992.596L1274 977.096" stroke="black" stroke-opacity="0.15" stroke-miterlimit="10" stroke-linecap="round" stroke-dasharray="2 2"/>
<path d="M580.581 471.053L587.583 463.545C588.978 462.526 589.711 459.083 589.663 457.356L589.356 443.129C589.314 440.919 590.652 438.864 592.735 438.061L599.191 435.586C601.481 434.717 602.892 432.387 602.577 429.897L600.429 413.644C600.112 411.362 601.313 409.167 603.399 408.157L604.997 407.418C607.638 406.138 608.713 403.044 607.502 400.406C604.944 394.919 604.191 388.765 605.163 382.77L609.409 357.896C610.45 351.902 613.627 346.417 618.304 342.54L623.47 338.253C624.447 337.437 625.696 337.038 626.939 337.053L632.673 337.124C635.919 337.164 638.441 334.365 637.998 331.114L637.053 323.714C636.928 322.608 637.15 321.437 637.715 320.477L649.655 299.082C650.078 298.397 650.296 297.571 650.305 296.812L650.921 286.117C651.015 284.116 652.281 282.336 654.087 281.53L655.615 280.858C657.56 279.985 658.758 278.135 658.783 276.064L658.811 273.855C658.831 272.198 659.611 270.62 661.005 269.601L671.115 262.2C672.23 261.385 672.935 260.22 673.228 258.912L676.913 240.246C677.503 237.284 680.497 235.388 683.459 236.115L686.627 236.913C688.555 237.421 690.567 236.755 691.897 235.321L713.683 211.148C714.524 210.192 715.706 209.585 716.951 209.462L726.986 208.067C728.163 207.875 729.403 208.166 730.433 208.731L742.367 215.784C744.768 217.194 747.885 216.542 749.503 214.215L750.91 212.161C752.459 209.832 755.576 209.18 757.976 210.591C761.2 212.495 765.301 210.543 765.899 206.822L769.189 186.632C769.636 184.014 771.87 182.108 774.495 182.14L780.643 182.216C781.748 182.23 782.78 182.588 783.671 183.221L794.011 190.667C795.243 191.58 796.055 192.971 796.175 194.492L797.088 204.446C797.151 204.93 797.075 205.481 797 205.964L793.753 222.702C793.165 225.595 795.065 228.38 797.959 228.968L808.919 231.037C810.78 231.406 812.352 232.737 812.951 234.609L816.75 245.91C817.081 247.019 817.136 248.194 816.778 249.225L810.961 267.036C810.458 268.618 810.713 270.347 811.664 271.671L821.504 286.085C822.454 287.478 822.708 289.277 822.135 290.927L817.269 304.469C816.481 306.738 817.279 309.233 819.196 310.638L826.73 315.979C828.101 316.893 828.911 318.422 828.96 320.08L830.359 346.611C830.476 348.27 831.355 349.869 832.725 350.783L845.404 359.088C846.775 360.002 847.655 361.463 847.772 363.122L848.662 375.009C848.72 375.907 848.57 376.803 848.146 377.626L835.726 404.263C835.442 404.881 835.02 405.428 834.531 405.905L810.141 428.39" stroke="black" stroke-opacity="0.15" stroke-miterlimit="10" stroke-linecap="round" stroke-dasharray="2 2"/>
<path d="M722.674 210.43L721.099 214.83C719.524 219.299 720.981 224.426 724.955 227.099C726.736 228.295 728.799 229.08 731.007 229.314L742.738 230.495C744.256 230.652 745.557 231.566 746.162 232.954L749.323 239.898C749.728 240.731 749.786 241.63 749.567 242.525L744.951 263.803C744.439 266.145 745.931 268.373 748.275 268.816C750.205 269.185 751.635 270.86 751.679 272.863L752.001 291.578" stroke="black" stroke-opacity="0.15" stroke-miterlimit="10" stroke-linecap="round" stroke-dasharray="2 2"/>
<path d="M246.567 529.895C247.184 530.248 247.945 530.188 248.434 529.711L258.218 520.717C266.464 513.155 270.815 502.161 269.986 490.965L269.691 486.888C269.633 485.99 270.334 485.17 271.301 485.182L283.182 485.329C284.011 485.339 284.78 484.658 284.79 483.829L285.654 464.231C285.661 463.678 285.392 463.123 284.911 462.841L253.448 442.704C251.255 441.296 248.275 442.019 247.003 444.351L244.387 449.151C243.538 450.729 243.653 452.595 244.742 453.989C247.119 457.264 244.369 461.787 240.369 461.185L232.852 460.056C231.749 459.905 230.719 459.409 229.829 458.707L223.468 453.519C220.39 450.995 215.749 451.974 214.047 455.543L205.048 473.729C203.347 477.161 205.162 481.257 208.741 482.337C213.559 483.846 214.654 490.212 210.541 493.2L186.138 511.126C183.21 513.3 182.743 517.506 185.197 520.229L194.193 530.214C195.897 532.099 198.583 532.754 200.944 531.816L229.613 520.916C230.03 520.714 230.581 520.79 230.993 521.002L246.567 529.895Z" stroke="black" stroke-opacity="0.15" stroke-miterlimit="10" stroke-linecap="round" stroke-dasharray="2 2"/>
<path d="M263.912 546.335L284.565 541.067C286.991 540.476 288.472 538.008 287.949 535.585L284.016 518.482C283.818 517.72 284.312 516.897 285.075 516.631L303.323 510.366C311.927 507.365 315.372 496.981 310.214 489.461L301.866 477.343C298.404 472.329 298.624 465.703 302.414 460.917L307.046 455.105C310.555 450.66 311.046 444.521 308.205 439.584L303.402 431.308C300.223 425.813 301.206 418.921 305.683 414.488L339.18 381.829C341.418 379.647 344.606 378.858 347.567 379.654L352.112 380.884C359.479 382.908 360.877 392.799 354.334 396.723C347.999 400.581 349.056 410.122 356.143 412.488L368.872 416.719C375.753 419.014 377.021 428.213 371.029 432.213L342.952 451.199C338.214 454.385 337.783 461.285 342.159 464.998L352.071 473.614C354.19 475.435 355.263 478.072 355.09 480.832L353.762 498.837C353.759 499.113 353.756 499.389 353.891 499.598L369.76 534.87C370.634 536.884 370.398 539.159 369.063 540.938L365.13 546.137C362.039 550.241 365.146 556.011 370.262 555.729C372.752 555.552 375.083 556.962 376.16 559.254L379.117 565.988C380.327 568.696 379.321 571.86 376.814 573.417L359.895 583.979C356.832 585.875 356.158 590.078 358.472 592.869L359.698 594.334C362.626 597.822 360.693 603.253 356.193 604.026L339.505 606.996C338.051 607.254 336.535 606.959 335.232 606.184L314.391 593.083C314.048 592.872 313.565 592.797 313.15 592.861L298.524 596.754C297.276 597.083 295.897 596.859 294.8 596.155L280.751 586.936C279.86 586.373 278.827 586.084 277.789 586.209L253.373 588.462C248.462 588.885 246.4 582.438 250.576 579.935L268.882 569.044C269.995 568.368 271.241 568.245 272.48 568.606L286.456 572.576C287.764 572.937 289.148 572.747 290.263 572.002C293.677 569.696 292.636 564.436 288.57 563.626L264.169 559.043C261.964 558.602 260.398 556.718 260.426 554.44L260.471 550.781C260.429 548.64 261.901 546.863 263.912 546.335Z" stroke="black" stroke-opacity="0.15" stroke-miterlimit="10" stroke-linecap="round" stroke-dasharray="2 2"/>
<path d="M563.732 548.661L561.784 560.928C561.634 561.892 562.175 562.866 563.138 563.223L578.547 568.592C580.061 569.094 581.598 567.732 581.272 566.14L578.318 553.606C578.252 553.329 578.256 553.053 578.329 552.708L579.51 546.578C579.951 544.443 577.134 543.165 575.8 544.944L572.219 549.595C571.376 550.689 569.787 550.67 568.971 549.624L567.406 547.671C566.318 546.277 564.031 546.87 563.732 548.661Z" stroke="black" stroke-opacity="0.15" stroke-miterlimit="10" stroke-linecap="round" stroke-dasharray="2 2"/>
<path d="M120.801 945.247L114.382 924.023C113.416 920.829 114.107 917.363 116.225 914.783L119.093 911.29C122.01 907.736 122.129 902.652 119.38 898.966L119.16 898.672C116.772 895.469 116.519 891.151 118.518 887.691L129.695 868.343C130.839 866.364 132.625 864.836 134.757 864.014L136.324 863.41C139.745 862.091 142.17 859.007 142.644 855.371L144.097 844.217C144.603 840.328 147.336 837.095 151.085 835.947L155.586 834.568C159.599 833.339 162.417 829.737 162.644 825.546L162.828 822.143C163.033 818.356 161.077 814.779 157.779 812.907L147.6 807.129C144.924 805.61 141.636 805.659 139.006 807.257V807.257C135.15 809.599 130.135 808.514 127.592 804.787L127.086 804.045C124.507 800.265 119.587 798.881 115.416 800.764L112.206 802.213" stroke="black" stroke-opacity="0.15" stroke-miterlimit="10" stroke-linecap="round" stroke-dasharray="2 2"/>
<path d="M266.892 808.269L290.156 837.763C293.285 841.738 298.727 842.979 303.246 840.756C307.694 838.601 312.999 839.772 316.131 843.539L324.981 854.144C326.275 855.679 328.341 856.257 330.214 855.589L336.806 853.323" stroke="black" stroke-opacity="0.15" stroke-miterlimit="10" stroke-linecap="round" stroke-dasharray="2 2"/>
<path d="M441.345 835.973L433.372 810.327C432.973 809.01 433.129 807.562 433.904 806.398L446.874 785.568C448.072 783.649 447.758 781.091 446.05 779.551L440.038 774.021C433.754 768.213 434.638 758.143 441.743 753.466L452.401 746.417C453.098 745.943 453.93 745.677 454.829 745.619L462.987 745.236C464.783 745.189 466.456 744.036 467.167 742.388L475.13 724.189C478.828 715.673 475.773 705.761 467.887 700.899L455.272 693.079C453.215 691.811 451.371 690.062 449.944 688.111L438.875 672.577C436.565 669.372 432.788 667.53 428.848 667.688C424.286 667.839 420.033 665.37 417.942 661.27L408.565 642.926" stroke="black" stroke-opacity="0.15" stroke-miterlimit="10" stroke-linecap="round" stroke-dasharray="2 2"/>
<path d="M453.029 785.022L457.837 787.291C460.104 788.355 462.878 787.492 464.081 785.228L466.061 781.524C467.757 778.438 472.114 778.147 474.151 781.003L478.023 786.367C480.468 789.781 485.871 788.605 486.614 784.402C487.135 781.37 490.404 779.616 493.222 780.824L505.11 786.012C507.31 786.936 509.876 786.14 511.076 784.083L514.32 778.737C515.308 777.092 515.195 775.02 514.109 773.418L507.994 765.126C505.208 761.363 508.932 756.299 513.335 757.804L529.848 763.325C530.811 763.682 531.848 763.626 532.819 763.361L551.411 757.239C552.729 756.772 554.246 756.998 555.412 757.703L556.646 758.478C559.8 760.45 563.904 758.153 563.95 754.494L564.003 750.214C564.017 749.04 564.445 747.941 565.215 747.122L576.494 734.556C577.825 733.054 578.128 730.917 577.183 729.11L561.382 699.501C558.412 693.871 560.985 686.929 566.886 684.654L592.365 674.681C596.947 672.874 602.178 674.458 604.96 678.566C607.064 681.63 610.567 683.33 614.3 683.169L627.228 682.501C628.403 682.446 629.642 682.807 630.531 683.577L666.023 713.085C667.665 714.417 668.19 716.633 667.406 718.557L666.978 719.656C665.767 722.61 667.73 725.949 670.974 726.196L689.607 727.876C690.366 727.955 691.059 727.825 691.753 727.558L708.067 721.269C712.371 719.596 717.198 720.346 720.825 723.153L724.042 725.609C730.885 730.941 740.866 728.303 744.212 720.335L746.205 715.595C747.487 712.504 750.005 709.98 753.062 708.637L759.175 705.951C764.315 703.736 766.736 697.897 764.728 692.693L755.62 669.381" stroke="black" stroke-opacity="0.15" stroke-miterlimit="10" stroke-linecap="round" stroke-dasharray="2 2"/>
<path d="M442.481 632.297L451.192 643.038C452.146 644.155 452.472 645.678 452.04 647.123L450.739 651.733C450.162 653.728 451.102 655.88 452.886 656.938L456.042 658.703C457.62 659.62 458.565 661.358 458.335 663.22L455.553 687.076" stroke="black" stroke-opacity="0.15" stroke-miterlimit="10" stroke-linecap="round" stroke-dasharray="2 2"/>
<path d="M456.69 656.64L458.444 648.859C458.735 647.689 459.439 646.593 460.483 645.984L462.293 644.902C463.616 644.09 464.463 642.65 464.482 641.062L464.561 634.711C464.597 631.812 467.317 629.705 470.073 630.36L471.244 630.651C473.034 631.087 474.909 630.351 475.965 628.776L477.232 626.858C478.006 625.763 478.23 624.385 477.9 623.138L475.918 615.794C475.191 613.093 477.091 610.354 479.857 610.112L484.007 609.749C486.151 609.569 487.83 607.932 488.063 605.795L489.131 597.66" stroke="black" stroke-opacity="0.15" stroke-miterlimit="10" stroke-linecap="round" stroke-dasharray="2 2"/>
<path d="M519.482 774.796L541.089 770.645C542.336 770.384 543.576 770.675 544.603 771.448L570.83 790.415C572.199 791.398 572.938 793.133 572.64 794.856L570.104 810.015" stroke="black" stroke-opacity="0.15" stroke-miterlimit="10" stroke-linecap="round" stroke-dasharray="2 2"/>
<path d="M469.447 742.416L488.085 754.937C488.838 755.499 489.802 755.718 490.769 755.73L505.905 755.295" stroke="black" stroke-opacity="0.15" stroke-miterlimit="10" stroke-linecap="round" stroke-dasharray="2 2"/>
<path d="M577.977 793.472L617.263 790.022C618.646 789.901 619.899 789.157 620.673 787.993L637.438 761.962C638.073 760.934 638.296 759.694 638.034 758.517L635.223 745.57C634.832 743.632 635.685 741.71 637.356 740.695L663.107 725.477" stroke="black" stroke-opacity="0.15" stroke-miterlimit="10" stroke-linecap="round" stroke-dasharray="2 2"/>
<path d="M580.75 736.888L595.655 738.315C596.76 738.397 597.799 738.134 598.705 737.524L609.788 729.651C611.461 728.429 613.809 728.527 615.381 729.928L623.721 737.074C624.542 737.774 625.573 738.132 626.61 738.145L633.932 738.236" stroke="black" stroke-opacity="0.15" stroke-miterlimit="10" stroke-linecap="round" stroke-dasharray="2 2"/>
<path d="M642.647 759.748L649.402 766.667C650.289 767.576 651.595 768.075 652.909 768.022L668.81 767.114C669.709 767.056 670.611 766.722 671.309 766.179L684.073 756.463C685.398 755.443 687.196 755.258 688.708 755.968L695.784 759.231C697.501 760.012 699.509 759.692 700.838 758.327L708.181 751.168C709.23 750.145 710.687 749.68 712.066 749.904L731.096 753.039C732.061 753.189 732.953 753.684 733.635 754.383L742.846 763.818C743.733 764.726 744.901 765.224 746.145 765.17L778.897 764.954C780.14 764.969 781.308 765.467 782.196 766.307L788.405 772.667C790.247 774.554 793.288 774.453 795.039 772.542L811.569 754.31C812.409 753.423 813.521 752.885 814.766 752.831L839.997 751.762C846.356 751.495 852.54 754.265 856.554 759.286L868.256 773.93C868.46 774.209 868.664 774.488 868.798 774.834L877.146 792.545C879.637 797.823 878.385 804.091 873.984 807.972L852.957 826.7C850.932 828.47 850.961 831.647 852.942 833.467L853.353 833.817C854.582 834.937 856.374 835.304 857.971 834.703L877.611 827.626" stroke="black" stroke-opacity="0.15" stroke-miterlimit="10" stroke-linecap="round" stroke-dasharray="2 2"/>
<path d="M818.133 759.846L827.714 767.215C828.604 767.916 829.214 768.821 829.408 769.928L831.422 780.241C831.551 781.002 831.888 781.697 832.365 782.255L842.917 794.883C843.53 795.65 843.933 796.553 843.989 797.589L845.61 828.543" stroke="black" stroke-opacity="0.15" stroke-miterlimit="10" stroke-linecap="round" stroke-dasharray="2 2"/>
<path d="M739.272 767.847L728.099 771.921C726.086 772.656 724.887 774.643 725.138 776.718L726.771 789.926C727.397 795.112 724.435 800.047 719.575 801.92L711.175 805.2C704.649 807.743 701.927 815.581 705.444 821.631L719.181 845.001C721.143 848.339 724.71 850.455 728.576 850.641L738.797 851.043C745.219 851.261 750.194 856.846 749.769 863.262C749.344 869.679 754.25 875.194 760.603 875.48L788.292 876.789C789.19 876.8 790.09 876.604 790.856 876.13L815.987 860.836C816.961 860.227 818.138 860.034 819.241 860.255L842.123 864.749C843.157 864.969 844.048 865.533 844.729 866.301L851.809 874.881C853.578 877.043 856.894 877.084 858.786 874.967" stroke="black" stroke-opacity="0.15" stroke-miterlimit="10" stroke-linecap="round" stroke-dasharray="2 2"/>
<path d="M857.874 853.758L859.893 846.879C860.615 844.402 864.205 844.584 864.657 847.145C864.98 848.944 867.043 849.729 868.508 848.642L875.48 843.55C876.107 843.074 876.531 842.32 876.472 841.491L875.586 818.142C875.534 816.829 876.514 815.737 877.76 815.614L885.301 814.741C886.131 814.682 886.829 814.138 887.182 813.452L894.615 799.044C896.669 794.996 900.571 792.282 905.069 791.716L926.176 788.87C928.183 788.619 929.607 790.777 928.619 792.491L924.594 799.484C923.536 801.266 925.097 803.495 927.106 803.105L946.837 799.828C948.083 799.636 949.249 800.341 949.58 801.519L950.973 806.162C951.372 807.41 950.664 808.782 949.416 809.181L938.177 812.909C936.859 813.376 936.15 814.817 936.686 816.135L938.629 821.062C938.898 821.687 939.375 822.176 940.063 822.461L951.618 826.677C952.374 826.963 952.919 827.591 953.117 828.353L956.948 842.624C957.211 843.663 958.169 844.434 959.274 844.448L964.869 844.517C965.767 844.528 966.672 843.987 967.097 843.164L972.76 832.186C973.185 831.294 974.159 830.822 975.126 830.834L983.824 831.425C985.066 831.51 986.113 830.694 986.404 829.455L987.802 822.567C988.024 821.396 989.07 820.581 990.314 820.596L1004.33 821.253C1006.4 821.347 1007.68 818.946 1006.38 817.342L1005.02 815.668C1004.48 814.971 1003.65 814.616 1002.82 814.744L979.85 817.567C979.088 817.695 978.262 817.409 977.787 816.782L969.877 808.329C966.945 805.186 967.559 800.222 971.112 797.849L985.322 788.496C985.67 788.225 986.156 788.092 986.639 788.098L1002.67 787.675C1003.85 787.621 1004.89 786.943 1005.32 785.844L1010.6 772.79C1010.88 772.172 1011.3 771.625 1011.93 771.287L1040.37 756.034C1042.04 755.157 1044.1 756.08 1044.56 757.881L1045.75 762.591C1046.08 763.838 1045.51 765.143 1044.47 765.821L1032.07 773.47C1029.78 774.891 1030.49 778.422 1033.11 778.868C1033.94 779.017 1034.63 779.439 1035.1 780.136L1037.2 783.407C1037.95 784.521 1037.79 786.038 1036.88 786.993L1030.44 793.819C1030.16 794.091 1030.02 794.435 1029.88 794.778L1024.12 813.143C1023.83 814.175 1022.86 814.853 1021.75 814.84L1016.78 814.778C1015.26 814.759 1014.07 816.125 1014.33 817.579L1014.97 821.591C1015.09 822.491 1015.71 823.189 1016.53 823.544L1042.6 833.188C1044.87 834.044 1047.42 834.214 1049.78 833.622L1051.23 833.294C1054.97 832.374 1058.97 833.321 1061.98 835.775L1072.92 844.748C1073.88 845.52 1074.7 846.427 1075.38 847.402L1076.8 849.561C1079.11 852.972 1082.88 855.021 1086.96 855.072L1094.21 855.161C1099.95 855.232 1104.87 859.16 1106.18 864.7L1109.93 880.351C1111.11 885.406 1109.52 890.703 1105.75 894.247L1097.08 902.494C1092.19 907.129 1084.79 907.797 1079.17 904.137L1075.53 901.745C1071.01 898.789 1065.28 898.58 1060.55 901.214L1054.91 904.321C1051.02 906.482 1046.32 906.769 1042.19 904.992L994.014 884.58C990.302 883.015 986.156 883.033 982.475 884.644L944.406 901.435C942.183 902.444 940.161 903.937 938.618 905.783L922.838 924.783C920.945 927.038 918.506 928.734 915.8 929.667L905.67 933.132C902.408 934.266 898.815 934.29 895.512 933.214L862.415 922.31C860.42 921.663 858.499 920.535 856.927 919.135L849.956 913.041C844.283 908.069 842.934 899.766 846.677 893.253L850.42 886.671C850.632 886.259 851.051 885.919 851.468 885.717L860.296 881.407C861.269 880.936 861.834 879.907 861.64 878.869L858.136 854.866C857.796 854.448 857.801 854.034 857.874 853.758Z" stroke="black" stroke-opacity="0.15" stroke-miterlimit="10" stroke-linecap="round" stroke-dasharray="2 2"/>
<path d="M606.822 611.889L602.808 634.763C602.065 638.966 603.532 643.265 606.744 646.135L608.52 647.746C611.526 650.476 612.997 654.429 612.533 658.428L610.992 671.321" stroke="black" stroke-opacity="0.15" stroke-miterlimit="10" stroke-linecap="round" stroke-dasharray="2 2"/>
<path d="M692.097 588.086L706.844 596.693C707.531 597.046 708.219 597.262 708.978 597.34L730.316 598.226C731.352 598.238 732.461 597.976 733.298 597.296L739.574 592.609C741.806 590.911 745.045 591.572 746.397 594.005L752.552 604.715" stroke="black" stroke-opacity="0.15" stroke-miterlimit="10" stroke-linecap="round" stroke-dasharray="2 2"/>
<path d="M721.612 547.713L731.073 542.514C732.117 541.905 733.362 541.782 734.532 542.142L761.868 549.661C763.382 550.094 765.045 549.7 766.233 548.61L770.705 544.523C773.081 542.343 776.802 543.148 778.148 546.065C778.954 547.939 780.944 548.999 782.95 548.817L787.724 548.255C789.523 548.07 791.24 548.919 792.188 550.45L796.728 557.687" stroke="black" stroke-opacity="0.15" stroke-miterlimit="10" stroke-linecap="round" stroke-dasharray="2 2"/>
<path d="M767.094 501.323L782.022 495.432C784.174 494.561 786.65 495.489 787.799 497.506L791.924 504.807C792.735 506.267 794.243 507.183 795.97 507.204L810.546 507.384C811.858 507.401 813.095 507.968 813.981 508.946L819.296 514.95C819.773 515.508 820.178 516.204 820.376 516.966L825.375 537.327" stroke="black" stroke-opacity="0.15" stroke-miterlimit="10" stroke-linecap="round" stroke-dasharray="2 2"/>
<path d="M818.043 459.835L811.192 471.902C810.557 472.999 810.404 474.24 810.734 475.418L815.229 491.907C815.427 492.6 815.418 493.359 815.271 494.048L812.619 507.41" stroke="black" stroke-opacity="0.15" stroke-miterlimit="10" stroke-linecap="round" stroke-dasharray="2 2"/>
<path d="M720.675 567.725L730.272 573.851C731.163 574.415 731.843 575.252 732.176 576.291L735.242 585.375C735.509 586.137 735.984 586.834 736.599 587.394L740.426 590.755" stroke="black" stroke-opacity="0.15" stroke-miterlimit="10" stroke-linecap="round" stroke-dasharray="2 2"/>
<path d="M898.001 642.418L924.193 636.251C926.896 635.594 929.79 636.251 931.98 637.935L938.892 643.268C940.944 644.882 942.297 647.246 942.472 649.872L943.131 658.028C943.549 663.35 948.406 667.207 953.736 666.445C958.096 665.808 962.349 668.346 963.818 672.438L965.288 676.461C966.425 679.513 969.721 681.142 972.842 680.145L994.9 673.099C997.12 672.367 999.461 673.017 1001.1 674.626L1007.92 681.615C1010.51 684.27 1014.8 683.978 1017.05 681.106C1018.31 679.465 1020.4 678.593 1022.47 678.756L1038.96 680.479C1040.82 680.64 1042.47 681.696 1043.48 683.297L1058.12 706.402C1059 707.794 1059.26 709.523 1058.89 711.176L1055.34 724.527C1055.27 724.94 1055.12 725.284 1054.91 725.695L1047.19 741.205C1046.41 742.783 1045.01 743.871 1043.35 744.333L1033.57 746.974C1029.9 747.965 1028.05 752.016 1029.74 755.42L1031.29 758.615" stroke="black" stroke-opacity="0.15" stroke-miterlimit="10" stroke-linecap="round" stroke-dasharray="2 2"/>
<path d="M731.546 750.145L735.049 740.591C735.55 739.216 735.361 737.763 734.616 736.511L729.738 728.718" stroke="black" stroke-opacity="0.15" stroke-miterlimit="10" stroke-linecap="round" stroke-dasharray="2 2"/>
<path d="M578.045 815.913L587.923 816.035C588.683 816.045 589.44 816.33 589.987 816.751L598.335 823.345C600.592 825.168 603.998 823.484 603.897 820.514L603.741 816.3C603.696 814.366 605.237 812.728 607.24 812.753C609.727 812.784 611.417 810.181 610.409 807.89L610.14 807.265C609.132 804.974 610.823 802.371 613.309 802.402L615.658 802.431C617.178 802.45 618.572 801.431 619.005 799.986L621.891 790.079" stroke="black" stroke-opacity="0.15" stroke-miterlimit="10" stroke-linecap="round" stroke-dasharray="2 2"/>
<path d="M624.601 794.394L627.106 798.499C627.648 799.403 628.607 800.036 629.712 800.119L633.024 800.436C634.542 800.593 635.772 801.713 636.029 803.235L637.78 812.509C638.041 813.755 638.926 814.802 640.165 815.162L660.267 821.004C661.782 821.437 663.448 820.767 664.225 819.395L667.123 814.115C667.548 813.291 668.315 812.748 669.216 812.483L683.22 808.583C684.052 808.386 684.88 808.465 685.635 808.82L701.635 816.751" stroke="black" stroke-opacity="0.15" stroke-miterlimit="10" stroke-linecap="round" stroke-dasharray="2 2"/>
<path d="M650.185 904.495L632.832 888.676C632.149 888.046 631.744 887.213 631.687 886.245L631.264 875.745C631.205 874.985 630.938 874.222 630.393 873.594L619.56 861.307C618.742 860.4 618.481 859.153 618.841 857.984L620.85 851.933C621.424 850.214 620.549 848.339 618.83 847.696L609.342 843.919C608.174 843.421 607.357 842.376 607.166 841.13L605.982 830.69C605.732 828.546 607.481 826.772 609.622 826.868L616.042 827.293C617.215 827.376 618.312 828.08 618.852 829.123L620.877 832.945C621.822 834.752 624.233 835.334 625.906 834.181L628.555 832.281C629.669 831.535 631.053 831.414 632.218 832.119L642.509 837.977C643.47 838.541 644.575 838.555 645.616 838.153L651.799 835.399C652.632 835.064 653.531 835.006 654.426 835.293L669.762 841.007C671.275 841.578 673.01 840.978 673.856 839.607L676.675 835.154C677.45 833.921 677.332 832.262 676.379 831.146L671.068 824.797C670.319 823.89 670.058 822.644 670.487 821.475L673.425 813.019" stroke="black" stroke-opacity="0.15" stroke-miterlimit="10" stroke-linecap="round" stroke-dasharray="2 2"/>
<path d="M676.576 837.501L679.88 844.101C680.352 845.004 680.339 846.04 679.983 846.933L674.785 859.435C674.002 861.29 674.666 863.439 676.379 864.565L680.628 867.379C683.437 869.278 683.04 873.485 679.914 874.827L676.372 876.303C673.386 877.578 672.853 881.576 675.385 883.54L688.728 893.993C689.686 894.765 690.293 895.946 690.347 897.189L690.654 905.824C690.7 907.689 689.505 909.401 687.77 910.001L668.691 916.462" stroke="black" stroke-opacity="0.15" stroke-miterlimit="10" stroke-linecap="round" stroke-dasharray="2 2"/>
<path d="M690.89 909.141L697.394 913.917C698.695 914.9 699.366 916.496 699.069 918.15L697 929.034C696.854 929.653 696.915 930.275 697.046 930.898L700.868 945.86C701.196 947.245 702.22 948.293 703.526 948.793L712.261 952.008C712.811 952.222 713.432 952.299 714.055 952.237L724.567 951.331C726.366 951.147 727.902 949.854 728.338 948.133L729.065 945.173C729.502 943.383 731.038 942.09 732.905 941.975L742.792 941.338C745.42 941.163 747.247 938.7 746.656 936.138L743.577 922.567C743.314 921.528 742.704 920.554 741.813 919.99L733.933 914.714C732.493 913.799 730.697 913.777 729.235 914.656L722.34 919.128C720.46 920.348 717.978 919.903 716.687 918.16L713.763 914.327C712.539 912.723 710.266 912.212 708.458 913.156L701.157 916.933" stroke="black" stroke-opacity="0.15" stroke-miterlimit="10" stroke-linecap="round" stroke-dasharray="2 2"/>
<path d="M746.111 857.348L740.834 865.085C739.779 866.591 739.822 868.663 740.979 870.127L744.175 874.241C745.739 876.263 745.149 879.293 742.922 880.578C740.765 881.794 740.108 884.686 741.534 886.706L749.07 897.432C750.224 899.104 750.058 901.38 748.658 902.813L736.414 915.228" stroke="black" stroke-opacity="0.15" stroke-miterlimit="10" stroke-linecap="round" stroke-dasharray="2 2"/>
<path d="M685.099 986.403L689.249 980.378C689.319 980.31 689.39 980.172 689.528 980.174L697.452 976.336C697.66 976.27 697.732 976.064 697.802 975.926L704.937 952.124" stroke="black" stroke-opacity="0.15" stroke-miterlimit="10" stroke-linecap="round" stroke-dasharray="2 2"/>
<path d="M750.656 936.809L758.653 938.219C761.479 938.738 764.457 938.153 766.963 936.665L770.374 934.567C775.039 931.655 781.179 932.422 784.999 936.336L787.524 938.922C789.57 941.018 792.318 942.295 795.218 942.469L798.463 942.647C802.26 942.901 805.941 941.29 808.327 938.281L813.169 932.265C814.362 930.761 815.965 929.607 817.703 928.8L834.301 921.824C836.246 921.019 838.322 920.7 840.391 921.002L860.671 923.669" stroke="black" stroke-opacity="0.15" stroke-miterlimit="10" stroke-linecap="round" stroke-dasharray="2 2"/>
<path d="M819.112 932.131L819.246 932.478C820.444 936.153 819.704 940.148 817.386 943.227C815.701 945.346 814.839 948.028 814.944 950.723L815.226 961.428C815.276 962.948 814.981 964.532 814.479 965.976L810.338 976.835" stroke="black" stroke-opacity="0.15" stroke-miterlimit="10" stroke-linecap="round" stroke-dasharray="2 2"/>
<path d="M468.071 876.075L463.554 878.228C461.26 879.305 459.781 881.634 459.749 884.188L459.685 889.366C459.671 890.54 459.381 891.641 458.816 892.601C457.262 895.343 457.773 898.733 460.095 900.902L464.398 904.891C466.994 907.271 471.071 907.252 473.658 904.729L479.463 899.07C481.281 897.297 481.935 894.682 481.205 892.256L477.418 880.057C476.222 876.175 471.755 874.256 468.071 876.075Z" stroke="black" stroke-opacity="0.15" stroke-miterlimit="10" stroke-linecap="round" stroke-dasharray="2 2"/>
<path d="M449.014 919.822L465.983 916.442C469.03 915.858 472.052 917.345 473.398 920.193L480.197 934.708C481.275 936.931 480.966 939.55 479.491 941.535L466.984 958.435C466.14 959.598 465.71 960.905 465.692 962.354L465.669 964.218C465.625 967.739 462.825 970.674 459.3 970.837L449.345 971.336C445.957 971.501 443.015 969.186 442.434 965.864L440.814 957.213C440.492 955.345 440.93 953.417 442.054 951.912L446.058 946.576C447.322 944.934 447.694 942.799 447.165 940.859L443.801 927.974C442.878 924.372 445.205 920.604 449.014 919.822Z" stroke="black" stroke-opacity="0.15" stroke-miterlimit="10" stroke-linecap="round" stroke-dasharray="2 2"/>
<path d="M527.72 1008.14L528.487 1007.6C531.135 1005.77 534.589 1005.81 537.192 1007.64L543.699 1012.2C545.137 1013.19 546.789 1013.69 548.518 1013.58L572.372 1012.14C577.834 1011.8 581.844 1017.16 579.984 1022.32L578.266 1027.13C577.765 1028.58 577.676 1030.16 578.072 1031.69L580.646 1041.38C581.966 1046.37 578.037 1051.23 572.859 1050.96L570.857 1050.86C569.13 1050.77 567.481 1050.06 566.182 1048.94L551.56 1035.78C551.218 1035.5 550.876 1035.22 550.465 1034.94L527.976 1020.99C523.453 1017.96 523.26 1011.26 527.72 1008.14Z" stroke="black" stroke-opacity="0.15" stroke-miterlimit="10" stroke-linecap="round" stroke-dasharray="2 2"/>
<path d="M328.919 926.83L336.26 925.402C337.922 925.077 339.501 925.925 340.173 927.453L341.651 930.854C342.122 931.896 342.039 932.999 341.542 934.029L339.068 938.556C337.937 940.682 335.099 941.061 333.394 939.314L327.049 932.814C325.07 930.787 326.149 927.348 328.919 926.83Z" stroke="black" stroke-opacity="0.15" stroke-miterlimit="10" stroke-linecap="round" stroke-dasharray="2 2"/>
<path d="M354.21 932.045C355.076 934.68 358.521 935.413 360.344 933.295C361.816 931.587 361.296 928.957 359.375 927.828C356.492 926.273 353.212 928.995 354.21 932.045Z" stroke="black" stroke-opacity="0.15" stroke-miterlimit="10" stroke-linecap="round" stroke-dasharray="2 2"/>
<path d="M713.639 1036.19L737.699 1034.83C738.667 1034.78 739.562 1035 740.384 1035.56L751.83 1043.02C753.338 1044 754.076 1045.74 753.779 1047.46L751.179 1062.14C750.584 1065.58 746.421 1066.98 743.825 1064.6L741.229 1062.22C738.838 1060.05 735.026 1061.04 734.02 1064.13C732.871 1067.71 728.027 1068.34 726.063 1065.07L721.458 1057.56C720.374 1055.82 718.242 1055.03 716.23 1055.7L715.606 1055.9C712.761 1056.9 709.816 1054.79 709.784 1051.82L709.576 1040.7C709.399 1038.28 711.219 1036.3 713.639 1036.19Z" stroke="black" stroke-opacity="0.15" stroke-miterlimit="10" stroke-linecap="round" stroke-dasharray="2 2"/>
<path d="M759.444 1008.38L765.525 1013.84C767.985 1016.01 771.812 1013.85 771.23 1010.67L770.322 1005.82C770.064 1004.37 768.834 1003.25 767.317 1003.02L762.143 1002.41C758.832 1001.95 756.915 1006.14 759.444 1008.38Z" stroke="black" stroke-opacity="0.15" stroke-miterlimit="10" stroke-linecap="round" stroke-dasharray="2 2"/>
<path d="M904.617 1090.82L912.729 1088.51C913.839 1088.18 914.681 1087.15 914.695 1085.98L914.733 1082.87C914.754 1081.21 916.29 1079.92 917.944 1080.29L924.973 1081.68C925.525 1081.76 926.079 1081.7 926.634 1081.5L939.21 1075.78C941.78 1074.64 944.16 1077.71 942.406 1079.9L938.687 1084.55C937.704 1085.78 938.027 1087.65 939.329 1088.49C941.454 1089.83 940.723 1093.13 938.232 1093.38L932.766 1094C931.175 1094.19 930.12 1095.7 930.447 1097.22L931.558 1102.34C931.95 1104.14 930.409 1105.85 928.616 1105.55L910.751 1103.19C910.061 1103.11 909.444 1102.76 909.036 1102.2L903.322 1095.02C902.027 1093.55 902.745 1091.35 904.617 1090.82Z" stroke="black" stroke-opacity="0.15" stroke-miterlimit="10" stroke-linecap="round" stroke-dasharray="2 2"/>
<path d="M767.78 1099.63L784.031 1104.04C784.788 1104.26 785.617 1104.27 786.381 1104L805.31 1098.5C806.974 1098.04 808.764 1098.55 809.922 1099.87L811.557 1101.76C812.374 1102.73 813.61 1103.3 814.854 1103.32L818.722 1103.36C822.176 1103.41 824.271 1107.23 822.369 1110.18L820.889 1112.5C820.114 1113.74 818.723 1114.48 817.271 1114.53L802.343 1114.97L786.446 1115.46C785.963 1115.46 785.548 1115.45 785.135 1115.31L764.894 1109.6C762.415 1108.88 761.066 1106.24 761.925 1103.84L762.426 1102.46C763.283 1100.19 765.578 1098.98 767.78 1099.63Z" stroke="black" stroke-opacity="0.15" stroke-miterlimit="10" stroke-linecap="round" stroke-dasharray="2 2"/>
<path d="M756.466 662.417L757.625 658.081C757.841 657.324 757.505 656.561 756.888 656.208L752.022 653.04C751.131 652.477 750.939 651.232 751.639 650.481L755.495 645.972C758.93 641.94 760.791 636.716 760.649 631.397L760.394 624.144C760.396 623.937 760.33 623.729 760.263 623.521L754.012 609.427C753.542 608.317 754.248 607.082 755.493 606.96L760.679 606.61C761.44 606.55 762.138 606.006 762.285 605.249C762.506 604.146 763.688 603.54 764.718 604.036L766.779 605.028C769.939 606.517 773.53 606.63 776.724 605.358L789.568 600.269C790.679 599.8 791.042 598.423 790.224 597.515L787.705 594.515C787.296 594.027 787.166 593.404 787.381 592.785L788.956 588.316C789.1 587.835 789.52 587.426 790.005 587.294L791.948 586.558C794.378 585.622 795.585 583.013 794.856 580.518L794.722 580.171C794.058 578.022 794.916 575.685 796.795 574.535C798.257 573.655 799.105 572.147 799.126 570.421L799.189 565.312C799.204 564.139 799.633 562.97 800.473 562.083L807.688 554.093C808.948 552.728 810.82 552.199 812.61 552.704L815.639 553.57C816.672 553.859 817.713 553.527 818.345 552.706L824.875 544.225C825.436 543.542 826.27 543.138 827.098 543.217L833.793 543.783C834.759 543.864 835.58 544.496 835.984 545.398C836.453 546.578 837.619 547.214 838.797 546.952L842.883 546.174C843.367 546.111 843.92 546.118 844.401 546.331L847.631 547.752C848.181 547.966 848.658 548.455 848.86 548.941L849.399 550.052C850.207 551.719 852.483 552.024 853.676 550.519L855.22 548.605C855.781 547.921 856.545 547.586 857.442 547.666L864.897 548.241C865.863 548.322 866.685 548.954 867.02 549.787L876.412 572.412C876.48 572.551 876.546 572.759 876.544 572.966L877.563 585.545C877.683 586.997 878.635 588.251 880.011 588.683L882.763 589.614C883.52 589.9 884.205 590.392 884.61 591.087L890.103 599.51C890.509 600.136 891.056 600.626 891.743 600.911L899.374 604.043C900.405 604.471 901.649 604.417 902.624 603.807C903.807 603.132 905.257 603.15 906.423 603.854L907.794 604.769C909.096 605.614 909.767 607.21 909.334 608.724L907.232 616.638C907.159 616.983 906.947 617.325 906.669 617.529L899.899 623.038C899.27 623.583 898.303 623.571 897.619 623.01L892.699 618.599C890.717 616.848 887.598 617.707 886.806 620.252C886.518 621.215 886.643 622.253 887.116 623.156L894.49 635.814C896.655 639.5 895.283 644.316 891.527 646.341L878.73 653.226C878.521 653.362 878.379 653.636 878.376 653.912L878.896 662.135C878.893 662.342 878.822 662.48 878.752 662.617L871.886 670.265C870.205 672.109 867.571 672.836 865.233 671.978L858.972 669.829C858.903 669.828 858.766 669.758 858.697 669.688L850.169 660.951C850.033 660.812 849.826 660.74 849.619 660.738L838.629 661.154C836.694 661.199 834.951 662.49 834.238 664.276L833.38 666.613C832.521 669.019 829.88 670.298 827.47 669.578L823.478 668.355C822.652 668.137 821.898 667.645 821.284 667.016L812.353 657.308C811.672 656.54 810.712 655.976 809.677 655.825L790.995 652.487C782.861 651.005 774.542 653.25 768.258 658.627L762.463 663.527C762.253 663.731 761.975 663.866 761.698 663.931L758.65 664.584C757.265 664.843 756.173 663.725 756.466 662.417Z" stroke="black" stroke-opacity="0.5" stroke-width="2" stroke-miterlimit="10" stroke-dasharray="2 1"/>
<path d="M904.424 629V617.64H912.04V618.632H905.544V622.584H909.288C910.536 622.584 911.459 622.877 912.056 623.464C912.653 624.04 912.952 624.792 912.952 625.72C912.952 626.328 912.819 626.883 912.552 627.384C912.296 627.875 911.901 628.269 911.368 628.568C910.835 628.856 910.173 629 909.384 629H904.424ZM905.544 628.008H909.256C909.864 628.008 910.355 627.896 910.728 627.672C911.112 627.448 911.389 627.16 911.56 626.808C911.731 626.445 911.816 626.072 911.816 625.688C911.816 625.304 911.741 624.947 911.592 624.616C911.443 624.275 911.176 624.003 910.792 623.8C910.419 623.587 909.891 623.48 909.208 623.48H905.544V628.008ZM918.557 629.16C917.757 629.16 917.043 628.963 916.413 628.568C915.784 628.173 915.288 627.645 914.925 626.984C914.563 626.323 914.381 625.597 914.381 624.808C914.381 624.029 914.557 623.315 914.909 622.664C915.272 622.013 915.768 621.496 916.397 621.112C917.027 620.717 917.741 620.52 918.542 620.52C919.363 620.52 920.083 620.717 920.701 621.112C921.32 621.507 921.8 622.029 922.142 622.68C922.494 623.32 922.67 624.024 922.67 624.792C922.67 624.963 922.664 625.107 922.654 625.224H915.517C915.571 625.821 915.741 626.355 916.029 626.824C916.317 627.283 916.685 627.651 917.133 627.928C917.581 628.195 918.072 628.328 918.605 628.328C919.149 628.328 919.661 628.189 920.141 627.912C920.622 627.635 920.963 627.272 921.166 626.824L922.109 627.08C921.939 627.485 921.672 627.848 921.31 628.168C920.957 628.477 920.547 628.723 920.077 628.904C919.608 629.075 919.101 629.16 918.557 629.16ZM915.485 624.44H921.646C921.603 623.843 921.438 623.315 921.149 622.856C920.862 622.387 920.494 622.024 920.045 621.768C919.597 621.501 919.101 621.368 918.557 621.368C918.013 621.368 917.517 621.501 917.069 621.768C916.621 622.024 916.253 622.387 915.965 622.856C915.688 623.315 915.528 623.843 915.485 624.44ZM923.868 629.048V628.056C924.145 628.056 924.396 627.981 924.62 627.832C924.855 627.683 925.057 627.421 925.228 627.048C925.409 626.675 925.553 626.157 925.66 625.496C925.767 624.835 925.836 623.997 925.868 622.984L925.964 620.664H931.372V629H930.284V621.64H926.924L926.892 623.08C926.839 624.627 926.695 625.832 926.46 626.696C926.225 627.56 925.889 628.168 925.452 628.52C925.025 628.861 924.497 629.037 923.868 629.048ZM933.425 626.6C933.425 626.088 933.575 625.645 933.873 625.272C934.172 624.888 934.583 624.589 935.105 624.376C935.639 624.163 936.252 624.056 936.945 624.056C937.351 624.056 937.772 624.093 938.209 624.168C938.647 624.232 939.036 624.323 939.377 624.44V623.736C939.377 623.032 939.169 622.472 938.753 622.056C938.337 621.64 937.761 621.432 937.025 621.432C936.588 621.432 936.151 621.517 935.713 621.688C935.276 621.848 934.823 622.088 934.353 622.408L933.937 621.64C934.481 621.267 935.015 620.989 935.537 620.808C936.06 620.616 936.593 620.52 937.137 620.52C938.161 620.52 938.972 620.813 939.569 621.4C940.167 621.987 940.465 622.797 940.465 623.832V627.688C940.465 627.976 940.599 628.125 940.865 628.136V629C940.631 629.032 940.465 629.043 940.369 629.032C940.103 629.021 939.9 628.936 939.761 628.776C939.623 628.616 939.548 628.445 939.537 628.264L939.521 627.656C939.148 628.136 938.663 628.509 938.065 628.776C937.468 629.032 936.86 629.16 936.241 629.16C935.697 629.16 935.212 629.048 934.785 628.824C934.359 628.589 934.023 628.28 933.777 627.896C933.543 627.501 933.425 627.069 933.425 626.6ZM939.009 627.24C939.255 626.952 939.377 626.685 939.377 626.44V625.224C938.641 624.936 937.873 624.792 937.073 624.792C936.295 624.792 935.665 624.947 935.185 625.256C934.705 625.565 934.465 625.987 934.465 626.52C934.465 626.979 934.641 627.395 934.993 627.768C935.356 628.141 935.857 628.328 936.497 628.328C937.02 628.328 937.505 628.227 937.953 628.024C938.412 627.821 938.764 627.56 939.009 627.24ZM947.392 629.16C946.699 629.16 946.075 628.979 945.52 628.616C944.976 628.253 944.544 627.805 944.224 627.272V632.408H943.136V620.664H944.112V622.28C944.443 621.757 944.88 621.336 945.424 621.016C945.979 620.685 946.576 620.52 947.216 620.52C947.792 620.52 948.32 620.643 948.8 620.888C949.28 621.123 949.696 621.443 950.048 621.848C950.411 622.253 950.688 622.717 950.88 623.24C951.072 623.752 951.168 624.285 951.168 624.84C951.168 625.619 951.008 626.339 950.688 627C950.379 627.651 949.936 628.173 949.36 628.568C948.795 628.963 948.139 629.16 947.392 629.16ZM947.088 628.2C947.696 628.2 948.219 628.04 948.656 627.72C949.104 627.389 949.451 626.968 949.696 626.456C949.942 625.944 950.064 625.405 950.064 624.84C950.064 624.243 949.926 623.688 949.648 623.176C949.371 622.664 948.998 622.253 948.528 621.944C948.07 621.635 947.547 621.48 946.96 621.48C946.598 621.48 946.214 621.576 945.808 621.768C945.414 621.949 945.062 622.2 944.752 622.52C944.454 622.829 944.278 623.171 944.224 623.544V626.104C944.47 626.691 944.854 627.187 945.376 627.592C945.899 627.997 946.47 628.2 947.088 628.2ZM953.962 632.488C953.61 632.488 953.237 632.376 952.842 632.152L953.242 631.384C953.466 631.533 953.685 631.608 953.898 631.608C954.431 631.608 954.927 631.064 955.386 629.976L955.802 628.936L952.09 620.664H953.242L956.298 627.88L959.114 620.664H960.202L956.234 630.312C955.914 631.069 955.567 631.619 955.194 631.96C954.821 632.312 954.41 632.488 953.962 632.488ZM965.361 629.16C964.55 629.16 963.83 628.963 963.201 628.568C962.572 628.163 962.076 627.635 961.713 626.984C961.35 626.323 961.169 625.597 961.169 624.808C961.169 624.019 961.345 623.304 961.697 622.664C962.049 622.013 962.54 621.496 963.169 621.112C963.798 620.717 964.524 620.52 965.345 620.52C966.124 620.52 966.806 620.701 967.393 621.064C967.99 621.416 968.438 621.896 968.737 622.504L967.681 622.84C967.446 622.413 967.116 622.083 966.689 621.848C966.273 621.603 965.809 621.48 965.297 621.48C964.732 621.48 964.22 621.624 963.761 621.912C963.313 622.2 962.95 622.6 962.673 623.112C962.406 623.613 962.273 624.179 962.273 624.808C962.273 625.437 962.412 626.008 962.689 626.52C962.966 627.032 963.334 627.443 963.793 627.752C964.252 628.051 964.758 628.2 965.313 628.2C965.676 628.2 966.028 628.136 966.369 628.008C966.71 627.88 967.004 627.709 967.249 627.496C967.494 627.272 967.66 627.032 967.745 626.776L968.817 627.096C968.668 627.491 968.422 627.848 968.081 628.168C967.74 628.477 967.334 628.723 966.865 628.904C966.396 629.075 965.894 629.16 965.361 629.16ZM970.83 629V620.664H971.918V623.608H974.078C975.028 623.608 975.742 623.853 976.222 624.344C976.713 624.824 976.958 625.459 976.958 626.248C976.958 626.76 976.852 627.224 976.638 627.64C976.425 628.056 976.11 628.387 975.694 628.632C975.278 628.877 974.766 629 974.158 629H970.83ZM971.918 628.136H974.014C974.665 628.136 975.134 627.949 975.422 627.576C975.71 627.192 975.854 626.755 975.854 626.264C975.854 625.944 975.796 625.651 975.678 625.384C975.572 625.107 975.38 624.888 975.102 624.728C974.836 624.557 974.462 624.472 973.982 624.472H971.918V628.136Z" fill="white"/>
<path d="M915.078 643.22V656H912.612V650.546H906.816V656H904.332V643.22H906.816V648.386H912.612V643.22H915.078ZM917.117 653.21C917.117 652.598 917.285 652.064 917.621 651.608C917.969 651.14 918.449 650.78 919.061 650.528C919.673 650.276 920.375 650.15 921.167 650.15C921.563 650.15 921.965 650.186 922.373 650.258C922.781 650.318 923.135 650.408 923.435 650.528V650.024C923.435 649.424 923.255 648.962 922.895 648.638C922.547 648.314 922.025 648.152 921.329 648.152C920.813 648.152 920.321 648.242 919.853 648.422C919.385 648.602 918.893 648.866 918.377 649.214L917.603 647.63C918.227 647.222 918.863 646.916 919.511 646.712C920.171 646.508 920.861 646.406 921.581 646.406C922.925 646.406 923.969 646.742 924.713 647.414C925.469 648.086 925.847 649.046 925.847 650.294V653.3C925.847 653.564 925.889 653.75 925.973 653.858C926.057 653.954 926.207 654.014 926.423 654.038V656C926.207 656.048 926.009 656.078 925.829 656.09C925.661 656.114 925.517 656.126 925.397 656.126C924.917 656.126 924.551 656.018 924.299 655.802C924.047 655.586 923.897 655.322 923.849 655.01L923.795 654.524C923.375 655.064 922.859 655.478 922.247 655.766C921.647 656.042 921.029 656.18 920.393 656.18C919.757 656.18 919.193 656.054 918.701 655.802C918.209 655.538 917.819 655.184 917.531 654.74C917.255 654.284 917.117 653.774 917.117 653.21ZM922.985 653.696C923.285 653.408 923.435 653.132 923.435 652.868V651.914C922.811 651.662 922.181 651.536 921.545 651.536C920.909 651.536 920.393 651.674 919.997 651.95C919.601 652.214 919.403 652.568 919.403 653.012C919.403 653.372 919.547 653.696 919.835 653.984C920.123 654.272 920.537 654.416 921.077 654.416C921.437 654.416 921.785 654.35 922.121 654.218C922.469 654.086 922.757 653.912 922.985 653.696ZM934.113 656.18C933.369 656.18 932.721 656.012 932.169 655.676C931.617 655.34 931.185 654.896 930.873 654.344V659.834H928.461V646.568H930.567V648.188C930.915 647.636 931.365 647.204 931.917 646.892C932.481 646.568 933.117 646.406 933.825 646.406C934.677 646.406 935.433 646.628 936.093 647.072C936.753 647.504 937.275 648.092 937.659 648.836C938.043 649.568 938.235 650.378 938.235 651.266C938.235 652.19 938.055 653.024 937.695 653.768C937.347 654.5 936.861 655.088 936.237 655.532C935.625 655.964 934.917 656.18 934.113 656.18ZM933.303 654.128C933.795 654.128 934.221 653.996 934.581 653.732C934.953 653.456 935.241 653.102 935.445 652.67C935.661 652.226 935.769 651.758 935.769 651.266C935.769 650.738 935.655 650.264 935.427 649.844C935.199 649.412 934.887 649.076 934.491 648.836C934.107 648.584 933.663 648.458 933.159 648.458C932.703 648.458 932.247 648.608 931.791 648.908C931.335 649.208 931.029 649.586 930.873 650.042V652.256C931.089 652.784 931.419 653.228 931.863 653.588C932.307 653.948 932.787 654.128 933.303 654.128ZM944.585 656.18C943.553 656.18 942.665 655.958 941.921 655.514C941.189 655.058 940.625 654.458 940.229 653.714C939.833 652.97 939.635 652.166 939.635 651.302C939.635 650.426 939.833 649.616 940.229 648.872C940.637 648.128 941.207 647.534 941.939 647.09C942.683 646.634 943.565 646.406 944.585 646.406C945.605 646.406 946.481 646.634 947.213 647.09C947.957 647.534 948.527 648.128 948.923 648.872C949.319 649.616 949.517 650.426 949.517 651.302C949.517 652.166 949.319 652.97 948.923 653.714C948.527 654.458 947.957 655.058 947.213 655.514C946.481 655.958 945.605 656.18 944.585 656.18ZM942.119 651.302C942.119 651.854 942.227 652.346 942.443 652.778C942.659 653.198 942.953 653.528 943.325 653.768C943.697 654.008 944.117 654.128 944.585 654.128C945.041 654.128 945.455 654.008 945.827 653.768C946.199 653.516 946.493 653.18 946.709 652.76C946.937 652.328 947.051 651.836 947.051 651.284C947.051 650.744 946.937 650.264 946.709 649.844C946.493 649.412 946.199 649.076 945.827 648.836C945.455 648.584 945.041 648.458 944.585 648.458C944.117 648.458 943.697 648.584 943.325 648.836C942.953 649.076 942.659 649.412 942.443 649.844C942.227 650.264 942.119 650.75 942.119 651.302ZM952.557 660.068C952.305 660.068 952.047 660.038 951.783 659.978C951.531 659.918 951.237 659.828 950.901 659.708L951.369 657.8C951.729 657.956 952.047 658.034 952.323 658.034C952.959 658.034 953.415 657.596 953.691 656.72L953.979 655.946L950.163 646.568H952.665L955.203 653.534L957.435 646.568H959.739L955.887 657.35C955.575 658.214 955.119 658.88 954.519 659.348C953.931 659.828 953.277 660.068 952.557 660.068ZM954.987 645.686C954.063 645.686 953.337 645.452 952.809 644.984C952.281 644.504 952.017 643.892 952.017 643.148H953.511C953.511 643.508 953.625 643.808 953.853 644.048C954.093 644.288 954.471 644.408 954.987 644.408C955.491 644.408 955.851 644.294 956.067 644.066C956.295 643.838 956.433 643.532 956.481 643.148H957.975C957.975 643.892 957.711 644.504 957.183 644.984C956.655 645.452 955.923 645.686 954.987 645.686ZM960.726 656.126V653.984C961.11 653.972 961.44 653.846 961.716 653.606C962.004 653.366 962.232 652.928 962.4 652.292C962.568 651.656 962.676 650.738 962.724 649.538L962.85 646.568H969.924V656H967.512V648.674H964.974L964.938 649.772C964.866 651.416 964.668 652.7 964.344 653.624C964.032 654.536 963.576 655.178 962.976 655.55C962.376 655.922 961.626 656.114 960.726 656.126ZM971.971 656L974.365 652.328C973.789 652.172 973.339 651.866 973.015 651.41C972.691 650.954 972.529 650.354 972.529 649.61C972.529 648.686 972.841 647.942 973.465 647.378C974.089 646.814 974.899 646.532 975.895 646.532H980.377V656H977.965V652.742H976.687L974.617 656H971.971ZM976.183 651.014H977.965V648.386H976.273C975.841 648.386 975.499 648.506 975.247 648.746C974.995 648.974 974.869 649.286 974.869 649.682C974.869 650.066 974.977 650.384 975.193 650.636C975.421 650.888 975.751 651.014 976.183 651.014Z" fill="black"/>
<rect x="860.95" y="649.044" width="5.02082" height="5.02082" transform="rotate(-45 860.95 649.044)" fill="#F0C235"/>
<path d="M893.748 597.924C892.178 584.447 881.318 573.849 867.841 572.279C850.047 570.316 835 584.316 835 601.718C835 613.363 841.673 623.438 851.486 628.148C855.019 629.849 862.608 633.644 864.178 638.747C864.309 639.008 864.701 639.008 864.701 638.747C866.271 633.513 873.86 629.849 877.393 628.148C888.384 622.915 895.449 611.139 893.748 597.924ZM864.57 607.999C861.168 607.999 858.29 605.251 858.29 601.718C858.29 598.316 861.038 595.438 864.57 595.438C868.103 595.438 870.851 598.186 870.851 601.718C870.72 605.251 867.972 607.999 864.57 607.999Z" fill="#F0C235"/>
</svg>
