<svg width="20" height="14" viewBox="0 0 20 14" fill="none" xmlns="http://www.w3.org/2000/svg">
<path d="M8 12L6.58579 13.4142C7.36683 14.1953 8.63316 14.1953 9.41421 13.4142L8 12ZM19.4142 3.41421C20.1953 2.63317 20.1953 1.36684 19.4142 0.585787C18.6332 -0.195262 17.3668 -0.195262 16.5858 0.585786L19.4142 3.41421ZM3.41421 4.58579C2.63317 3.80474 1.36683 3.80474 0.585786 4.58579C-0.195262 5.36683 -0.195262 6.63316 0.585786 7.41421L3.41421 4.58579ZM9.41421 13.4142L19.4142 3.41421L16.5858 0.585786L6.58579 10.5858L9.41421 13.4142ZM0.585786 7.41421L6.58579 13.4142L9.41421 10.5858L3.41421 4.58579L0.585786 7.41421Z" fill="white"/>
</svg>
